<?xml version="1.0" encoding="utf-8"?>
<!-- Generator: Adobe Illustrator 19.1.1, SVG Export Plug-In . SVG Version: 6.00 Build 0)  -->
<svg version="1.2" baseProfile="tiny" id="Layer_1" xmlns="http://www.w3.org/2000/svg" xmlns:xlink="http://www.w3.org/1999/xlink"
	 x="0px" y="0px" viewBox="0 0 283.5 283.5" xml:space="preserve">
<line fill="none" stroke="#010101" stroke-miterlimit="10" x1="98.8" y1="282.2" x2="117.4" y2="210.7"/>
<line fill="none" stroke="#010101" stroke-miterlimit="10" x1="145.4" y1="210.7" x2="164" y2="282.2"/>
<line fill="none" stroke="#010101" stroke-miterlimit="10" x1="91" y1="210.7" x2="168.7" y2="210.7"/>
<path fill="none" stroke="#020202" stroke-miterlimit="10" d="M198.9,140.3c-20.3-4.2-69.1,56.7-60,67.4c9.4,3.9,23.6,2.6,40.2-4.3
	c-6.5-26.2,38-36.3,39-45.5L198.9,140.3z"/>
<path fill="none" stroke="#020202" stroke-miterlimit="10" d="M141.2,208.4l70.6,15.7l-30.9,46.1l2.7,11.4"/>
<path fill="none" stroke="#020202" stroke-miterlimit="10" d="M175.1,205.3l47.6,7.8L209,272.7l10.8,8.9"/>
<path fill="none" stroke="#020202" stroke-miterlimit="10" d="M189.9,151.3l-28.6,37.8l31.9,10c0,0-0.9,5.1,3,6
	c3.9,0.9,5.9-1.6,5.4-5.1c-0.5-3.5-4.4-3.5-7.2-2.2"/>
<path fill="none" stroke="#020202" stroke-miterlimit="10" d="M215.3,162l-5.9,47.9l35.1,2.9c0,0,4.7-4.8,8.7-0.7
	c2.8,2,1.5,6-1.1,7.8c-2.7,2-7.6,0.3-8.4-4.2"/>
<path fill="none" stroke="#020202" stroke-miterlimit="10" d="M216.7,149.8c14.5,6.6,25.9,1.4,31-10c5.1-11.5,7.1-26.5-6.3-33.3
	c-13.4-6.8-26.5-0.9-31.3,9.4C205.5,126.2,201.2,142.8,216.7,149.8z"/>
<line fill="none" stroke="#020202" stroke-miterlimit="10" x1="225.7" y1="119.8" x2="230.9" y2="121.5"/>
<line fill="none" stroke="#020202" stroke-miterlimit="10" x1="227.4" y1="125.7" x2="226.6" y2="128.1"/>
<line fill="none" stroke="#020202" stroke-miterlimit="10" x1="239.6" y1="129.6" x2="238.9" y2="132"/>
<line fill="none" stroke="#020202" stroke-miterlimit="10" x1="239.1" y1="124.1" x2="244.3" y2="125.7"/>
<path fill="none" stroke="#020202" stroke-miterlimit="10" d="M65.1,156.9l12.7-12.7c23.1,3.3,52.1,39.9,52,60
	c-0.1,7.1-41.2,8-44.4,3.9c-3.2-4.1,11.1-21.5,5.6-29.8C85.8,170.7,65.9,168.1,65.1,156.9z"/>
<path fill="none" stroke="#020202" stroke-miterlimit="10" d="M110.3,210.4l-32.8,28.2l39.9,31.3l-4.1,11.7"/>
<path fill="none" stroke="#020202" stroke-miterlimit="10" d="M88.3,209.3l-39.4,18.4l30.1,41.7l-7.9,12.3"/>
<path fill="none" stroke="#020202" stroke-miterlimit="10" d="M71.1,165.8l-5.3,52.7l-26.5-48.6c-3.6-7.1,5.2-9.4,6.6-5
	c1.4,4.4-2.1,4.8-2.1,4.8"/>
<path fill="none" stroke="#020202" stroke-miterlimit="10" d="M67,149.3c6.3-14.6-0.7-24.3-12.2-29.2c-11.5-4.8-25.9-2.3-31,11.8
	c-4.4,12,2.6,22.1,12.9,26.6S60.3,163.6,67,149.3z"/>
<line fill="none" stroke="#020202" stroke-miterlimit="10" x1="39.1" y1="138.3" x2="42.5" y2="135"/>
<line fill="none" stroke="#020202" stroke-miterlimit="10" x1="32" y1="150.8" x2="33" y2="146.3"/>
<line fill="none" stroke="#020202" stroke-miterlimit="10" x1="44.8" y1="140.3" x2="49.1" y2="142.2"/>
<line fill="none" stroke="#020202" stroke-miterlimit="10" x1="37.6" y1="150" x2="41.9" y2="152"/>
<path fill="none" stroke="#020202" stroke-miterlimit="10" d="M93.6,158.7l10.6,54.7l-36.6,19.3c-7.9,0.5-6.6-8.5-2-8
	c4.6,0.5,3.6,3.8,3.6,3.8"/>
</svg>
