<?xml version="1.0" encoding="utf-8"?>
<!-- Generator: Adobe Illustrator 19.1.1, SVG Export Plug-In . SVG Version: 6.00 Build 0)  -->
<svg version="1.2" baseProfile="tiny" id="Layer_1" xmlns="http://www.w3.org/2000/svg" xmlns:xlink="http://www.w3.org/1999/xlink"
	 x="0px" y="0px" viewBox="0 0 283.5 283.5" xml:space="preserve">
<path fill="none" stroke="#020202" stroke-miterlimit="10" d="M79.4,197.8c5.5,2.6,8.8,4.8,9.4,12.4c0.7,7.7-5.3,16.2-10.8,18.5
	c-6.7,2.9-15,0.6-19.6-6c-5.1-7.4-1.1-19.5,3.2-22.7C66.1,196.9,73.9,195.3,79.4,197.8z"/>
<path fill="none" stroke="#020202" stroke-miterlimit="10" d="M57.2,207l-4.7,1.8l-17,36.8c1.7,2.2,0.4,4.1-1.5,4.9
	s-5.3-0.6-4.5-3.1s4.1-3.8,5.2-2.7"/>
<path fill="none" stroke="#020202" stroke-miterlimit="10" d="M90.8,193.6l-11.4,4.2"/>
<path fill="none" stroke="#020202" stroke-miterlimit="10" d="M58.2,265.4c-1.4-0.8-4.3-0.2-4.8,2.1c-0.7,2.8,1.8,5.6,4.5,5.3
	c2.9-0.9,3.9-4.5,1.8-6.8L78,228.7"/>
<path fill="none" stroke="#020202" stroke-miterlimit="10" d="M75.1,229.6c1.4,6.7,8.9,2.3,8.1,8"/>
<path fill="none" stroke="#020202" stroke-miterlimit="10" d="M81.6,226.5c1.4,5.4,7.8,1,8.7,6"/>
<path fill="none" stroke="#020202" stroke-miterlimit="10" d="M85.9,221.1c3.5,6.4,6.5,0.1,9.2,5.7"/>
<path fill="none" stroke="#020202" stroke-miterlimit="10" d="M88.2,215.8c5,7.3,7.3,1.5,9.9,3.9"/>
<path fill="none" stroke="#020202" stroke-miterlimit="10" d="M83,199.7c8-11,69.8-34.3,103.6-13.3l38.8,28.4l18,46.7l10.7,6.2"/>
<polyline fill="none" stroke="#020202" stroke-miterlimit="10" points="186.6,186.4 235.8,208.1 230.9,270.3 238.5,279.4 "/>
<line fill="none" stroke="#020202" stroke-miterlimit="10" x1="90.8" y1="193.3" x2="87.4" y2="204.4"/>
<line fill="none" stroke="#020202" stroke-miterlimit="10" x1="62.3" y1="212.3" x2="64.4" y2="213.8"/>
<line fill="none" stroke="#020202" stroke-miterlimit="10" x1="73.5" y1="219.1" x2="75.5" y2="220.3"/>
<path fill="none" stroke="#020202" stroke-miterlimit="10" d="M134.5,204.4"/>
<line fill="none" stroke="#020202" stroke-miterlimit="10" x1="176.5" y1="143.1" x2="128.6" y2="212.8"/>
<line fill="none" stroke="#020202" stroke-miterlimit="10" x1="149.4" y1="179.8" x2="143.1" y2="184.8"/>
<line fill="none" stroke="#020202" stroke-miterlimit="10" x1="145.3" y1="180.4" x2="136.7" y2="183.9"/>
<line fill="none" stroke="#020202" stroke-miterlimit="10" x1="152.3" y1="181.5" x2="151.5" y2="193.6"/>
<line fill="none" stroke="#020202" stroke-miterlimit="10" x1="153.5" y1="179.6" x2="155.5" y2="187.1"/>
<line fill="none" stroke="#020202" stroke-miterlimit="10" x1="155.3" y1="179.9" x2="160" y2="184"/>
<line fill="none" stroke="#020202" stroke-miterlimit="10" x1="148.7" y1="193" x2="148.4" y2="195.5"/>
<line fill="none" stroke="#020202" stroke-miterlimit="10" x1="140.8" y1="189" x2="139" y2="190.9"/>
<line fill="none" stroke="#020202" stroke-miterlimit="10" x1="138.7" y1="185.8" x2="136.5" y2="187.3"/>
<line fill="none" stroke="#020202" stroke-miterlimit="10" x1="159" y1="189" x2="160.1" y2="191.7"/>
</svg>
