<?xml version="1.0" encoding="utf-8"?>
<!-- Generator: Adobe Illustrator 19.1.1, SVG Export Plug-In . SVG Version: 6.00 Build 0)  -->
<svg version="1.2" baseProfile="tiny" id="Layer_1" xmlns="http://www.w3.org/2000/svg" xmlns:xlink="http://www.w3.org/1999/xlink"
	 x="0px" y="0px" viewBox="0 0 283.5 283.5" xml:space="preserve">
<path fill="none" stroke="#030303" stroke-miterlimit="10" d="M126,163.3c-6.6,1.7-11.7-0.5-15.2-5.1c-5-6.1-4.5-16.3-1.6-21.9
	c3.5-6.9,11.3-10.4,18.7-7.9c8.3,2.9,10.7,14.6,10.6,21.3C138.4,156.4,132.6,161.6,126,163.3z"/>
<path fill="none" stroke="#030303" stroke-miterlimit="10" d="M67.6,265.4l5.7-7.8l5.3-34.5l32.9,0.5"/>
<path fill="none" stroke="#030303" stroke-miterlimit="10" d="M76.3,219.6l8.8,3.9l16.3-30.4l10.1,30.5c0,0,24.2-42.2,16.2-60.8"/>
<path fill="none" stroke="#030303" stroke-miterlimit="10" d="M130.8,218.8c0,0,2.3,1.7,1.1,3.6c-1.3,2-4,2.4-5.4,0.7
	c-1-1.2-1-3.8,2.6-4.6l3.6-27.1l-3.9-24.4l-0.5,26.2l-11.6,23.5c0,0-3.2,1.9-2.9,4.1c0.2,2.8,3.3,4.1,5,2.4c2-1.8,1.3-4,0-5.6"/>
<line fill="none" stroke="#030303" stroke-miterlimit="10" x1="120.5" y1="146.7" x2="121.3" y2="148.2"/>
<line fill="none" stroke="#030303" stroke-miterlimit="10" x1="111.1" y1="150.8" x2="111.9" y2="152.2"/>
<path fill="none" stroke="#030303" stroke-miterlimit="10" d="M135,134.9c3,3.2,4.9,8.3,4.9,8.3"/>
<path fill="none" stroke="#030303" stroke-miterlimit="10" d="M137.8,143.2c3.4,4.1,2.4,7.5,2.4,7.5"/>
<path fill="none" stroke="#030303" stroke-miterlimit="10" d="M138.3,151.6c0,4,1.6,5.9,1.6,5.9"/>
<path fill="none" stroke="#030303" stroke-miterlimit="10" d="M135.9,157c1.5,1.6,1.6,6.1,1.6,6.1"/>
<polyline fill="none" stroke="#030303" stroke-miterlimit="10" points="83.5,224.5 83.5,283.5 144.2,283.5 144.2,224.5 83.5,224.5 
	"/>
<polyline fill="none" stroke="#030303" stroke-miterlimit="10" points="146.8,224.5 146.8,283.5 213.8,283.5 213.8,224.5 
	146.8,224.5 "/>
<polyline fill="none" stroke="#030303" stroke-miterlimit="10" points="150.6,136.3 139.9,164.6 139.9,223.6 200.6,223.6 
	200.6,164.6 139.9,164.6 "/>
<line fill="none" stroke="#030303" stroke-miterlimit="10" x1="228.9" y1="151.6" x2="200.6" y2="164.6"/>
</svg>
