<?xml version="1.0" encoding="utf-8"?>
<!-- Generator: Adobe Illustrator 19.1.1, SVG Export Plug-In . SVG Version: 6.00 Build 0)  -->
<svg version="1.2" baseProfile="tiny" id="Layer_1" xmlns="http://www.w3.org/2000/svg" xmlns:xlink="http://www.w3.org/1999/xlink"
	 x="0px" y="0px" viewBox="0 0 283.5 283.5" xml:space="preserve">
<path fill="none" stroke="#030303" stroke-miterlimit="10" d="M177.8,269c-6,2-9.2-2.7-15-3.1l-69.4-3.2c-11,0.2-40,7.5-28.8,18.8"
	/>
<path fill="none" stroke="#030303" stroke-miterlimit="10" d="M153.9,265.5l-17,14.8L173,279c0,0,2-3.4,4.9-2
	c2.3,1.1,2.2,4.5,0.1,5.6c-2.4,1.2-4.8-2.5-4.8-2.5"/>
<path fill="none" stroke="#030303" stroke-miterlimit="10" d="M181.4,277.8c0,0,2.3,2.4,4.9,2c3.8-0.6,2.1-4.8,0.3-5.5
	c-3.6-1.5-5.8,2.2-5.8,2.2l-31.2-1.5l13.2-9"/>
<path fill="none" stroke="#030303" stroke-miterlimit="10" d="M96,262.8l-21.7,14.9l25.7,1.9c0,0,2.4-3.5,5.1-2.8
	c2.7,0.8,2.6,5.3,0.3,6.2c-2.6,1.1-5.5-1.8-5.5-1.8"/>
<path fill="none" stroke="#030303" stroke-miterlimit="10" d="M115.2,278c0,0,3.1,3.6,5.7,2c2.7-1.7,1.9-6-0.8-6.2
	c-2.7-0.2-4.7,2.3-4.7,2.3l-26.8-1.5l13.3-11.6"/>
<path fill="none" stroke="#030303" stroke-miterlimit="10" d="M167,263c4.6,3.9,11.1,5.4,17.7,10c6.7,3.9,16.2,0.8,18.1-6.8
	s0.8-17.9-8.8-22.9c-10.3-5.2-21.6-5.1-27.1,1.4C162.6,250.6,163.1,259.7,167,263z"/>
<path fill="none" stroke="#030303" stroke-miterlimit="10" d="M164.3,241.5c4.2-6.2,12.9-7,16.6-1.8"/>
<path fill="none" stroke="#030303" stroke-miterlimit="10" d="M189.4,238.9c8.5,1,11.3,6.2,12.5,12.5"/>
<path fill="none" stroke="#030303" stroke-miterlimit="10" d="M171.2,253.8c1.4,2.5,4.7,4.1,8.4,3.9"/>
<path fill="none" stroke="#030303" stroke-miterlimit="10" d="M187.7,260.4c1.7,2.5,5.2,4,8.1,3.4"/>
</svg>
