<?xml version="1.0" encoding="utf-8"?>
<!-- Generator: Adobe Illustrator 19.1.1, SVG Export Plug-In . SVG Version: 6.00 Build 0)  -->
<svg version="1.2" baseProfile="tiny" id="Layer_1" xmlns="http://www.w3.org/2000/svg" xmlns:xlink="http://www.w3.org/1999/xlink"
	 x="0px" y="0px" viewBox="0 0 283.5 283.5" xml:space="preserve">
<path fill="none" stroke="#030303" stroke-miterlimit="10" d="M172.1,174.8c-6.8,8.9-8.5,16.1-18.5,20.8
	c-25.4,14.7-39.5,47.5-51.1,44.7"/>
<path fill="none" stroke="#030303" stroke-miterlimit="10" d="M192.3,188c0.7-3.2,4.1-3.8,5.8-2.3c1.7,1.5,2.1,5.4-0.3,6
	c-2.7,0.7-5.1-1.8-5.1-1.8l-17.9,14.5l-24.8-6.6l22.4,13.5l25.6-11.2c0,0,0.5,3.7,3.4,4.2c2.6,0.4,4.9-3.6,3.6-5.8
	c-1.3-2.2-5.7-2.1-6.4,0"/>
<path fill="none" stroke="#030303" stroke-miterlimit="10" d="M91.2,270.5c0,0,2.4-0.4,3.1,2.1c0.7,2.5-2.2,5.4-5.2,3.6
	c-3.2-1.8,0.1-5.5,0.1-5.5l27.5-19.3l1.8-22l8.2,22.8l-22.1,22.5c-1.2,1.6-1.8,2.9-0.7,4.4c1.8,2.2,5.1,2.4,6.1-1.1
	c0.5-2.6-1.5-3.7-3.9-3.3"/>
<path fill="none" stroke="#030303" stroke-miterlimit="10" d="M108.4,230.1c-1.4,5.1-6.7,9.3-8.7,16c-2.3,7.4-11.2,8.6-16.4,4.3
	c-5.1-4.4-9.5-12.4-5.2-20.8c4.7-8.9,12.9-14.5,20.1-12.5C104.4,219,109.7,225.7,108.4,230.1z"/>
<path fill="none" stroke="#030303" stroke-miterlimit="10" d="M86.9,219.6c-0.7-4.8,2.3-6.8,6.9-10.3"/>
<path fill="none" stroke="#030303" stroke-miterlimit="10" d="M76.4,236.1c-3.1-4.6,1.1-12.8,5.2-16.2"/>
<line fill="none" stroke="#030303" stroke-miterlimit="10" x1="84.1" y1="242" x2="84.6" y2="244.2"/>
<line fill="none" stroke="#030303" stroke-miterlimit="10" x1="90.8" y1="234.6" x2="91.3" y2="237.3"/>
</svg>
