<?xml version="1.0" encoding="utf-8"?>
<!-- Generator: Adobe Illustrator 19.1.1, SVG Export Plug-In . SVG Version: 6.00 Build 0)  -->
<svg version="1.2" baseProfile="tiny" id="Layer_1" xmlns="http://www.w3.org/2000/svg" xmlns:xlink="http://www.w3.org/1999/xlink"
	 x="0px" y="0px" viewBox="-453 155.8 283.5 283.5" xml:space="preserve">
<path fill="none" stroke="#010101" stroke-miterlimit="10" d="M-362.9,396c2.6,25.4,18.9,38.1,34,38.8c1.8-31,11.3-52.2,30.2-71.6"
	/>
<path fill="none" stroke="#010101" stroke-miterlimit="10" d="M-290.8,424.5c0,0,3.3,3.6,6.3,2.4c2.9-1.3,3.8-5.8,0-7.5
	c-3.8-1.8-6.4,2.9-6.4,2.9l-17.6-0.7l-20.4,13.2l23.2-5.4l18.1,3.9c0,0,3.1-3.9,6.8-2.6c3.8,1.3,2.6,6.1,0,6.9
	c-3.8,1.1-6.4-2.8-6.4-2.8"/>
<path fill="none" stroke="#010101" stroke-miterlimit="10" d="M-284,407c0,0-2.4,2.4,0,5.1c2.4,2.8,7.9,1.7,8.2-3.1
	c0.4-5.1-6.4-4.2-6.4-4.2l-14.9-10.9l-9.6-21.9v24.3l9.8,14c0,0,4.6-2.2,5.8,1.9c1.3,4.2-1.5,8.2-6.4,6c-3.3-1.5-1.1-6.8-1.1-6.8"/>
<path fill="none" stroke="#010101" stroke-miterlimit="10" d="M-315,358.6c6.3,3.9,15.7,3.1,24,7.9c9.3,5.3,19.6-1.9,20.7-11.3
	c1-9.3-2.1-21.7-14.5-26c-13.3-4.6-26.8-2.4-32.2,6.4C-321.5,343.5-320.4,355.3-315,358.6z"/>
<path fill="none" stroke="#010101" stroke-miterlimit="10" d="M-308.6,328.9c-3.8-8.3-15-15.4-24.2-1.9"/>
<path fill="none" stroke="#010101" stroke-miterlimit="10" d="M-272.9,339.8c12.4-4.9,23.2,1.8,19.6,10"/>
<path fill="none" stroke="#010101" stroke-miterlimit="10" d="M-310.7,343.9c3.8-7.2,11.5-8.1,13.6,1.5"/>
<path fill="none" stroke="#010101" stroke-miterlimit="10" d="M-290.8,346.7c4.4-8.6,11.8-3.5,12.6,4"/>
<path fill="none" stroke="#010101" stroke-miterlimit="10" d="M-319.2,352.1c-10.3,8.9-9.6,18.8,6.4,7.6"/>
<line fill="none" stroke="#010101" stroke-miterlimit="10" x1="-317.1" y1="356.7" x2="-321.9" y2="360.3"/>
</svg>
