<?xml version="1.0" encoding="utf-8"?>
<!-- Generator: Adobe Illustrator 19.1.1, SVG Export Plug-In . SVG Version: 6.00 Build 0)  -->
<svg version="1.2" baseProfile="tiny" id="Layer_1" xmlns="http://www.w3.org/2000/svg" xmlns:xlink="http://www.w3.org/1999/xlink"
	 x="0px" y="0px" viewBox="0 0 283.5 283.5" xml:space="preserve">
<path fill="none" stroke="#020202" stroke-miterlimit="10" d="M119.6,145.5c-12.3,8.7-19,53.8-14,65.5c3.8,5.1,18.3,7.8,33.3,0
	c-4.7-19,3.3-65.5,3.3-65.5H119.6z"/>
<path fill="none" stroke="#020202" stroke-miterlimit="10" d="M109.8,214.1l9.4,66.3l15,3.1"/>
<path fill="none" stroke="#020202" stroke-miterlimit="10" d="M129.2,214.7l17,65.6l16.3,3.1"/>
<path fill="none" stroke="#020202" stroke-miterlimit="10" d="M116,149.2l-29.4,11.6l20.7,34.6c0,0-2.5,3-1.3,4.6c1.1,1.6,3.8,2,5,0
	c0.8-1.4,0.8-3.8-2.5-4.4"/>
<path fill="none" stroke="#020202" stroke-miterlimit="10" d="M141.3,151.1l38.9-5.9c0,0,0.8-5.1,3.2-5.2c3.7-0.1,4,1.8,4.1,3.6
	c0.1,3.1-3.1,5.7-5.6,3.1"/>
<path fill="none" stroke="#020202" stroke-miterlimit="10" d="M130.1,141.5c11.4,1.4,18.2-4.7,19.2-13.7s-0.9-19.8-11.6-21.6
	c-10.7-1.8-18.5,5.2-19.5,13.3C117.2,127.6,117.9,140,130.1,141.5z"/>
<line fill="none" stroke="#020202" stroke-miterlimit="10" x1="128.4" y1="115.5" x2="133.7" y2="117.5"/>
<line fill="none" stroke="#020202" stroke-miterlimit="10" x1="132.2" y1="120.2" x2="132.2" y2="122"/>
<line fill="none" stroke="#020202" stroke-miterlimit="10" x1="141.5" y1="120.2" x2="141.5" y2="122"/>
<line fill="none" stroke="#020202" stroke-miterlimit="10" x1="139.9" y1="117.5" x2="144.7" y2="115.5"/>
</svg>
