<?xml version="1.0" encoding="utf-8"?>
<!-- Generator: Adobe Illustrator 19.1.1, SVG Export Plug-In . SVG Version: 6.00 Build 0)  -->
<svg version="1.2" baseProfile="tiny" id="Layer_1" xmlns="http://www.w3.org/2000/svg" xmlns:xlink="http://www.w3.org/1999/xlink"
	 x="0px" y="0px" viewBox="0 0 283.5 283.5" xml:space="preserve">
<path fill="none" stroke="#030303" stroke-miterlimit="10" d="M155.1,146.8c8.4,10.7,13.8,53.8,9,65.5c-5.2,3.4-15.2,5.5-30,1
	c2.3-18.8,0.6-66.5,0.6-66.5H155.1z"/>
<path fill="none" stroke="#030303" stroke-miterlimit="10" d="M158.9,214.6l-6.2,31.2l8.2,37h-9"/>
<path fill="none" stroke="#030303" stroke-miterlimit="10" d="M139.2,214.6l-7.7,31.2l8,36l-9.3,1.6"/>
<path fill="none" stroke="#030303" stroke-miterlimit="10" d="M153.6,153.1l-16.5,5.9l16.5-25.6c3.8,0.3,4.4-4.9,3-7
	c-1-1.5-5.1-0.8-6.2,1.6c-0.8,1.9-0.1,4.3,1.5,5"/>
<path fill="none" stroke="#030303" stroke-miterlimit="10" d="M135.2,168l-3.3,11.4l-21.7,19.2c0,0-1.9-1.3-3.7-1.1
	c-1.7,0.2-2.8,1.2-2.8,3.2c0,2.5,4.6,3.5,6.8,0.6"/>
<path fill="none" stroke="#030303" stroke-miterlimit="10" d="M143,143.1c-11-0.6-16.4-7.7-15.7-16.7c0.6-9,4.4-19.3,14.8-19.3
	c10.4,0,16.6,8.3,16.1,16.4C157.7,131.6,154.8,143.7,143,143.1z"/>
<line fill="none" stroke="#030303" stroke-miterlimit="10" x1="146.2" y1="120.6" x2="142" y2="119.8"/>
<line fill="none" stroke="#030303" stroke-miterlimit="10" x1="142.6" y1="123" x2="142.2" y2="124.7"/>
<line fill="none" stroke="#030303" stroke-miterlimit="10" x1="133.2" y1="121.4" x2="132.9" y2="123.2"/>
<line fill="none" stroke="#030303" stroke-miterlimit="10" x1="135.1" y1="118.4" x2="131.3" y2="118"/>
<polyline fill="none" stroke="#030303" stroke-miterlimit="10" points="151.2,132.5 147,131.2 151.3,117.2 157.9,119.5 156.3,126.1 
	"/>
</svg>
