<?xml version="1.0" encoding="utf-8"?>
<!-- Generator: Adobe Illustrator 19.1.1, SVG Export Plug-In . SVG Version: 6.00 Build 0)  -->
<svg version="1.2" baseProfile="tiny" id="Layer_1" xmlns="http://www.w3.org/2000/svg" xmlns:xlink="http://www.w3.org/1999/xlink"
	 x="0px" y="0px" viewBox="0 0 283.5 283.5" xml:space="preserve">
<path fill="none" stroke="#030303" stroke-miterlimit="10" d="M162.1,145.8c8.4,10.7,13.8,53.8,9,65.5c-5.2,3.4-15.2,5.5-30,1
	c2.3-18.8,0.6-66.5,0.6-66.5H162.1z"/>
<path fill="none" stroke="#030303" stroke-miterlimit="10" d="M165.9,213.7l-6.2,31.2l8.2,38h-9"/>
<path fill="none" stroke="#030303" stroke-miterlimit="10" d="M146.2,213.7l-7.7,31.2l8.8,37.6l-9.4,0.9"/>
<path fill="none" stroke="#030303" stroke-miterlimit="10" d="M158.3,152l-22.1,27.5l-26.1-15.8c-5.1,3.3-7.8-1.4-6.8-4.4
	s5.3-4.2,7.9-1.6c2.5,2.5,0.1,5.2,0.1,5.2"/>
<path fill="none" stroke="#030303" stroke-miterlimit="10" d="M142.3,183.7l-7.4,19.1c0,0-3.4,0.9-3.9,2.7c-0.7,2.2,0.5,4.2,2.5,4.6
	c3.6,0.8,6.5-2.7,3.1-6.2"/>
<path fill="none" stroke="#030303" stroke-miterlimit="10" d="M153,141.4c-10.3,4-18.1-0.3-21.2-8.9c-3.1-8.5-3.9-19.4,5.6-23.6
	c9.5-4.2,18.5,0.8,21.4,8.4C161.7,125,164,137.2,153,141.4z"/>
<path fill="none" stroke="#030303" stroke-miterlimit="10" d="M147.7,121c-1-1.8-2.8-2.1-4.2-0.5"/>
<line fill="none" stroke="#030303" stroke-miterlimit="10" x1="145.1" y1="123.6" x2="145.5" y2="125.6"/>
<line fill="none" stroke="#030303" stroke-miterlimit="10" x1="135.7" y1="125.9" x2="136.1" y2="127.9"/>
<path fill="none" stroke="#030303" stroke-miterlimit="10" d="M136.2,122.4c-1.2-1.4-3.7-0.2-3.7,1.9"/>
<polyline fill="none" stroke="#030303" stroke-miterlimit="10" points="111.9,158.8 114.8,156.1 101.5,143.2 94.6,149.7 
	103.8,158.4 "/>
</svg>
