<?xml version="1.0" encoding="utf-8"?>
<!-- Generator: Adobe Illustrator 19.1.1, SVG Export Plug-In . SVG Version: 6.00 Build 0)  -->
<svg version="1.2" baseProfile="tiny" id="Layer_1" xmlns="http://www.w3.org/2000/svg" xmlns:xlink="http://www.w3.org/1999/xlink"
	 x="0px" y="0px" viewBox="0 0 283.5 283.5" xml:space="preserve">
<path fill="none" stroke="#020202" stroke-miterlimit="10" d="M130.3,144.9c-7.3,11.5-9.8,54.7-8.4,66.4c7.3,2.2,16.8,2.3,27.7-0.9
	l3.3-65.5H130.3z"/>
<path fill="none" stroke="#020202" stroke-miterlimit="10" d="M126.4,212.3l5.9,34.1l-2.8,36.4h6.1l5-0.7"/>
<path fill="none" stroke="#020202" stroke-miterlimit="10" d="M144.7,211.6l5.3,33.9l-1.7,37.3h11.3"/>
<path fill="none" stroke="#020202" stroke-miterlimit="10" d="M127,153.1l-14.2,25l0.1,29.7c-2.4,1.6-3,3.5-2.4,5.2
	c0.8,2.5,5.5,1.7,6.3-0.2c0.7-1.6,1.1-4.1-2.2-4.7"/>
<path fill="none" stroke="#020202" stroke-miterlimit="10" d="M152.5,151.9l25.2-0.9l-8.9-20.4c0,0-4.3,3.6-6.6,0.6
	c-2.8-3.7,0.7-7.7,3.5-7.7c2.9,0,5.4,2.5,4.1,6"/>
<path fill="none" stroke="#020202" stroke-miterlimit="10" d="M139.5,140.4c11.5,0.5,17.8-6.1,18.1-15.2s-2.5-19.7-13.3-20.6
	c-10.8-0.9-18,6.7-18.4,14.8C125.6,127.5,127.2,139.9,139.5,140.4z"/>
<line fill="none" stroke="#020202" stroke-miterlimit="10" x1="138.7" y1="116.9" x2="143.9" y2="117.3"/>
<line fill="none" stroke="#020202" stroke-miterlimit="10" x1="143" y1="119.7" x2="143.1" y2="121.5"/>
<line fill="none" stroke="#020202" stroke-miterlimit="10" x1="151.9" y1="119" x2="152" y2="120.8"/>
<line fill="none" stroke="#020202" stroke-miterlimit="10" x1="150.3" y1="116.9" x2="154.5" y2="115.5"/>
<line fill="none" stroke="#020202" stroke-miterlimit="10" x1="166.7" y1="127.6" x2="176.6" y2="125.5"/>
<path fill="none" stroke="#020202" stroke-miterlimit="10" d="M180.4,124.1c2.7-1.6,6.9-6.2,5.8-8.5c-1.1-2.3-2.1-8.1,0-10
	c2.1-1.9,0.7-6.4,4.9-8.6c4.2-2.3-2.9-8.4-2.9-11.5c0-3.1,8.5-1,6.9-4.4c-1.6-3.3-1.4-8.2,1.3-9.9c2.7-1.7-3.4-11.6-6.8-8.3
	c-3.3,3.3-10,1.7-11.3,4c-1.3,2.3-0.1,5.5,3.8,7.9c3.8,2.4-1.4,5.9-3.8,8.5c-2.4,2.6,9.6,3,12,6.8"/>
</svg>
