<?xml version="1.0" encoding="utf-8"?>
<!-- Generator: Adobe Illustrator 19.1.1, SVG Export Plug-In . SVG Version: 6.00 Build 0)  -->
<svg version="1.2" baseProfile="tiny" id="Layer_1" xmlns="http://www.w3.org/2000/svg" xmlns:xlink="http://www.w3.org/1999/xlink"
	 x="0px" y="0px" viewBox="0 0 283.5 283.5" xml:space="preserve">
<line fill="none" stroke="#020202" stroke-miterlimit="10" x1="108.7" y1="142.8" x2="108.7" y2="283.5"/>
<path fill="none" stroke="#030303" stroke-miterlimit="10" d="M128.1,218.5c7.8-0.5,11.2-1.4,14.9-8.8c3.8-7.5,0.9-18.2-3.9-22.6
	c-5.9-5.5-15.5-6.3-23-1.5c-8.4,5.5-7.8,17.5-5.8,23.9S120.3,219,128.1,218.5z"/>
<path fill="none" stroke="#030303" stroke-miterlimit="10" d="M151.6,283l-9-2.3l-10.2-51.8l-18.7,54.5"/>
<path fill="none" stroke="#030303" stroke-miterlimit="10" d="M189.3,280l-9.5,3.5l-34.2-14l-31.8,13.4c0,0-10.8-47.6,0.5-67.3"/>
<path fill="none" stroke="#030303" stroke-miterlimit="10" d="M145.6,249.8c-1.5,1.3-1.9,4.3,0.5,5.7c2.4,1.4,5.6-0.1,5.8-2.8
	c0.2-2.7-2.2-5.2-5-4.4L135,231l-22.2-12.2l6.6,30.8l14.1,26.7c0,0,3.7,1.9,3.4,4.1c-0.2,2.8-3.8,4.1-5.8,2.4c-2.3-1.8-1.5-4,0-5.6"
	/>
<line fill="none" stroke="#030303" stroke-miterlimit="10" x1="127.7" y1="201.1" x2="130.7" y2="199.5"/>
<line fill="none" stroke="#030303" stroke-miterlimit="10" x1="140.3" y1="199.5" x2="143.2" y2="201.2"/>
<line fill="none" stroke="#030303" stroke-miterlimit="10" x1="130.7" y1="201.9" x2="130.5" y2="203.6"/>
<line fill="none" stroke="#030303" stroke-miterlimit="10" x1="140.1" y1="202" x2="140.1" y2="203.6"/>
<path fill="none" stroke="#030303" stroke-miterlimit="10" d="M109.3,204c3.3,4.6,0.3,9.1,0.3,9.1"/>
<path fill="none" stroke="#030303" stroke-miterlimit="10" d="M111.1,211.3c0.3,4.3-1.1,7.3-1.1,7.3"/>
<path fill="none" stroke="#030303" stroke-miterlimit="10" d="M113.1,213.9c0,2.3-3.1,7-3.1,7"/>
</svg>
