<?xml version="1.0" encoding="utf-8"?>
<!-- Generator: Adobe Illustrator 19.1.1, SVG Export Plug-In . SVG Version: 6.00 Build 0)  -->
<svg version="1.2" baseProfile="tiny" id="Layer_1" xmlns="http://www.w3.org/2000/svg" xmlns:xlink="http://www.w3.org/1999/xlink"
	 x="0px" y="0px" viewBox="0 0 283.5 283.5" xml:space="preserve">
<path fill="none" stroke="#040404" stroke-miterlimit="10" d="M130.2,162c6.6,1.7,11.8-0.5,15.3-5.1c5-6.1,4.5-16.3,1.6-21.9
	c-3.5-6.9-11.4-10.4-18.8-7.9c-8.4,2.9-10.8,14.6-10.7,21.3C117.7,155.1,123.5,160.3,130.2,162z"/>
<path fill="none" stroke="#040404" stroke-miterlimit="10" d="M114.4,283.5l-7-4l15.6-27.4l2.7-30.5"/>
<path fill="none" stroke="#040404" stroke-miterlimit="10" d="M140.6,282.6h-9.3l4.4-30.5l-10.1-30.5c0,0-1.8-39.8,4-59.8"/>
<path fill="none" stroke="#040404" stroke-miterlimit="10" d="M173.4,207c0,0-0.3,1.6,2.5,3c2.7,1.4,5.2-2.3,3.8-4.8
	s-4.3-2.2-6.1,0.1l-31.8-5.9l-13.4-31.9l-18.5,29.2l3.1,27.1c0,0,1.7-0.9,3.6,0.5c2.2,1.6,1.2,4.1-0.5,5.2c-2.8,1.6-6.8-0.9-4.4-4.5
	"/>
<path fill="none" stroke="#040404" stroke-miterlimit="10" d="M121.1,133.6c-4.1,5.2-5.5,4.1-6.9,8.3"/>
<path fill="none" stroke="#040404" stroke-miterlimit="10" d="M118.3,141.9c-4.4,3-2.1,7-4.4,8.4"/>
<path fill="none" stroke="#040404" stroke-miterlimit="10" d="M117.8,150.3c-0.2,5.1-3.9,3.3-2.8,6.9"/>
<path fill="none" stroke="#040404" stroke-miterlimit="10" d="M120.2,155.7c-2.6,1.7-0.4,4.1-4,5.4"/>
<line fill="none" stroke="#040404" stroke-miterlimit="10" x1="145.2" y1="147.1" x2="144.5" y2="149.4"/>
<line fill="none" stroke="#040404" stroke-miterlimit="10" x1="134.6" y1="144.8" x2="134" y2="147.1"/>
<line fill="none" stroke="#040404" stroke-miterlimit="10" x1="148" y1="143.5" x2="144.4" y2="145.6"/>
<line fill="none" stroke="#040404" stroke-miterlimit="10" x1="136.4" y1="144.1" x2="134.3" y2="140.1"/>
<polyline fill="none" stroke="#040404" stroke-miterlimit="10" points="191.6,218.1 188.8,225 202.9,230.3 205.6,222.7 191.6,218.1 
	"/>
</svg>
