<?xml version="1.0" encoding="utf-8"?>
<!-- Generator: Adobe Illustrator 19.1.1, SVG Export Plug-In . SVG Version: 6.00 Build 0)  -->
<svg version="1.2" baseProfile="tiny" id="Layer_1" xmlns="http://www.w3.org/2000/svg" xmlns:xlink="http://www.w3.org/1999/xlink"
	 x="0px" y="0px" viewBox="0 0 283.5 283.5" xml:space="preserve">
<path fill="none" stroke="#030303" stroke-miterlimit="10" d="M133.9,215.8c7.6,1.7,11.1,1.8,16.8-4.2c5.8-6.1,6-17.2,2.7-22.8
	c-4.1-6.9-13.1-10.4-21.6-7.9c-9.6,2.9-12.4,14.6-12.3,21.3S126.3,214.1,133.9,215.8z"/>
<path fill="none" stroke="#030303" stroke-miterlimit="10" d="M188.3,273.1l-2,7.1l-36.9-2.3l-35.2,4.3"/>
<path fill="none" stroke="#030303" stroke-miterlimit="10" d="M184.5,278.6l-7.6,3.9l-27.3-8l-35.5,7.5c0,0-0.2-54.9,15-68.1"/>
<path fill="none" stroke="#030303" stroke-miterlimit="10" d="M160.2,245.8c1-4.9,6.3-4.1,7.6-2.9c1.3,1.1,1.6,3.6-0.3,5.7
	s-5.7,1.8-7-1.3l-27.8,6.5l-6.7-36.4l-20.9,28.2l-0.3,30.6c0,0,3.7,1.9,3.4,4.1c-0.2,2.8-3.8,4.1-5.8,2.4c-2.3-1.8-1.5-4,0-5.6"/>
<line fill="none" stroke="#030303" stroke-miterlimit="10" x1="140.2" y1="199.3" x2="139.3" y2="200.8"/>
<line fill="none" stroke="#030303" stroke-miterlimit="10" x1="151.5" y1="203.5" x2="150.6" y2="204.9"/>
<path fill="none" stroke="#030303" stroke-miterlimit="10" d="M123.5,187.4c-3.5,3.2-6.6,7.7-6.6,7.7"/>
<path fill="none" stroke="#030303" stroke-miterlimit="10" d="M120.2,195.7c-3.9,4.1-4.3,6.4-4.3,6.4"/>
<path fill="none" stroke="#030303" stroke-miterlimit="10" d="M119.7,204.1c-1.4,3.2-3.8,5.4-3.8,5.4"/>
<path fill="none" stroke="#030303" stroke-miterlimit="10" d="M122.4,209.5c-0.8,2.1-3.8,5.2-3.8,5.2"/>
<polyline fill="none" stroke="#030303" stroke-miterlimit="10" points="168.6,246.6 183.8,232.8 170.4,225.3 156.6,238.5 
	161.1,243.7 "/>
</svg>
