<?xml version="1.0" encoding="utf-8"?>
<!-- Generator: Adobe Illustrator 19.1.1, SVG Export Plug-In . SVG Version: 6.00 Build 0)  -->
<svg version="1.2" baseProfile="tiny" id="Layer_1" xmlns="http://www.w3.org/2000/svg" xmlns:xlink="http://www.w3.org/1999/xlink"
	 x="0px" y="0px" viewBox="0 0 283.5 283.5" xml:space="preserve">
<path fill="none" stroke="#020202" stroke-miterlimit="10" d="M124.3,238.2c5.5,2.6,8.8,4.8,9.4,12.4c0.7,7.7-5.3,16.2-10.8,18.5
	c-6.7,2.9-15,0.6-19.6-6c-5.1-7.4-1.1-19.5,3.2-22.7C111,237.3,118.8,235.7,124.3,238.2z"/>
<path fill="none" stroke="#020202" stroke-miterlimit="10" d="M171.6,271c-1.2,1.1-1.5,4,0.5,5.2c2.5,1.5,5.9,0,6.4-2.7
	c0-3-3.1-5.1-5.9-3.8l-25.9-8.7l-9-25.5l-16.8-19l-25-6.7c0,0-1.8,2.1-4,1.5c-2.4-0.7-3.2-4.3-0.9-5.8c2.1-1.4,5.1-0.3,5.3,2.8"/>
<path fill="none" stroke="#020202" stroke-miterlimit="10" d="M110.6,254.3c0.9-1.5-2.2-3.1-3.3-3.6"/>
<path fill="none" stroke="#020202" stroke-miterlimit="10" d="M115.4,258.6c1.7-1.5,3.4,1.6,4.1,3.2"/>
<path fill="none" stroke="#020202" stroke-miterlimit="10" d="M116.6,270.4c4.3-3.8,8.2-2.2,8.5-6"/>
<path fill="none" stroke="#020202" stroke-miterlimit="10" d="M126.5,266.9c1.3-5.4,4.3-6.2,4.3-8.7"/>
<path fill="none" stroke="#020202" stroke-miterlimit="10" d="M132.6,258.2c-1.7-5.5,3-6,3.9-9.6"/>
<path fill="none" stroke="#020202" stroke-miterlimit="10" d="M133.7,249.7c0.9-3.9,2.9-4.7,2.9-6.5"/>
<path fill="none" stroke="#020202" stroke-miterlimit="10" d="M127.9,240.1c6.1-5.5,13.3-3.7,23.2-9c9.9-5.3,24.2-26.7,21.8-39.9
	l-24.2-24.3l5.3-32.3l-5.3-6.3"/>
<polyline fill="none" stroke="#020202" stroke-miterlimit="10" points="172.8,191.2 174.1,157.7 203.3,147.9 201.9,139 "/>
<line fill="none" stroke="#010101" stroke-miterlimit="10" x1="101.4" y1="233" x2="101.4" y2="231.3"/>
<line fill="none" stroke="#010101" stroke-miterlimit="10" x1="107.3" y1="224.7" x2="107.3" y2="223.3"/>
<line fill="none" stroke="#010101" stroke-miterlimit="10" x1="98.8" y1="220.9" x2="98.8" y2="219.4"/>
<line fill="none" stroke="#010101" stroke-miterlimit="10" x1="112.1" y1="210.8" x2="112.1" y2="209.4"/>
<line fill="none" stroke="#010101" stroke-miterlimit="10" x1="104.9" y1="201" x2="104.9" y2="199.8"/>
<line fill="none" stroke="#010101" stroke-miterlimit="10" x1="111.3" y1="191.2" x2="111.3" y2="189.9"/>
<line fill="none" stroke="#010101" stroke-miterlimit="10" x1="119.7" y1="186" x2="119.7" y2="184.2"/>
<line fill="none" stroke="#010101" stroke-miterlimit="10" x1="104.9" y1="179.1" x2="104.9" y2="177.9"/>
<line fill="none" stroke="#010101" stroke-miterlimit="10" x1="126.1" y1="174.3" x2="126.1" y2="172.6"/>
<line fill="none" stroke="#010101" stroke-miterlimit="10" x1="114.2" y1="164.6" x2="114.2" y2="163.4"/>
</svg>
