<?xml version="1.0" encoding="utf-8"?>
<!-- Generator: Adobe Illustrator 19.1.1, SVG Export Plug-In . SVG Version: 6.00 Build 0)  -->
<svg version="1.2" baseProfile="tiny" id="Layer_1" xmlns="http://www.w3.org/2000/svg" xmlns:xlink="http://www.w3.org/1999/xlink"
	 x="0px" y="0px" viewBox="0 0 283.5 283.5" xml:space="preserve">
<path fill="none" stroke="#040404" stroke-miterlimit="10" d="M136.7,151.3c6.5,1.7,11.5-0.5,14.9-5.1c4.9-6.1,4.4-16.3,1.6-21.9
	c-3.4-6.9-11.1-10.4-18.3-7.9c-8.1,2.9-10.5,14.6-10.4,21.3C124.5,144.4,130.2,149.6,136.7,151.3z"/>
<path fill="none" stroke="#040404" stroke-miterlimit="10" d="M176.8,258.5l-5.5-3.5l6-47.5l-26.4,4.1"/>
<path fill="none" stroke="#040404" stroke-miterlimit="10" d="M184.2,259.5l-5.5-5.3l3-43.8l-39.5,1.3c0,0-15-42.2-7.2-60.8"/>
<path fill="none" stroke="#040404" stroke-miterlimit="10" d="M132,206.8c0,0-2.3,1.7-1.1,3.6c1.3,2,3.9,2.4,5.3,0.7
	c1-1.2,1-3.8-2.5-4.6l-3.5-27.1l3.3-23.2l-9.6,24l-1.3,24.2c0,0,3.1,1.9,2.8,4.1c-0.2,2.8-3.2,4.1-4.9,2.4c-2-1.8-1.3-4,0-5.6"/>
<line fill="none" stroke="#040404" stroke-miterlimit="10" x1="141.3" y1="134.5" x2="141.3" y2="136.7"/>
<line fill="none" stroke="#040404" stroke-miterlimit="10" x1="151.7" y1="135.3" x2="151.7" y2="137.5"/>
<path fill="none" stroke="#040404" stroke-miterlimit="10" d="M127.8,122.9c-2.9,3.2-4.5,6.2-4.8,8.3"/>
<path fill="none" stroke="#040404" stroke-miterlimit="10" d="M125.1,131.2c-3.3,4.1-0.8,6.6-2.4,7.5"/>
<path fill="none" stroke="#040404" stroke-miterlimit="10" d="M124.6,139.6c0,4-2.4,4.6-1.6,5.9"/>
<path fill="none" stroke="#040404" stroke-miterlimit="10" d="M127,145c-1.5,1.6-0.6,5.8-1.6,6.1"/>
<line fill="none" stroke="#030303" stroke-miterlimit="10" x1="109.8" y1="283.5" x2="128.4" y2="212"/>
<line fill="none" stroke="#030303" stroke-miterlimit="10" x1="118" y1="212" x2="162.2" y2="212"/>
<line fill="none" stroke="#030303" stroke-miterlimit="10" x1="171.5" y1="283.5" x2="151.2" y2="212"/>
<line fill="none" stroke="#030303" stroke-miterlimit="10" x1="139.2" y1="131.7" x2="142.6" y2="132.6"/>
<line fill="none" stroke="#030303" stroke-miterlimit="10" x1="150.4" y1="133.1" x2="153.9" y2="132.1"/>
</svg>
