<?xml version="1.0" encoding="utf-8"?>
<!-- Generator: Adobe Illustrator 19.1.1, SVG Export Plug-In . SVG Version: 6.00 Build 0)  -->
<svg version="1.2" baseProfile="tiny" id="Layer_1" xmlns="http://www.w3.org/2000/svg" xmlns:xlink="http://www.w3.org/1999/xlink"
	 x="0px" y="0px" viewBox="0 0 283.5 283.5" xml:space="preserve">
<path fill="none" stroke="#040404" stroke-miterlimit="10" d="M142.8,162.4c6.6,1.7,11.8-0.5,15.3-5.1c5-6.1,4.5-16.3,1.6-21.9
	c-3.5-6.9-11.4-10.4-18.8-7.9c-8.4,2.9-10.8,14.6-10.7,21.3C130.3,155.5,136.2,160.7,142.8,162.4z"/>
<path fill="none" stroke="#040404" stroke-miterlimit="10" d="M132.8,282.9h-7.5l10.4-30.5l2.7-30.5"/>
<path fill="none" stroke="#040404" stroke-miterlimit="10" d="M150.2,275.8l-6.3,7.1l1.1-29.8l-6.8-31.2c0,0-4.1-41.2,4-59.8"/>
<path fill="none" stroke="#040404" stroke-miterlimit="10" d="M135.9,150.7c0,0,1.6-0.5,2.4-3c0.9-2.9-3-6.3-4.9-3.8
	s-1.3,5.2,1.5,6.8l-9.5,37.3l14.7-18.7l1.8,34.3l14.7,18.6c0,0,1.7-0.9,3.6,0.5c2.2,1.6,1.2,4.1-0.5,5.2c-2.8,1.6-6.8-0.9-4.4-4.5"
	/>
<path fill="none" stroke="#040404" stroke-miterlimit="10" d="M133.8,134c-3,3.2-4.6,8.4-6.8,9.5"/>
<path fill="none" stroke="#040404" stroke-miterlimit="10" d="M130.9,142.3c-3.4,4.1-1.4,6.6-2.4,7.5"/>
<path fill="none" stroke="#040404" stroke-miterlimit="10" d="M130.4,150.7c0,4-1.6,4-1.6,5.9"/>
<path fill="none" stroke="#040404" stroke-miterlimit="10" d="M132.8,156.1c-1.5,1.6-1.3,3.7-4,5.4"/>
<line fill="none" stroke="#040404" stroke-miterlimit="10" x1="157.8" y1="147.5" x2="157.1" y2="149.8"/>
<line fill="none" stroke="#040404" stroke-miterlimit="10" x1="147.2" y1="145.2" x2="146.6" y2="147.5"/>
<line fill="none" stroke="#040404" stroke-miterlimit="10" x1="161" y1="145.6" x2="157" y2="146"/>
<line fill="none" stroke="#040404" stroke-miterlimit="10" x1="149" y1="144.5" x2="146.1" y2="141.4"/>
<polyline fill="none" stroke="#040404" stroke-miterlimit="10" points="136.4,150.4 139.2,151.1 142.7,136.4 134.8,134.8 
	132.8,144.5 "/>
</svg>
