<?xml version="1.0" encoding="utf-8"?>
<!-- Generator: Adobe Illustrator 19.1.1, SVG Export Plug-In . SVG Version: 6.00 Build 0)  -->
<svg version="1.2" baseProfile="tiny" id="Layer_1" xmlns="http://www.w3.org/2000/svg" xmlns:xlink="http://www.w3.org/1999/xlink"
	 x="0px" y="0px" viewBox="0 0 283.5 283.5" xml:space="preserve">
<path fill="none" stroke="#040404" stroke-miterlimit="10" d="M183.9,143c-6.5,1.7-11.5-0.5-15-5.1c-4.9-6.1-4.4-16.3-1.6-21.9
	c3.4-6.9,11.1-10.4,18.4-7.9c8.2,2.9,10.5,14.6,10.4,21.3C196.1,136.1,190.4,141.3,183.9,143z"/>
<path fill="none" stroke="#040404" stroke-miterlimit="10" d="M201.4,282.9l8.6-3.9l-19.5-38l-12.2-37.7"/>
<path fill="none" stroke="#040404" stroke-miterlimit="10" d="M154.5,270.8l8.3-3.3l-14.8-40l30.3-24.2c0,0,15.1-42.2,7.2-60.8"/>
<path fill="none" stroke="#040404" stroke-miterlimit="10" d="M155.5,187.5c0,0,2.3,1.7,1.1,3.6c-1.3,2-3.9,2.4-5.3,0.7
	c-1-1.2-1-3.8,2.6-4.6l20.2-13.5l13.1-25.7l9.7,24l1.3,24.2c0,0-3.2,1.9-2.9,4.1c0.2,2.8,3.3,4.1,4.9,2.4c2-1.8,1.3-4,0-5.6"/>
<line fill="none" stroke="#040404" stroke-miterlimit="10" x1="179.2" y1="126.2" x2="179.2" y2="128.4"/>
<line fill="none" stroke="#040404" stroke-miterlimit="10" x1="170.1" y1="126.9" x2="170.1" y2="129.1"/>
<path fill="none" stroke="#040404" stroke-miterlimit="10" d="M192.7,114.6c3,3.2,4.8,8.4,6.5,7.7"/>
<path fill="none" stroke="#040404" stroke-miterlimit="10" d="M195.5,122.9c4.3,2.5,2.1,7.6,4.9,7.6"/>
<path fill="none" stroke="#040404" stroke-miterlimit="10" d="M196,131.3c0.2,4.5,5,3.1,3.9,5"/>
<path fill="none" stroke="#040404" stroke-miterlimit="10" d="M193.6,136.7c2.6,1.8,1.9,5,4.4,5.8"/>
<line fill="none" stroke="#030303" stroke-miterlimit="10" x1="98.4" y1="283.6" x2="97.6" y2="209.8"/>
<line fill="none" stroke="#030303" stroke-miterlimit="10" x1="87.5" y1="212.5" x2="130.2" y2="200.9"/>
<line fill="none" stroke="#030303" stroke-miterlimit="10" x1="157.9" y1="267.5" x2="119.6" y2="203.8"/>
<line fill="none" stroke="#030303" stroke-miterlimit="10" x1="180.4" y1="122.4" x2="177.9" y2="124.3"/>
<line fill="none" stroke="#030303" stroke-miterlimit="10" x1="171" y1="124.9" x2="168.4" y2="123.2"/>
</svg>
