<?xml version="1.0" encoding="utf-8"?>
<!-- Generator: Adobe Illustrator 19.1.1, SVG Export Plug-In . SVG Version: 6.00 Build 0)  -->
<svg version="1.2" baseProfile="tiny" id="Layer_1" xmlns="http://www.w3.org/2000/svg" xmlns:xlink="http://www.w3.org/1999/xlink"
	 x="0px" y="0px" viewBox="0 0 283.5 283.5" xml:space="preserve">
<path fill="none" stroke="#020202" stroke-miterlimit="10" d="M138.9,282l6.8-1.2l-4.3-46.7l1-58.9c0,0,9.2-1.1,12.3-7.1
	c3.2-6.1,0.9-14.9-3-18.6c-4.8-4.5-12.7-5.3-18.8-1.4c-6.9,4.4-6.5,16.3-4.9,19.6c2.1,4.4,7.7,7.6,14.4,7.6"/>
<path fill="none" stroke="#020202" stroke-miterlimit="10" d="M124.1,282h8.4l-0.1-26l8.9-21.9"/>
<path fill="none" stroke="#020202" stroke-miterlimit="10" d="M149.6,228.3c-1.2,1.1-1.6,3.5,0.4,4.7s4.6-0.1,4.8-2.3
	s-1.9-4.3-4.2-3.7l-8.3-46.7l-9.5,44.5c0,0,3,1.6,2.8,3.4c-0.2,2.3-3.1,3.4-4.8,2c-1.9-1.5-1.2-3.3,0-4.6"/>
<path fill="none" stroke="#020202" stroke-miterlimit="10" d="M153.2,151.3c2.9,3.3,3.2,6.6,5.4,8.4"/>
<path fill="none" stroke="#020202" stroke-miterlimit="10" d="M156,159.8c0.8,4.7,1.6,5.9,3.4,6.6"/>
<path fill="none" stroke="#020202" stroke-miterlimit="10" d="M155.2,166.9c0.7,3.7,1.5,5.8,3.4,6.1"/>
<path fill="none" stroke="#020202" stroke-miterlimit="10" d="M152.4,171c0.9,2.8,1.6,4.3,3.8,5.3"/>
<line fill="none" stroke="#020202" stroke-miterlimit="10" x1="129.4" y1="155.8" x2="131.9" y2="154.3"/>
<line fill="none" stroke="#020202" stroke-miterlimit="10" x1="139.5" y1="153.7" x2="142.5" y2="154.5"/>
<line fill="none" stroke="#020202" stroke-miterlimit="10" x1="132.1" y1="158.5" x2="132.5" y2="160.8"/>
<line fill="none" stroke="#020202" stroke-miterlimit="10" x1="140.3" y1="157" x2="140.7" y2="159.4"/>
</svg>
