<?xml version="1.0" encoding="utf-8"?>
<!-- Generator: Adobe Illustrator 19.1.1, SVG Export Plug-In . SVG Version: 6.00 Build 0)  -->
<svg version="1.2" baseProfile="tiny" id="Layer_1" xmlns="http://www.w3.org/2000/svg" xmlns:xlink="http://www.w3.org/1999/xlink"
	 x="0px" y="0px" viewBox="0 0 283.5 283.5" xml:space="preserve">
<line fill="none" stroke="#020202" stroke-miterlimit="10" x1="143.9" y1="115.5" x2="147.1" y2="115.5"/>
<line fill="none" stroke="#020202" stroke-miterlimit="10" x1="130" y1="115.5" x2="133.6" y2="115.5"/>
<line fill="none" stroke="#020202" stroke-miterlimit="10" x1="143.9" y1="118.4" x2="143.9" y2="122.1"/>
<line fill="none" stroke="#020202" stroke-miterlimit="10" x1="132.8" y1="118.4" x2="132.8" y2="122.1"/>
<path fill="none" stroke="#020202" stroke-miterlimit="10" d="M141.5,142.2c10.5,0.8,15.2-6.6,16.2-15.6s-2.2-19.3-12.8-21.2
	c-10.7-1.8-17.6,7.4-17.7,15.7C127,131,129.9,141.3,141.5,142.2z"/>
<path fill="none" stroke="#020202" stroke-miterlimit="10" d="M133.9,145.2h19.7c5.2,8.4,0.7,63,10.3,70.7
	c-9.3,10.4-38.7,16.1-52,1.7c7.2-9.4,18.6-34.7,16.9-46.1C127.1,159.4,130.8,150.4,133.9,145.2z"/>
<polyline fill="none" stroke="#020202" stroke-miterlimit="10" points="129.2,157.4 111.9,180.6 119.5,204.7 "/>
<path fill="none" stroke="#020202" stroke-miterlimit="10" d="M151.1,153l20.4,27.2l-17.8,25.5c0,0-3.6-3.4-6.2-1.3
	c-2.6,2.1-1.4,6,1.4,7c2.5,0.9,5.4-1.1,5.6-4"/>
<path fill="none" stroke="#020202" stroke-miterlimit="10" d="M153.6,222.6l3.1,58.5l-13.5,1.8"/>
<path fill="none" stroke="#020202" stroke-miterlimit="10" d="M122.3,224.3l-6.9,24.1l14.4,23.4l-7,11.3"/>
</svg>
