<?xml version="1.0" encoding="utf-8"?>
<!-- Generator: Adobe Illustrator 19.1.1, SVG Export Plug-In . SVG Version: 6.00 Build 0)  -->
<svg version="1.2" baseProfile="tiny" id="Layer_1" xmlns="http://www.w3.org/2000/svg" xmlns:xlink="http://www.w3.org/1999/xlink"
	 x="0px" y="0px" viewBox="-453 155.8 283.5 283.5" xml:space="preserve">
<path fill="none" stroke="#030303" stroke-miterlimit="10" d="M-280.3,420.1c0,0,4.8,14,1.3,16.2c-7,3.5-60.7,3.4-68.3,2.3
	c-2.9-2.3,0.5-20.1,4.2-20.5c5.2-0.6,18.3,5.7,28.3,5.4C-305.7,423.2-297.5,411.2-280.3,420.1z"/>
<polyline fill="none" stroke="#030303" stroke-miterlimit="10" points="-348.3,436.1 -369.5,408.6 -389.3,438.5 -398.7,439.3 "/>
<polyline fill="none" stroke="#030303" stroke-miterlimit="10" points="-345.8,421.2 -364.7,393.2 -373,433.4 -381.3,439.3 "/>
<path fill="none" stroke="#030303" stroke-miterlimit="10" d="M-276.2,423.6c2.7,10.7,10.6,13.1,18.9,11c8.3-2.2,15.2-9.6,12.1-19.5
	c-2.6-8.4-10.7-11.1-18.2-9.2C-270.9,407.8-278.5,413-276.2,423.6z"/>
<line fill="none" stroke="#030303" stroke-miterlimit="10" x1="-256.3" y1="418" x2="-256.7" y2="421.2"/>
<line fill="none" stroke="#030303" stroke-miterlimit="10" x1="-257.6" y1="408.2" x2="-256.3" y2="411"/>
<line fill="none" stroke="#030303" stroke-miterlimit="10" x1="-260.2" y1="419.3" x2="-263.4" y2="420.1"/>
<line fill="none" stroke="#030303" stroke-miterlimit="10" x1="-260.3" y1="410.9" x2="-263.5" y2="411.6"/>
<path fill="none" stroke="#030303" stroke-miterlimit="10" d="M-278.2,435.3l35.5,4l20.2-9c0,0,3.5,1.1,4-1.6c0.3-1.9-0.9-4.8-3-4.5
	c-2.2,0.3-4.1,2.2-2.8,4.5"/>
<line fill="none" stroke="#030303" stroke-miterlimit="10" x1="-280.3" y1="420.1" x2="-275.9" y2="415.4"/>
<path fill="none" stroke="#030303" stroke-miterlimit="10" d="M-263.4,405.9l6.5-5.2l26.4,15.5c0,0,1.2-2,3.7-1.4
	c2.1,1.1,1.9,4,0.2,4.8c-1.7,0.8-4.2-1.6-4.2-1.6"/>
</svg>
