<?xml version="1.0" encoding="utf-8"?>
<!-- Generator: Adobe Illustrator 19.1.1, SVG Export Plug-In . SVG Version: 6.00 Build 0)  -->
<svg version="1.2" baseProfile="tiny" id="Layer_1" xmlns="http://www.w3.org/2000/svg" xmlns:xlink="http://www.w3.org/1999/xlink"
	 x="0px" y="0px" viewBox="0 0 283.5 283.5" xml:space="preserve">
<line fill="none" stroke="#030303" stroke-miterlimit="10" x1="127" y1="283.5" x2="145.6" y2="212"/>
<line fill="none" stroke="#030303" stroke-miterlimit="10" x1="135.2" y1="212" x2="179.4" y2="212"/>
<path fill="none" stroke="#040404" stroke-miterlimit="10" d="M135.2,140.6l16.4-2c12.8,17.2,15.1,41.2,16.8,59.8
	c0.3,3.2,0.7,6.3,2,10.1c-4,4.8-29.7,1.6-32.8,0.6s0-3.6,0.7-8.3c0.7-4.6,4.8-27.4,0.8-31.7C132.2,161.8,133.9,153.5,135.2,140.6z"
	/>
<path fill="none" stroke="#040404" stroke-miterlimit="10" d="M161.6,210.9l-32.7,26.9l32.7,33.3l-4.1,11.7"/>
<path fill="none" stroke="#040404" stroke-miterlimit="10" d="M139.1,209.5l-40.3,18.4l28.8,43.7l-6.9,11.4"/>
<path fill="none" stroke="#040404" stroke-miterlimit="10" d="M138.7,134.6c14.2-2.9,17.8-13.1,15.6-24.2
	c-2.3-11.1-11.6-20.5-24.8-17.1c-11.2,3-15.2,13.4-13.2,23.4C118.1,126.6,124.6,136.9,138.7,134.6z"/>
<line fill="none" stroke="#030303" stroke-miterlimit="10" x1="188.7" y1="283.5" x2="168.4" y2="212"/>
<path fill="none" stroke="#040404" stroke-miterlimit="10" d="M139.1,169.1l-3.9,14l-23.4,31c1.5,3.3,0.1,5.7-2.9,6.2
	c-2.3,0.4-4.3-2-3.6-3.8c0.7-1.9,2.9-3.9,5.3-3.1"/>
<path fill="none" stroke="#040404" stroke-miterlimit="10" d="M148.2,148.5l-2.9,34l-18.6,27.6c0,0-3.5-3.4-6-0.9
	c-2.3,2.4-0.9,5.6,1.2,6s4.7-1,5.3-3.5"/>
<line fill="none" stroke="#040404" stroke-miterlimit="10" x1="121.8" y1="113.4" x2="122.1" y2="115.6"/>
<line fill="none" stroke="#040404" stroke-miterlimit="10" x1="133.6" y1="111.7" x2="133.9" y2="113.9"/>
<line fill="none" stroke="#040404" stroke-miterlimit="10" x1="118" y1="111.2" x2="121.4" y2="109.8"/>
<line fill="none" stroke="#040404" stroke-miterlimit="10" x1="132" y1="108.3" x2="136" y2="108.3"/>
</svg>
