<?xml version="1.0" encoding="utf-8"?>
<!-- Generator: Adobe Illustrator 19.1.1, SVG Export Plug-In . SVG Version: 6.00 Build 0)  -->
<svg version="1.2" baseProfile="tiny" id="Layer_1" xmlns="http://www.w3.org/2000/svg" xmlns:xlink="http://www.w3.org/1999/xlink"
	 x="0px" y="0px" viewBox="0 0 283.5 283.5" xml:space="preserve">
<line fill="none" stroke="#010101" stroke-miterlimit="10" x1="146.7" y1="143.5" x2="149.9" y2="144.5"/>
<line fill="none" stroke="#010101" stroke-miterlimit="10" x1="133.7" y1="144.9" x2="137.7" y2="143.9"/>
<line fill="none" stroke="#010101" stroke-miterlimit="10" x1="147.3" y1="148.1" x2="147.3" y2="151.8"/>
<line fill="none" stroke="#010101" stroke-miterlimit="10" x1="136.8" y1="148.1" x2="136.8" y2="151.8"/>
<path fill="none" stroke="#010101" stroke-miterlimit="10" d="M161.1,152.2c1-9-1.2-21.3-11.8-23.2c-10.7-1.8-17.6,9.5-17.7,17.8"/>
<path fill="none" stroke="#010101" stroke-miterlimit="10" d="M132.3,153.3c1.5,6.6,5.3,11.9,13.5,12.5c7.8,0.6,12.4-3.3,14.6-9"/>
<path fill="none" stroke="#010101" stroke-miterlimit="10" d="M138.3,168.8H158c0,0,0.7,63,10.3,70.7c-9.3,10.4-38.7,16.1-52,1.7
	C128.6,225.1,138.3,179.3,138.3,168.8z"/>
<path fill="none" stroke="#010101" stroke-miterlimit="10" d="M156.2,246.9l-5.1,34l23.7-6.1l2.1,6.1"/>
<path fill="none" stroke="#010101" stroke-miterlimit="10" d="M126.7,247.9l-11.4,33l23.4-5.8l2,6.5"/>
<path fill="none" stroke="#010101" stroke-miterlimit="10" d="M136.8,182.1L110.2,168l16.3-18.1c1.5-1.3,2.9-2.2,4-2.5
	c5.9-2,6.7,5.1,3.2,5.7s-3.5-2.1-3.5-2.1"/>
<path fill="none" stroke="#010101" stroke-miterlimit="10" d="M158.5,183.9l25.7-14.2l-21.3-16c-2.1-2.8-5.8-2.5-6.5-1.1
	c-1.9,3.9,4.1,5.4,5.9,2.8"/>
</svg>
