<?xml version="1.0" encoding="utf-8"?>
<!-- Generator: Adobe Illustrator 19.1.1, SVG Export Plug-In . SVG Version: 6.00 Build 0)  -->
<svg version="1.2" baseProfile="tiny" id="Layer_1" xmlns="http://www.w3.org/2000/svg" xmlns:xlink="http://www.w3.org/1999/xlink"
	 x="0px" y="0px" viewBox="0 0 283.5 283.5" xml:space="preserve">
<line fill="none" stroke="#030303" stroke-miterlimit="10" x1="127.9" y1="113.2" x2="129.1" y2="116.3"/>
<line fill="none" stroke="#030303" stroke-miterlimit="10" x1="137" y1="109.6" x2="138" y2="112.4"/>
<path fill="none" stroke="#030303" stroke-miterlimit="10" d="M131.8,133.2c-10.6,3.1-17-3.1-19.9-11.6s-1.9-19.3,8.6-23.6
	c10.6-4.1,19.6,3.3,21.5,11.4C144.3,119,143.5,129.7,131.8,133.2z"/>
<path fill="none" stroke="#030303" stroke-miterlimit="10" d="M143.4,136l-18.2,1.4c-8.3,11.8,0.7,61.8-14.2,73.2
	c12.2,6,28.1,7.9,44.6,0c-7-9.8-13.2-36.3-8.3-48C151.8,151,146.3,141.4,143.4,136z"/>
<path fill="none" stroke="#030303" stroke-miterlimit="10" d="M124.9,215.2l2.9,23.7l-9.9,34l1.8,10.4"/>
<path fill="none" stroke="#030303" stroke-miterlimit="10" d="M146.3,214.1l1.7,23.8l-6.8,34.7l4.6,10.8"/>
<path fill="none" stroke="#030303" stroke-miterlimit="10" d="M129,145.3l28.7-29.3l12.9-30.7c0,0,3.9,0.7,4.8-2.3
	c0.8-2.9-1.9-5.7-5.1-4.5c-3.2,1.2-3.3,4.7-1.6,6"/>
<path fill="none" stroke="#030303" stroke-miterlimit="10" d="M145.9,180.5l12.8,9.6c0,0,2.6-2.3,4.3-0.2c1.8,2.1,0,4.8-2,4.5
	c-2-0.3-2.6-1.8-2.6-1.8"/>
<polyline fill="none" stroke="#030303" stroke-miterlimit="10" points="173.5,85.1 181.8,98.5 198.6,90.8 176.6,53.5 161.7,64.8 
	170.3,78.6 "/>
</svg>
