<?xml version="1.0" encoding="utf-8"?>
<!-- Generator: Adobe Illustrator 19.1.1, SVG Export Plug-In . SVG Version: 6.00 Build 0)  -->
<svg version="1.2" baseProfile="tiny" id="Layer_1" xmlns="http://www.w3.org/2000/svg" xmlns:xlink="http://www.w3.org/1999/xlink"
	 x="0px" y="0px" viewBox="0 0 283.5 283.5" xml:space="preserve">
<line fill="none" stroke="#030303" stroke-miterlimit="10" x1="143" y1="283.5" x2="161.6" y2="212"/>
<line fill="none" stroke="#030303" stroke-miterlimit="10" x1="151.2" y1="212" x2="195.4" y2="212"/>
<path fill="none" stroke="#040404" stroke-miterlimit="10" d="M116.1,123.3l16.4-2c12.8,17.2,15.1,41.2,16.8,59.8
	c0.3,3.2,0.7,6.3,2,10.1c-4,4.8-29.7,1.6-32.8,0.6s0-3.6,0.7-8.3s4.8-27.4,0.8-31.7C113.1,144.4,114.8,136.2,116.1,123.3z"/>
<path fill="none" stroke="#040404" stroke-miterlimit="10" d="M143,193.6l0.6,41.7l28.9,35.5l1,12"/>
<path fill="none" stroke="#040404" stroke-miterlimit="10" d="M122.7,192.6l-7.8,38.8l26.4,45.2l-12.3,6.4"/>
<path fill="none" stroke="#040404" stroke-miterlimit="10" d="M119.6,117.2c14.2-2.9,17.8-13.1,15.6-24.2
	c-2.3-11.1-11.6-20.5-24.8-17.1c-11.2,3-15.2,13.4-13.2,23.4S105.5,119.6,119.6,117.2z"/>
<line fill="none" stroke="#030303" stroke-miterlimit="10" x1="204.7" y1="283.5" x2="184.4" y2="212"/>
<path fill="none" stroke="#040404" stroke-miterlimit="10" d="M115,134.3l-28.4,19.3l-38.6,1.8c-0.2,3.4-3.3,4.6-5.9,3.6
	c-2.4-0.9-2.4-3.9-1.4-5.5c1.4-2.1,5.7-1.8,6.8,0.3"/>
<path fill="none" stroke="#040404" stroke-miterlimit="10" d="M129.8,131.2l12.4,28.9l-9.4,36.9c0,0-3.4-0.2-4,2.6
	c-0.6,2.8,3.4,4.9,5.4,4.1c2.5-0.9,2.9-4.3,0.3-6"/>
<line fill="none" stroke="#040404" stroke-miterlimit="10" x1="102.7" y1="96.1" x2="103" y2="98.2"/>
<line fill="none" stroke="#040404" stroke-miterlimit="10" x1="114.5" y1="94.4" x2="114.8" y2="96.6"/>
<path fill="none" stroke="#040404" stroke-miterlimit="10" d="M98.9,93.9c1.1-2.1,3.2-3.5,4.7-1.3"/>
<path fill="none" stroke="#040404" stroke-miterlimit="10" d="M112.2,91.5c1.3-2.3,4.1-2,5.2,0"/>
</svg>
