<?xml version="1.0" encoding="utf-8"?>
<!-- Generator: Adobe Illustrator 19.1.1, SVG Export Plug-In . SVG Version: 6.00 Build 0)  -->
<svg version="1.2" baseProfile="tiny" id="Layer_1" xmlns="http://www.w3.org/2000/svg" xmlns:xlink="http://www.w3.org/1999/xlink"
	 x="0px" y="0px" viewBox="0 0 283.5 283.5" xml:space="preserve">
<path fill="none" stroke="#010101" stroke-miterlimit="10" d="M86.2,268.9l7.5,14.7l68.4-11.9l1.4-87.8c0,0,13.7-1.6,18.4-10.6
	s1.3-22.2-4.5-27.7c-7.1-6.7-18.9-7.9-28-2.1c-10.2,6.6-9.7,24.3-7.4,29.3c3.2,6.6,11.6,11.3,21.4,11.3"/>
<path fill="none" stroke="#010101" stroke-miterlimit="10" d="M90.2,255.4l7.5,16.3H162"/>
<path fill="none" stroke="#010101" stroke-miterlimit="10" d="M185.7,262c0,0-2.9,7,3.2,9.7c3.4,1.6,8.1,0.1,8.3-5
	c0.1-5.9-8.5-7-8.5-7l-25.2-68.5c0,0-10.2,43.7-35.6,30.9l18.5-8.5l-9.6-23.5l-28,11.2l15-13.1l2.9,5.9"/>
<path fill="none" stroke="#010101" stroke-miterlimit="10" d="M127.5,222.1l-5.4,2.4l-13.4-23.2"/>
<path fill="none" stroke="#010101" stroke-miterlimit="10" d="M179.8,148.3c4.3,4.9,9.5,8.1,13.3,8.1"/>
<path fill="none" stroke="#010101" stroke-miterlimit="10" d="M183.2,156.4c3.5,4.2,8,9.5,11.6,8.8"/>
<path fill="none" stroke="#010101" stroke-miterlimit="10" d="M184.1,165.2c2.8,4.7,5.8,10.4,10.8,9.5"/>
<path fill="none" stroke="#010101" stroke-miterlimit="10" d="M181.9,173.1c2.2,3.8,5,8.1,9.8,8.1"/>
<line fill="none" stroke="#010101" stroke-miterlimit="10" x1="147" y1="160.5" x2="147.7" y2="164.1"/>
<line fill="none" stroke="#010101" stroke-miterlimit="10" x1="159.9" y1="159.8" x2="160.8" y2="163.6"/>
</svg>
