<?xml version="1.0" encoding="utf-8"?>
<!-- Generator: Adobe Illustrator 19.1.1, SVG Export Plug-In . SVG Version: 6.00 Build 0)  -->
<svg version="1.2" baseProfile="tiny" id="Layer_1" xmlns="http://www.w3.org/2000/svg" xmlns:xlink="http://www.w3.org/1999/xlink"
	 x="0px" y="0px" viewBox="0 0 1190.6 595.3" xml:space="preserve">
<path fill="none" stroke="#030303" stroke-width="2" stroke-miterlimit="10" d="M338,384.8l6.7-33.2l-27.8-5.6
	c-18.7,19.2-35.3,100.5-37.4,123.6c13.2,7.2,18.1,7,40.3,5.2l13.6-67.1"/>
<path fill="none" stroke="#030303" stroke-width="2" stroke-miterlimit="10" d="M284.6,472.1l39.9,55.3l-63.2,65.7h18.4"/>
<path fill="none" stroke="#030303" stroke-width="2" stroke-miterlimit="10" d="M313.2,475.3l33.4,53.5l-48.3,64.4h20.6"/>
<path fill="none" stroke="#030303" stroke-width="2" stroke-miterlimit="10" d="M319.2,361.1l-7.1,63.8l40.1,40.5
	c-3.6,2.5-2.9,6.5-0.3,8.7c3.2,2.6,9.1,2.1,10.5-1.1c1.5-3.3,0.2-9.7-6.2-9"/>
<path fill="none" stroke="#030303" stroke-width="2" stroke-miterlimit="10" d="M325.8,342.8c22.5,2.9,35.9-9,38-26.8
	c2.1-17.8-1.6-39-22.7-42.6c-21-3.5-36.4,10.2-38.5,26C300.7,315.2,301.8,339.8,325.8,342.8z"/>
<polyline fill="none" stroke="#030303" stroke-width="2" stroke-miterlimit="10" points="378.2,375.8 328.8,386.9 356.6,510.8 
	406,499.7 "/>
<line fill="none" stroke="#030303" stroke-width="2" stroke-miterlimit="10" x1="742.7" y1="359.1" x2="392.1" y2="437.8"/>
<polyline fill="none" stroke="#030303" stroke-width="2" stroke-miterlimit="10" points="756.7,421 806.7,409.8 778.9,285.8 
	728.8,297.1 756.7,421 406,499.7 "/>
<line fill="none" stroke="#030303" stroke-width="2" stroke-miterlimit="10" x1="384.7" y1="404.8" x2="735.3" y2="326.1"/>
<path fill="none" stroke="#030303" stroke-width="2" stroke-miterlimit="10" d="M494,380.2c-14.8-27.7-14.9-71.8-23.7-79.1
	c-6.1-5-42.3,12.1-58.7,15.7c-15.6,3.5-40.2,2.4-44.2,10.3c-4.2,8.1,10.8,31.6,10.9,48.6L404.8,500"/>
<path fill="none" stroke="#030303" stroke-width="2" stroke-miterlimit="10" d="M498.1,378.9c5.9-23.8-17.8-71.5-13.9-81
	s36.4-11.7,57.4-16.5c22.3-5.1,48-15.2,54.8-12c12.6,6,10.5,64.3,19.8,82.9"/>
<path fill="none" stroke="#030303" stroke-width="2" stroke-miterlimit="10" d="M624,351c3.3-24.3-23.2-73.1-14-84.7
	c9.7-12.2,45.6-10.1,59.5-13.3c14-3.1,37.2-12.2,47-10.6c9.8,1.7,6.2,35.9,12.2,54.5"/>
<line fill="none" stroke="#030303" stroke-width="2" stroke-miterlimit="10" x1="480.1" y1="334" x2="491.5" y2="331.4"/>
<line fill="none" stroke="#030303" stroke-width="2" stroke-miterlimit="10" x1="607.4" y1="305.4" x2="614.8" y2="303.8"/>
<polyline fill="none" stroke="#030303" stroke-width="2" stroke-miterlimit="10" points="390.1,503.3 391.4,508.8 379.6,511.3 
	378.5,505.9 "/>
<polyline fill="none" stroke="#030303" stroke-width="2" stroke-miterlimit="10" points="783.7,415 785,420.6 773.2,423 
	772.1,417.7 "/>
<path fill="none" stroke="#030303" stroke-width="2" stroke-miterlimit="10" d="M861.1,305.2l-28.3-0.7l-15.1,128.2
	c14.2,4.8,25.2,6.7,39,2.9C866.6,419.4,869.9,328.6,861.1,305.2z"/>
<path fill="none" stroke="#030303" stroke-width="2" stroke-miterlimit="10" d="M823.1,434.6l-30.8,66.5l5.8,91.9h-19.5"/>
<path fill="none" stroke="#030303" stroke-width="2" stroke-miterlimit="10" d="M850.3,437.1l-31,63.9l15.7,91.9h-16.8"/>
<path fill="none" stroke="#030303" stroke-width="2" stroke-miterlimit="10" d="M855.3,326.1l-16.9,67.5l-51.6,16.9
	c-3.6,2.5-6.5,3.2-8.7,2.4c-2.9-1.1-4.7-5.4-2.6-8.3c2.8-3.8,9.7-2.5,10.6,3.5"/>
<polyline fill="none" stroke="#030303" stroke-width="2" stroke-miterlimit="10" points="825.5,366.4 814.6,384.1 801.9,388.1 "/>
<path fill="none" stroke="#030303" stroke-width="2" stroke-miterlimit="10" d="M843.9,296.7c22.6,1.3,35.2-11.5,36-29.3
	c0.9-17.9-4.3-38.8-25.5-40.9c-21.2-2.1-35.6,12.6-36.6,28.6C816.9,270.9,819.7,295.4,843.9,296.7z"/>
</svg>
