<?xml version="1.0" encoding="utf-8"?>
<!-- Generator: Adobe Illustrator 19.1.1, SVG Export Plug-In . SVG Version: 6.00 Build 0)  -->
<svg version="1.2" baseProfile="tiny" id="Layer_1" xmlns="http://www.w3.org/2000/svg" xmlns:xlink="http://www.w3.org/1999/xlink"
	 x="0px" y="0px" viewBox="0 0 283.5 283.5" xml:space="preserve">
<path fill="none" stroke="#050505" stroke-miterlimit="10" d="M184.7,254c-24.1,31.5-56.1,29.2-84.7,29.2H52.5L69.6,245l-7.1-8.6"/>
<path fill="none" stroke="#050505" stroke-miterlimit="10" d="M202.5,255.8c4.4,0.3,3-5.6,0.6-5.8c-2.1-0.2-3.6,1.6-2.9,4.7
	l-4.6,28.2l-14.1-24.8l19,25.4l35.9-2.3c-0.6-2.8,3-3.5,4.4-2s0.7,3.6-0.9,4.2c-1.7,0.6-3.3-0.8-3.3-0.8"/>
<polyline fill="none" stroke="#050505" stroke-miterlimit="10" points="60.3,283.2 52.5,243.4 42.1,245.9 "/>
<path fill="none" stroke="#040404" stroke-miterlimit="10" d="M177.4,233.7c0.7-1.5,1.8-3.1,2.8-4c4.6-4.4,11.9-5.1,17.4-1.4
	c6.2,4.3,5.5,13.7,3.9,18.7c-1.7,5.1-7.7,7.6-13.6,7.3c-5.9-0.3-8.4-1-11.1-6.8c-0.8-1.6-1.5-3.6-1.5-5.4"/>
<path fill="none" stroke="#040404" stroke-miterlimit="10" d="M202,244.9c2,3,6.6,0.4,6.6-4.1c0-4.5-3.7-8.1-6.4-4.6"/>
<path fill="none" stroke="#040404" stroke-miterlimit="10" d="M175.6,241.8c-2.7,2.5-6.5,0.2-5.6-5s5.3-8.4,7.4-3.2
	C178.5,236.5,177.8,239.7,175.6,241.8z"/>
<path fill="none" stroke="#040404" stroke-miterlimit="10" d="M204.8,234.8c-3.6-11.7-20.7-16.7-28.7-3.4"/>
<path fill="none" stroke="#040404" stroke-miterlimit="10" d="M175.8,244.2c-2.2,0.5-1.6,2.9-2.8,4"/>
<path fill="none" stroke="#040404" stroke-miterlimit="10" d="M178.8,250.9c-1.3,2-0.8,3.8-2.2,4.8"/>
<path fill="none" stroke="#040404" stroke-miterlimit="10" d="M176.6,247.1c-1.9,1.8-0.7,4.2-1.9,5.4"/>
<path fill="none" stroke="#040404" stroke-miterlimit="10" d="M185.2,238.5c0.6,1.4,3.8,1.9,4.5,1"/>
<path fill="none" stroke="#040404" stroke-miterlimit="10" d="M195.8,240.5c0.4,1.8,3.4,2,4.4,0.9"/>
<path fill="none" stroke="#040404" stroke-miterlimit="10" d="M173.3,242.8c-0.9,1.4-2.3,1.4-2.7,2.1"/>
</svg>
