<?xml version="1.0" encoding="utf-8"?>
<!-- Generator: Adobe Illustrator 19.1.1, SVG Export Plug-In . SVG Version: 6.00 Build 0)  -->
<svg version="1.2" baseProfile="tiny" id="Layer_1" xmlns="http://www.w3.org/2000/svg" xmlns:xlink="http://www.w3.org/1999/xlink"
	 x="0px" y="0px" viewBox="0 0 283.5 283.5" xml:space="preserve">
<path fill="none" stroke="#040404" stroke-miterlimit="10" d="M228.4,237.2c7.4,2.5,10.9,3,17.1-2.3c6.5-5.4,7.9-16.5,5.2-22.4
	c-3.3-7.4-11.9-11.8-20.6-10.2c-9.9,1.9-13.9,13.2-14.6,19.8C215,228.6,221,234.6,228.4,237.2z"/>
<path fill="none" stroke="#040404" stroke-miterlimit="10" d="M227.4,236.8c-17.5,13.5-53,21-102.6,24.1l-42.2,6.2l-40.6-8
	l-10.9,6.7"/>
<polyline fill="none" stroke="#040404" stroke-miterlimit="10" points="125.4,260.5 93.1,281.1 58.4,258.2 50.1,265.6 "/>
<path fill="none" stroke="#040404" stroke-miterlimit="10" d="M181.1,272.5c0,0-1.6,1.8-0.3,3.6c1.3,1.8,7.4,1.3,7.5-1.7
	c0.1-3.1-3-3.7-5.2-2.9l-24.2-20.4l63.7-11.1l24.9,31.6l-40.2,3.2c-1.5-4-5.6-4.6-7.5-2.5c-1.8,2.1-0.1,4.3,1.4,4.7
	c1.5,0.4,4.5,0.5,5.6-0.9"/>
<path fill="none" stroke="#040404" stroke-miterlimit="10" d="M225.5,217.4c0.5,2.3,3.3,2.6,4.6,1.9"/>
<path fill="none" stroke="#040404" stroke-miterlimit="10" d="M239.7,221.4c0.5,2.2,3.8,2.8,5.1,1.7"/>
<path fill="none" stroke="#040404" stroke-miterlimit="10" d="M216,219.3c-4,2.5-8.3-2.8-6-8c2.3-5.3,8.7-7.6,10.2-2.2"/>
<path fill="none" stroke="#040404" stroke-miterlimit="10" d="M250,228.8c1.9,4.2,7.9,3.5,9.5-3c1.6-6.5-2.7-12.8-7.4-7.3"/>
<path fill="none" stroke="#040404" stroke-miterlimit="10" d="M217.9,206.2c10.6-11.7,34.1-9,37,10.3"/>
<path fill="none" stroke="#040404" stroke-miterlimit="10" d="M215.5,222.6c-1.6,2.1-5.3,4.2-4.8,5.9"/>
<path fill="none" stroke="#040404" stroke-miterlimit="10" d="M217.4,229c-0.3,2.7-2.3,3.4-2.3,5.6"/>
<path fill="none" stroke="#040404" stroke-miterlimit="10" d="M239.9,238.4c0.5,3-3.1,5.5-2.8,7.2"/>
<path fill="none" stroke="#040404" stroke-miterlimit="10" d="M247.2,233.2c-0.1,3-3.5,7.4-3.2,8.9"/>
</svg>
