<?xml version="1.0" encoding="utf-8"?>
<!-- Generator: Adobe Illustrator 19.1.1, SVG Export Plug-In . SVG Version: 6.00 Build 0)  -->
<svg version="1.2" baseProfile="tiny" id="Layer_1" xmlns="http://www.w3.org/2000/svg" xmlns:xlink="http://www.w3.org/1999/xlink"
	 x="0px" y="0px" viewBox="0 0 283.5 283.5" xml:space="preserve">
<path fill="none" stroke="#040404" stroke-miterlimit="10" d="M57.9,249.1c-0.7-2-1.1-4.3-1.1-6.1c0.2-8,6.2-15,14.4-16.6
	c9.4-1.7,17,7.5,20,13.4c3,6-0.2,13.7-5.8,18.6c-5.6,4.9-8.5,6.5-15.9,3.7c-2.1-0.8-4.5-2-6.1-3.6"/>
<path fill="none" stroke="#040404" stroke-miterlimit="10" d="M85.4,258.4c15,20.2,52.5,23.1,101.9,15.8l44.3-3.4l36.1,9.9l6.5-7.3"
	/>
<polyline fill="none" stroke="#040404" stroke-miterlimit="10" points="187.3,274.3 204.9,234.5 227.3,267.9 235.6,264.3 "/>
<path fill="none" stroke="#040404" stroke-miterlimit="10" d="M114.5,278.3c0,0,1.8,2,0.5,3.8c-1.2,1.8-6.5,0.9-6.6-2.1
	c-0.1-3.1,2.9-3.7,4.9-2.9l27.5-12.7l-50.3-0.4L61.3,282l-40.1-1.3c-0.9-4.3-5.6-5-7.7-3.1s-0.9,4,0.4,4.8s4.4,0.8,6.6,0"/>
<path fill="none" stroke="#040404" stroke-miterlimit="10" d="M89.8,237.5c4.4,0.9,6.3-5.4,2.4-9.5s-10.4-4.1-9.8,1.5"/>
<path fill="none" stroke="#040404" stroke-miterlimit="10" d="M63.4,258c-0.2,4.5-5.7,6-9.4,0.5c-3.7-5.5-2.6-12.2,3.9-9.4
	C61.3,250.6,63.6,254.2,63.4,258z"/>
<path fill="none" stroke="#040404" stroke-miterlimit="10" d="M83.5,226c-13.6-7.3-33.3,3.2-28.8,22.2"/>
<path fill="none" stroke="#040404" stroke-miterlimit="10" d="M65.6,260c-0.4,2.5,2.1,4,2.1,6.1"/>
<path fill="none" stroke="#040404" stroke-miterlimit="10" d="M80.2,262.3c0.8,2.8,2.7,1.8,3.6,3.9"/>
<path fill="none" stroke="#040404" stroke-miterlimit="10" d="M75.7,263.5c0.6,3,4,2.7,3.7,4.8"/>
<path fill="none" stroke="#040404" stroke-miterlimit="10" d="M69,261.9c0.8,3.2,4.4,4.2,4.4,6.4"/>
<line fill="none" stroke="#040404" stroke-miterlimit="10" x1="79.8" y1="234.6" x2="82.4" y2="236.6"/>
<line fill="none" stroke="#040404" stroke-miterlimit="10" x1="70.7" y1="242.4" x2="73.4" y2="244.1"/>
</svg>
