<?xml version="1.0" encoding="utf-8"?>
<!-- Generator: Adobe Illustrator 19.1.1, SVG Export Plug-In . SVG Version: 6.00 Build 0)  -->
<svg version="1.2" baseProfile="tiny" id="Layer_1" xmlns="http://www.w3.org/2000/svg" xmlns:xlink="http://www.w3.org/1999/xlink"
	 x="0px" y="0px" viewBox="0 0 283.5 283.5" xml:space="preserve">
<path fill="none" stroke="#040404" stroke-miterlimit="10" d="M59.2,269.8c-0.9-1.9-1.5-4.2-1.7-5.9c-0.5-8,4.7-15.5,12.7-17.9
	c9.2-2.6,17.7,5.9,21.2,11.4c3.5,5.7,1.1,13.6-4,19s-7.8,7.3-15.5,5.2c-2.1-0.6-4.6-1.5-6.5-3"/>
<path fill="none" stroke="#040404" stroke-miterlimit="10" d="M88.6,275.2c30.3,7,74.7,10.1,101.8,3l43.2-23.8l29,27.8l10.3,0.5"/>
<polyline fill="none" stroke="#040404" stroke-miterlimit="10" points="190.3,278.2 218.3,235.8 233.5,282 242.8,283.5 "/>
<path fill="none" stroke="#040404" stroke-miterlimit="10" d="M59.5,282.1l-37.4-1c-0.9-4.3-5.6-5-7.7-3.1s-0.9,4,0.4,4.8
	s4.4,0.8,6.6,0"/>
<path fill="none" stroke="#040404" stroke-miterlimit="10" d="M91.1,271.3l6.9,5.9l-13.2,1.9"/>
<path fill="none" stroke="#040404" stroke-miterlimit="10" d="M27.2,274.4c0,0,1.8,2,0.5,3.8c-1.2,1.8-6.5,0.9-6.6-2.1
	c-0.1-3.1,2.9-3.7,4.9-2.9l28.6-8.5"/>
<path fill="none" stroke="#040404" stroke-miterlimit="10" d="M89.9,255.2c4.5,0.5,5.8-6,1.5-9.7c-4.3-3.7-10.8-3.1-9.6,2.4"/>
<path fill="none" stroke="#040404" stroke-miterlimit="10" d="M65.5,278.1c0.2,4.5-5.1,6.5-9.3,1.4s-3.8-11.9,3-9.7
	C62.8,271,65.3,274.3,65.5,278.1z"/>
<path fill="none" stroke="#040404" stroke-miterlimit="10" d="M82.4,244.3c-14.2-6-32.8,6.4-26.6,24.9"/>
<path fill="none" stroke="#040404" stroke-miterlimit="10" d="M66.8,279.6c-0.1,2.5,2.4,2.6,5.1,3.6"/>
<path fill="none" stroke="#040404" stroke-miterlimit="10" d="M82.7,280.8c0.9,3.9,4.1,0.6,6.7,2.4"/>
<path fill="none" stroke="#040404" stroke-miterlimit="10" d="M71.5,281.5c1.1,3.1,8.6,0.9,8.6-2.2"/>
<line fill="none" stroke="#040404" stroke-miterlimit="10" x1="79.6" y1="253.2" x2="82.4" y2="255"/>
<line fill="none" stroke="#040404" stroke-miterlimit="10" x1="71.3" y1="261.9" x2="74.1" y2="263.3"/>
<line fill="none" stroke="#040404" stroke-miterlimit="10" x1="64" y1="281.7" x2="70.1" y2="281.1"/>
</svg>
