<?xml version="1.0" encoding="utf-8"?>
<!-- Generator: Adobe Illustrator 19.1.1, SVG Export Plug-In . SVG Version: 6.00 Build 0)  -->
<svg version="1.2" baseProfile="tiny" id="Layer_1" xmlns="http://www.w3.org/2000/svg" xmlns:xlink="http://www.w3.org/1999/xlink"
	 x="0px" y="0px" viewBox="0 0 283.5 283.5" xml:space="preserve">
<path fill="none" stroke="#020202" stroke-miterlimit="10" d="M178.8,283h7.4l-5.7-25.8l1.7-22.7l6.9-57.8c0,0,9.2-1.1,12.3-7.1
	c3.2-6.1,0.9-14.9-3-18.6c-4.8-4.5-12.7-5.3-18.8-1.4c-6.9,4.4-6.5,16.3-4.9,19.6c2.1,4.4,7.7,7.6,14.4,7.6"/>
<path fill="none" stroke="#020202" stroke-miterlimit="10" d="M164.9,283h8.6l-0.3-26.6l8.9-21.9"/>
<path fill="none" stroke="#020202" stroke-miterlimit="10" d="M189.8,229.3c-1.2,1.1-1.6,3.5,0.4,4.7s4.6-0.1,4.8-2.3
	s-1.9-4.3-4.2-3.7l2.6-20.5l-5-25.5l-6.3,24.6l-9.8,16.9c0,0,2.3,1.4,2.1,3.7s-3.7,2.9-5.6,1.7s-0.9-5.7,1.8-5.4"/>
<path fill="none" stroke="#020202" stroke-miterlimit="10" d="M199.9,152.7c2.9,3.3,3.2,6.6,5.4,8.4"/>
<path fill="none" stroke="#020202" stroke-miterlimit="10" d="M202.7,161.2c0.8,4.7,1.6,5.9,3.4,6.6"/>
<path fill="none" stroke="#020202" stroke-miterlimit="10" d="M201.9,168.3c0.7,3.7,1.5,5.8,3.4,6.1"/>
<path fill="none" stroke="#020202" stroke-miterlimit="10" d="M199.1,172.4c0.9,2.8,1.6,4.3,3.8,5.3"/>
<line fill="none" stroke="#020202" stroke-miterlimit="10" x1="175.6" y1="158" x2="178.1" y2="156.5"/>
<line fill="none" stroke="#020202" stroke-miterlimit="10" x1="185.5" y1="155.5" x2="188.5" y2="156.3"/>
<line fill="none" stroke="#020202" stroke-miterlimit="10" x1="178.1" y1="161.5" x2="178.6" y2="163.3"/>
<line fill="none" stroke="#020202" stroke-miterlimit="10" x1="186.4" y1="160.3" x2="187" y2="162.4"/>
<line fill="none" stroke="#020202" stroke-miterlimit="10" x1="129.8" y1="147.2" x2="132.9" y2="147.9"/>
<line fill="none" stroke="#020202" stroke-miterlimit="10" x1="119" y1="146.7" x2="122.6" y2="146.5"/>
<line fill="none" stroke="#020202" stroke-miterlimit="10" x1="131.1" y1="150.9" x2="130.7" y2="154.6"/>
<line fill="none" stroke="#020202" stroke-miterlimit="10" x1="121.3" y1="150.1" x2="121" y2="153.8"/>
<path fill="none" stroke="#020202" stroke-miterlimit="10" d="M123.9,132.6c-13.2-1.2-17.1,9.4-17.4,18.9
	c-0.3,9.5,4.2,15.5,12.9,16.2c8.7,0.8,14.5-3.1,16.2-11.7C137.2,147.4,137.2,133.8,123.9,132.6z"/>
<path fill="none" stroke="#020202" stroke-miterlimit="10" d="M110.6,170.8c5.8-1.6,11.3-0.9,17,0.6c5.3,1.4,8.7,16.3,1.3,28
	c-7.8,12.3,2.9,43.1-1.1,45.6c-4.8,3-31.3,8.3-33.6,2.2C102.8,223.7,98.8,174,110.6,170.8z"/>
<path fill="none" stroke="#020202" stroke-miterlimit="10" d="M124.7,246.3l33.6-5.6L142.8,274l4.5,9.4"/>
<path fill="none" stroke="#020202" stroke-miterlimit="10" d="M101.4,250l12.8,33l-42.9-7.9l3.4,8.3"/>
<path fill="none" stroke="#020202" stroke-miterlimit="10" d="M112.9,181.3l42.2,4.3l31-18.4c0,0,1.4,1.4,4,0.8
	c2.6-0.6,2.6-3.4,0.8-4.9c-1.5-1.2-5.2-1.1-5.5,1.9"/>
<path fill="none" stroke="#020202" stroke-miterlimit="10" d="M128.9,199.4l6.5,16.3l28.9,7.8c0,0-1.9,3.7,0.3,4.9s3.9,0.1,3.9,0.1"
	/>
<path fill="none" stroke="#020202" stroke-miterlimit="10" d="M164.9,222.3c1-1.1,4.5-1.6,4.9,1.4"/>
</svg>
