<?xml version="1.0" encoding="utf-8"?>
<!-- Generator: Adobe Illustrator 19.1.1, SVG Export Plug-In . SVG Version: 6.00 Build 0)  -->
<svg version="1.2" baseProfile="tiny" id="Layer_1" xmlns="http://www.w3.org/2000/svg" xmlns:xlink="http://www.w3.org/1999/xlink"
	 x="0px" y="0px" viewBox="0 0 283.5 283.5" xml:space="preserve">
<path fill="none" stroke="#020202" stroke-miterlimit="10" d="M101.3,211.6c7.6,1.7,11.1,1.8,16.8-4.2c5.8-6.1,6-17.2,2.7-22.8
	c-4.1-6.9-13.1-10.4-21.6-7.9c-9.6,2.9-12.4,14.6-12.3,21.3S93.7,209.9,101.3,211.6z"/>
<path fill="none" stroke="#020202" stroke-miterlimit="10" d="M113.3,277.4l-8.2-2.9l6.4-52.5l-30,55.9"/>
<path fill="none" stroke="#020202" stroke-miterlimit="10" d="M108.3,284.1l-7.2-5l1.8-53.5l-21.4,52.2c0,0-0.2-54.9,15-68.1"/>
<path fill="none" stroke="#020202" stroke-miterlimit="10" d="M110.7,243.1c-1.5,1.3-1.9,4.3,0.5,5.7s5.6-0.1,5.8-2.8
	s-2.2-5.2-5-4.4l1.2-13.3l-19.8-15.1l0.2,28.9l20,10.9c0,0,3.7,1.9,3.4,4.1c-0.2,2.8-3.8,4.1-5.8,2.4c-2.3-1.8-1.5-4,0-5.6"/>
<line fill="none" stroke="#020202" stroke-miterlimit="10" x1="106.3" y1="196.2" x2="110.3" y2="195.4"/>
<line fill="none" stroke="#020202" stroke-miterlimit="10" x1="118" y1="197.3" x2="120.7" y2="199.3"/>
<line fill="none" stroke="#020202" stroke-miterlimit="10" x1="109" y1="197.8" x2="108.1" y2="199.3"/>
<line fill="none" stroke="#020202" stroke-miterlimit="10" x1="118" y1="200.5" x2="117.1" y2="201.9"/>
<path fill="none" stroke="#020202" stroke-miterlimit="10" d="M90.9,183.2c-3.5,3.2-6.6,7.7-6.6,7.7"/>
<path fill="none" stroke="#020202" stroke-miterlimit="10" d="M87.6,191.5c-3.9,4.1-4.3,6.4-4.3,6.4"/>
<path fill="none" stroke="#020202" stroke-miterlimit="10" d="M87.1,199.9c-1.4,3.2-3.8,5.4-3.8,5.4"/>
<path fill="none" stroke="#020202" stroke-miterlimit="10" d="M89.8,205.3c-0.8,2.1-3.8,5.2-3.8,5.2"/>
<path fill="none" stroke="#020202" stroke-miterlimit="10" d="M214.4,284.5c10.1-8.6-7.9-6.8-17.9-2.1c-1.3-22.3-8.1-37.6-21.7-51.5
	"/>
<path fill="none" stroke="#020202" stroke-miterlimit="10" d="M167.1,277.9c0,0-2.4,2.6-4.5,1.7s-2.7-4.2,0-5.4
	c2.7-1.3,4.6,2.1,4.6,2.1l14.7-3.5l14.7,9.5l-16.7-3.9l-18.2,2.8c0,0-2.2-2.8-4.9-1.9s-1.9,4.4,0,5c2.7,0.8,4.6-2,4.6-2"/>
<path fill="none" stroke="#020202" stroke-miterlimit="10" d="M150,243.7c0,0,1.7,1.7,0,3.7s-5.7,1.2-5.9-2.2c-0.3-3.7,4.6-3,4.6-3
	l16.1,6.3l15.7-11.2l-0.9,18.3l-5.2,11.4c0,0-3.4,0.2-4,1.9c-0.8,2.7,0.9,5.4,4.4,3.8c2.4-1.1,0.8-4.9,0.8-4.9"/>
<path fill="none" stroke="#020202" stroke-miterlimit="10" d="M185.4,231.4c-5.2,1.1-11.3-1.8-18.2-0.6c-7.6,1.3-12.7-6.1-11.2-12.7
	c1.6-6.5,6.8-14.1,16.2-14c10.1,0.2,18.7,5,20.2,12.3C193.5,222.8,189.9,230.5,185.4,231.4z"/>
<path fill="none" stroke="#020202" stroke-miterlimit="10" d="M185.1,207.4c4-2.8,7.7-0.2,12,6"/>
<path fill="none" stroke="#020202" stroke-miterlimit="10" d="M165.6,205.5c2.7-4.8,11.5-6.9,15.3-2.8"/>
<line fill="none" stroke="#020202" stroke-miterlimit="10" x1="164.1" y1="215.8" x2="163.6" y2="219.4"/>
<line fill="none" stroke="#020202" stroke-miterlimit="10" x1="176.1" y1="217" x2="175.2" y2="220.6"/>
</svg>
