<?xml version="1.0" encoding="utf-8"?>
<!-- Generator: Adobe Illustrator 19.1.1, SVG Export Plug-In . SVG Version: 6.00 Build 0)  -->
<svg version="1.2" baseProfile="tiny" id="Layer_1" xmlns="http://www.w3.org/2000/svg" xmlns:xlink="http://www.w3.org/1999/xlink"
	 x="0px" y="0px" viewBox="0 0 283.5 283.5" xml:space="preserve">
<path fill="none" stroke="#020202" stroke-miterlimit="10" d="M142.3,182.5c-3.9-3.2-7.1-5.2-6.8-11.9c0.3-6.8,6.5-13.4,11.6-14.9
	c6.2-1.7,13.2,1.3,16.4,7.5c3.6,7.1-1,15.4-5.4,19.4C153.6,186.6,146.2,185.6,142.3,182.5z"/>
<path fill="none" stroke="#020202" stroke-miterlimit="10" d="M109.5,283.5l-3-5.6l17-20.5l1.8-30.1"/>
<path fill="none" stroke="#020202" stroke-miterlimit="10" d="M141.7,283.5h-8l0.1-26l-8.5-30.2c1-14.6,10.6-40.2,17.9-44.1"/>
<path fill="none" stroke="#020202" stroke-miterlimit="10" d="M164.8,206.8c0,0-2.6-1.2-4,2.7l-17.2,3l-5.2-24.4l10.1,18.4l12-19.9
	c-0.3-2.6,2.3-4.1,4.3-3.8"/>
<path fill="none" stroke="#020202" stroke-miterlimit="10" d="M144.9,156.6c-4,1.5-5.9,4.3-8.6,4.8"/>
<path fill="none" stroke="#020202" stroke-miterlimit="10" d="M138.5,162.7c-3,3.7-4.2,4.4-6.1,4.2"/>
<path fill="none" stroke="#020202" stroke-miterlimit="10" d="M135.7,169.3c-2.4,2.9-4.1,4.4-5.8,3.7"/>
<path fill="none" stroke="#020202" stroke-miterlimit="10" d="M136,174.2c-2.1,2-3.4,3-5.8,2.9"/>
<line fill="none" stroke="#020202" stroke-miterlimit="10" x1="164.8" y1="142.8" x2="164.8" y2="283.5"/>
<path fill="none" stroke="#020202" stroke-miterlimit="10" d="M161.5,188.1c1.3,1.5,3.3,1,3.3,1"/>
<path fill="none" stroke="#020202" stroke-miterlimit="10" d="M160.9,211.2c0.5,2.3,2.6,2.9,3.9,2.6"/>
<path fill="none" stroke="#020202" stroke-miterlimit="10" d="M149.7,169.7c0.6,1.9,2.4,2.6,3.8,2.4"/>
<path fill="none" stroke="#020202" stroke-miterlimit="10" d="M159.4,174.2c0.2,1.2,2.8,2.4,3.4,2.1"/>
</svg>
