<?xml version="1.0" encoding="utf-8"?>
<!-- Generator: Adobe Illustrator 19.1.1, SVG Export Plug-In . SVG Version: 6.00 Build 0)  -->
<svg version="1.2" baseProfile="tiny" id="Layer_1" xmlns="http://www.w3.org/2000/svg" xmlns:xlink="http://www.w3.org/1999/xlink"
	 x="0px" y="0px" viewBox="0 0 283.5 283.5" xml:space="preserve">
<line fill="none" stroke="#020202" stroke-miterlimit="10" x1="85.8" y1="119.1" x2="89" y2="120"/>
<line fill="none" stroke="#020202" stroke-miterlimit="10" x1="74.7" y1="118.6" x2="78.3" y2="118.4"/>
<line fill="none" stroke="#020202" stroke-miterlimit="10" x1="87.1" y1="122.3" x2="86.8" y2="126"/>
<line fill="none" stroke="#020202" stroke-miterlimit="10" x1="77" y1="121.4" x2="76.7" y2="125"/>
<path fill="none" stroke="#020202" stroke-miterlimit="10" d="M74.6,142.1c10.4,1.8,15.8-5.1,17.6-14c1.9-8.9-0.4-19.4-10.7-22.3
	c-10.5-2.8-18.2,5.7-19.1,13.9C61.2,129.6,63.1,140.1,74.6,142.1z"/>
<path fill="none" stroke="#020202" stroke-miterlimit="10" d="M69.3,145.3H86c9.2,6.8,10.1,61.2,19.7,68.9
	c-9.3,10.4-30,16.4-49.1,10c3.1-9.1,11.5-36,8.3-43.9C59,165.9,63.1,152.8,69.3,145.3z"/>
<path fill="none" stroke="#020202" stroke-miterlimit="10" d="M62.6,172.9l-6.1,13.7L35,209.8c0,0-3.2-1.1-4.6,2s1.6,6,4.5,5
	s3.2-3.7,1.5-5.7"/>
<path fill="none" stroke="#020202" stroke-miterlimit="10" d="M86,152.8l18.5,31.9l30,18.9c0,0-2,2.3-0.7,4.8c1.3,2.3,3,2,5.7,1.5"
	/>
<path fill="none" stroke="#020202" stroke-miterlimit="10" d="M89,224.4l-3.9,25.3l7,32.7L79.8,283"/>
<path fill="none" stroke="#020202" stroke-miterlimit="10" d="M64.5,226.2l-11.4,27.6L71,280l-11.6,3.2"/>
<path fill="none" stroke="#020202" stroke-miterlimit="10" d="M187.3,283.5l-8-0.4l6-27l-9.9-26.9l23.3-51.2c0,0,9.7,3.4,15.5-1.9
	c5.6-5.1,8.1-14.1,4.2-22.4c-3.9-8.4-14.5-9.5-20.6-5.3c-5.8,3.9-8.3,11.1-8.1,17.3c0.3,6.5,2.8,10.5,9,12.4"/>
<path fill="none" stroke="#020202" stroke-miterlimit="10" d="M160.8,283.5l-6-4.8l16.5-21.3l4.1-28.2"/>
<path fill="none" stroke="#020202" stroke-miterlimit="10" d="M250.4,199.4c5.5,1.1,6.4-2.7,4.8-4.2c-1.4-1.3-5.2-1.6-6.6,2.5
	l-28.4,0.9l-24.7-14l-22.1,17.2l-28.3,6.1c0,0,0.1,3-2.9,2.8s-3.2-1.5-3-3.2c0.2-2.6,3.4-4.2,5.7-1.5"/>
<path fill="none" stroke="#020202" stroke-miterlimit="10" d="M135.9,202.3c3.5-1.7,5,1.7,5,2.7"/>
<line fill="none" stroke="#020202" stroke-miterlimit="10" x1="214.7" y1="161.9" x2="214.3" y2="164.3"/>
<line fill="none" stroke="#020202" stroke-miterlimit="10" x1="205.2" y1="160.9" x2="205.2" y2="163.4"/>
<line fill="none" stroke="#020202" stroke-miterlimit="10" x1="202.2" y1="160.3" x2="205.2" y2="158.4"/>
<line fill="none" stroke="#020202" stroke-miterlimit="10" x1="215.3" y1="159.1" x2="217.3" y2="161.6"/>
<path fill="none" stroke="#020202" stroke-miterlimit="10" d="M192.9,153.3c-3.4,0.9-5.6,5.1-8.1,6"/>
<path fill="none" stroke="#020202" stroke-miterlimit="10" d="M190.4,159.1c-3.2,5.5-4.9,5.2-6.4,8.4"/>
<path fill="none" stroke="#020202" stroke-miterlimit="10" d="M189.8,167.5c-3,1.3-3,6.2-5,7.3"/>
<path fill="none" stroke="#020202" stroke-miterlimit="10" d="M192,173.5c-3.3,1.3-3.1,5.3-4.8,6.2"/>
</svg>
