<?xml version="1.0" encoding="utf-8"?>
<!-- Generator: Adobe Illustrator 19.1.1, SVG Export Plug-In . SVG Version: 6.00 Build 0)  -->
<svg version="1.2" baseProfile="tiny" id="Layer_1" xmlns="http://www.w3.org/2000/svg" xmlns:xlink="http://www.w3.org/1999/xlink"
	 x="0px" y="0px" viewBox="0 0 283.5 283.5" xml:space="preserve">
<path fill="none" stroke="#020202" stroke-miterlimit="10" d="M239.7,145.5c-12.3,8.7-19,53.8-14,65.5c3.8,5.1,18.3,7.8,33.3,0
	c-4.7-19,3.3-65.5,3.3-65.5H239.7z"/>
<path fill="none" stroke="#020202" stroke-miterlimit="10" d="M229.9,214.1l2.3,32.2l-15.5,35.3l10.3,2"/>
<path fill="none" stroke="#020202" stroke-miterlimit="10" d="M252.3,213.8l20.4,30.5l-18.9,33l6.1,6.2"/>
<path fill="none" stroke="#020202" stroke-miterlimit="10" d="M240.3,151l-29.8,21.5l-40.8,4c-1.5-2.9-7.2-1.8-7.3,1.6
	c-0.1,3.4,1.8,4.8,3.8,4.8c2.6,0,4.3-2.3,4-4.6"/>
<path fill="none" stroke="#020202" stroke-miterlimit="10" d="M250.2,141.5c11.4,1.4,18.2-4.7,19.2-13.7s-0.9-19.8-11.6-21.6
	c-10.7-1.8-18.5,5.2-19.5,13.3C237.3,127.6,238,140,250.2,141.5z"/>
<line fill="none" stroke="#020202" stroke-miterlimit="10" x1="245.3" y1="122.7" x2="245.3" y2="124.5"/>
<line fill="none" stroke="#020202" stroke-miterlimit="10" x1="255.6" y1="122.9" x2="255.6" y2="124.7"/>
<line fill="none" stroke="#020202" stroke-miterlimit="10" x1="243.1" y1="120" x2="245.9" y2="120"/>
<line fill="none" stroke="#020202" stroke-miterlimit="10" x1="254.8" y1="120.2" x2="257.7" y2="120.2"/>
<path fill="none" stroke="#020202" stroke-miterlimit="10" d="M260.7,156.5l3.7,24.9l0.9,30.6c0,0,4.3,3.1,2.3,5.1s-5.2,1.4-5.8-0.4
	c-0.6-1.8,1.4-4.4,1.4-4.4"/>
<path fill="none" stroke="#030303" stroke-miterlimit="10" d="M75.9,260.8c-4.5-12.4,7.3-17.8,0.5-27.3
	c-1.3-22.3-8.1-37.6-21.7-51.5"/>
<path fill="none" stroke="#030303" stroke-miterlimit="10" d="M63.2,279c-2.2,2.9,0.3,4,2.3,4.1c2.7,0,1.8-3.4-0.5-4.9l2.4-10.1
	l-4.7-15.8l13.8-18.8l-7.2,21.2l6.3,13.4l-1.7,10.1c3.1,2.1,2.8,4.6,0.9,4.8c-2.1,0.2-4.9,0-2.8-3.6"/>
<path fill="none" stroke="#030303" stroke-miterlimit="10" d="M21.4,189c0,0,1.7,1.7,0,3.7s-5.7,1.2-5.9-2.2c-0.3-3.7,4.6-3,4.6-3
	l19.9,7.7l21.3-5.6L42,204.6l-21.3-0.1c0,0-3.4,0.2-4,1.9c-0.8,2.7,0.9,5.4,4.4,3.8c2.4-1.1,0.8-4.9,0.8-4.9"/>
<path fill="none" stroke="#030303" stroke-miterlimit="10" d="M65.2,182.5c-5.2,1.1-11.3-1.8-18.2-0.6c-7.6,1.3-12.7-6.1-11.2-12.7
	c1.6-6.5,6.8-14.1,16.2-14c10.1,0.2,18.7,5,20.2,12.3C73.3,173.9,69.7,181.6,65.2,182.5z"/>
<path fill="none" stroke="#030303" stroke-miterlimit="10" d="M64.9,158.5c4-2.8,8,1.3,10.1,8.4"/>
<path fill="none" stroke="#030303" stroke-miterlimit="10" d="M45.4,156.6c2.7-4.8,13.8-5.5,17.6-1.4"/>
<line fill="none" stroke="#030303" stroke-miterlimit="10" x1="43.9" y1="166.9" x2="43.4" y2="170.5"/>
<line fill="none" stroke="#030303" stroke-miterlimit="10" x1="55.9" y1="168.1" x2="55" y2="171.7"/>
<path fill="none" stroke="#030303" stroke-miterlimit="10" d="M57.1,184.6c-5.4,0.4-4.1,2.8,2.2,2.6C66.6,186.9,64,184.1,57.1,184.6
	z"/>
<line fill="none" stroke="#030303" stroke-miterlimit="10" x1="63.7" y1="185.8" x2="162.5" y2="179.7"/>
</svg>
