<?xml version="1.0" encoding="utf-8"?>
<!-- Generator: Adobe Illustrator 19.1.1, SVG Export Plug-In . SVG Version: 6.00 Build 0)  -->
<svg version="1.2" baseProfile="tiny" id="Layer_1" xmlns="http://www.w3.org/2000/svg" xmlns:xlink="http://www.w3.org/1999/xlink"
	 x="0px" y="0px" viewBox="0 0 283.5 283.5" xml:space="preserve">
<line fill="none" stroke="#020202" stroke-miterlimit="10" x1="203.3" y1="283.5" x2="221.9" y2="212"/>
<line fill="none" stroke="#020202" stroke-miterlimit="10" x1="211.5" y1="212" x2="255.7" y2="212"/>
<path fill="none" stroke="#030303" stroke-miterlimit="10" d="M196.8,149.3l15.8-9.2c25.3,9.3,37.8,45.2,37.7,65.3
	c-0.1,7.1-41.2,8-44.4,3.9c-3.2-4.1,12.3-29.7,3.2-36.8C200.3,165.7,196.8,162.2,196.8,149.3z"/>
<path fill="none" stroke="#030303" stroke-miterlimit="10" d="M230.8,211.7L198,239.9l39.9,31.3l-4.1,11.7"/>
<path fill="none" stroke="#030303" stroke-miterlimit="10" d="M208.8,210.6L169.4,229l30.1,41.7l-7.9,12.3"/>
<path fill="none" stroke="#030303" stroke-miterlimit="10" d="M200.3,141c14.6-6.4,16.1-18.2,11.1-29.7
	c-5.1-11.4-17.3-19.4-30.7-12.6c-11.4,5.8-13.2,17.9-8.8,28.2S185.6,146.8,200.3,141z"/>
<line fill="none" stroke="#030303" stroke-miterlimit="10" x1="190.2" y1="119.2" x2="191.5" y2="122.3"/>
<line fill="none" stroke="#030303" stroke-miterlimit="10" x1="178.3" y1="121.4" x2="179.4" y2="124.6"/>
<line fill="none" stroke="#020202" stroke-miterlimit="10" x1="265" y1="283.5" x2="244.7" y2="212"/>
<line fill="none" stroke="#030303" stroke-miterlimit="10" x1="50" y1="196.8" x2="50" y2="283.5"/>
<line fill="none" stroke="#030303" stroke-miterlimit="10" x1="177.5" y1="196.8" x2="177.5" y2="283.5"/>
<line fill="none" stroke="#030303" stroke-miterlimit="10" x1="41.3" y1="196.8" x2="187.8" y2="196.8"/>
<path fill="none" stroke="#030303" stroke-miterlimit="10" d="M154,195.3H89.5v-33.5c0-4.8,2.8-11.3,10-11.3h40.8
	c0,0,10.1,1.1,11.5,5.6s1,12-0.4,13.8h-16c-2.5-1.9-3.5-7.5-5.3-8.8c-1.8-1.2-15.6-1.1-20.6,0c-5.1,1.1-5.9,8.6-5.8,12.9
	c0.1,4.3,1.4,7.4,4.1,9.7H154V195.3z"/>
<line fill="none" stroke="#030303" stroke-miterlimit="10" x1="143.7" y1="169.8" x2="143.7" y2="183.7"/>
<polyline fill="none" stroke="#030303" stroke-miterlimit="10" points="200.2,164.1 184,180.1 154,188.2 "/>
<path fill="none" stroke="#030303" stroke-miterlimit="10" d="M218,152l-16.1,31.7l-33.2,7.2c0,0-3.8-4.3-6.7-1.7
	c-2.9,2.5-0.5,6,1.6,6.4s4.9-0.6,5.5-3.1"/>
</svg>
