<?xml version="1.0" encoding="utf-8"?>
<!-- Generator: Adobe Illustrator 19.1.1, SVG Export Plug-In . SVG Version: 6.00 Build 0)  -->
<svg version="1.2" baseProfile="tiny" id="Layer_1" xmlns="http://www.w3.org/2000/svg" xmlns:xlink="http://www.w3.org/1999/xlink"
	 x="0px" y="0px" viewBox="0 0 283.5 283.5" xml:space="preserve">
<path fill="none" stroke="#020202" stroke-miterlimit="10" d="M75.1,147.3c-7.8,13.7,2.2,51.9,7.2,63.6c3.8,5.1,28.1,4,29.8,0.2
	c1.7-3.9-17.5-38.6-17.5-64.5L75.1,147.3z"/>
<path fill="none" stroke="#020202" stroke-miterlimit="10" d="M86.5,213.2l13,31.2L98,283.3l12.9,0.1"/>
<path fill="none" stroke="#020202" stroke-miterlimit="10" d="M106.8,213.5l20,27.8l-11.3,32.2l6.8,9.7"/>
<path fill="none" stroke="#020202" stroke-miterlimit="10" d="M95,153.3l24.8,2.2l20-17.3c0,0,0.8-5.1,3.2-5.2
	c3.7-0.1,4,1.8,4.1,3.6c0.1,3.1-3.1,5.7-5.6,3.1"/>
<path fill="none" stroke="#020202" stroke-miterlimit="10" d="M80.3,144c11.5-0.4,17.2-7.5,16.8-16.6c-0.4-9-4-19.4-14.9-19.5
	c-10.9-0.1-17.4,8.1-17.1,16.2C65.4,132.3,68,144.4,80.3,144z"/>
<line fill="none" stroke="#020202" stroke-miterlimit="10" x1="79" y1="122.6" x2="79.5" y2="125.4"/>
<line fill="none" stroke="#020202" stroke-miterlimit="10" x1="89.3" y1="121.1" x2="90" y2="124"/>
<path fill="none" stroke="#020202" stroke-miterlimit="10" d="M114.9,162.7l24.4-13.1c-0.9-2.8,1.2-5.4,3.3-5.3
	c3.2,0.1,3.3,2.4,3.1,4.2c-0.5,2.8-3.2,4.2-5.5,1.9"/>
<path fill="none" stroke="#020202" stroke-miterlimit="10" d="M79.9,154.4l28.4,8.1"/>
<path fill="none" stroke="#020202" stroke-miterlimit="10" d="M228,224.8l1.4-10.5l-24.1-14.2l-20.1-21.4L145,129.3
	c0,0,9.2-1.1,12.3-7.1c3.2-6.1,0.9-14.9-3-18.6c-4.8-4.5-12.7-5.3-18.8-1.4c-6.9,4.4-6.5,16.3-4.9,19.6c2.1,4.4,7.7,7.6,14.4,7.6"/>
<path fill="none" stroke="#020202" stroke-miterlimit="10" d="M238.5,202.2l-7.5-4.6l-32.6,6.6l-13.2-25.4"/>
<path fill="none" stroke="#020202" stroke-miterlimit="10" d="M142,144.3l5.9-11.5l-18.1,16.8l-19.6,3.9c0,0,1,2.3-1,3.2
	c-2,0.9-3.7-0.6-3.9-2.8c-0.2-2.1,2.7-2.2,3.8-1.6"/>
<path fill="none" stroke="#020202" stroke-miterlimit="10" d="M112.8,162.3c-1.1-2.3-4.7-0.8-5.2,1.5c-0.4,1.8,0.8,3.5,3.1,3
	c2.2-0.5,3.1-2.5,2.6-3.7l21.4-4.6l4.7-8.9"/>
<path fill="none" stroke="#020202" stroke-miterlimit="10" d="M156.2,105.9c2.9,3.3,4.8,1.5,6.9,3.6"/>
<path fill="none" stroke="#020202" stroke-miterlimit="10" d="M158.7,113.3c1.4,3,4.1,1.6,5.9,2.8"/>
<path fill="none" stroke="#020202" stroke-miterlimit="10" d="M158.4,119.6c1.7,3.5,3.4,2.6,5.3,2.9"/>
<path fill="none" stroke="#020202" stroke-miterlimit="10" d="M155.9,124.2c0.9,2.8,2.5,2.8,4.3,4"/>
<line fill="none" stroke="#020202" stroke-miterlimit="10" x1="132" y1="109.9" x2="134.5" y2="108.4"/>
<line fill="none" stroke="#020202" stroke-miterlimit="10" x1="142.1" y1="107.8" x2="145.1" y2="108.6"/>
<line fill="none" stroke="#020202" stroke-miterlimit="10" x1="134.5" y1="112.6" x2="134.9" y2="114.7"/>
<line fill="none" stroke="#020202" stroke-miterlimit="10" x1="142.6" y1="111.6" x2="142.9" y2="113.8"/>
</svg>
