<?xml version="1.0" encoding="utf-8"?>
<!-- Generator: Adobe Illustrator 19.1.1, SVG Export Plug-In . SVG Version: 6.00 Build 0)  -->
<svg version="1.2" baseProfile="tiny" id="Layer_1" xmlns="http://www.w3.org/2000/svg" xmlns:xlink="http://www.w3.org/1999/xlink"
	 x="0px" y="0px" viewBox="0 0 283.5 283.5" xml:space="preserve">
<path fill="none" stroke="#000000" stroke-miterlimit="10" d="M264.3,260.2c0,11.6-10.2,21-10.2,21v1.8h-16.2v-1.8
	c0,0-10.2-7.5-10.2-19.4s14.2-16.4,14.2-26.1c0-6.5-5.5-11.6-5.5-11.6h20.6c0,0-5.5,5.7-5.1,12.7"/>
<path fill="none" stroke="#000000" stroke-miterlimit="10" d="M252.8,240.2c1.9,4.6,6.9,7.7,9.6,12.5"/>
<path fill="none" stroke="#000000" stroke-miterlimit="10" d="M252.8,240.2c6.4-2,17.3,9.6,9.6,12.5"/>
<path fill="none" stroke="#000000" stroke-miterlimit="10" d="M251.8,236.8c7.9-2.6,25.5,9,12.4,23.4"/>
<path fill="none" stroke="#000000" stroke-miterlimit="10" d="M242,224.1c-0.6-20.4-7.5-33.9-19.8-15.8c-3.8-1.7-11.8,3-9.4,5.4
	c2.5,2.4-0.5,3.1,2.7,3c4-0.7-3.2,2.9,3.2,2.8c2.8,0.3,0.5,2.1,2.9,2.6c1.9,0.4,3-3.2,2.5-5.6s1.5-4-2-8.3"/>
<path fill="none" stroke="#000000" stroke-miterlimit="10" d="M251.8,223.8c2.8-12,11.8-13.5,16.2-1.3c3.6,0.3,9.1,7.2,6.7,7.5
	c-1.2,0.1-0.5,1.7-1.5,2.4c-0.6,0.4-0.2-1-2.1-1.7c-1.2,0.5,0.1,0.9-1.4,2.3c-2.1,0.7-0.8-1.1-3.6,0.1c-1.2,1.1,0.2-4.6-0.5-5.9
	c-1.2-2,2.5-4.7,2.5-4.7"/>
<path fill="none" stroke="#000000" stroke-miterlimit="10" d="M247.8,224.1c-0.2-15.9,6.3-34.9,10.1-21.8c2.9-0.1,6.5,7.9,6.3,8.6
	c-0.6,2.1-2.3-1.1-2.4,0.1c-0.2,2-3.4,2.3-4.1,1.6c-1.2-1.2-1.6,0.5-2.3,0.2c-0.7-0.3,0.1-8.1,2.5-10.6"/>
<path fill="none" stroke="#040404" stroke-miterlimit="10" d="M146.8,253.3c6.7-1.4,9.5-2.6,11.8-9.4c2.4-7-1.5-15.9-6.1-19.1
	c-5.8-4.1-14.2-3.5-20,1.5c-6.6,5.8-4.5,16.1-2.1,21.4C132.9,252.9,140.1,254.7,146.8,253.3z"/>
<line fill="none" stroke="#040404" stroke-miterlimit="10" x1="147" y1="237.9" x2="148" y2="240.4"/>
<line fill="none" stroke="#040404" stroke-miterlimit="10" x1="155.3" y1="235.1" x2="156.3" y2="237.5"/>
<path fill="none" stroke="#040404" stroke-miterlimit="10" d="M128.2,234.4c-1.3,4.6-0.6,10.9-2.2,12.1"/>
<path fill="none" stroke="#040404" stroke-miterlimit="10" d="M128.6,242.2c1.2,5.3-0.2,8.5-0.9,9.5"/>
<path fill="none" stroke="#040404" stroke-miterlimit="10" d="M131.2,249c1.1,3.6-1.1,6-1.1,6"/>
<path fill="none" stroke="#040404" stroke-miterlimit="10" d="M134,251.5c-0.5,2,0.1,3.7-1.7,5.9"/>
<path fill="none" stroke="#040404" stroke-miterlimit="10" d="M140.2,253.6c-24.1,31.5-56.4,29.5-85,29.5l-47.4,0l28-38.1l-3.8-8.7"
	/>
<path fill="none" stroke="#040404" stroke-miterlimit="10" d="M176.9,273c4.4,0.3,3-5.6,0.6-5.8c-2.1-0.2-3.6,1.6-2.9,4.7
	l-26.8,11.3l-11-25.2l19,25.4l34.9-4.4c-0.6-2.8,3-3.5,4.4-2c1.4,1.5,0.7,3.6-0.9,4.2c-1.7,0.6-3.3-0.8-3.3-0.8"/>
<polyline fill="none" stroke="#040404" stroke-miterlimit="10" points="15.6,283.1 27.2,246.5 16.3,244.3 "/>
</svg>
