<?xml version="1.0" encoding="utf-8"?>
<!-- Generator: Adobe Illustrator 19.1.1, SVG Export Plug-In . SVG Version: 6.00 Build 0)  -->
<svg version="1.2" baseProfile="tiny" id="Layer_1" xmlns="http://www.w3.org/2000/svg" xmlns:xlink="http://www.w3.org/1999/xlink"
	 x="0px" y="0px" viewBox="0 0 283.5 283.5" xml:space="preserve">
<path fill="none" stroke="#050505" stroke-miterlimit="10" d="M119.4,132.7l11.1,1.4c5.5,13.8,13.2,29.6,3,32.5
	c-1.2,0.9,0,6,0.5,8.4c2,9.3,4.2,19.8,1.1,23.7c-3.9,4.9-14.4,4.9-20.7,1.5c-3.6-4.7,2.4-16.2,1-33.3S114.6,139.5,119.4,132.7z"/>
<path fill="none" stroke="#050505" stroke-miterlimit="10" d="M132.7,200.8l10.7,37l-7.7,45.7"/>
<path fill="none" stroke="#050505" stroke-miterlimit="10" d="M131.7,129.9c-9.4-4.7-11.4-12.7-7.5-19.9
	c3.9-7.2,10.9-14.3,19.9-10.2c9,4.1,11.4,13.2,8,19.8C148.7,126,141.8,135,131.7,129.9z"/>
<path fill="none" stroke="#050505" stroke-miterlimit="10" d="M149.1,283.1c-7.4,0.2-5.7-5.7-12.1-7.6"/>
<polyline fill="none" stroke="#050505" stroke-miterlimit="10" points="120.7,202.5 122.7,238 95.9,272.8 "/>
<path fill="none" stroke="#050505" stroke-miterlimit="10" d="M106,278.6c-3.4-2.9-1.1-9-5-12.5"/>
<path fill="none" stroke="#050505" stroke-miterlimit="10" d="M121.4,142.4l21.2,31.6l27.6-17.5c0,0,2.6,3.6,5.7,0.9s1-6.8-1.5-7
	c-2.6-0.3-5.7,1.4-4.9,4.4"/>
<polyline fill="none" stroke="#050505" stroke-miterlimit="10" points="177.5,154.2 189,147.3 183.3,140.5 167.8,149.7 169.6,152.8 
	"/>
<polyline fill="none" stroke="#050505" stroke-miterlimit="10" points="136.9,150.8 148.8,160.3 168.5,150.8 "/>
<path fill="none" stroke="#050505" stroke-miterlimit="10" d="M169.5,148.6c0,0-0.9-3.6,1.4-4.6c2.1-0.9,4,1.4,4,1.4"/>
<path fill="none" stroke="#050505" stroke-miterlimit="10" d="M185.2,172.5c0,0-5.6,2.8-10,3.4c-4.4,0.7-8.7-1-8.7-1
	s-4.4,9.3-5.2,14.4s-0.8,17.7-0.8,17.7s8.5,1.9,14.7,2.3c6.2,0.4,12.9-1.6,12.9-1.6s1.9-12.6,2.2-17.5
	C190.8,183.8,185.2,172.5,185.2,172.5z"/>
<line fill="none" stroke="#050505" stroke-miterlimit="10" x1="176" y1="157.4" x2="183.9" y2="173.1"/>
<line fill="none" stroke="#050505" stroke-miterlimit="10" x1="172.5" y1="158.2" x2="167.3" y2="175.2"/>
<line fill="none" stroke="#050505" stroke-miterlimit="10" x1="175.4" y1="157.8" x2="181.1" y2="174.3"/>
<line fill="none" stroke="#050505" stroke-miterlimit="10" x1="173.5" y1="158.4" x2="169.4" y2="175.7"/>
</svg>
