<?xml version="1.0" encoding="utf-8"?>
<!-- Generator: Adobe Illustrator 19.1.1, SVG Export Plug-In . SVG Version: 6.00 Build 0)  -->
<svg version="1.2" baseProfile="tiny" id="Layer_1" xmlns="http://www.w3.org/2000/svg" xmlns:xlink="http://www.w3.org/1999/xlink"
	 x="0px" y="0px" viewBox="0 0 283.5 283.5" xml:space="preserve">
<path fill="none" stroke="#040404" stroke-miterlimit="10" d="M161.3,132.6l-16.3,1.1l0,65c7.4,2.5,13.1,3.5,20.3,1.5
	C170.5,191.8,165.9,144.8,161.3,132.6z"/>
<path fill="none" stroke="#040404" stroke-miterlimit="10" d="M147.9,199.7l-17.5,34.5L120.2,281l-10.1-2.7"/>
<path fill="none" stroke="#040404" stroke-miterlimit="10" d="M162,201l-3.5,37l12.7,43l-10,2.5"/>
<path fill="none" stroke="#040404" stroke-miterlimit="10" d="M157.5,140.6l-1.7,37.7l-19.7,31.1c1.8,3.8-2.4,5.4-4.5,5.4
	c-2.1,0-3.3-2.5-2.7-4.8c0.6-2.3,3.8-4.2,6.1-1.8"/>
<polyline fill="none" stroke="#040404" stroke-miterlimit="10" points="145,150 142.4,176.5 113.7,171.1 "/>
<path fill="none" stroke="#040404" stroke-miterlimit="10" d="M141.9,132.3c11-4.2,14.3-13,10.9-21.6c-3.4-8.7-10.3-17.6-20.8-14.1
	s-14.3,13.6-11.4,21.4C123.5,125.8,130,136.8,141.9,132.3z"/>
<polyline fill="none" stroke="#040404" stroke-miterlimit="10" points="101.3,164.4 98.5,170.4 113.3,172.8 115.1,167.3 101,164.7 
	"/>
</svg>
