<?xml version="1.0" encoding="utf-8"?>
<!-- Generator: Adobe Illustrator 19.1.1, SVG Export Plug-In . SVG Version: 6.00 Build 0)  -->
<svg version="1.2" baseProfile="tiny" id="Layer_1" xmlns="http://www.w3.org/2000/svg" xmlns:xlink="http://www.w3.org/1999/xlink"
	 x="0px" y="0px" viewBox="0 0 283.5 283.5" xml:space="preserve">
<path fill="none" stroke="#050505" stroke-miterlimit="10" d="M155.8,132.6l-16.3,1.1c-4.5,4.8-8,21.3,0,28.2
	c4.8,8.1-3.8,31.9,0,36.8c3.8,4.9,14,5.6,20.3,1.5C166.2,196.1,165.7,147,155.8,132.6z"/>
<path fill="none" stroke="#050505" stroke-miterlimit="10" d="M141.7,200.6l-22.4,30.6l-5.8,46.8l-10.9-1.9"/>
<path fill="none" stroke="#050505" stroke-miterlimit="10" d="M156.1,201.9l0.6,36.9l14,41.2l-10.8,3.5"/>
<path fill="none" stroke="#050505" stroke-miterlimit="10" d="M153.2,139.8L111,143l31.9-23.8c3.7,1.7,5.8,0.2,6.6-2.1
	c0.8-2.3-1-4.9-3.9-4.5c-3.1,0.4-4.4,2.9-3.7,5.5"/>
<path fill="none" stroke="#050505" stroke-miterlimit="10" d="M144.1,128.6c11.8-0.2,17.9-7.3,17.7-16.5
	c-0.2-9.3-3.6-20.1-14.7-20.4S129,99.5,129,107.8C129.1,116.1,131.4,128.7,144.1,128.6z"/>
<polyline fill="none" stroke="#050505" stroke-miterlimit="10" points="141.7,116.6 139.9,114.9 153.2,102.7 160.7,109.6 
	147.8,121.7 145.9,119.9 "/>
<polyline fill="none" stroke="#050505" stroke-miterlimit="10" points="161.4,148 167.6,166.2 163.9,181.3 "/>
</svg>
