<?xml version="1.0" encoding="utf-8"?>
<!-- Generator: Adobe Illustrator 19.1.1, SVG Export Plug-In . SVG Version: 6.00 Build 0)  -->
<svg version="1.2" baseProfile="tiny" id="Layer_1" xmlns="http://www.w3.org/2000/svg" xmlns:xlink="http://www.w3.org/1999/xlink"
	 x="0px" y="0px" viewBox="0 0 283.5 283.5" xml:space="preserve">
<path fill="none" stroke="#040404" stroke-miterlimit="10" d="M131.9,132.6l17.3,1.1c3.5,3.7-2.3,25,4.9,38.6
	c7.2,13.7-1.4,23.8-4.9,26.4s-14,3.5-21.6,1.5c-3.2-4.9,0.4-23.9-1-39.6C125.2,145,129.9,137.7,131.9,132.6z"/>
<path fill="none" stroke="#040404" stroke-miterlimit="10" d="M160.1,234.2l1.6,4.2l4.7,44.3l11.1,0.8"/>
<path fill="none" stroke="#040404" stroke-miterlimit="10" d="M146.2,199.7l3,7.2"/>
<path fill="none" stroke="#040404" stroke-miterlimit="10" d="M129.5,233.7l-0.4,4.5l-17.2,42.3l9.7,3"/>
<path fill="none" stroke="#040404" stroke-miterlimit="10" d="M131.1,201l-0.1,2.5"/>
<path fill="none" stroke="#040404" stroke-miterlimit="10" d="M156.8,182.4l12.3,7.6c3-2.1,5.6,1.1,5.6,2.8c0,2-2.9,3.4-5.3,2.1
	c-2.2-1.2-1.3-4.1-1.3-4.1"/>
<path fill="none" stroke="#040404" stroke-miterlimit="10" d="M144.6,128.7c-12.5-0.4-18.8-7.7-18.3-17c0.4-9.3,4.4-19.9,16.2-20
	s19,8.3,18.7,16.7C160.9,116.6,158,129.2,144.6,128.7z"/>
<path fill="none" stroke="#040404" stroke-miterlimit="10" d="M136.6,142.5l-7.6,26.7l4.3,25.5c-3,1.1-2.6,4,0.3,5.3
	c2.9,1.3,6.1-1.1,5-3.1c-1-2-3.1-2.4-3.1-2.4"/>
<path fill="none" stroke="#040404" stroke-miterlimit="10" d="M163.7,215l-3.9,20.7c-0.5,2.6-2.5,3.7-5.1,3.2l-53.5-11.1
	c-3.3-1-4.2-3.2-3.5-5.9l4.8-18.5c0.6-2.5,1.2-5.2,7.1-4l30.1,5.7l20.1,3.8C163.8,209.9,164.4,211.2,163.7,215z"/>
<polyline fill="none" stroke="#040404" stroke-miterlimit="10" points="138.8,198.3 141.5,198.8 140.6,205.3 "/>
<polyline fill="none" stroke="#040404" stroke-miterlimit="10" points="127.8,202.9 129,196.5 131.3,197 "/>
</svg>
