<?xml version="1.0" encoding="utf-8"?>
<!-- Generator: Adobe Illustrator 19.1.1, SVG Export Plug-In . SVG Version: 6.00 Build 0)  -->
<svg version="1.2" baseProfile="tiny" id="Layer_1" xmlns="http://www.w3.org/2000/svg" xmlns:xlink="http://www.w3.org/1999/xlink"
	 x="0px" y="0px" viewBox="0 0 283.5 283.5" xml:space="preserve">
<path fill="none" stroke="#020202" stroke-miterlimit="10" d="M65.4,282.2l-9.1-2l6.4-65.6l-1-63.6c0,0-9.5-1.2-12.8-7.7
	c-3.3-6.6-0.9-16,3.1-20c4.9-4.8,13.2-5.7,19.4-1.5c7.1,4.7,6.8,17.6,5.1,21.2c-2.2,4.7-8,8.2-14.9,8.2"/>
<path fill="none" stroke="#020202" stroke-miterlimit="10" d="M91.8,282.2l-8.6-2.3c0,0-13.2-47.4-20.6-65.4"/>
<path fill="none" stroke="#020202" stroke-miterlimit="10" d="M52.6,210.2c0,0,2,5-2.2,7c-2.4,1.2-5.7,0.1-5.8-3.6c-0.1-4.3,6-5,6-5
	l10.9-52.1L75.7,182l17.7,5c0,0,1-4.7,4.8-4.3c3.8,0.4,4.6,5.4,2,7.2c-2.6,1.8-4.7,0.3-5.9-0.9"/>
<path fill="none" stroke="#020202" stroke-miterlimit="10" d="M72,128.1c1.1,2.9,1,5.6-0.4,8.1"/>
<path fill="none" stroke="#020202" stroke-miterlimit="10" d="M63.3,128.1c0.5,2.9,0.3,5.7-1.2,7.8"/>
<path fill="none" stroke="#020202" stroke-miterlimit="10" d="M50.3,125.2c-3,3.5-6.3,7-8.9,7"/>
<path fill="none" stroke="#020202" stroke-miterlimit="10" d="M47.6,132.6c-2.5,3-4.5,6.6-7,6.2"/>
<path fill="none" stroke="#020202" stroke-miterlimit="10" d="M47.6,139.5c-1.9,3.4-4.2,6-7,5.4"/>
<path fill="none" stroke="#020202" stroke-miterlimit="10" d="M49.3,144.1c-1.6,2.8-3.2,5.7-6.6,5.7"/>
<path fill="none" stroke="#020202" stroke-miterlimit="10" d="M248,206.9c-1,8.1-7.7,17-19.9,21.3l-51.6,10.9
	c-6.5,0.1-11.4-0.8-13.5-2.8"/>
<path fill="none" stroke="#020202" stroke-miterlimit="10" d="M241.8,277.2c0,0-2.4,2.6-1.4,4.6c1.1,2,4.4,2.4,5.4-0.4
	c1.1-2.8-2.4-4.4-2.4-4.4l0.1-19l-15.4-29.8l4.9,30.9l-1.5,17.7c0,0,3,2,2.3,4.7c-0.7,2.8-4.2,2.2-5,0.4c-1-2.6,1.7-4.7,1.7-4.7"/>
<path fill="none" stroke="#020202" stroke-miterlimit="10" d="M172.4,277.2c0,0-2.4-0.4-3,2.1c-0.7,2.5,2.3,5.3,5.2,3.6
	c3.2-1.9-0.2-5.5-0.2-5.5l6-16.4l-3.8-21.8l-4.4,20.8l-12.9,17.5c0,0,3.2,1.8,1.3,4.2s-5.4,2.5-6.2-1.3c-0.5-2.6,3.6-3.5,3.6-3.5"/>
<path fill="none" stroke="#020202" stroke-miterlimit="10" d="M148.8,236.4c5.2,1.1,10.8-0.5,17.8,0.3c6.8,0.2,12.8-6.2,11.1-12.8
	c-1.7-6.6-6.9-14.1-16.3-13.9c-10.1,0.3-18.7,5.1-20.2,12.4C140.2,228.7,144.4,235.5,148.8,236.4z"/>
<path fill="none" stroke="#020202" stroke-miterlimit="10" d="M145.3,215.6c-1-6.1,8.1-17.2,16.2-9.6"/>
<path fill="none" stroke="#020202" stroke-miterlimit="10" d="M172.2,214c4.5-7.4,12.7-10.6,17.2-4.2"/>
<path fill="none" stroke="#020202" stroke-miterlimit="10" d="M147.2,223c1.6-5.7,7-7.3,9.8-0.9"/>
<path fill="none" stroke="#020202" stroke-miterlimit="10" d="M161.7,222.2c1.9-6.7,7.9-4.1,9.5,1.1"/>
<line fill="none" stroke="#020202" stroke-miterlimit="10" x1="88.8" y1="202.2" x2="96" y2="190.3"/>
<line fill="none" stroke="#020202" stroke-miterlimit="10" x1="100" y1="183.4" x2="105.9" y2="173.2"/>
</svg>
