<?xml version="1.0" encoding="utf-8"?>
<!-- Generator: Adobe Illustrator 19.1.1, SVG Export Plug-In . SVG Version: 6.00 Build 0)  -->
<svg version="1.2" baseProfile="tiny" id="Layer_1" xmlns="http://www.w3.org/2000/svg" xmlns:xlink="http://www.w3.org/1999/xlink"
	 x="0px" y="0px" viewBox="0 0 283.5 283.5" xml:space="preserve">
<path fill="none" stroke="#040404" stroke-miterlimit="10" d="M171.3,164.8c-6.6,1.7-11.7-0.5-15.2-5.1c-5-6.1-4.5-16.3-1.6-21.9
	c3.5-6.9,11.3-10.4,18.7-7.9c8.3,2.9,10.7,14.6,10.6,21.3C183.7,157.9,177.9,163.1,171.3,164.8z"/>
<path fill="none" stroke="#040404" stroke-miterlimit="10" d="M210.7,283.5l4.2-8.3L192.5,253l-2.7-30.5"/>
<path fill="none" stroke="#040404" stroke-miterlimit="10" d="M179.6,283.5l9.1,0l-13.4-32.6l14.5-28.3c0,0-8.8-39.6-16.8-58.2"/>
<path fill="none" stroke="#040404" stroke-miterlimit="10" d="M198.9,219c0,0,2.1,2.3,1.3,4.1c-1.3,2-2.5,2.6-4.7,1.1
	c-1-1.2-2.3-5.2,1.3-6l-1-25.6l-21-23.6l-26,15l-29.9-1.1c0,0,0.8-2.4-2.6-2.9c-2.5-0.4-3.8,2.4-3.3,3.7c1,2.6,4.4,3.3,5.8,0.7"/>
<path fill="none" stroke="#040404" stroke-miterlimit="10" d="M180.3,136.4c3,3.2,4.9,8.3,4.9,8.3"/>
<path fill="none" stroke="#040404" stroke-miterlimit="10" d="M183.1,144.7c3.4,4.1,2.4,7.5,2.4,7.5"/>
<path fill="none" stroke="#040404" stroke-miterlimit="10" d="M183.6,153.1c0,4,1.6,5.9,1.6,5.9"/>
<path fill="none" stroke="#040404" stroke-miterlimit="10" d="M181.2,158.5c1.5,1.6,1.6,6.1,1.6,6.1"/>
<line fill="none" stroke="#040404" stroke-miterlimit="10" x1="156.4" y1="149.8" x2="157.1" y2="152.2"/>
<line fill="none" stroke="#040404" stroke-miterlimit="10" x1="166.9" y1="147.6" x2="167.5" y2="149.8"/>
<line fill="none" stroke="#040404" stroke-miterlimit="10" x1="153.3" y1="148" x2="157.2" y2="148.4"/>
<line fill="none" stroke="#040404" stroke-miterlimit="10" x1="165.1" y1="146.9" x2="168.1" y2="143.8"/>
<path fill="none" stroke="#040404" stroke-miterlimit="10" d="M106.9,220.6c2.4,4.5,28.6,39.4,29.4,43.7c0.8,4.3-2.1,11-5.1,13
	c-3,2-34.7,6.7-38.1,5.2c-3.4-1.5-6.4-7.1-6.9-11.2c-0.5-4.1,15.5-44.6,16.7-50.1c1.2-5.6,0.3-10-2.4-16.3
	c-2.7-6.3-29.9-40.8-30.6-45.7c-0.7-4.9,1.6-8.7,5.3-10.9c3.7-2.2,35.4-6.7,39.1-5.4s6.9,4.3,7.6,9.1s-16,44.4-17,52.2
	C103.9,212.2,104.5,216.1,106.9,220.6z"/>
<path fill="none" stroke="#040404" stroke-miterlimit="10" d="M92.6,193c5.6,3.3,12.1,1.6,16.6-2.6"/>
<path fill="none" stroke="#040404" stroke-miterlimit="10" d="M86.5,273c11.7-5.4,18.9-7.8,19.6-16.7s-2.7-38.4-2.7-38.4"/>
<path fill="none" stroke="#040404" stroke-miterlimit="10" d="M136.4,266.5c-13.6-1.4-22.7-1.8-25.5-9.9c-2.4-7.2-5.4-39.2-5.4-39.2
	"/>
</svg>
