<?xml version="1.0" encoding="utf-8"?>
<!-- Generator: Adobe Illustrator 19.1.1, SVG Export Plug-In . SVG Version: 6.00 Build 0)  -->
<svg version="1.2" baseProfile="tiny" id="Layer_1" xmlns="http://www.w3.org/2000/svg" xmlns:xlink="http://www.w3.org/1999/xlink"
	 x="0px" y="0px" viewBox="0 0 283.5 283.5" xml:space="preserve">
<path fill="none" stroke="#030303" stroke-miterlimit="10" d="M109,224.3c7.5,2.2,11,2.5,17-3.1c6.2-5.7,7.1-16.8,4.2-22.6
	c-3.6-7.2-12.4-11.2-21-9.3c-9.8,2.3-13.3,13.8-13.7,20.4C95.2,216.4,101.5,222.1,109,224.3z"/>
<line fill="none" stroke="#030303" stroke-miterlimit="10" x1="117.6" y1="211" x2="116.6" y2="212.4"/>
<line fill="none" stroke="#030303" stroke-miterlimit="10" x1="126.4" y1="214.3" x2="125.4" y2="215.6"/>
<path fill="none" stroke="#030303" stroke-miterlimit="10" d="M100.5,195.2c-3.8,3.9-5.5,11.1-7.7,11.5"/>
<path fill="none" stroke="#030303" stroke-miterlimit="10" d="M96.6,203.3c-2.1,5.3-2.7,9.9-4,10.6"/>
<path fill="none" stroke="#030303" stroke-miterlimit="10" d="M95.6,211.6c-0.8,4.2-2.7,6.6-2.7,6.6"/>
<path fill="none" stroke="#030303" stroke-miterlimit="10" d="M97,215.6c-1.6,1.7,0.5,6-1.6,7.7"/>
<path fill="none" stroke="#030303" stroke-miterlimit="10" d="M103.9,222.1c-2.9,6-19.1,5.9-33.9,14.9
	c-16.9,10.2-30.5,33.5-27.5,41.2l53.3-4L44,281.5l14.8,0.7"/>
<polyline fill="none" stroke="#030303" stroke-miterlimit="10" points="42.5,278.2 78.7,245.2 85.8,283.5 96.9,282.8 "/>
<path fill="none" stroke="#030303" stroke-miterlimit="10" d="M103.6,278.8c0,0-1.6,1.8-0.3,3.6c1.3,1.8,7.4,1.3,7.5-1.7
	c0.1-3.1-5.2-2.9-5.2-2.9l-15.1-17.9l3.3-32.1l16,26.9l32.9,2.6c1.8-3.1,4.6-1.6,4.6-1.6"/>
<polyline fill="none" stroke="#030303" stroke-miterlimit="10" points="140.8,262.5 161,241.1 171,250.1 150.7,270.5 140.5,262.2 
	"/>
<path fill="none" stroke="#030303" stroke-miterlimit="10" d="M153.6,270.5c-0.5-1.6,1.7-3.9,3.8-2.9c2.1,1,2.1,3.7,0.4,4.7
	C156.1,273.3,154,272.1,153.6,270.5z"/>
<path fill="none" stroke="#030303" stroke-miterlimit="10" d="M167.3,256c-0.5-1.6,1.7-3.9,3.8-2.9c2.1,1,2.1,3.7,0.4,4.7
	C169.8,258.9,167.8,257.6,167.3,256z"/>
<line fill="none" stroke="#030303" stroke-miterlimit="10" x1="158.3" y1="268.2" x2="168.3" y2="257.5"/>
<path fill="none" stroke="#030303" stroke-miterlimit="10" d="M142.7,257.2c-1,2.3-0.1,3.3-0.1,3.3"/>
<path fill="none" stroke="#030303" stroke-miterlimit="10" d="M189.9,280.8c-0.5-1.6,1.7-3.9,3.8-2.9c2.1,1,2.1,3.7,0.4,4.7
	C192.4,283.7,190.3,282.4,189.9,280.8z"/>
<path fill="none" stroke="#030303" stroke-miterlimit="10" d="M207,280.8c-0.5-1.6,1.7-3.9,3.8-2.9c2.1,1,2.1,3.7,0.4,4.7
	C209.6,283.7,207.5,282.4,207,280.8z"/>
<path fill="none" stroke="#030303" stroke-miterlimit="10" d="M225.2,280.8c-0.5-1.6,1.7-3.9,3.8-2.9c2.1,1,2.1,3.7,0.4,4.7
	C227.7,283.7,225.6,282.4,225.2,280.8z"/>
<polyline fill="none" stroke="#030303" stroke-miterlimit="10" points="192.9,279.8 210,281.2 227.9,279 "/>
<line fill="none" stroke="#030303" stroke-miterlimit="10" x1="228.2" y1="274.4" x2="210" y2="281.2"/>
<polyline fill="none" stroke="#030303" stroke-miterlimit="10" points="200.9,276.7 186.2,276.7 186.2,256.5 200.9,256.5 
	200.8,264.4 232.2,264.4 232.2,276.7 200.9,276.7 200.8,264.4 "/>
<polyline fill="none" stroke="#030303" stroke-miterlimit="10" points="232.2,276.7 233.6,282.3 240.5,282.3 232.2,274.8 "/>
<polyline fill="none" stroke="#030303" stroke-miterlimit="10" points="206.6,264.4 206.6,259.3 210.6,259.3 210.6,264.4 "/>
<path fill="none" stroke="#030303" stroke-miterlimit="10" d="M224.4,264.4v-15.2h-3.4c0,0,0.4-3.7,4.7-3.7s4.7,3.9,4.7,3.9h-3.1
	l0.1,14.8"/>
</svg>
