<?xml version="1.0" encoding="utf-8"?>
<!-- Generator: Adobe Illustrator 19.1.1, SVG Export Plug-In . SVG Version: 6.00 Build 0)  -->
<svg version="1.2" baseProfile="tiny" id="Layer_1" xmlns="http://www.w3.org/2000/svg" xmlns:xlink="http://www.w3.org/1999/xlink"
	 x="0px" y="0px" viewBox="0 0 283.5 283.5" xml:space="preserve">
<path fill="none" stroke="#010101" stroke-miterlimit="10" d="M92.8,281.7h77.3c0,0,4.2-0.6,5.2-3s-1.3-11.8-12.9-11.8h-62
	c-11.6,0-13.7,8.6-12.8,11.5S92.8,281.7,92.8,281.7z"/>
<line fill="none" stroke="#010101" stroke-miterlimit="10" x1="184.9" y1="142.5" x2="160.7" y2="128.1"/>
<line fill="none" stroke="#010101" stroke-miterlimit="10" x1="187.6" y1="137.9" x2="163.4" y2="123.5"/>
<path fill="none" stroke="#010101" stroke-miterlimit="10" d="M146.6,151.8c-1.3-0.8-3.1,2.2-1.9,3.2l-2.7,4.6
	c-3.3-1.9-11.6,7.2-6.8,11.3c4.8,4.2,17.9,12.1,24.2,14.4c6.4,2.4,10.6-9.3,6.8-11.3l2.7-4.6c1.4,0.8,3.3-2.4,1.9-3.2"/>
<path fill="none" stroke="#010101" stroke-miterlimit="10" d="M183.1,145.5l-24.2-14.4l-12.2,20.7l24.2,14.4l4-6.6
	c35.1,18.1,86.5,51.5,86.5,51.5c3.7,2.2,8.1-5.4,4.5-7.5c0,0-54.8-30.4-86.5-51.5L183.1,145.5c1.4,0.8,3.2-2.3,1.9-3.1l2.7-4.5
	c3.6,2.4,11.1-6.1,6.6-11.1c-4.5-4.9-17.5-12.4-24.2-14.4s-9.8,9.2-6.6,11.1l-2.7,4.5c-1.4-0.6-3.1,2.4-1.9,3.1"/>
<line fill="none" stroke="#010101" stroke-miterlimit="10" x1="168.9" y1="169.4" x2="144.7" y2="155"/>
<line fill="none" stroke="#010101" stroke-miterlimit="10" x1="166.2" y1="174.1" x2="141.8" y2="159.7"/>
<path fill="none" stroke="#040404" stroke-miterlimit="10" d="M180.2,259.6c1.9-7.7,3.4-10.9,11.1-13.5c7.9-2.8,17.7,1.7,21.1,7
	c4.3,6.6,3.3,16.3-2.6,22.9c-6.8,7.5-18.2,5.2-24,2.4C179.9,275.6,178.3,267.3,180.2,259.6z"/>
<line fill="none" stroke="#040404" stroke-miterlimit="10" x1="196.8" y1="260.8" x2="193.8" y2="259.8"/>
<line fill="none" stroke="#040404" stroke-miterlimit="10" x1="197.4" y1="250.1" x2="194" y2="250.7"/>
<path fill="none" stroke="#040404" stroke-miterlimit="10" d="M200.4,281c-5.2,1.5-7.5,0.7-10.3,1.3"/>
<path fill="none" stroke="#040404" stroke-miterlimit="10" d="M191.7,280.6c-0.7,1.7-3.7,1.2-7.7,1.7"/>
<path fill="none" stroke="#040404" stroke-miterlimit="10" d="M185.4,278.3c-0.8,2.6-2.9,4-7.9,4"/>
<path fill="none" stroke="#040404" stroke-miterlimit="10" d="M181.5,274.4c0,5.2-1.4,7.3-6.7,7.9"/>
<path fill="none" stroke="#040404" stroke-miterlimit="10" d="M180.2,259.6c-30.6,9.2-69.6,6.7-86.3,4l-26.8-30l-15.3,48l-12,0.6"/>
<polyline fill="none" stroke="#040404" stroke-miterlimit="10" points="93.8,263.6 79.5,219.8 68.9,281.2 57.4,281.7 "/>
<path fill="none" stroke="#040404" stroke-miterlimit="10" d="M162.9,209.8c-1.9-1.9-1.5-4.5,0.3-6s5.7,0.5,5.3,3.7
	c-0.3,2.6-4.4,2.7-4.4,2.7l-7.3,23.5l6.6,29.7l-14.6-27.2l1.1-27.5c4.1-1.1,4.6-2.4,4-4.3s-5-3.6-6.5-1.5c-1.9,2.6-1.1,5.3,1.3,5.9"
	/>
</svg>
