<?xml version="1.0" encoding="utf-8"?>
<svg version="1.2" baseProfile="tiny" id="Layer_1" xmlns="http://www.w3.org/2000/svg" xmlns:xlink="http://www.w3.org/1999/xlink"
	 x="0px" y="0px" viewBox="0 0 595.3 595.3" xml:space="preserve">
<path fill="none" stroke="#000000" stroke-width="3" stroke-miterlimit="10" d="M242,552.5C219,567,157,565,157,540
	s26.1-57.6,49.3-57.8c26-0.2,20.9,35.1,11.8,41c-13.6,8.8-54.2-6.4-54.2-6.4"/>
<line fill="none" stroke="#000000" stroke-width="3" stroke-miterlimit="10" x1="261.7" y1="491.7" x2="265.7" y2="561.6"/>
<path fill="none" stroke="#000000" stroke-width="3" stroke-miterlimit="10" d="M318,561.6c2-12.2,10-59.2-10.3-74.2
	c-20.3-15-40.3,10-44,29.7"/>
<path fill="none" stroke="#000000" stroke-width="3" stroke-miterlimit="10" d="M377.7,416.7c24.3,22,37.4,52,37.3,98.3
	c0,29.4-9.5,46.6-21.7,49.3c-14.7,3.4-43-12-38.3-39.7c4.7-27.6,32.7-35.3,57.5-33"/>
<path fill="none" stroke="#000000" stroke-width="3" stroke-miterlimit="10" d="M461.1,545.8c8.1-0.8,8.9,7,4.2,11.1
	c-4.8,4.1-12.7-1.1-12.1-6.8c0.9-7.9,12.9-7.5,12.9-7.5"/>
</svg>
