<?xml version="1.0" encoding="utf-8"?>
<svg version="1.2" baseProfile="tiny" id="Layer_1" xmlns="http://www.w3.org/2000/svg" xmlns:xlink="http://www.w3.org/1999/xlink"
	 x="0px" y="0px" viewBox="0 0 595.3 595.3" xml:space="preserve">
<path fill="none" stroke="#000000" stroke-width="3" stroke-miterlimit="10" d="M227.7,447c9.3,31.6,48.9,39,101.8,40.5
	c33.5,1,37.3,8.2,38.2-9.5c2-42-3.5-62.6-3.3-84c0.1-23.6,11.3-83,11-106.3c-0.3-23.1-5.6-63.5-20.9-78.1
	c-33.8-32.1-107.2-43.1-148.7-22.9c-25.3,12.3-29.2,35.7-29.7,55.8c-1,35.9,36.1,61.7,34.5,79.7c-23.8,2.4-48.6,9-59.8,21.7
	c-13,14.7-1.6,39.8,32,46.5c14.1,2.8,35.3,4.3,53,3.7C226.2,417,222.5,429.5,227.7,447z"/>
<line fill="none" stroke="#000000" stroke-width="3" stroke-miterlimit="10" x1="143.4" y1="523.3" x2="187.2" y2="346.2"/>
<path fill="none" stroke="#000000" stroke-width="3" stroke-miterlimit="10" d="M114.8,495.9c2-0.1,39.6-17.1,39.6-17.1l33.1,35.5"
	/>
<path fill="none" stroke="#000000" stroke-width="3" stroke-miterlimit="10" d="M170,365.6l-10.4-7.4l14.6-19.9
	c0,0-10-14.7,6.6-35.7c12-13.2,23.8-12.9,32.2-6.1c8.4,6.8,13.5,16.8,1.9,34.2c-13.7,19.6-23.4,15.8-29.7,15.2L170,365.6z"/>
<path fill="none" stroke="#000000" stroke-width="3" stroke-miterlimit="10" d="M187,303c10-0.9,24,11.3,26.6,16.5"/>
<path fill="none" stroke="#000000" stroke-width="3" stroke-miterlimit="10" d="M180.1,315.1c10-0.9,24,11.3,26.6,16.5"/>
<path fill="none" stroke="#000000" stroke-width="3" stroke-miterlimit="10" d="M244.1,285.6c4-5.3-3-18.3-9.4-21.8
	c-11.1-6.1-15,5.4-12.3,14.4C225.8,289,240.6,290.3,244.1,285.6z"/>
<path fill="none" stroke="#000000" stroke-width="3" stroke-miterlimit="10" d="M337.2,232.5c-1.6,12,10.5,14.8,9.5,2.2"/>
<path fill="none" stroke="#000000" stroke-width="3" stroke-miterlimit="10" d="M334.4,209.3c-3,11.2,9.8,11.8,9.8,1.2"/>
<path fill="none" stroke="#000000" stroke-width="3" stroke-miterlimit="10" d="M316.8,211.1c-5.2,11,8.5,22.7,9.5,4.7"/>
<path fill="none" stroke="#000000" stroke-width="3" stroke-miterlimit="10" d="M192.4,257.6c-2-2,13.9-10.8,15.2-6.6
	C208.9,255.1,195.1,260.3,192.4,257.6z"/>
<path fill="none" stroke="#000000" stroke-width="3" stroke-miterlimit="10" d="M230.3,240.4c0.5,4,23,3,21.6-1
	C250.4,235.1,229.8,236.8,230.3,240.4z"/>
<path fill="none" stroke="#000000" stroke-width="3" stroke-miterlimit="10" d="M361.3,342.1c-25.3-8.4-45.7-41.9-71.3-24.9
	s-13.6,52.9,18.7,73.3"/>
<path fill="none" stroke="#000000" stroke-width="3" stroke-miterlimit="10" d="M359.8,216.3c35.2,28.7,73.5,90,83.2,140
	s20.6,131.7,16.7,141.4c-8.7,1.2-15.7,7.7-44.7,6.7s-48-5.8-52.1-15"/>
</svg>
