<?xml version="1.0" encoding="utf-8"?>
<svg version="1.2" baseProfile="tiny" id="Layer_1" xmlns="http://www.w3.org/2000/svg" xmlns:xlink="http://www.w3.org/1999/xlink"
	 x="0px" y="0px" viewBox="0 0 595.3 595.3" xml:space="preserve">
<path fill="none" stroke="#000000" stroke-width="3" stroke-miterlimit="10" d="M230.8,449.2c11.5,30.9,45.7,36.8,98.7,38.3
	c33.5,1,37.3,8.2,38.2-9.5c2-42,7.1-74.1,7.5-95.5c0.5-26.7,3.8-70,4.9-93.3c2.4-52.7-29.9-83.3-47.3-95.2
	c-35.5-24.3-59.7-24.7-93.4-12c-33.5,12.6-49.5,42.7-50.7,67.7c-2,44,23.5,60.6,30.3,76.1c-21.3,1.8-33.1,10.9-39.3,22.6
	c-8.8,16.9,0.8,31.3,15.8,40.6c12.2,7.6,27.1,12.2,39.2,12.7C223.5,425,226.7,438,230.8,449.2z"/>
<line fill="none" stroke="#000000" stroke-width="3" stroke-miterlimit="10" x1="138.5" y1="556.8" x2="192.4" y2="382.5"/>
<path fill="none" stroke="#000000" stroke-width="3" stroke-miterlimit="10" d="M111.5,527.8c2,0,40.5-14.8,40.5-14.8l31,37.4"/>
<path fill="none" stroke="#000000" stroke-width="3" stroke-miterlimit="10" d="M174.2,400.8l-10-8l15.7-19c0,0-9.2-15.3,8.6-35.2
	c12.8-12.5,24.5-11.5,32.5-4.2c8,7.3,12.5,17.5,0,34.2c-14.8,18.7-24.3,14.5-30.5,13.5L174.2,400.8z"/>
<path fill="none" stroke="#000000" stroke-width="3" stroke-miterlimit="10" d="M194.8,339.4c10-0.3,23.3,12.7,25.6,18"/>
<path fill="none" stroke="#000000" stroke-width="3" stroke-miterlimit="10" d="M187.1,351c10-0.3,23.3,12.7,25.6,18"/>
<path fill="none" stroke="#000000" stroke-width="3" stroke-miterlimit="10" d="M323.2,270.7c7.1-3.1,13.6-11.5,8.5-9.6
	c-5.3,1.9-17.7,6.4-22.3,9.1C305.4,272.4,316.4,273.6,323.2,270.7z"/>
<path fill="none" stroke="#000000" stroke-width="3" stroke-miterlimit="10" d="M380.1,282.3c0-4.7,0-9.5-2.3-21.3"/>
<path fill="none" stroke="#000000" stroke-width="3" stroke-miterlimit="10" d="M375.3,251.2c-1.1-3.7-5.7-14.5-8.6-19.9"/>
<path fill="none" stroke="#000000" stroke-width="3" stroke-miterlimit="10" d="M379,270.2c-0.5-5.7-1.1-9.8-4.2-20.5"/>
<path fill="none" stroke="#000000" stroke-width="3" stroke-miterlimit="10" d="M274.8,256.7c-2.4-2.6,15.8-15.4,17.7-9.5
	C294.7,254.3,277.8,259.9,274.8,256.7z"/>
<path fill="none" stroke="#000000" stroke-width="3" stroke-miterlimit="10" d="M316.3,239.3c-0.5,7.3,23.3,4.3,23.3-1
	C339.7,234.2,316.9,231.7,316.3,239.3z"/>
<path fill="none" stroke="#000000" stroke-width="3" stroke-miterlimit="10" d="M359.3,392.1c-18.3-15.3-35-23.7-53.3-3.3
	c-20.6,22.9,8,61.7,49.3,66.2"/>
<path fill="none" stroke="#000000" stroke-width="3" stroke-miterlimit="10" d="M348.5,207.2c42.3,20.2,95.2,94.8,100.2,152.8
	c4.4,50.7,14.9,128,11,137.8c-8.7,1.2-15.7,7.7-44.7,6.7s-48-5.8-52.1-15"/>
</svg>
