<?xml version="1.0" encoding="utf-8"?>
<svg version="1.2" baseProfile="tiny" id="Layer_1" xmlns="http://www.w3.org/2000/svg" xmlns:xlink="http://www.w3.org/1999/xlink"
	 x="0px" y="0px" viewBox="0 0 595.3 595.3" xml:space="preserve">
<path fill="none" stroke="#000000" stroke-width="3" stroke-miterlimit="10" d="M148.8,124.8c0,0-11.7-1.8-25-5.8
	c-17.5-5.3-33.8-5.4-38,9c-2.8,9.5,8.8,26.6,24.8,37.8c9.3,6.5,37.5,15.9,37.5,15.9s9.7,62.4,12.5,78.8
	c4.7,28.1,24.5,62.8,32.5,77.5c10.8,19.8,36.5,36.1,44.8,40c24.5,11.5,44-14.8,44-14.8s4.9,7.4,11.8,10.8c8.9,4.4,15.4,5.4,24.4,3.6
	c5.2-1,10.9-3.3,14-10.9c2.2-5.4,1.6-10.1,0.6-20.1c0,0,21,8.9,28.9,2.6c4.6-3.7,6.4-10.4,6.1-19.6c-0.1-3.1-1.2-12.4-4.8-18.2
	c0,0,35.6,3.7,32.3-38.7c-1.4-18.4-63-99.8-63-99.8s69.8-34.3,56.1-55c-15-22.7-75,7.5-75,7.5S312,66,274.5,40
	c-26.3-18.3-85.9-21.6-107,20.8C149.7,96.5,148.8,124.8,148.8,124.8z"/>
<path fill="none" stroke="#000000" stroke-width="3" stroke-miterlimit="10" d="M233,73.7c-14.8-4.2-9.1-10.7,1.2-7.7
	C247.6,69.9,247.7,77.8,233,73.7z"/>
<path fill="none" stroke="#000000" stroke-width="3" stroke-miterlimit="10" d="M183.7,67.3c14-3.5,18.2,4.2,1.8,7.1
	C173.5,76.6,170.2,70.7,183.7,67.3z"/>
<path fill="none" stroke="#000000" stroke-width="3" stroke-miterlimit="10" d="M193.5,94c-0.8-6.5,3.5-10.9,11.3-9.5
	c6.4,1.2,10,8.1,4.8,13.8C206,102.5,194.5,102.5,193.5,94z"/>
</svg>
