<?xml version="1.0" encoding="utf-8"?>
<svg version="1.2" baseProfile="tiny" id="Layer_1" xmlns="http://www.w3.org/2000/svg" xmlns:xlink="http://www.w3.org/1999/xlink"
	 x="0px" y="0px" viewBox="0 0 595.3 595.3" xml:space="preserve">
<path fill="none" stroke="#000000" stroke-width="3" stroke-miterlimit="10" d="M371.7,334c0,0-9.7-19.1-17.7-27.7
	c-4.3-4.7-10.6-11.7-18.3-18c-5.3-4.3-13.6-12.5-19.3-18c-8-7.7-18.7-26.7-18.7-26.7s-20.8-32.7-26-58.3
	c-6-29.5-28.1-72.6-51.3-80.3c-28.3-9.4-58.7-2-76,18.7c-13.1,15.7-14.7,32.3-14.7,32.3s-0.7,24.5,2,47c1.3,11,6.7,38.7,11.3,59.3
	c5,22.3,11.4,36.3,14.5,49.2c3.5,14.7,27.2,67.5,27.2,67.5s22.5,45,35.2,67.5c21.6,38.4,41.5,50.8,55.8,50.8
	c24.5-0.1,18-33.3,18-33.3s12,12.7,28,9s10.7-24,10.7-24s10.7-0.3,16-7.3c7.7-10.1-3-29-3-29s16.1,1.7,23.5-8.3
	c8.4-11.1,11.4-23.7,10.1-37.6C377.5,350.4,371.7,334,371.7,334z"/>
<path fill="none" stroke="#000000" stroke-width="3" stroke-miterlimit="10" d="M206,121c-11.8,1.8-13.8,10.8-0.9,8.8
	C221.4,127.2,215.6,119.6,206,121z"/>
<path fill="none" stroke="#000000" stroke-width="3" stroke-miterlimit="10" d="M166.3,139c9.8-8.2,19-2.3,5,6.5
	C161.2,151.8,157.3,146.5,166.3,139z"/>
<path fill="none" stroke="#000000" stroke-width="3" stroke-miterlimit="10" d="M200.5,167.3c-5.4,2.5-13.8-1.1-14.5-7.8
	c-1.2-11,4.9-16.9,10.3-14C204.1,149.8,207,164.2,200.5,167.3z"/>
</svg>
