<?xml version="1.0" encoding="utf-8"?>
<svg version="1.2" baseProfile="tiny" id="Layer_1" xmlns="http://www.w3.org/2000/svg" xmlns:xlink="http://www.w3.org/1999/xlink"
	 x="0px" y="0px" viewBox="0 0 595.3 595.3" xml:space="preserve">
<path fill="none" stroke="#000000" stroke-width="3" stroke-miterlimit="10" d="M376,398c0,0,23,13.7,35.7,9.3
	c15.4-5.3,17.8-18.3,17.8-34.8c0-22.8-5-38.4-13.5-54c-6.7-12.2-21-31-21-31s3.8-21.6,3-84.5c-0.8-70.2-16.4-121.5-86.9-131.8
	c-58.3-8.5-91,22.5-112.8,96.5c-13.6,46-30.7,113.3-30.7,113.3s-12.7,16.8-27.2,32.5c-13.7,14.9-26,37.8-30.2,58.8
	c-2.9,14.6,8.1,28.3,30.6,30.8c20.1,2.2,36.1-21.4,36.1-21.4s-18,73.3-19.5,142.8c-0.5,22.2,17.8,43.1,36.5,40.2
	c15-2.3,27.7-21.7,27.7-21.7s13.3,27.3,29.3,23.7c16-3.7,25.3-23.7,25.3-23.7s16.7,24,29.3,24c12.7,0,20-24,20-24s20,28.7,35.3,24.8
	c22.7-5.7,13.5-58.1,15.3-101.4C378.1,424,376,398,376,398z"/>
<path fill="none" stroke="#000000" stroke-width="3" stroke-miterlimit="10" d="M275.2,109.3c15.6-1.4,18.9,4.5,0.7,6.2
	C261,116.8,262,110.5,275.2,109.3z"/>
<path fill="none" stroke="#000000" stroke-width="3" stroke-miterlimit="10" d="M331,117c13.9,8.2,8.2,13.8-5.5,5.1
	C313.8,114.8,315.2,107.7,331,117z"/>
<path fill="none" stroke="#000000" stroke-width="3" stroke-miterlimit="10" d="M300.2,150c-8.3,0-16.2-11.8-11.2-20.7
	c6.3-11.2,21.8-7.9,24.5,3.5C315.3,140.4,310.2,150,300.2,150z"/>
</svg>
