<?xml version="1.0" encoding="utf-8"?>
<svg version="1.2" baseProfile="tiny" id="Layer_1" xmlns="http://www.w3.org/2000/svg" xmlns:xlink="http://www.w3.org/1999/xlink"
	 x="0px" y="0px" viewBox="0 0 595.3 595.3" xml:space="preserve">
<path fill="none" stroke="#000000" stroke-width="3" stroke-miterlimit="10" d="M356.8,515.2c5.7,4.7,16.4,4.5,24.2,1.6
	c8.6-3.2,11.8-12.9,14.2-23.9c2.1-9.8,1.7-23.7-0.5-31.1c-2.8-9.4-7.1-14.6-7.1-14.6s32.9-53.5,12.6-98.9
	c-14-31.3-23.6-47.4-69.8-61.8c-41.8-13-80.6-2.4-105.1,15.3c-27.7,19.9-48.4,46.4-48.4,46.4s-25.5-0.8-35.8,1.7
	c-12.1,3-28.5,13.2-35,23.8c-6,9.8-2.5,20,3.4,25.1c6.6,5.7,20.9,8.6,31.4,8.1c0,0-22.3,39-29.3,48.3c-11.4,15.2-15,42,13,40.7
	c14.9-0.7,21.7-4.7,21.7-4.7s0.5,25.4,26.7,24.3c15.8-0.7,25.7-8.7,25.7-8.7s4.8,22.2,24.2,28.3c15.8,5,39.2-11.5,39.2-11.5
	s10.4,29,28.8,32.3c13,2.3,33.2-1.5,40.3-7.7C341,540,356.8,515.2,356.8,515.2z"/>
<path fill="none" stroke="#000000" stroke-width="3" stroke-miterlimit="10" d="M331.9,339.6c13.4,2.2,16.9,8.6-1.9,6.1
	C312.8,343.4,315.7,336.9,331.9,339.6z"/>
<path fill="none" stroke="#000000" stroke-width="3" stroke-miterlimit="10" d="M381.3,358.5c8.7,12.7,2.3,13.7-5.7,3.3
	C364.7,347.4,371.7,344.3,381.3,358.5z"/>
<path fill="none" stroke="#000000" stroke-width="3" stroke-miterlimit="10" d="M356.7,359.1c7.7,2.7,2.8,15.6-3,19.4
	c-6.3,4.1-15.7,3.2-17.3-5.5C334.9,365.5,345.1,355,356.7,359.1z"/>
</svg>
