<?xml version="1.0" encoding="utf-8"?>
<svg version="1.2" baseProfile="tiny" id="Layer_1" xmlns="http://www.w3.org/2000/svg" xmlns:xlink="http://www.w3.org/1999/xlink"
	 x="0px" y="0px" viewBox="0 0 595.3 595.3" xml:space="preserve">
<path fill="none" stroke="#000000" stroke-width="3" stroke-miterlimit="10" d="M397.9,415.5c0,0,20.6-19.5,28.1-35.5
	c5.9-12.7,10.9-30.6,7.2-46.6c-2.9-12.4-3.9-20.4-16.9-19.9C403.8,314,401,317,401,317s-0.2-50-12.5-79.5
	c-13.4-32.2-47.9-55.5-90.9-55.5c-39.3,0-70.9,8.7-98.6,49.5c-18.5,27.2-22.5,85-22.5,85s-15.5-12.5-34-2.5
	c-13.8,7.5-16,26-12.5,44.5c2,10.8,8.2,19,18.9,29.5c13.1,12.8,20.2,16.9,20.2,16.9s-5.1,34.5-1.3,71.3c3,29.1,5.7,46.8,21.2,53.8
	c19.8,8.9,30.7-23.6,30.7-23.6s6.8,22.2,22.8,18.6s28-21,28-21s16,22.3,32,23c12.7,0.5,28.5-23.5,28.5-23.5s14,42.5,36.5,35.5
	c24.4-7.6,30.9-31,30-63.5C396.6,444,397.9,415.5,397.9,415.5z"/>
<path fill="none" stroke="#000000" stroke-width="3" stroke-miterlimit="10" d="M255.5,214.8c14-0.5,19,7.5,0.3,7.8
	C239.9,222.7,245.2,215.1,255.5,214.8z"/>
<path fill="none" stroke="#000000" stroke-width="3" stroke-miterlimit="10" d="M328.8,214.7c14.7,0,17.1,9.5,0.8,9.5
	C316.5,224.3,314.8,214.7,328.8,214.7z"/>
<path fill="none" stroke="#000000" stroke-width="3" stroke-miterlimit="10" d="M292.3,258.8c-10.6-1-14.5-14.5-9.6-21.5
	c3.9-5.6,20.4-7.5,25.1,1.3C314,250,303.1,259.8,292.3,258.8z"/>
</svg>
