<?xml version="1.0" encoding="utf-8"?>
<svg version="1.2" baseProfile="tiny" id="Layer_1" xmlns="http://www.w3.org/2000/svg" xmlns:xlink="http://www.w3.org/1999/xlink"
	 x="0px" y="0px" viewBox="0 0 595.3 595.3" xml:space="preserve">
<path fill="none" stroke="#000000" stroke-width="3" stroke-miterlimit="10" d="M378,421c-4-19,1.6-38,2.7-46
	c1.1-7.9,2.3-20.1,2.1-25.3c-0.4-9,1.5-22.8-1-35c-2.6-12.6-10.8-28.6-10.8-28.6s-11.8-25.8-35.9-39.4
	c-22.5-12.7-50.9-16.4-80.1-9.5c-30.5,7.3-52.1,25.4-69.2,50.2c-13.2,19.1-35.8,60.3-35.8,60.3s-16.8-0.7-29.5,5
	c-8.2,3.7-11.9,16-12.3,23.3c-0.6,11.9,2.8,17.2,9,23.7c6.3,6.6,13.9,8.8,19.8,8.6c0,0-14.4,32.1-9.3,57.2
	c2.7,13.3,8.8,27,24.3,32.5c24.3,8.6,38,1,38,1s9,17,30.7,15.3c18.4-1.4,32.7-20,32.7-20s9,18.6,26.9,17c18.9-1.7,29.1-14,29.1-14
	s15,20,33.7,14.7c20.8-5.9,35.2-29.9,37-49.5C382.3,438.2,378,421,378,421z"/>
<path fill="none" stroke="#000000" stroke-width="3" stroke-miterlimit="10" d="M304.2,285.8c10.4,2.6,6.9,7.6-1.5,5.5
	C295.2,289.5,295,283.5,304.2,285.8z"/>
<path fill="none" stroke="#000000" stroke-width="3" stroke-miterlimit="10" d="M339.2,298.5c7.5,4.1,3.9,9.3-3.8,5.2
	C327.6,299.5,330,293.5,339.2,298.5z"/>
<path fill="none" stroke="#000000" stroke-width="3" stroke-miterlimit="10" d="M316.9,301.2c10.5,3.2,12.7,14.8,4.8,15.7
	c-7.4,0.8-13.9-2.9-17.8-7.3C298.3,303.2,308.2,298.5,316.9,301.2z"/>
</svg>
