<?xml version="1.0" encoding="utf-8"?>
<svg version="1.2" baseProfile="tiny" id="Layer_1" xmlns="http://www.w3.org/2000/svg" xmlns:xlink="http://www.w3.org/1999/xlink"
	 x="0px" y="0px" viewBox="0 0 595.3 595.3" xml:space="preserve">
<path fill="none" stroke="#000000" stroke-width="3" stroke-miterlimit="10" d="M390.3,496.5c5.7,4.7,14.4,12.2,22.8,12
	c7.8-0.2,18-4,21.8-16.5c2.5-8.2,5.2-19.3-1.1-32.3c-4.2-8.8-21.3-23.8-21.3-23.8s31.3-42.8,14-88.3c-12.2-32.1-24.9-49.6-71-64
	c-41.8-13-83-0.7-107.5,17c-27.7,19.9-51,51.3-51,51.3s-20.8-5.8-35.3-3.8c-14.7,2.1-30.5,13.1-31.3,25.5
	c-0.5,8.5,5.4,20.4,11.3,25.5c6.6,5.7,14.2,7.2,23.5,7.8c0,0-22.3,39-29.3,48.3c-11.4,15.2-11.7,40.2,13,40.7
	c15,0.3,21.7-4.7,21.7-4.7s2.8,23.8,28.9,22.7c15.8-0.7,23.4-7,23.4-7s5.7,20.6,25.1,26.8c15.8,5,38.2-9.9,38.2-9.9
	s10.8,23.8,28.5,29.9c13.8,4.8,33.8,1.3,45.9-10C374.5,530.8,390.3,496.5,390.3,496.5z"/>
<path fill="none" stroke="#000000" stroke-width="3" stroke-miterlimit="10" d="M366.5,332.8c10.3,3.5,9,9.3-2.8,5.3
	C350.8,333.8,356.5,329.4,366.5,332.8z"/>
<path fill="none" stroke="#000000" stroke-width="3" stroke-miterlimit="10" d="M411.8,352.3c10.2,3.8,7.5,9.2-3.2,5.1
	C400.5,354.3,400.7,348.1,411.8,352.3z"/>
<path fill="none" stroke="#000000" stroke-width="3" stroke-miterlimit="10" d="M384.2,361.5c10.5,3.5,10.8,13.3,5.4,15.3
	c-7.1,2.6-17.1-0.5-20.1-6.6C366.1,363.4,372.5,357.6,384.2,361.5z"/>
</svg>
