<?xml version="1.0" encoding="utf-8"?>
<svg version="1.2" baseProfile="tiny" id="Layer_1" xmlns="http://www.w3.org/2000/svg" xmlns:xlink="http://www.w3.org/1999/xlink"
	 x="0px" y="0px" viewBox="0 0 595.3 595.3" xml:space="preserve">
<path fill="none" stroke="#000000" stroke-width="3" stroke-miterlimit="10" d="M453.3,414.3c0,0,4.2-5.2,5.3-15
	c0.9-8.5,0.1-12.7-0.5-18.5c-1.3-11.3-5.4-19.6-9-26c-5.9-10.4-19-28.8-19-28.8s-7.6-14.8-10.1-25.7c-3.2-13.8,1.7-38.4-23.4-59.1
	c-25.4-21-54.8-18.7-78.5-11.8c-23,6.8-26.7,21.5-26.7,21.5s-6-6-15-11.7c-12.4-7.8-24.1-3.8-32.8,6.7c-5.4,6.4-9.9,29.5,8.5,49.9
	c15.8,17.6,41.3,74.4,41.3,74.4s-1.9,53.7-20.5,107.9c-19,55.3,6.4,75.5,18.2,78.1c16,3.5,50-21.8,50-21.8s13,29.9,29,26.3
	s30-28,30-28s9.5,16.8,27.3,16c12.7-0.6,17-28.8,17-28.8s9.7,7.7,22.4-1.7c8.6-6.3,14.8-18.6,13.3-42.6
	C478.7,454.7,453.3,414.3,453.3,414.3z"/>
<path fill="none" stroke="#000000" stroke-width="3" stroke-miterlimit="10" d="M415.6,270.8c-3.3-10.5-3.9-12-2.2-7.2
	C415.1,268.4,417,275.3,415.6,270.8z"/>
<path fill="none" stroke="#000000" stroke-width="3" stroke-miterlimit="10" d="M410.7,258.6c2.7,5.5,4.7,10,2.7,5.5
	C410.1,257.1,408,252.8,410.7,258.6z"/>
<path fill="none" stroke="#000000" stroke-width="3" stroke-miterlimit="10" d="M420.5,302.7c-1.2-5.3-1.2-6.6-2-13.3
	c-1.3-11.9,0.2,2.2,1,8.2C420,301.9,421.5,307.5,420.5,302.7z"/>
</svg>
