<?xml version="1.0" encoding="utf-8"?>
<svg version="1.2" baseProfile="tiny" id="Layer_1" xmlns="http://www.w3.org/2000/svg" xmlns:xlink="http://www.w3.org/1999/xlink"
	 x="0px" y="0px" viewBox="0 0 595.3 595.3" xml:space="preserve">
<path fill="none" stroke="#000000" stroke-width="3" stroke-miterlimit="10" d="M394.3,381.7c0,0,28.6-7.6,42.7-18
	c18-13.3,27.6-30.3,28-62c0.4-26.5-18-28.4-30.7-27.3c-24.7,2-35.3,23.3-35.3,23.3s8.3-88.5-10-142.9c-18.5-55.1-49-74.4-84-76.4
	c-22.6-1.3-73.1,12-96.4,55.3s-34.3,156.7-34.3,156.7s-21.8-9.7-39.3-12.7c-22.9-3.9-38-5.3-48.2,20c-11.8,29.1,11.6,49.8,24.9,60
	c22.7,17.3,58.7,18.7,58.7,18.7s-14.7,91.3-8,150.7c2.5,22,22,40.8,40.7,38c15-2.3,26-23.3,26-23.3s6,28.7,22,25
	c16-3.7,32-24.3,32-24.3s10,24.6,22.7,24.7c12.7,0,28-21.3,28-21.3s19.3,25.6,34.7,21.7c22.7-5.7,29.9-74.3,30.7-123.7
	C399.7,402.3,394.3,381.7,394.3,381.7z"/>
<path fill="none" stroke="#000000" stroke-width="3" stroke-miterlimit="10" d="M282,168.4c15.1-4.1,14.1,5.2,1.2,9.2
	C270.2,181.8,266.9,172.5,282,168.4z"/>
<path fill="none" stroke="#000000" stroke-width="3" stroke-miterlimit="10" d="M336.7,153.2c11.3-4.5,16.9,0.6,3.3,6.4
	C326.5,165.5,325.4,157.6,336.7,153.2z"/>
<path fill="none" stroke="#000000" stroke-width="3" stroke-miterlimit="10" d="M322,207.9c-10.3,0.4-14-16.5-7.9-23
	s14.5-3.6,18.1,2.6C335.8,193.7,330.6,207.6,322,207.9z"/>
</svg>
