<?xml version="1.0" encoding="utf-8"?>
<svg version="1.2" baseProfile="tiny" id="Layer_1" xmlns="http://www.w3.org/2000/svg" xmlns:xlink="http://www.w3.org/1999/xlink"
	 x="0px" y="0px" viewBox="0 0 595.3 595.3" xml:space="preserve">
<path fill="none" stroke="#000000" stroke-width="3" stroke-miterlimit="10" d="M414.7,480.3c0,0,1.5-12.2,2.3-23.7
	c1-14.1-0.3-19.3-0.3-30.3c0-12.8-1.2-23.5-1.7-35.8c-0.5-12.6-3.5-31.6-3.5-31.6s-2.7-33-13.5-61.2c-19-49.6-51.2-76.1-105.5-76.1
	c-40,0-79.7,27.7-100.8,45.2c-18.7,15.4-28.3,43.5-28.3,43.5c-4.1,6.5-8.9,23.5-13.3,40.2c-2.8,10.5-4.9,19.8-6,35.1
	c-1.1,14.4-1.3,29.9-2.3,42.9c-0.8,10.6-1.7,46.1-1.7,46.2c0,0-4.1,39.7,0.3,59.2c7,30.7,17.7,53.5,36.2,53.3
	c16.4-0.2,56.5-51,56.5-51s8.7,38.4,32.7,38.4c16.4,0,27.3-23.9,27.3-23.9s17.7,37.3,35.5,36.5c12.7-0.6,31.5-24.5,31.5-24.5
	s9.4,17.2,23,9c13.5-8.1,17.6-20.9,24-46.5C412.6,502.4,414.7,480.3,414.7,480.3z"/>
<path fill="none" stroke="#000000" stroke-width="3" stroke-miterlimit="10" d="M265.9,283.7c15.8,0.4,16.8-13,2.4-14.3
	C252.6,267.9,256.8,283.5,265.9,283.7z"/>
<path fill="none" stroke="#000000" stroke-width="3" stroke-miterlimit="10" d="M345.4,291.3c11.2,3.5,15.6-9.3,2-11.3
	C335,278.2,332.7,287.3,345.4,291.3z"/>
<path fill="none" stroke="#000000" stroke-width="3" stroke-miterlimit="10" d="M314.7,323c-11.7,0.4-22.7-9.6-17-19.3
	c5.3-9.2,23.4-8.3,29.7-0.8C335.3,312.4,325.2,322.7,314.7,323z"/>
</svg>
