<?xml version="1.0" encoding="utf-8"?>
<svg version="1.2" baseProfile="tiny" id="Layer_1" xmlns="http://www.w3.org/2000/svg" xmlns:xlink="http://www.w3.org/1999/xlink"
	 x="0px" y="0px" viewBox="0 0 595.3 595.3" xml:space="preserve">
<path fill="none" stroke="#000000" stroke-width="3" stroke-miterlimit="10" d="M389,483.8c0,0-1.3-21.5-4.7-34.8
	c-3.1-12.3-4.7-22.7-9.3-36.5c-4.5-13.5-11.2-23.4-16.5-36.5c-7.5-18.5-12.5-41.5-12.5-41.5s-3-14.9-16-65.6
	c-9.5-37-34-66-78.5-63.5c-33.2,1.9-47.3,30.9-55.6,58.8c-8,26.9-8.3,53.3-8.3,53.3S186,341.8,188,368c0.9,11.5,2,22.2,3.6,39
	c1,10.9,2.1,15.8,2.9,29c0.5,9.2,3,26.5,3,26.5s2.4,25.5,7.5,59.2c3.3,21.9,8,48.5,26.7,45.7c15-2.3,27.7-22.4,27.7-22.4
	s10.1,24.6,26.1,20.9c16-3.7,18.2-16.9,18.2-16.9s9.1,15.7,21.7,15.7c12.7,0,15.7-17,15.7-17s9.3,19.3,22.3,10.3
	c14-9.7,17.4-22,23.7-46.3C390.3,498.8,389,483.8,389,483.8z"/>
<path fill="none" stroke="#000000" stroke-width="3" stroke-miterlimit="10" d="M224.7,255.7c12.3-3.5,8.7-12.3-2.4-7.3
	C214.5,251.8,213,259,224.7,255.7z"/>
<path fill="none" stroke="#000000" stroke-width="3" stroke-miterlimit="10" d="M273,247c9.8,2.3,7.9,8.7-3,7
	C257,252,260.3,244,273,247z"/>
<path fill="none" stroke="#000000" stroke-width="3" stroke-miterlimit="10" d="M243.3,289.7c-5.9,0-10.9-11.7-6.9-17.5
	c4-5.7,14.3-4.3,16.9,0.8C256.3,278.8,251.1,289.7,243.3,289.7z"/>
</svg>
