<?xml version="1.0" encoding="utf-8"?>
<svg version="1.2" baseProfile="tiny" id="Layer_1" xmlns="http://www.w3.org/2000/svg" xmlns:xlink="http://www.w3.org/1999/xlink"
	 x="0px" y="0px" viewBox="0 0 595.3 595.3" xml:space="preserve">
<path fill="none" stroke="#000000" stroke-width="3" stroke-miterlimit="10" d="M393.4,417c0,0,6.9,1.1,19-4.7c12.3-5.9,22-13,25-24
	c4.4-16.2,2.7-38.7-3.7-50.7c-4.6-8.6-14.2-17.7-14.2-17.7s1.5-21,0-89.5c-1.4-63.6-27-118.3-97.5-128.8C243,90,187.1,150.3,172,215
	c-9.7,41.4-10.2,73.5-10.2,73.5s-7.2,20.2-12.2,30.5c-7.3,15.2-18.3,30.1-21.7,45.7c-2.6,12,0.9,31.9,9.7,37.7
	c9.7,6.3,20.5,8,20.5,8s0.9,44.7-0.6,114.2c-0.5,22.2,17.8,43.1,36.5,40.2c15-2.3,27.7-21.7,27.7-21.7s13.3,27.3,29.3,23.7
	c16-3.7,25.3-23.7,25.3-23.7s16.7,24,29.3,24c12.7,0,20-24,20-24s20,28.7,35.3,24.8c22.7-5.7,23.5-56.8,25.3-100.1
	C388.1,425.3,393.4,417,393.4,417z"/>
<path fill="none" stroke="#000000" stroke-width="3" stroke-miterlimit="10" d="M271,195.3c17,0,19.3,8,0,8
	C255.7,203.3,255,195.3,271,195.3z"/>
<path fill="none" stroke="#000000" stroke-width="3" stroke-miterlimit="10" d="M333.7,195.3c17-0.3,15.7,11.7-0.3,8
	C318,199.8,318.5,195.6,333.7,195.3z"/>
<path fill="none" stroke="#000000" stroke-width="3" stroke-miterlimit="10" d="M306.8,244c-7.5,2.3-15-9.9-15.1-18.7
	c-0.1-9.3,13-10,19.4-3.3C316.4,227.6,316.4,241,306.8,244z"/>
</svg>
