<?xml version="1.0" encoding="utf-8"?>
<svg version="1.2" baseProfile="tiny" id="Layer_1" xmlns="http://www.w3.org/2000/svg" xmlns:xlink="http://www.w3.org/1999/xlink"
	 x="0px" y="0px" viewBox="0 0 595.3 595.3" xml:space="preserve">
<path fill="none" stroke="#000000" stroke-width="3" stroke-miterlimit="10" d="M372.8,467c0,0-0.6-9-1.4-22.7
	c-0.8-14.5-1.8-27.3-1.8-41.8c0-9.6,0.5-22.4,0-36.5c-0.8-23.6-3-47.5-3-47.5s-3.7-46-11.1-98.5c-10.8-77-57.4-99.5-103.9-94
	c-38,4.5-53.9,32.1-60.5,94c-4,37,1,93,1,93s0,27,0,50.5c0,11.5,3.9,27.7,5.5,44.5c1,10.9,2.2,14.8,3,28c0.5,9.2,1,25.5,1,25.5
	s-1.6,26.5,3.5,60.2c3.3,21.9,8,48.5,26.7,45.7c15-2.3,30.7-21.7,30.7-21.7s3.4,25,19.4,21.3c16-3.7,21.8-18,21.8-18s9.4,18,22.1,18
	c12.7,0,15.3-19.3,15.3-19.3s4,19.9,19.3,16C383,557.9,383,531.2,377,496C375,484.3,372.8,467,372.8,467z"/>
<path fill="none" stroke="#000000" stroke-width="3" stroke-miterlimit="10" d="M231.7,180.6c14.6-4.6,10.6-10-3.3-6.2
	C216.2,177.8,217.2,185.2,231.7,180.6z"/>
<path fill="none" stroke="#000000" stroke-width="3" stroke-miterlimit="10" d="M278,167c14,1.3,17,9.5-0.6,6.7
	C265.4,171.8,269.3,166.2,278,167z"/>
<path fill="none" stroke="#000000" stroke-width="3" stroke-miterlimit="10" d="M263.3,204.3c-6,1.3-14.5-4.5-11.7-10.7
	c2.7-5.7,11.1-8,16.3-3.3C274,195.8,270.8,202.7,263.3,204.3z"/>
</svg>
