<?xml version="1.0" encoding="utf-8"?>
<svg version="1.2" baseProfile="tiny" id="Layer_1" xmlns="http://www.w3.org/2000/svg" xmlns:xlink="http://www.w3.org/1999/xlink"
	 x="0px" y="0px" viewBox="0 0 595.3 595.3" xml:space="preserve">
<path fill="none" stroke="#000000" stroke-width="3" stroke-miterlimit="10" d="M366.7,287.3c0,0,12.2-20.4,16.3-31.3
	c4.9-12.9,17.7-38.7,17.7-48.7c0-10.3-7.3-19.2-15-17c-8.4,2.4-25.7,28-25.7,28s-2.3-32.2-7.5-57.8c-6-29.5-23.8-52.3-47-60
	c-28.3-9.4-53.8-4.5-71.1,20.1c-17.8,25.3-15.7,98.2-15.7,98.2s-14.2-35-34.5-24.8c-16.8,8.5-6.9,37,3.5,55.4
	c11.5,20.4,23.3,27.4,23.3,40.6c0,14.7,0,74.8,0,74.8s0,57.5,2.7,83.3c3.1,30.6,19.8,48.2,29.8,46.8c17.4-2.6,23.3-21.8,23.3-21.8
	s8.5,26.7,24.5,23s13.8-13,13.8-13s5.3,20.5,19.5,14.3c11.6-5.1,10.5-17.4,10.5-17.4s8.4,25.4,21,15.8c14-10.7,18.8-56.6,17-91.7
	C371.3,371,366.7,287.3,366.7,287.3z"/>
<path fill="none" stroke="#000000" stroke-width="3" stroke-miterlimit="10" d="M309,123.7c-12.3,0-13.6,8.4-2.3,9.3
	C323.2,134.2,318.7,123.7,309,123.7z"/>
<path fill="none" stroke="#000000" stroke-width="3" stroke-miterlimit="10" d="M270,121.8c12.6,2.2,11.9,10.6-1.8,8.5
	C256.5,128.4,260,120,270,121.8z"/>
<path fill="none" stroke="#000000" stroke-width="3" stroke-miterlimit="10" d="M288,160.8c-6.2,0-13-4.3-13.7-11
	c-1.2-11,16.7-10.1,21.3-6C303.3,150.7,295.1,160.7,288,160.8z"/>
</svg>
