<?xml version="1.0" encoding="utf-8"?>
<svg version="1.2" baseProfile="tiny" id="Layer_1" xmlns="http://www.w3.org/2000/svg" xmlns:xlink="http://www.w3.org/1999/xlink"
	 x="0px" y="0px" viewBox="0 0 595.3 595.3" xml:space="preserve">
<path fill="none" stroke="#000000" stroke-width="3" stroke-miterlimit="10" d="M385,443c0,0-7.8-14.8-13-30.7
	c-1.6-4.8-8.8-25.7-13.7-37.7c-4.7-11.7-6.7-18.3-10.4-31.9c-3.3-12-2.9-37.1-2.9-37.1s4.3-42,17.3-92.7c12-46.5,0-80.7-50.6-92.7
	c-51.3-12.2-83.7,27.2-103,69.3c-16,35-19,117.7-19,117.7s0.2,19.3,0,25.3c-0.3,7.8-0.3,21.8-0.3,27.3c0,8.3,0.4,15.8,1.4,24.5
	c1,9.2,2,30.2,2,30.2s2.9,66.3,12.2,107c5,21.6,8,48.5,26.7,45.7c15-2.3,30.7-21.7,30.7-21.7s3.4,25,19.4,21.3
	c16-3.7,21.8-18,21.8-18s9.4,18,22.1,18c12.7,0,15.3-19.3,15.3-19.3s4,19.9,19.3,16c22.7-5.7,34-41,35.5-76.6
	C396.7,465,385,443,385,443z"/>
<path fill="none" stroke="#000000" stroke-width="3" stroke-miterlimit="10" d="M262.2,166.7c13.3,4,8.7,14-4.3,9.2
	C244.3,170.8,246.2,161.9,262.2,166.7z"/>
<path fill="none" stroke="#000000" stroke-width="3" stroke-miterlimit="10" d="M301.8,183.7c13.7,5,9.9,14.2-4.2,9
	C282.4,187.1,289.3,179.1,301.8,183.7z"/>
<path fill="none" stroke="#000000" stroke-width="3" stroke-miterlimit="10" d="M263.2,216.8c-6.6-0.7-8.2-11-2.5-18.2
	c3.1-3.9,12.9-9.9,15.7-1.3C278.8,205.1,269.7,217.6,263.2,216.8z"/>
</svg>
