<?xml version="1.0" encoding="utf-8"?>
<svg version="1.2" baseProfile="tiny" id="Layer_1" xmlns="http://www.w3.org/2000/svg" xmlns:xlink="http://www.w3.org/1999/xlink"
	 x="0px" y="0px" viewBox="0 0 595.3 595.3" xml:space="preserve">
<path fill="none" stroke="#000000" stroke-width="3" stroke-miterlimit="10" d="M227.7,447c9.3,31.6,48.8,40.5,101.8,40.5
	s93.6,8.6,91-28C418,425,415.7,350,415.7,350s28.6,8.8,47.3-15.7c17.9-23.4,7.5-51.8-7.7-64.9c-18-15.6-25.3-13.4-38-10.5
	c5-38.2,6.6-65.3-14.7-104.3c-25.5-46.6-88.9-45.2-123-10c-29.3,30.3-36.2,57.5-43,74.2c-9.6,23.4-15.3,47.8-15,64.5
	c-21,12.9-38.9,24.4-65.6,46.7c-21,17.6-16.5,35.9,8.6,41.3c14,3,42.6-2.5,53.4-5.4C216.4,394,222.5,429.5,227.7,447z"/>
<line fill="none" stroke="#000000" stroke-width="3" stroke-miterlimit="10" x1="123.6" y1="471.8" x2="167.4" y2="294.7"/>
<path fill="none" stroke="#000000" stroke-width="3" stroke-miterlimit="10" d="M95,444.4c2-0.1,39.6-17.1,39.6-17.1l33.1,35.5"/>
<path fill="none" stroke="#000000" stroke-width="3" stroke-miterlimit="10" d="M150.2,314l-10.4-7.4l14.6-19.9
	c0,0-10-14.7,6.6-35.7c12-13.2,23.8-12.9,32.2-6.1c8.4,6.8,13.5,16.8,1.9,34.2c-13.7,19.6-23.4,15.8-29.7,15.2L150.2,314z"/>
<path fill="none" stroke="#000000" stroke-width="3" stroke-miterlimit="10" d="M167.2,251.5c10-0.9,24,11.3,26.6,16.5"/>
<path fill="none" stroke="#000000" stroke-width="3" stroke-miterlimit="10" d="M160.2,263.5c10-0.9,24,11.3,26.6,16.5"/>
<path fill="none" stroke="#000000" stroke-width="3" stroke-miterlimit="10" d="M315.3,214.8c4.3-4.8,4.4-14.6-3.6-19.8
	c-7.6-4.9-20,5.9-15.6,17C299.6,221,310.5,220,315.3,214.8z"/>
<path fill="none" stroke="#000000" stroke-width="3" stroke-miterlimit="10" d="M384.3,224.6c-7.8,13.4,6,13.1,12.6,2.3"/>
<path fill="none" stroke="#000000" stroke-width="3" stroke-miterlimit="10" d="M398.6,201c-8.4,10.4,3.3,14.5,8.8,2.4"/>
<path fill="none" stroke="#000000" stroke-width="3" stroke-miterlimit="10" d="M384.5,190.9c-7.7,11.9,3,18.1,6.3,4.3"/>
<path fill="none" stroke="#000000" stroke-width="3" stroke-miterlimit="10" d="M283.7,172c2.5-3.5,17.7,8,15.7,9.4
	C297.2,182.9,281,175.8,283.7,172z"/>
<path fill="none" stroke="#000000" stroke-width="3" stroke-miterlimit="10" d="M327.3,190c-2.9-3.8,19.1-9.9,20.1-6.4
	C348.1,186.3,330,193.5,327.3,190z"/>
</svg>
