<?xml version="1.0" encoding="utf-8"?>
<svg version="1.2" baseProfile="tiny" id="Layer_1" xmlns="http://www.w3.org/2000/svg" xmlns:xlink="http://www.w3.org/1999/xlink"
	 x="0px" y="0px" viewBox="0 0 595.3 595.3" xml:space="preserve">
<path fill="none" stroke="#000000" stroke-width="3" stroke-miterlimit="10" d="M41.8,257.3c0,0-27.9,26.2-36.9,43.3
	C-7.3,324,1.7,354.2,13,356.3c17,3.2,31.3-7.9,37.7-16.7C62.5,323.4,72,317,72,317s58,77,97,94.3c39,17.3,61.3,2,50.3-25
	c-1.2-2.9,16.4,7.2,28.2-0.6c10.1-6.6-17-31.8-17-31.8s37.3,16.5,47.3,7.3c8-7.4-1.4-21.2-9.5-25.3c-4-2,32.1,10.8,32.1-12
	c0-21-13.2-31.2-26.5-41c0,0-16.3-14.3-21.2-19.5c-5.9-6.3-13.4-13.2-26.2-26.6c-7.3-7.7-11.9-11.7-25.4-31.4c0,0,48.5-11,54-23.7
	c8.7-20-12.3-28.7-12.3-28.7s-18.9-8-35.2-8.8c-16.3-0.8-42.8,7.7-42.8,7.7S112.2,54,44.2,83.3C7.8,99-1.7,130.7,9.1,180
	C21,234.5,41.8,257.3,41.8,257.3z"/>
<path fill="none" stroke="#000000" stroke-width="3" stroke-miterlimit="10" d="M67.2,113.5c-13.3,3-14.6-4.3-4.6-8.1
	C73.6,101.1,82.1,110.1,67.2,113.5z"/>
<path fill="none" stroke="#000000" stroke-width="3" stroke-miterlimit="10" d="M21.1,128.3c12-9.3,16,1.9,6.6,6.8
	C18.3,139.9,12.1,135.3,21.1,128.3z"/>
<path fill="none" stroke="#000000" stroke-width="3" stroke-miterlimit="10" d="M41.8,136.3c0.5-7,12.2-12.4,16.7-7.4
	c4.3,4.8,2.1,10-2.1,12.9C52.6,144.3,41.2,143.9,41.8,136.3z"/>
</svg>
