<?xml version="1.0" encoding="utf-8"?>
<svg version="1.2" baseProfile="tiny" id="Layer_1" xmlns="http://www.w3.org/2000/svg" xmlns:xlink="http://www.w3.org/1999/xlink"
	 x="0px" y="0px" viewBox="0 0 595.3 595.3" xml:space="preserve">
<path fill="none" stroke="#000000" stroke-width="3" stroke-miterlimit="10" d="M363.3,297.4c0,0,3.7-11,6.4-21.4
	c2.9-11,4.6-19.3-2.2-29.4c-9.9-14.4-31.1-16.1-39.8-13.6c-13.1,3.7-14.3,6.3-14.3,6.3s-41-16.9-75.3-16.7c-19.1,0.1-47,3.7-80.7,23
	c-26.3,15.1-33.2,28-47.3,54.5c-13.9,26-20,39.5-19.3,39.5c-4.5,6.2-18.4,15.7-23.5,23C63.4,368,53.5,379.5,50,388
	c-3.1,7.5-3.6,14.5,4.5,22c6.5,6,14,6.9,14,7c0,0-21.8,53.8-19.5,83c2,25.4,6.8,43.4,29.5,44.5c21.4,1,29.5-12.5,29.5-12.5
	s7.2,37,31,38c20.5,0.9,40-24.5,40-24.5s7,24.5,31,20.5c17.6-2.9,32-18,32-18s8,29.5,30.5,30c17,0.4,50.5-37.6,73.5-102.5
	C379,382.5,363.3,297.4,363.3,297.4z"/>
<path fill="none" stroke="#000000" stroke-width="3" stroke-miterlimit="10" d="M113.6,293.6c6.2-11.4,7.9-13,1.8-3.3
	C111.6,296.3,109.3,301.6,113.6,293.6z"/>
<path fill="none" stroke="#000000" stroke-width="3" stroke-miterlimit="10" d="M118.1,285.6C123.8,275.3,124.3,273.9,118.1,285.6
	C111.6,297.8,110.9,298.5,118.1,285.6z"/>
<path fill="none" stroke="#000000" stroke-width="3" stroke-miterlimit="10" d="M108.2,304c-4.8,11.2-10.8,19.8-8.2,15.4
	c5.6-9.6,2.9-5.7,7-13.5C111.7,296.9,112.1,294.7,108.2,304z"/>
</svg>
