<?xml version="1.0" encoding="utf-8"?>
<svg version="1.2" baseProfile="tiny" id="Layer_1" xmlns="http://www.w3.org/2000/svg" xmlns:xlink="http://www.w3.org/1999/xlink"
	 x="0px" y="0px" viewBox="0 0 595.3 595.3" xml:space="preserve">
<path fill="none" stroke="#000000" stroke-width="3" stroke-miterlimit="10" d="M321.5,384.3c-7.8-15.6-10.2-31-12-35.8
	c-2.9-7.4-7.5-21.5-9.3-26.5c-2.8-8-7-18.2-12.5-27.5c-3.5-5.9-16.5-20.3-16.5-20.3S258,261,238,252c-12.9-5.8-41.8-13.3-67.8-10.7
	c-27.7,2.7-50.9,15.4-65.5,29.5c-18.5,17.9-27,50.3-27,50.3s-17.1,8.7-26.1,23.6c-6.6,10.9-10.4,25.8-10.2,43.7
	c0.1,11.9,7.4,27.4,15.1,32c6.2,3.8,15.3,6.5,25.2,5.1c0,0,0.9,18.3,12.3,43c5.7,12.4,16.3,26.1,35,36.2
	c26.8,14.5,41.3-7.8,41.3-7.8s13.6,17.4,35.3,15.7c18.4-1.4,24-19.9,24-19.9s13.9,22.2,39.2,20.8c19-1,22.3-26.1,22.3-26.1
	s21.3,8.8,40,3.5c20.8-5.9,24.3-29.3,19.8-48.5C344,413.5,321.5,384.3,321.5,384.3z"/>
<path fill="none" stroke="#000000" stroke-width="3" stroke-miterlimit="10" d="M145.9,288.5c17.4-0.5,17.1,7.3,1.3,7.6
	C133.1,296.4,131.2,288.9,145.9,288.5z"/>
<path fill="none" stroke="#000000" stroke-width="3" stroke-miterlimit="10" d="M206.5,286.6c16.9-1.5,16.2,5.2,2.9,6
	C196.5,293.4,192.1,287.9,206.5,286.6z"/>
<path fill="none" stroke="#000000" stroke-width="3" stroke-miterlimit="10" d="M176.3,307.1c10,0.1,13.4,8.7,9.8,11.9
	c-4.7,4-12.8,4-16.3,0.6C164.6,314.6,167.3,307.1,176.3,307.1z"/>
</svg>
