<?xml version="1.0" encoding="utf-8"?>
<svg version="1.2" baseProfile="tiny" id="Layer_1" xmlns="http://www.w3.org/2000/svg" xmlns:xlink="http://www.w3.org/1999/xlink"
	 x="0px" y="0px" viewBox="0 0 595.3 595.3" xml:space="preserve">
<path fill="none" stroke="#000000" stroke-width="3" stroke-miterlimit="10" d="M415.5,485.5c0,0-1-30.5-0.5-42
	c0.5-12.2,1.9-27.2,2.5-38.3c0.8-13.5,2.5-29.4,3-41.8c0.6-13.2-3.8-27.8-3.8-27.8s-4.7-21.4-18.9-48
	c-22.8-42.6-69.4-62.9-116.8-62.9c-40,0-73.9,17.8-95,35.3c-18.7,15.4-30.7,48.7-30.7,48.7c-4.1,6.5-9.2,27.6-13.7,44.3
	c-2.8,10.5-3.5,19.7-4.7,35c-1.1,14.4-3,30.3-4,43.3c-0.8,10.6,0,42.9,0,43c0,0,2.9,39.9,7.4,59.3c7,30.7,33.7,49,52.2,48.8
	c16.4-0.2,34-31.5,34-31.5s23.7,25,47.7,25c16.4,0,27.3-25,27.3-25s27.6,32,45.4,31.2c12.7-0.6,22.6-18.7,22.6-18.7
	s17.9,16.1,31,7.1c14-9.7,15.5-24.6,15-47.1C415,500.5,415.5,485.5,415.5,485.5z"/>
<path fill="none" stroke="#000000" stroke-width="3" stroke-miterlimit="10" d="M308.3,258.5c6.5,5.3,16.5,7.3,5.5-4.3
	C304.8,244.8,301.1,252.7,308.3,258.5z"/>
<path fill="none" stroke="#000000" stroke-width="3" stroke-miterlimit="10" d="M353,294.2c9.1,10.6,14.5,8.1,8-3.4
	C356.4,282.6,345.8,285.8,353,294.2z"/>
<path fill="none" stroke="#000000" stroke-width="3" stroke-miterlimit="10" d="M324,306.5c-18,3.6-34.3-9.3-34.3-20.5
	c0.1-12,23-20.4,37.8-8.8C340.5,287.5,340.3,303.3,324,306.5z"/>
</svg>
