<?xml version="1.0" encoding="utf-8"?>
<svg version="1.2" baseProfile="tiny" id="Layer_1" xmlns="http://www.w3.org/2000/svg" xmlns:xlink="http://www.w3.org/1999/xlink"
	 x="0px" y="0px" viewBox="0 0 595.3 595.3" xml:space="preserve">
<path fill="none" stroke="#000000" stroke-width="3" stroke-miterlimit="10" d="M378,421c-4-19,1.6-38,2.7-46
	c1.1-7.9,2.3-20.1,2.1-25.3c-0.4-9,1.5-22.8-1-35c-2.6-12.6-10.8-28.6-10.8-28.6s-11.8-25.8-35.9-39.4
	c-22.5-12.7-50.9-16.4-80.1-9.5c-30.5,7.3-52.1,25.4-69.2,50.2c-13.2,19.1-35.8,60.3-35.8,60.3s-16.8-0.7-29.5,5
	c-8.2,3.7-11.9,16-12.3,23.3c-0.6,11.9,2.8,17.2,9,23.7c6.3,6.6,13.9,8.8,19.8,8.6c0,0-14.4,32.1-9.3,57.2
	c2.7,13.3,8.8,27,24.3,32.5c24.3,8.6,38,1,38,1s9,17,30.7,15.3c18.4-1.4,32.7-20,32.7-20s9,18.6,26.9,17c18.9-1.7,29.1-14,29.1-14
	s15,20,33.7,14.7c20.8-5.9,35.2-29.9,37-49.5C382.3,438.2,378,421,378,421z"/>
<path fill="none" stroke="#000000" stroke-width="3" stroke-miterlimit="10" d="M337.4,280.1c10.2,1.7,8.3,7.5-0.1,5.6
	C329.9,284.1,329,278.8,337.4,280.1z"/>
<path fill="none" stroke="#000000" stroke-width="3" stroke-miterlimit="10" d="M365.1,296c7.1,4.8,3.6,10.8-3.4,5.5
	C355.5,296.7,357.2,290.7,365.1,296z"/>
<path fill="none" stroke="#000000" stroke-width="3" stroke-miterlimit="10" d="M345.5,298.9c10.8,2,8.3,15.9,4.3,20.4
	c-4.3,4.8-13,6.9-15.9,1.1C330,312.9,336.4,297.2,345.5,298.9z"/>
</svg>
