<?xml version="1.0" encoding="utf-8"?>
<svg version="1.2" baseProfile="tiny" id="Layer_1" xmlns="http://www.w3.org/2000/svg" xmlns:xlink="http://www.w3.org/1999/xlink"
	 x="0px" y="0px" viewBox="0 0 595.3 595.3" xml:space="preserve">
<path fill="none" stroke="#000000" stroke-width="3" stroke-miterlimit="10" d="M313.3,361.3c5.1-13.6,23-24.7,23-24.7
	s-9.8-45.2,8.9-76.9s57.7-42.1,95.4-38.7c60.3,5.4,92.3,65.1,100,109.6c0,0,14,4,26,18.4s19.7,34.7,4.7,40.3c-7.5,2.8-22.3-2-22.3-2
	s2.2,46.3-19.1,61.3C506,465.5,495.7,433,495.7,433s-5.8,20.8-20,25S450,445.3,450,445.3s-1.8,15.1-17,20.3S406,444,406,444
	s-2.9,20-20.3,22.7c-13.3,2-25.6-16.3-29.7-25c-6.5-13.9-11.3-42-11.3-42s-8.1,6.6-16.3,5C321.7,403.3,305.3,382.7,313.3,361.3z"/>
<path fill="none" stroke="#000000" stroke-width="3" stroke-miterlimit="10" d="M375.8,279.2c-0.7-3.3,15.5-5.2,16.7-2.2
	C394.1,281.2,376.6,283,375.8,279.2z"/>
<path fill="none" stroke="#000000" stroke-width="3" stroke-miterlimit="10" d="M416.2,276.5c0-3.9,13.1-6.1,16.1-2.8
	S416.2,280.8,416.2,276.5z"/>
<path fill="none" stroke="#000000" stroke-width="3" stroke-miterlimit="10" d="M399.5,293.3c-1.1-2,14.6-2.3,13.3,0.4
	C410.5,298.5,402.5,298.5,399.5,293.3z"/>
</svg>
