<?xml version="1.0" encoding="utf-8"?>
<svg version="1.2" baseProfile="tiny" id="Layer_1" xmlns="http://www.w3.org/2000/svg" xmlns:xlink="http://www.w3.org/1999/xlink"
	 x="0px" y="0px" viewBox="0 0 595.3 595.3" xml:space="preserve">
<path fill="none" stroke="#000000" stroke-width="3" stroke-miterlimit="10" d="M152.8,129.8c0,0-13.7-1.5-27-5.5
	c-17.5-5.3-29.5-3.8-36.5,8.5c-4.9,8.6,4.3,28.6,20.3,39.8c9.3,6.5,41,14.5,41,14.5s1.9,53.8,7.3,75.8c7.3,29.6,19.3,61.6,32.3,76.6
	c14.7,17,35,34.7,43.3,38.7c24.5,11.5,41-11.7,41-11.7s10.1,7.3,17,10.7c8.9,4.4,16.3,6,25.3,4.2c5.2-1,9.2-4.9,12.3-12.5
	c2.2-5.4,1.5-11-1.3-21.3c0,0,19.8,10.4,27.7,4.1c4.6-3.7,9.3-7.7,9-16.9c-0.1-3.1-2.3-11.3-6-17c0,0,47.7,3.8,26.3-22.8
	C356.7,259.7,337.9,177,337.9,177s74.9-25.9,62.9-50.9c-15.3-31.9-80.1,3.5-80.1,3.5s1.7-56.9-31.5-85.6
	C263,21.3,199.9,16.5,174.1,59.8C153.8,94.1,152.8,129.8,152.8,129.8z"/>
<path fill="none" stroke="#000000" stroke-width="3" stroke-miterlimit="10" d="M244.3,66.2c-8.9-1.9-7.4-9.3,1.9-7
	C257.3,62,254.6,68.4,244.3,66.2z"/>
<path fill="none" stroke="#000000" stroke-width="3" stroke-miterlimit="10" d="M197.8,59.5c12.7-1.7,11,5.9,0.7,6.7
	C189.9,66.8,186.7,61,197.8,59.5z"/>
<path fill="none" stroke="#000000" stroke-width="3" stroke-miterlimit="10" d="M213,92.3c-1.5-6.4,3-25.6,10.8-24.2
	c6.4,1.2,8.4,25.9,3.2,31.7C223.3,104,215.2,101.6,213,92.3z"/>
</svg>
