<?xml version="1.0" encoding="utf-8"?>
<svg version="1.2" baseProfile="tiny" id="Layer_1" xmlns="http://www.w3.org/2000/svg" xmlns:xlink="http://www.w3.org/1999/xlink"
	 x="0px" y="0px" viewBox="0 0 595.3 595.3" xml:space="preserve">
<path fill="none" stroke="#000000" stroke-width="3" stroke-miterlimit="10" d="M382,300.5c0,0,24.5-11.5,39.5-25
	c10.9-9.9,24.8-25.1,28.9-57c3.3-25.5-12.2-38.5-24.9-37.5c-24.7,2-39,13.5-39,13.5s4-29.9-3.5-68c-9-46-54.7-59.5-77.3-59.5
	c-22.7,0-67.3,7.8-90.7,51.1s-40,111.6-40,111.6s-16,2-34,0.7c-18-1.3-42.7-20.7-54,8.7s16.2,60.2,28,66.7
	c21.3,11.7,56,16.7,56,16.7s-6,188-3.3,210c2.7,22,22,40,35.3,32.7s26-23.3,26-23.3s6,28.7,22,25c16-3.7,32-24.3,32-24.3
	s10,24.6,22.7,24.7c12.7,0,28-21.3,28-21.3s19.3,25.6,34.7,21.7c22.7-5.7,23.4-92,24.2-141.4C393.2,384.7,382,300.5,382,300.5z"/>
<path fill="none" stroke="#000000" stroke-width="3" stroke-miterlimit="10" d="M263.8,96.5c14-1.5,14,6,2,7.8
	C253.7,106,249.8,98,263.8,96.5z"/>
<path fill="none" stroke="#000000" stroke-width="3" stroke-miterlimit="10" d="M318,105.5c8.8,7,4.5,14.4-7.8,7.3
	C299.5,106.5,308.9,98.2,318,105.5z"/>
<path fill="none" stroke="#000000" stroke-width="3" stroke-miterlimit="10" d="M278.3,111.3c7.6,3.2,4.8,11.1-1.5,17.5
	c-7.5,7.5-14,5.8-12-4.2C266.5,115.1,270.3,107.9,278.3,111.3z"/>
</svg>
