<?xml version="1.0" encoding="utf-8"?>
<svg version="1.2" baseProfile="tiny" id="Layer_1" xmlns="http://www.w3.org/2000/svg" xmlns:xlink="http://www.w3.org/1999/xlink"
	 x="0px" y="0px" viewBox="0 0 595.3 595.3" xml:space="preserve">
<path fill="none" stroke="#000000" stroke-width="3" stroke-miterlimit="10" d="M401,277c0,0,15.5-14.5,23-30.5
	c5.9-12.7,14.8-40.8,17-57c1.5-11.2,3.5-45.5-19.5-39c-20.4,5.8-30.5,23.3-30.5,23.3s-3.7-35.3-21-62.3c-16.8-26.2-31.5-48-74.5-48
	c-39.3,0-56.7,4.4-84.5,45.2c-18.5,27.2-27,79.8-27,79.8s-17.3-39.8-41.5-43c-20.3-2.7-28,17.5-28,37c0,11,14.5,40.3,25,51
	c23,23.5,40,29,40,29s-5,95.7-14,163c-2.9,22-9.1,89.9,9.5,92.5c21.5,3,39.5-23,39.5-23s5.5,26.9,21.5,23.2
	c16-3.7,34.5-24.7,34.5-24.7s11.2,24.4,27.1,25.1c12.7,0.5,23.9-23.6,23.9-23.6s16.4,24.8,31.5,20c31.5-10,37.7-62.1,41.5-125.5
	C399.8,300.2,401,277,401,277z"/>
<path fill="none" stroke="#000000" stroke-width="3" stroke-miterlimit="10" d="M269.5,124.8c14-0.5,18.3,9-0.5,9.3
	C253.2,134.2,259.2,125.1,269.5,124.8z"/>
<path fill="none" stroke="#000000" stroke-width="3" stroke-miterlimit="10" d="M329.5,123.2c14.7,0,17.1,9.3,0.8,9.3
	C317.3,132.5,315.5,123.2,329.5,123.2z"/>
<path fill="none" stroke="#000000" stroke-width="3" stroke-miterlimit="10" d="M297.6,166.3c-10.6-1-18.1-7.6-10.4-8.8
	c6.8-1,14,1.8,21.4,1C317.6,157.6,308.5,167.3,297.6,166.3z"/>
</svg>
