<?xml version="1.0" encoding="utf-8"?>
<svg version="1.2" baseProfile="tiny" id="Layer_1" xmlns="http://www.w3.org/2000/svg" xmlns:xlink="http://www.w3.org/1999/xlink"
	 x="0px" y="0px" viewBox="0 0 595.3 595.3" xml:space="preserve">
<path fill="none" stroke="#000000" stroke-width="3" stroke-miterlimit="10" d="M374.5,363.7c0,0,33.8,8.7,49.1,2
	c16.4-7.1,43.5-12.4,44-44.2c0.4-26.5-30-34.5-50.7-29.1c-28.4,7.3-56.7,0-56.7,0s-8.3-55.6-8.3-114c0-72.7-43.7-100.7-87-103
	c-46.2-2.5-81.3,23-96,65c-16.2,46.5-16,105.3-16,105.3s-32.7-11.3-58.3-6.6c-19.1,3.6-39.1,11.9-46.4,30.6
	c-7.3,19,6,56.7,35.4,50.3c42-9.1,67.9,1.5,67.9,1.5S165,463,162.3,527c-0.9,22.1,22,40.8,40.7,38c15-2.3,26-23.3,26-23.3
	s6,28.7,22,25c16-3.7,32-24.3,32-24.3s10,24.6,22.7,24.7c12.7,0,28-21.3,28-21.3s19.3,25.6,34.7,21.7c22.7-5.7,19.3-74.4,18.7-116.4
	C386.4,409.7,374.5,363.7,374.5,363.7z"/>
<path fill="none" stroke="#000000" stroke-width="3" stroke-miterlimit="10" d="M226.5,127.3c14.8-0.9,12.1,7.5-0.7,8.8
	C213.1,137.5,211.8,128.2,226.5,127.3z"/>
<path fill="none" stroke="#000000" stroke-width="3" stroke-miterlimit="10" d="M283.2,130.2c12,2.5,14.2,11.5-0.4,9
	C268.2,136.8,271.3,127.7,283.2,130.2z"/>
<path fill="none" stroke="#000000" stroke-width="3" stroke-miterlimit="10" d="M259,179.7c-9.1,4.8-15.7-17.1-13.4-26.5
	c2.2-9.3,12-9.5,16.1-2.4C266,158.4,266.6,175.6,259,179.7z"/>
</svg>
