<?xml version="1.0" encoding="utf-8"?>
<svg version="1.2" baseProfile="tiny" id="Layer_1" xmlns="http://www.w3.org/2000/svg" xmlns:xlink="http://www.w3.org/1999/xlink"
	 x="0px" y="0px" viewBox="0 0 595.3 595.3" xml:space="preserve">
<path fill="none" stroke="#000000" stroke-width="3" stroke-miterlimit="10" d="M126.3,164.7c0,0-10.3,3.7-20,10.3
	c-9.8,6.8-16.1,13.7-16,25.3c0.1,10.5,3.7,20,19.7,25.7c10.7,3.8,28.3,3,28.3,3s13.4,51.7,20,68.6c8,20.7,16.7,33.7,29.7,48.7
	c14.7,17,19.2,21.6,27.5,25.5c24.5,11.5,34.8-10.2,34.8-10.2s9.2,7.5,16.1,10.9c7.5,3.6,15.9,4.2,24.9,2.5c5.2-1,14.8-4.9,17.9-12.5
	c2.2-5.4,1.6-9.6-3.1-16.8c0,0,18.7,5.8,27.6,1.8c5.4-2.4,11-4.9,10.7-14c-0.1-3.1-2.6-13.5-6.3-19.3c0,0,43.3,9.4,28.3-21.3
	C344,247.7,331,207,331,207s22.1,4.7,33-17.3c17.3-35-53.3-47-53.3-47S289,52.3,241.4,37.3C193,22,141.8,37,128.7,85.7
	C118.2,124.7,126.3,164.7,126.3,164.7z"/>
<path fill="none" stroke="#000000" stroke-width="3" stroke-miterlimit="10" d="M197.5,108c-11.3,1.1-12.5-3.3-0.3-6.5
	C210.7,97.9,210.1,106.7,197.5,108z"/>
<path fill="none" stroke="#000000" stroke-width="3" stroke-miterlimit="10" d="M152.8,110c14-3.1,12.7,2.8,0,6.8
	C142.3,120,139.3,113,152.8,110z"/>
<path fill="none" stroke="#000000" stroke-width="3" stroke-miterlimit="10" d="M168.3,132.7c-2.1-6.2,5.3-16.2,13.2-14.8
	c6.4,1.2,11,6,7.3,12.8C184.9,138,171.3,141.7,168.3,132.7z"/>
</svg>
