<?xml version="1.0" encoding="utf-8"?>
<svg version="1.2" baseProfile="tiny" id="Layer_1" xmlns="http://www.w3.org/2000/svg" xmlns:xlink="http://www.w3.org/1999/xlink"
	 x="0px" y="0px" viewBox="0 0 595.3 595.3" xml:space="preserve">
<path fill="none" stroke="#000000" stroke-width="3" stroke-miterlimit="10" d="M376,398c0,0,23,13.7,35.7,9.3
	c15.4-5.3,17.8-18.3,17.8-34.8c0-22.8-5-38.4-13.5-54c-6.7-12.2-17.6-27-17.6-27s5.8-27,3.6-92c-2.1-63.6-9.7-119-79.9-131
	c-64-11-100.2,26.7-122.1,100.7c-13.6,46-32.3,111.8-32.3,111.8s-12.7,16.8-27.2,32.5c-13.7,14.9-26,37.8-30.2,58.8
	c-2.9,14.6,8.1,28.3,30.6,30.8c20.1,2.2,36.1-21.4,36.1-21.4s-18,73.3-19.5,142.8c-0.5,22.2,17.8,43.1,36.5,40.2
	c15-2.3,27.7-21.7,27.7-21.7s13.3,27.3,29.3,23.7c16-3.7,25.3-23.7,25.3-23.7s16.7,24,29.3,24c12.7,0,20-24,20-24s20,28.7,35.3,24.8
	c22.7-5.7,13.5-58.1,15.3-101.4C378.1,424,376,398,376,398z"/>
<path fill="none" stroke="#000000" stroke-width="3" stroke-miterlimit="10" d="M293.8,101.8c15.5-0.2,13.7,8-2,8.3
	C279,110.2,280.5,101.9,293.8,101.8z"/>
<path fill="none" stroke="#000000" stroke-width="3" stroke-miterlimit="10" d="M353.8,119.5c13,7.2,5.9,10.9-5,6
	C340.5,121.8,338.7,111.3,353.8,119.5z"/>
<path fill="none" stroke="#000000" stroke-width="3" stroke-miterlimit="10" d="M315.6,145.3c-8.3,0-11.4-8.6-6.3-17.5
	c6.3-11.2,20.2-9.2,21.2,2.8C331.1,138.2,325.6,145.3,315.6,145.3z"/>
</svg>
