<?xml version="1.0" encoding="utf-8"?>
<svg version="1.2" baseProfile="tiny" id="Layer_1" xmlns="http://www.w3.org/2000/svg" xmlns:xlink="http://www.w3.org/1999/xlink"
	 x="0px" y="0px" viewBox="0 0 595.3 595.3" xml:space="preserve">
<path fill="none" stroke="#000000" stroke-width="3" stroke-miterlimit="10" d="M398.5,421c0,0,0.3-16.5,1-23.5
	c0.4-4.4,1.6-17,2.3-26c0.8-10,1.2-17.2,0.5-29.5c-0.4-7.3-0.4-21.3-0.4-21.3s0.1-64.5-9.5-132.3c-8.8-62.6-30.4-123.4-101.7-122
	c-69.3,1.3-96.9,70.1-104.3,121.3c-6.2,42.8-4,110-4,110s-1.2,13.6-1.7,23.4c-0.4,10-2,27.7-3.3,38.7c-1.2,10-2.4,23.5-3.3,34
	c-0.7,7.3-2.3,20-2.3,20s-4.2,50.8-6.2,103.3c-0.8,22.1,2.1,50.4,20.7,47.6c15-2.3,31.3-26.1,31.3-26.1S227,563.7,243,560
	s28.5-23,28.5-23s13.5,27.1,26.1,27.1c12.7,0,24.4-24.6,24.4-24.6s15.1,25.9,30.5,22c22.7-5.7,31.5-29,38.5-68
	C398.5,451.8,398.5,421,398.5,421z"/>
<path fill="none" stroke="#000000" stroke-width="3" stroke-miterlimit="10" d="M273.8,135c14.7,0,15.8,9-0.5,9
	C260.6,144,261.5,135,273.8,135z"/>
<path fill="none" stroke="#000000" stroke-width="3" stroke-miterlimit="10" d="M333,133.2c14.7,0,15.1,10.8,0.1,10.8
	C322.1,144,319.4,133.2,333,133.2z"/>
<path fill="none" stroke="#000000" stroke-width="3" stroke-miterlimit="10" d="M298.8,180.4c-9.2,0-18-10.7-9.4-9.3
	c6.5,1.1,12.9,2,19.1,1.5C316.2,171.9,308.8,180.4,298.8,180.4z"/>
</svg>
