<?xml version="1.0" encoding="utf-8"?>
<svg version="1.2" baseProfile="tiny" id="Layer_1" xmlns="http://www.w3.org/2000/svg" xmlns:xlink="http://www.w3.org/1999/xlink"
	 x="0px" y="0px" viewBox="0 0 595.3 595.3" xml:space="preserve">
<path fill="none" stroke="#000000" stroke-width="3" stroke-miterlimit="10" d="M415.5,485.5c0,0-1-30.5-0.5-42
	c0.5-12.2-2.7-26.3-3.7-36.5c-1.2-12-9.3-36.1-11.3-48.3c-1.7-10.3-4.5-15.5-4.5-15.5s-2.4-8.8-15.8-40.8c-20.5-48.9-73.7-70-121-70
	c-40,0-57.9,17.9-79,35.3c-18.7,15.4-24.3,41-24.3,41c-4.1,6.5-9.2,27.6-13.7,44.3c-2.8,10.5-3.5,19.7-4.7,35
	c-1.1,14.4-3,30.3-4,43.3c-0.8,10.6,0,42.9,0,43c0,0,2.9,39.9,7.4,59.3c7,30.7,33.7,49,52.2,48.8c16.4-0.2,34-31.5,34-31.5
	s23.7,25,47.7,25c16.4,0,27.3-25,27.3-25s27.6,32,45.4,31.2c12.7-0.6,22.6-18.7,22.6-18.7s17.9,16.1,31,7.1
	c14-9.7,15.5-24.6,15-47.1C415,500.5,415.5,485.5,415.5,485.5z"/>
<path fill="none" stroke="#000000" stroke-width="3" stroke-miterlimit="10" d="M214.3,290.3c10.1-2.6,6.5-7.3-2.8-5.3
	C201.8,287,205.3,292.5,214.3,290.3z"/>
<path fill="none" stroke="#000000" stroke-width="3" stroke-miterlimit="10" d="M278.8,284.5c13.5-3.5,7.1-8.6-1.3-7
	C268.3,279.3,273.9,285.7,278.8,284.5z"/>
<path fill="none" stroke="#000000" stroke-width="3" stroke-miterlimit="10" d="M253.8,326c-18.2,2.5-25.8-7.8-24.3-17.8
	c1.8-11.9,23.7-17.4,32.3-2.9C268,316,262.8,324.8,253.8,326z"/>
</svg>
