<?xml version="1.0" encoding="utf-8"?>
<svg version="1.2" baseProfile="tiny" id="Layer_1" xmlns="http://www.w3.org/2000/svg" xmlns:xlink="http://www.w3.org/1999/xlink"
	 x="0px" y="0px" viewBox="0 0 595.3 595.3" xml:space="preserve">
<path fill="none" stroke="#000000" stroke-width="3" stroke-miterlimit="10" d="M331.3,521c0,0,12.8,5.5,21.5,3.8
	c12-2.4,17.8-11.4,19.5-18.5c2.3-9.5,4.3-18.8,0.1-28.9c-3.8-9-13.9-17.1-13.9-17.1s12.8-45.8,6.3-86c-5.3-32.4-44.6-69.4-86.4-71.7
	c-43.7-2.4-77.6,1-107.1,27.4c-28,25.1-37,45-37,45s-11.9-8-27.6-7.7c-12,0.3-33.3,1.7-40.3,13.3c-7,11.5-1.1,24.4,9,29.7
	c7.8,4,21.7,12.3,29.7,10c0,0-18.1,40-23.3,49.7c-13,24.3-6.4,50.8,19.3,50c23.8-0.8,36.8-8.5,36.8-8.5s8.4,25.3,34.5,24
	c19.5-1,33.3-14.8,33.3-14.8s0.6,21.7,20.8,24.2c12.7,1.6,35.2-16.2,35.2-16.2s1.9,29.3,20.5,31.3c12.3,1.3,27.9-6.6,33.8-14
	C324,535.6,331.3,521,331.3,521z"/>
<path fill="none" stroke="#000000" stroke-width="3" stroke-miterlimit="10" d="M270.2,310.6c12,2.4,9.7,8.8-0.7,6.6
	C256.6,314.6,258.9,308.4,270.2,310.6z"/>
<path fill="none" stroke="#000000" stroke-width="3" stroke-miterlimit="10" d="M330,338c11.8,6.5,6.3,10-5.3,5.1
	C314.7,338.9,317,330.9,330,338z"/>
<path fill="none" stroke="#000000" stroke-width="3" stroke-miterlimit="10" d="M295.1,324.6c19.8,5.4,19.8,23.1,11.1,27.5
	c-11,5.7-28.1,1.9-33.3-7.8C268,335,278.8,320.1,295.1,324.6z"/>
</svg>
