<?xml version="1.0" encoding="utf-8"?>
<svg version="1.2" baseProfile="tiny" id="Layer_1" xmlns="http://www.w3.org/2000/svg" xmlns:xlink="http://www.w3.org/1999/xlink"
	 x="0px" y="0px" viewBox="0 0 595.3 595.3" xml:space="preserve">
<path fill="none" stroke="#000000" stroke-width="3" stroke-miterlimit="10" d="M253.4,177.5c0,0-4.7,1.4-16.1,9.4
	c-10.5,7.4-13,12.6-13,23.8c0,6.3,2.7,17.6,8.7,21c5.8,3.3,11.9,3.7,11.9,3.7s-6.4,26-17.9,38c-11.3,11.8-19.9,23.3-20.6,40.6
	c-0.4,10.7,2.9,18.1,9.9,24.1c13.7,11.7,34,4.3,34,4.3s5.3,27.3,25.3,35.7c21.4,8.9,30.7-7.6,39.7-9.3c5.2-1,3,16.9,26.7,18.4
	c13.7,0.9,22.7-3.4,33.3-20.1c0,0,25,26.7,42.3,11.7c11.3-9.8,24.7-34.7,30.7-59c4.4-17.7,9.7-50-0.9-91.7c0,0,7.2-1,13.6-11.3
	c7.1-11.6,7.7-27.3,7.7-27.3s1-15.6-9.7-33.3c-14-23.3-37.8-16.8-37.8-16.8s-22.6-81-68.8-95.3c-34.9-10.8-79.3-2.3-100.4,40
	C234.3,119.8,253.4,177.5,253.4,177.5z"/>
<path fill="none" stroke="#000000" stroke-width="3" stroke-miterlimit="10" d="M326.4,90.5c-17.3-4.7-9.2-11,1.6-6.5
	C343.3,90.3,341.2,94.5,326.4,90.5z"/>
<path fill="none" stroke="#000000" stroke-width="3" stroke-miterlimit="10" d="M279.3,95.8c13.5-6.9,18,1.9,3.5,7.2
	C267.5,108.6,268.5,101.3,279.3,95.8z"/>
<path fill="none" stroke="#000000" stroke-width="3" stroke-miterlimit="10" d="M301.8,115c-0.8-6.5,6.8-9.4,14.6-8
	c6.4,1.2,6,12.1,0,14.8C312.3,123.6,302.8,123.5,301.8,115z"/>
</svg>
