<?xml version="1.0" encoding="utf-8"?>
<svg version="1.2" baseProfile="tiny" id="Layer_1" xmlns="http://www.w3.org/2000/svg" xmlns:xlink="http://www.w3.org/1999/xlink"
	 x="0px" y="0px" viewBox="0 0 595.3 595.3" xml:space="preserve">
<path fill="none" stroke="#000000" stroke-width="3" stroke-miterlimit="10" d="M390.7,481.5c0,0-3-19.2-6.3-32.5
	c-3.1-12.3-7.6-17.7-13.3-31c-5.6-13-13.7-26.4-19-39.5c-7.5-18.5-11-44.5-11-44.5s-0.7-14.5-11-65.1c-7.6-37.4-31.3-61.4-75.8-58.9
	c-33.2,1.9-51.2,30.5-59.5,58.5c-8,26.9-7.1,49-7.1,49S186,341.8,188,368c0.9,11.5,2,22.2,3.6,39c1,10.9,2.1,15.8,2.9,29
	c0.5,9.2,3,26.5,3,26.5s2.4,25.5,7.5,59.2c3.3,21.9,8,48.5,26.7,45.7c15-2.3,27.7-22.4,27.7-22.4s10.1,24.6,26.1,20.9
	c16-3.7,18.2-16.9,18.2-16.9s9.1,15.7,21.7,15.7c12.7,0,15.7-17,15.7-17s9.3,19.3,22.3,10.3c14-9.7,19.6-22.1,25.9-46.5
	C392.6,498.6,390.7,481.5,390.7,481.5z"/>
<path fill="none" stroke="#000000" stroke-width="3" stroke-miterlimit="10" d="M225.7,268.5c12.3-3.5,11-13.8-0.3-10.5
	C217.1,260.4,214,271.8,225.7,268.5z"/>
<path fill="none" stroke="#000000" stroke-width="3" stroke-miterlimit="10" d="M271.9,256.7c9.8,2.3,11.6,11.6,0.8,9.9
	C259.7,264.7,259.2,253.7,271.9,256.7z"/>
<path fill="none" stroke="#000000" stroke-width="3" stroke-miterlimit="10" d="M248.9,293.7c-5.9-0.1-12.3-4.6-9.2-6.9
	c3.6-2.6,14.5-2.6,18.6,0.2C261.9,289.4,256.3,293.7,248.9,293.7z"/>
</svg>
