<?xml version="1.0" encoding="utf-8"?>
<svg version="1.2" baseProfile="tiny" id="Layer_1" xmlns="http://www.w3.org/2000/svg" xmlns:xlink="http://www.w3.org/1999/xlink"
	 x="0px" y="0px" viewBox="0 0 595.3 595.3" xml:space="preserve">
<path fill="none" stroke="#000000" stroke-width="3" stroke-miterlimit="10" d="M233.5,447c9.3,31.6,43.1,39,96,40.5
	c33.5,1,37.3,8.2,38.2-9.5c2-42,5.3-53.8,8.3-75c3.7-25.3,11.5-82,11.5-105.4c0-25.1-0.5-103.4-15.8-118
	c-33.8-32.1-89-48.5-130.6-28.3c-25.3,12.3-37.6,46.7-38.8,71.7c-2,44,38.3,87.7,36.7,105.8c-23.8,2.4-37.2-0.1-48.4,12.6
	c-13,14.7,5.4,32.3,20.4,41.7c12.2,7.6,19.6,9.9,31.7,10.3C233.2,416.3,228.3,429.5,233.5,447z"/>
<line fill="none" stroke="#000000" stroke-width="3" stroke-miterlimit="10" x1="154.5" y1="496.3" x2="208.5" y2="322"/>
<path fill="none" stroke="#000000" stroke-width="3" stroke-miterlimit="10" d="M127.6,467.3c2,0,40.5-14.8,40.5-14.8l31,37.4"/>
<path fill="none" stroke="#000000" stroke-width="3" stroke-miterlimit="10" d="M190.2,340.4l-10-8l15.7-19c0,0-9.2-15.3,8.6-35.2
	c12.8-12.5,24.5-11.5,32.5-4.2c8,7.3,12.5,17.5,0,34.3c-14.8,18.7-24.3,14.5-30.5,13.5L190.2,340.4z"/>
<path fill="none" stroke="#000000" stroke-width="3" stroke-miterlimit="10" d="M210.8,278.9c10-0.3,23.3,12.7,25.6,18"/>
<path fill="none" stroke="#000000" stroke-width="3" stroke-miterlimit="10" d="M203.1,290.5c10-0.3,23.3,12.7,25.6,18"/>
<path fill="none" stroke="#000000" stroke-width="3" stroke-miterlimit="10" d="M268.4,254.9c4-5.3,3.7-16.5-2.6-20
	c-11.1-6.1-23,7.1-20.3,16.1C248.8,261.8,264.8,259.5,268.4,254.9z"/>
<path fill="none" stroke="#000000" stroke-width="3" stroke-miterlimit="10" d="M350.3,213.8c-2.4,13.5,10,14.6,9,0"/>
<path fill="none" stroke="#000000" stroke-width="3" stroke-miterlimit="10" d="M346.5,186c-6.1,10.9,12,17.3,10.3,3"/>
<path fill="none" stroke="#000000" stroke-width="3" stroke-miterlimit="10" d="M328.9,206.1c-3.4,10.6,9.5,16,11.5-0.8"/>
<path fill="none" stroke="#000000" stroke-width="3" stroke-miterlimit="10" d="M216.4,224.3c0.6-6.8,24.9-1.3,24.1,2.9
	C239.7,231.5,215.8,231.3,216.4,224.3z"/>
<path fill="none" stroke="#000000" stroke-width="3" stroke-miterlimit="10" d="M270.3,228.5c3.5,2,26.5-13.3,22-17.1
	C287.4,207.2,266.8,226.5,270.3,228.5z"/>
<path fill="none" stroke="#000000" stroke-width="3" stroke-miterlimit="10" d="M377,350.4c-19-8.4-30.2-18.4-49-2.1
	c-23.2,20.2-10,46.7,23.3,60.3"/>
<path fill="none" stroke="#000000" stroke-width="3" stroke-miterlimit="10" d="M374.4,183.1c35.2,28.7,70.6,123.2,80.3,173.2
	c9.7,50,8.9,131.7,5,141.4c-8.7,1.2-15.7,7.7-44.7,6.7s-48-5.8-52.1-15"/>
</svg>
