<?xml version="1.0" encoding="utf-8"?>
<svg version="1.2" baseProfile="tiny" id="Layer_1" xmlns="http://www.w3.org/2000/svg" xmlns:xlink="http://www.w3.org/1999/xlink"
	 x="0px" y="0px" viewBox="0 0 595.3 595.3" xml:space="preserve">
<path fill="none" stroke="#000000" stroke-width="3" stroke-miterlimit="10" d="M373.7,454c0,0-1-18.4,0.7-35
	c0.9-9.4,4.1-18.6,6.9-31.3c2.5-11.3,3.2-18.2,7.3-31.7c3-10,9.7-31.5,9.7-31.5s13-39.2,14.8-91.5c1.5-44.7-0.2-95.7-50.8-107.7
	c-51.3-12.2-89.2,14.2-105,65.7C245.9,227.8,224,312,224,312s-5.7,22.6-7,30.7c-1.3,7.7-5.3,20.2-6.7,27.7c-1.5,8.1-2,19.3-4,29.3
	c-1.8,9.1-4,30-4,30s-6.7,51.3,2.7,92c5,21.6,8,48.5,26.7,45.7c15-2.3,30.7-21.7,30.7-21.7s3.4,25,19.4,21.3c16-3.7,21.8-18,21.8-18
	s9.4,18,22.1,18c12.7,0,15.3-19.3,15.3-19.3s4,19.9,19.3,16C383,557.9,383,531.2,377,496C375,484.3,373.7,454,373.7,454z"/>
<path fill="none" stroke="#000000" stroke-width="3" stroke-miterlimit="10" d="M325,165.2c12.2,3.5,9,8.8-2.9,8
	C307.7,172.2,309,160.6,325,165.2z"/>
<path fill="none" stroke="#000000" stroke-width="3" stroke-miterlimit="10" d="M375,183.9c4.2,6.9,0,9.2-8,3.7
	C354.2,178.8,368,172.6,375,183.9z"/>
<path fill="none" stroke="#000000" stroke-width="3" stroke-miterlimit="10" d="M331.3,218.8c-4.8-1.8-2.3-11,1.5-19.3
	c4-8.8,12.9-8.8,13,1.3C345.8,210.8,335.4,220.3,331.3,218.8z"/>
</svg>
