<?xml version="1.0" encoding="utf-8"?>
<svg version="1.2" baseProfile="tiny" id="Layer_1" xmlns="http://www.w3.org/2000/svg" xmlns:xlink="http://www.w3.org/1999/xlink"
	 x="0px" y="0px" viewBox="0 0 595.3 595.3" xml:space="preserve">
<path fill="none" stroke="#000000" stroke-width="3" stroke-miterlimit="10" d="M227.7,447c9.3,31.6,48.8,40.5,101.8,40.5
	s91.7,8.7,91-28c-1.2-60.2,0.2-101.5,0.2-101.5s20.4,11.3,44.9-5.8c20.3-14.2,21-50.7,7.1-64.9c-16.6-16.9-39.3-16.9-50-12
	c1.7-22.6,15.2-77.4,3.2-108.3c-16.9-43.7-57-62.8-100.9-48.3c-29,9.6-56,46-65.3,63.7c-11.8,22.4-30.6,81.3-32.2,99.3
	c-21,12.9-38.1,19-64.8,41.3c-21,17.6-24,49,10.7,50c14.3,0.4,34.4,0.7,47.1-7C220.4,397.7,222.5,429.5,227.7,447z"/>
<line fill="none" stroke="#000000" stroke-width="3" stroke-miterlimit="10" x1="132.3" y1="467.8" x2="176.1" y2="290.7"/>
<path fill="none" stroke="#000000" stroke-width="3" stroke-miterlimit="10" d="M103.7,440.4c2-0.1,39.6-17.1,39.6-17.1l33.1,35.5"
	/>
<path fill="none" stroke="#000000" stroke-width="3" stroke-miterlimit="10" d="M159,310.1l-10.4-7.4l14.6-19.9
	c0,0-10-14.7,6.6-35.7c12-13.2,23.8-12.9,32.2-6.1c8.4,6.8,13.5,16.8,1.9,34.2c-13.7,19.6-23.4,15.8-29.7,15.2L159,310.1z"/>
<path fill="none" stroke="#000000" stroke-width="3" stroke-miterlimit="10" d="M176,247.5c10-0.9,24,11.3,26.6,16.5"/>
<path fill="none" stroke="#000000" stroke-width="3" stroke-miterlimit="10" d="M169,259.6c10-0.9,24,11.3,26.6,16.5"/>
<path fill="none" stroke="#000000" stroke-width="3" stroke-miterlimit="10" d="M334,190.5c9.1-10.7,13.6-23.9,3.5-26.7
	c-12.3-3.3-21.2,16.4-21.3,22.9C316.2,198.5,326.7,199.2,334,190.5z"/>
<path fill="none" stroke="#000000" stroke-width="3" stroke-miterlimit="10" d="M396.8,219.7c-7.2,10,4.5,13.8,13.6,2.7"/>
<path fill="none" stroke="#000000" stroke-width="3" stroke-miterlimit="10" d="M412.3,195.3c-5.3,11,1.8,13.3,9,3.2"/>
<path fill="none" stroke="#000000" stroke-width="3" stroke-miterlimit="10" d="M398,185.3c-5.2,11,0.7,18.8,6.5,4.3"/>
<path fill="none" stroke="#000000" stroke-width="3" stroke-miterlimit="10" d="M314.5,142.7c4.2-5.3,17.7,10.7,13.8,12.8
	C326.2,156.7,312.2,145.7,314.5,142.7z"/>
<path fill="none" stroke="#000000" stroke-width="3" stroke-miterlimit="10" d="M354.8,162.3c0.7,2.4,29.1-0.2,27.8-2.7
	C380.2,154.8,352.8,155.6,354.8,162.3z"/>
</svg>
