<?xml version="1.0" encoding="utf-8"?>
<svg version="1.2" baseProfile="tiny" id="Layer_1" xmlns="http://www.w3.org/2000/svg" xmlns:xlink="http://www.w3.org/1999/xlink"
	 x="0px" y="0px" viewBox="0 0 595.3 595.3" xml:space="preserve">
<path fill="none" stroke="#000000" stroke-width="3" stroke-miterlimit="10" d="M227.7,447c9.3,31.6,48.8,40.5,101.8,40.5
	s81.8,7.5,91-28c7.4-28.6-7.9-95.2-7.9-95.2s26.9,1.2,45.9-21.3s2.9-58.7-15.4-62.7c-23.2-5-30.6,17.7-44.9,25.3
	c-10-39.7-33.3-91.6-74.3-125.4s-103.4-31-140.2,1.4c-31.8,27.9-28.4,61.8-4.3,92.9c15.5,20,34.8,38.8,35.2,55.5
	c-13.3,20.5-57.8,9.5-71.2,35c-12.2,23.2,13.4,46.5,38.9,43.5c11.4-1.3,39.8-15.7,50.6-18.5C235,416.1,222.5,429.5,227.7,447z"/>
<line fill="none" stroke="#000000" stroke-width="3" stroke-miterlimit="10" x1="155.6" y1="520.5" x2="153.6" y2="338.1"/>
<path fill="none" stroke="#000000" stroke-width="3" stroke-miterlimit="10" d="M121,501.2c1.9-0.6,34.1-26.5,34.1-26.5l40.9,26.1"
	/>
<path fill="none" stroke="#000000" stroke-width="3" stroke-miterlimit="10" d="M141.9,361.2l-12-4.6l9.1-22.9
	c0,0-13.4-11.7-2.6-36.2c8.3-15.8,19.8-18.4,29.7-14c9.8,4.5,17.2,12.9,10.4,32.6c-8.3,22.4-18.7,21.2-24.9,22.2L141.9,361.2z"/>
<path fill="none" stroke="#000000" stroke-width="3" stroke-miterlimit="10" d="M142.6,296.3c9.4-3.4,26.1,5,29.9,9.3"/>
<path fill="none" stroke="#000000" stroke-width="3" stroke-miterlimit="10" d="M138.9,309.8c9.4-3.4,26.1,5,29.9,9.3"/>
<path fill="none" stroke="#000000" stroke-width="3" stroke-miterlimit="10" d="M237.7,290c4.3-4.8,1-11.1-6.7-16.8
	c-7.8-5.7-24.3-6.5-21.3,5C212.2,287.5,232.9,295.2,237.7,290z"/>
<path fill="none" stroke="#000000" stroke-width="3" stroke-miterlimit="10" d="M275.7,222c0,14.3,9.7,18.7,8.7,2.9"/>
<path fill="none" stroke="#000000" stroke-width="3" stroke-miterlimit="10" d="M279,193c0,9.8,7.8,19.8,7.8,3"/>
<path fill="none" stroke="#000000" stroke-width="3" stroke-miterlimit="10" d="M257.3,202c0.4,12.7,10.1,12.3,9.7,3"/>
<path fill="none" stroke="#000000" stroke-width="3" stroke-miterlimit="10" d="M182.9,270c0-6,17.2-4.3,18.4,1
	C201.9,273.6,182.9,274.6,182.9,270z"/>
<path fill="none" stroke="#000000" stroke-width="3" stroke-miterlimit="10" d="M229.5,266.2c-4.6-4,12.6-17,13.8-15
	C244.9,254.1,233.5,269.7,229.5,266.2z"/>
</svg>
