<?xml version="1.0" encoding="utf-8"?>
<svg version="1.2" baseProfile="tiny" id="Layer_1" xmlns="http://www.w3.org/2000/svg" xmlns:xlink="http://www.w3.org/1999/xlink"
	 x="0px" y="0px" viewBox="0 0 595.3 595.3" xml:space="preserve">
<path fill="none" stroke="#000000" stroke-width="3" stroke-miterlimit="10" d="M378,421c-4-19-1.8-39.7-0.8-47.8
	c1.1-7.9,1.8-20.8,1.5-25.9c-0.4-9-1.4-21.2-3.8-31.7c-2.9-12.5-10-27.9-10-27.9s-13.1-25.9-37.2-39.5
	c-22.5-12.7-54.2-14.6-83.4-7.7c-30.5,7.3-46.1,26.7-65.1,50c-16.2,20-29.3,57.1-29.3,57.1s-16.8-0.7-29.5,5
	c-8.2,3.7-11.9,16-12.3,23.3c-0.6,11.9,2.8,17.2,9,23.7c6.3,6.6,13.9,8.8,19.8,8.6c0,0-14.4,32.1-9.3,57.2
	c2.7,13.3,8.8,27,24.3,32.5c24.3,8.6,38,1,38,1s9,17,30.7,15.3c18.4-1.4,32.7-20,32.7-20s9,18.6,26.9,17c18.9-1.7,29.1-14,29.1-14
	s15,20,33.7,14.7c20.8-5.9,35.2-29.9,37-49.5C382.3,438.2,378,421,378,421z"/>
<path fill="none" stroke="#000000" stroke-width="3" stroke-miterlimit="10" d="M309.3,290.8c14.1,1.3,7.7,5.5-1.5,4.8
	C298.3,295,296.2,289.7,309.3,290.8z"/>
<path fill="none" stroke="#000000" stroke-width="3" stroke-miterlimit="10" d="M349.3,304.5c9,7.6,5.5,10.7-2.8,3.8
	C337.9,301.3,340.1,296.7,349.3,304.5z"/>
<path fill="none" stroke="#000000" stroke-width="3" stroke-miterlimit="10" d="M327.8,309.3c10.8,2,11.2,15.2,6.5,20.3
	c-6.6,7.3-19.5,1.3-21.8-4.7C308.3,314.4,318.7,307.7,327.8,309.3z"/>
</svg>
