<?xml version="1.0" encoding="utf-8"?>
<svg version="1.2" baseProfile="tiny" id="Layer_1" xmlns="http://www.w3.org/2000/svg" xmlns:xlink="http://www.w3.org/1999/xlink"
	 x="0px" y="0px" viewBox="0 0 595.3 595.3" xml:space="preserve">
<path fill="none" stroke="#000000" stroke-width="3" stroke-miterlimit="10" d="M402,502.3c5.7,4.7,13.2,7.9,21.5,7.8
	c7.8-0.2,16.4-2.3,22.5-13.8c4-7.5,7.1-24,0.8-37c-4.2-8.8-24.3-17.2-24.3-17.2s27.9-39.5,16.8-87.1c-7.4-31.4-25-47.4-67.5-61.7
	c-41.5-13.9-89.5-7.3-116.3,14.5c-26.5,21.5-44.7,48.1-44.7,48.1s-18.2-10-32.8-10c-15,0-32.8,6.5-36.3,21.8
	c-3.4,15,6.4,22.7,12.3,27.8c6.6,5.7,14.2,10.7,23.5,12c0,0-25.8,38.7-32.8,48c-11.4,15.2-9.4,46.4,15,43c13.2-1.8,20.3-6,20.3-6
	s2.4,25.4,28.5,24.3c15.8-0.7,26-9,26-9s2.8,22.4,22.3,28.3c23.5,7,40.9-9.5,40.9-9.5s6.1,25.9,23.9,32c13.8,4.8,36.5,1,49.5-9.3
	C390,534.3,402,502.3,402,502.3z"/>
<path fill="none" stroke="#000000" stroke-width="3" stroke-miterlimit="10" d="M380.5,354.8c10.4,3.3,11.5,8.8-0.5,5.5
	C367.4,356.8,371.7,352,380.5,354.8z"/>
<path fill="none" stroke="#000000" stroke-width="3" stroke-miterlimit="10" d="M422.3,369c10.2,3.8,9.2,9.3-1.5,5.3
	C412.6,371.1,411.1,364.8,422.3,369z"/>
<path fill="none" stroke="#000000" stroke-width="3" stroke-miterlimit="10" d="M401.6,371.6c10.5,3.5,6,12.9-0.1,16.2
	c-6.6,3.6-14.9,3.8-17.9-2.3C380.2,378.7,390,367.7,401.6,371.6z"/>
</svg>
