<?xml version="1.0" encoding="utf-8"?>
<svg version="1.2" baseProfile="tiny" id="Layer_1" xmlns="http://www.w3.org/2000/svg" xmlns:xlink="http://www.w3.org/1999/xlink"
	 x="0px" y="0px" viewBox="0 0 595.3 595.3" xml:space="preserve">
<path fill="none" stroke="#000000" stroke-width="3" stroke-miterlimit="10" d="M331.3,521c0,0,12.1,7.8,20.8,8
	c12.3,0.3,20-11.5,22-18.5c3.5-12.5,2.1-27.5-5.5-36.5c-6.3-7.5-10.8-11-10.8-11s13.3-49,9.3-89.5c-3.3-33.2-46.9-68.7-88.7-70.9
	c-43.7-2.4-75.2,1.7-104.7,28.1c-28,25.1-39.4,44.3-39.4,44.3s-18.2-3.1-31.5-2c-12,1-28.7,5.6-35.8,17.3c-7,11.5-1.1,22.5,9,27.8
	c7.8,4,19.5,7.5,27.5,5.3c0,0-16.6,37-21.8,46.8c-13,24.3-6.4,50.8,19.3,50c23.8-0.8,36.8-8.5,36.8-8.5s8.4,25.3,34.5,24
	c19.5-1,33.3-14.8,33.3-14.8s0.6,21.7,20.8,24.2c12.7,1.6,35.2-16.2,35.2-16.2s1.9,29.3,20.5,31.3c12.3,1.3,27.9-6.6,33.8-14
	C324,535.6,331.3,521,331.3,521z"/>
<path fill="none" stroke="#000000" stroke-width="3" stroke-miterlimit="10" d="M281.3,313.3c13,3.2,9.5,8.5-2.7,6.3
	C265.7,317.4,270.2,310.6,281.3,313.3z"/>
<path fill="none" stroke="#000000" stroke-width="3" stroke-miterlimit="10" d="M340.3,339c11.8,6.5,6,11.2-5.5,6.3
	C324.8,341.1,327.4,331.9,340.3,339z"/>
<path fill="none" stroke="#000000" stroke-width="3" stroke-miterlimit="10" d="M303.3,326.5c20,4.7,21.5,24.9,12.8,29.3
	c-11,5.7-27.5-0.8-32.7-10.5C278.5,335.9,287.6,322.8,303.3,326.5z"/>
</svg>
