<?xml version="1.0" encoding="utf-8"?>
<svg version="1.2" baseProfile="tiny" id="Layer_1" xmlns="http://www.w3.org/2000/svg" xmlns:xlink="http://www.w3.org/1999/xlink"
	 x="0px" y="0px" viewBox="0 0 595.3 595.3" xml:space="preserve">
<path fill="none" stroke="#000000" stroke-width="3" stroke-miterlimit="10" d="M238.3,343.5c12.3-7.9,43.4-3.3,43.4-3.3
	s-10.8-48.8,8-80.5s61.1-44.2,98.5-38.1c47.8,7.8,83.5,44.9,91.3,89.4c0,0,33,5.3,45,19.6c12,14.4,9,26-1,32.9c-5.8,4-29,2.8-29,2.8
	s6,64.5-15.3,79.5c-23.9,16.9-34.3-13.3-34.3-13.3s-4,22.5-18.3,26.8s-27-12.5-27-12.5s-3,16-18.3,21.3s-26.3-20.8-26.3-20.8
	s-4.8,27.8-21.8,23.3S308,454.8,303,440.3S290.5,398,290.5,398s-21.8,5-42-7.3S226.1,351.4,238.3,343.5z"/>
<path fill="none" stroke="#000000" stroke-width="3" stroke-miterlimit="10" d="M318,282.5c-0.7-3.3,15.7-4.8,17-1.8
	S318.8,286.3,318,282.5z"/>
<path fill="none" stroke="#000000" stroke-width="3" stroke-miterlimit="10" d="M359,279.1c0-3.9,12.2-5.4,15.2-2.1
	S359,283.3,359,279.1z"/>
<path fill="none" stroke="#000000" stroke-width="3" stroke-miterlimit="10" d="M340.7,292.5c-1.4-5.5,15.3-1.8,16.7,1.2
	C358.7,296.7,342.5,299.5,340.7,292.5z"/>
</svg>
