<?xml version="1.0" encoding="utf-8"?>
<svg version="1.2" baseProfile="tiny" id="Layer_1" xmlns="http://www.w3.org/2000/svg" xmlns:xlink="http://www.w3.org/1999/xlink"
	 x="0px" y="0px" viewBox="0 0 595.3 595.3" xml:space="preserve">
<path fill="none" stroke="#000000" stroke-width="3" stroke-miterlimit="10" d="M391,305.5c0,0,26,4.7,41-0.5
	c13.9-4.8,25.5-9.1,30.5-26.5c7.1-24.7-1-37.5-21.5-45c-23-8.4-46-12-46-12s5-53-5.5-93c-11.9-45.3-59.8-70-82.5-70
	s-63.2,9.8-86.5,53.2S188,211.5,188,211.5s-24,5.5-46.5,2.5c-18.1-2.4-41.5-2.8-52.9,26.5s12.9,44,36.4,54c24.5,10.5,46.4-2.1,55-2
	c0,0,2.3,173.8-12.3,239.8c-4.8,21.6,22,40,35.3,32.7s26-23.3,26-23.3s6,28.7,22,25c16-3.7,32-24.3,32-24.3s10,24.6,22.7,24.7
	c12.7,0,28-21.3,28-21.3s19.3,25.6,34.7,21.7c22.7-5.7,23.4-92,24.2-141.4C393.2,384.7,391,305.5,391,305.5z"/>
<path fill="none" stroke="#000000" stroke-width="3" stroke-miterlimit="10" d="M266.8,96.6c12.5-3.8,16,4.3,4,6
	S253.3,100.6,266.8,96.6z"/>
<path fill="none" stroke="#000000" stroke-width="3" stroke-miterlimit="10" d="M324.3,97c9.8,3.7,6.3,9.2-3.5,6.1
	C309.1,99.4,313.5,92.9,324.3,97z"/>
<path fill="none" stroke="#000000" stroke-width="3" stroke-miterlimit="10" d="M299.8,107.5c5.5,2,11.3,13.1,5,19.5
	c-7.5,7.5-15.9,3.5-19.4-3.5C280.6,114,293.4,105.2,299.8,107.5z"/>
</svg>
