<?xml version="1.0" encoding="utf-8"?>
<svg version="1.2" baseProfile="tiny" id="Layer_1" xmlns="http://www.w3.org/2000/svg" xmlns:xlink="http://www.w3.org/1999/xlink"
	 x="0px" y="0px" viewBox="0 0 595.3 595.3" xml:space="preserve">
<path fill="none" stroke="#000000" stroke-width="3" stroke-miterlimit="10" d="M407.2,349.2c0,0,21.1,5.2,35.8,3.8s50.7-12,47.3-44
	c-3.3-32-28-33-40.7-32c-24.7,2-42.7-22-42.7-22s0-68.7-17.3-124c-17.3-55.3-61.3-64-84-64c-22.7,0-62.7,7.3-86,50.7
	s-34,134.7-34,134.7s-20,17.3-38,16c-18-1.3-51.3-15.3-62.7,14c-11.3,29.3,15.3,50.7,27.3,56.7s62,2.9,62,2.9s-9.3,168.4-6.6,190.4
	c2.7,22,22,40,35.3,32.7s26-23.3,26-23.3s6,28.7,22,25c16-3.7,32-24.3,32-24.3s10,24.6,22.7,24.7c12.7,0,28-21.3,28-21.3
	s19.3,25.6,34.7,21.7c22.7-5.7,38.5-76.3,39.3-125.7C408.3,400.3,407.2,349.2,407.2,349.2z"/>
<path fill="none" stroke="#000000" stroke-width="3" stroke-miterlimit="10" d="M290.5,118.3c14-1.5,12,6.2,0,8
	C278.5,128,276.6,119.8,290.5,118.3z"/>
<path fill="none" stroke="#000000" stroke-width="3" stroke-miterlimit="10" d="M357.8,122.3c11.5,2.2,12.9,10.6-1.1,8.4
	C342.8,128.5,346.3,120.1,357.8,122.3z"/>
<path fill="none" stroke="#000000" stroke-width="3" stroke-miterlimit="10" d="M325.7,141.3c10.3,0,13.3,17,7,23.3
	c-6.3,6.3-14.7,3-18-3.3C311.3,155,317,141.3,325.7,141.3z"/>
</svg>
