<?xml version="1.0" encoding="utf-8"?>
<svg version="1.2" baseProfile="tiny" id="Layer_1" xmlns="http://www.w3.org/2000/svg" xmlns:xlink="http://www.w3.org/1999/xlink"
	 x="0px" y="0px" viewBox="0 0 595.3 595.3" xml:space="preserve">
<path fill="none" stroke="#000000" stroke-width="3" stroke-miterlimit="10" d="M464.8,495.8c5.7,4.7,14,5.3,20.5,2.8
	c7.4-2.8,15.5-18.8,15.3-30.3c-0.2-8.5-1.6-17.6-5.2-27.8c-2.5-7.3-9.2-16.9-9.2-16.9s24.7-41.3,14.4-89.1
	c-5.7-26.5-28.5-46.9-67.5-60.8c-41.2-14.7-80.8-3.8-107.5,18C299,313.3,287,336.3,287,336.3s-20-7.6-40.3-3.1
	c-15.2,3.4-28.8,7.3-36.2,19.3c-6.5,10.6-0.2,19.1,5.8,24.2c6.6,5.7,16.4,9.9,24.8,11.8c0,0-33,29.4-40,38.8
	c-11.4,15.2-6.9,43.2,17.5,46.6c13.5,1.9,31-6.6,31-6.6s-4.3,28.3,25.5,33c15.6,2.5,40.3-7.8,40.3-7.8s-2.2,21.7,17.3,27.5
	c23.5,7,45.8-10.8,45.8-10.8s-0.7,27.1,17,33.3c13.8,4.8,28-4,41-14.3C455.3,513.3,464.8,495.8,464.8,495.8z"/>
<path fill="none" stroke="#000000" stroke-width="3" stroke-miterlimit="10" d="M442.6,310.9c12,5.9,8.3,10.8-2.8,4.9
	C428.3,309.6,432.8,306,442.6,310.9z"/>
<path fill="none" stroke="#000000" stroke-width="3" stroke-miterlimit="10" d="M491,334.8c5,5.6,1.6,9.3-4.3,2.6
	C481.3,331.2,483.1,325.8,491,334.8z"/>
<path fill="none" stroke="#000000" stroke-width="3" stroke-miterlimit="10" d="M471.4,338.9c9.2,5.9,5.4,17,0.8,19.9
	c-6.4,4-19.3-1.8-21.4-9.5C448,339.1,459.8,331.4,471.4,338.9z"/>
</svg>
