<?xml version="1.0" encoding="utf-8"?>
<svg version="1.2" baseProfile="tiny" id="Layer_1" xmlns="http://www.w3.org/2000/svg" xmlns:xlink="http://www.w3.org/1999/xlink"
	 x="0px" y="0px" viewBox="0 0 595.3 595.3" xml:space="preserve">
<path fill="none" stroke="#000000" stroke-width="3" stroke-miterlimit="10" d="M403.3,309c0,0-14-41-21-47.3
	c-9.9-8.9-10.2-14.3-17-24.3c-9.9-14.4-16.6-12.1-25.3-9.7c-13.1,3.7-16.7,1.7-16.7,1.7s-36.3-3.5-58-3c-19.1,0.4-37.4,7.3-63,20.3
	c-16.3,8.3-23.3,15.3-38,34c-17.9,22.8-21.1,31.7-24.3,37.7c-4.5,6.2-7.9,19.5-12,27.3c-2.7,5.1-7,18-8.8,27c-1.4,7-4,14.7-7.9,26.3
	c-3,8.8-8.6,26.9-8.6,27c0,0-22.8,41.8-35.3,68.3c-12.7,26.8-6.7,46.1,25,46.3c21.5,0.1,49.7-22,49.7-22s5.5,39.3,29.3,40.3
	c20.5,0.9,41.7-17,41.7-17s10.3,28.4,34.3,24.3c17.6-2.9,37-25.7,37-25.7s0.5,28.5,23,29c17,0.4,53.7-28.8,76.7-93.7
	C417,383,403.3,309,403.3,309z"/>
<path fill="none" stroke="#000000" stroke-width="3" stroke-miterlimit="10" d="M142.1,314.6c6.2-11.4,7.9-13,1.8-3.3
	C140.1,317.3,137.8,322.6,142.1,314.6z"/>
<path fill="none" stroke="#000000" stroke-width="3" stroke-miterlimit="10" d="M386,300.1c2.4-7.5,14.7-2.5,13.7,5.9
	C398.3,317,382.7,310.7,386,300.1z"/>
<path fill="none" stroke="#000000" stroke-width="3" stroke-miterlimit="10" d="M403.7,336c6.5,10.4-7.3,9.7-11,9.7
	c-9.4-0.1-11.3-9.3-7.1-12.7C392.6,327.3,399.7,329.7,403.7,336z"/>
</svg>
