<?xml version="1.0" encoding="utf-8"?>
<svg version="1.2" baseProfile="tiny" id="Layer_1" xmlns="http://www.w3.org/2000/svg" xmlns:xlink="http://www.w3.org/1999/xlink"
	 x="0px" y="0px" viewBox="0 0 595.3 595.3" xml:space="preserve">
<path fill="none" stroke="#000000" stroke-width="3" stroke-miterlimit="10" d="M380.3,378.3c0,0,21.9,2.7,36.6-5.2
	c9.4-5,19.4-12.8,23.4-30.1c4.2-18.3-6-31.3-18-45.4c-14.8-17.4-34.7-26-34.7-26s3.1-11.3,4-63.7c1.3-75-7.9-107.2-72.7-119.7
	c-55.3-10.7-91.1,16.6-110.9,73.5C191.8,208.4,181,264.3,181,264.3S155.7,279,125.7,285c-25.8,5.2-34.9,27.3-34,48
	c0.9,20.3,16.6,37.6,46.7,39.3c23.3,1.3,32-11.3,32-11.3s-16.7,102-8,166c3,22,13,40.6,31.6,37.7c15-2.3,27.7-21.7,27.7-21.7
	s13.3,27.3,29.3,23.7c16-3.7,25.3-23.7,25.3-23.7s16.7,24,29.3,24c12.7,0,20-24,20-24s20,28.7,35.3,24.8
	c22.7-5.7,14.3-58.1,15.3-101.4C377.3,425,380.3,378.3,380.3,378.3z"/>
<path fill="none" stroke="#000000" stroke-width="3" stroke-miterlimit="10" d="M281.8,136.5c16.4-3.2,15.7,5.6,1.5,8
	C268.5,147,266.5,139.5,281.8,136.5z"/>
<path fill="none" stroke="#000000" stroke-width="3" stroke-miterlimit="10" d="M346.3,140.4c13.3,9.8,9.5,14.5-4.5,6.3
	C324.3,136.6,335.6,132.5,346.3,140.4z"/>
<path fill="none" stroke="#000000" stroke-width="3" stroke-miterlimit="10" d="M317.3,177.3c-6.5-1.4-5.1-15.6-2.3-20
	c2.6-4.1,9.7-9,14.8,0.2C334.5,166.3,328,179.5,317.3,177.3z"/>
</svg>
