<?xml version="1.0" encoding="utf-8"?>
<svg version="1.2" baseProfile="tiny" id="Layer_1" xmlns="http://www.w3.org/2000/svg" xmlns:xlink="http://www.w3.org/1999/xlink"
	 x="0px" y="0px" viewBox="0 0 595.3 595.3" xml:space="preserve">
<path fill="none" stroke="#000000" stroke-width="3" stroke-miterlimit="10" d="M324,303c0,0,16.5,6.6,23-5.4
	c5.7-10.6-1.5-43.8,0.5-58.5c3.8-28.2,3.8-28.2,4.8-33.2c3.5-17.3,5.3-33.3,5.3-33.3s5-17.3,3.7-56.1c-1.2-34.7-41-45.9-63.7-45.9
	c-22.7,0-71.3,3.6-94.6,34.3c-23.5,30.9-41.9,67.3-41.9,67.3s-19.3,13.7-33.5,28.3c-9.3,9.7-20.6,21.8-27,33.3
	c-6,10.9-5.7,17.7,1.7,24.7c8.2,7.8,14.9,3.2,23.6,3.3c0,0-6.9,29.6-11.4,67.1c-2.6,22-7.2,61,11.4,61c18.1,0,26.6-44.5,26.6-44.5
	s-0.7,43.8,25.5,42.5c19.5-1,34.5-41.5,34.5-41.5s-1.2,41.6,18,45c17,3,33-40.5,33-40.5s10,38.2,24,37c8.8-0.7,21-3.4,28.5-44
	C321.9,312.1,324,303,324,303z"/>
<path fill="none" stroke="#000000" stroke-width="3" stroke-miterlimit="10" d="M302.3,108.8c12.3,7.5,5.5,13.3-6,6
	C285.4,107.9,290.7,101.7,302.3,108.8z"/>
<path fill="none" stroke="#000000" stroke-width="3" stroke-miterlimit="10" d="M256.8,96.7c12-0.8,16.3,8.7-1.3,8.7
	C241.7,105.3,241.8,97.7,256.8,96.7z"/>
<path fill="none" stroke="#000000" stroke-width="3" stroke-miterlimit="10" d="M271.8,114.5c8.3,3.1,0.3,17.3-6,23.6
	c-7.5,7.5-18.3,1.8-17-5.9C250.8,120.3,264.2,111.6,271.8,114.5z"/>
</svg>
