<?xml version="1.0" encoding="utf-8"?>
<svg version="1.2" baseProfile="tiny" id="Layer_1" xmlns="http://www.w3.org/2000/svg" xmlns:xlink="http://www.w3.org/1999/xlink"
	 x="0px" y="0px" viewBox="0 0 595.3 595.3" xml:space="preserve">
<path fill="none" stroke="#000000" stroke-width="3" stroke-miterlimit="10" d="M227.7,447c9.3,31.6,48.8,40.5,101.8,40.5
	s97.7,8,91-28C412,414,417.7,340,417.7,340s29.6,23,59.3,23.4c44.5,0.6,12.8-54.8-0.7-69.4c-16.1-17.5-32.1-32.5-44.6-39.8
	c5-38.2,8.6-65.7-0.5-97.6c-13-45.3-50.3-56.6-93.9-41.3C301,128,287,152.7,275.7,171c-13.3,21.5-21,52.3-22.7,70.3
	c-21,12.9-31,18.6-57.7,41c-21,17.6-42.4,63.3-17.3,68.7c14,3,44-11.7,56.7-19.3C228.3,358.3,222.5,429.5,227.7,447z"/>
<line fill="none" stroke="#000000" stroke-width="3" stroke-miterlimit="10" x1="150.8" y1="443.3" x2="194.6" y2="266.2"/>
<path fill="none" stroke="#000000" stroke-width="3" stroke-miterlimit="10" d="M122.2,415.9c2-0.1,39.6-17.1,39.6-17.1l33.1,35.5"
	/>
<path fill="none" stroke="#000000" stroke-width="3" stroke-miterlimit="10" d="M177.5,285.6l-10.4-7.4l14.6-19.9
	c0,0-10-14.7,6.6-35.7c12-13.2,23.8-12.9,32.2-6.1c8.4,6.8,13.5,16.8,1.9,34.2c-13.7,19.6-23.4,15.8-29.7,15.2L177.5,285.6z"/>
<path fill="none" stroke="#000000" stroke-width="3" stroke-miterlimit="10" d="M194.5,223c10-0.9,24,11.3,26.6,16.5"/>
<path fill="none" stroke="#000000" stroke-width="3" stroke-miterlimit="10" d="M187.5,235.1c10-0.9,24,11.3,26.6,16.5"/>
<path fill="none" stroke="#000000" stroke-width="3" stroke-miterlimit="10" d="M378.2,163.8c9.1-10.7,2.8-29-13-31.4
	c-15.5-2.4-33.3,8.9-28.5,25.9C341.2,174,370.9,172.5,378.2,163.8z"/>
<path fill="none" stroke="#000000" stroke-width="3" stroke-miterlimit="10" d="M413.1,192.6c-0.7,9.5,5.5,9.8,8.7,0.8"/>
<path fill="none" stroke="#000000" stroke-width="3" stroke-miterlimit="10" d="M422,170.3c-7,8.1-0.5,16.4,5.2,7.1"/>
<path fill="none" stroke="#000000" stroke-width="3" stroke-miterlimit="10" d="M403.4,177.4c-3.2,9.2,6.8,11.8,9.7,2.5"/>
<path fill="none" stroke="#000000" stroke-width="3" stroke-miterlimit="10" d="M338.3,123.1c2.5-3.5,18-1.8,16.8,1.7
	C354.1,127.9,335.7,126.9,338.3,123.1z"/>
<path fill="none" stroke="#000000" stroke-width="3" stroke-miterlimit="10" d="M380.4,132.2c-0.7-5.5,19.5-3.1,18.9,0.5
	C398.9,135.5,381,136.6,380.4,132.2z"/>
</svg>
