<?xml version="1.0" encoding="utf-8"?>
<svg version="1.2" baseProfile="tiny" id="Layer_1" xmlns="http://www.w3.org/2000/svg" xmlns:xlink="http://www.w3.org/1999/xlink"
	 x="0px" y="0px" viewBox="0 0 595.3 595.3" xml:space="preserve">
<path fill="none" stroke="#000000" stroke-width="3" stroke-miterlimit="10" d="M101,256c0,0-9.3,7.8-23,19.3
	c-15.9,13.3-19.4,22.5-21.2,32.7c-1.7,9.4,6.9,19.4,17.2,19.7c26,0.7,45.3-18.3,45.3-18.3s12.9,27.2,18.3,38
	c11.7,23.3,49.9,52.9,67,59c40,14.3,82.7,2.3,91.3-3.7c14-9.7,19.3-30.2,19.3-30.2s25.3-8.7,33.5-18.1c7.5-8.5,16.8-29,17.1-36.7
	c0.4-9.8-3.1-13.8-1.7-18.7c2-6.7,11.7-10.7,13.3-20c0,0,8.8-25.8-9.9-43.8c-19.2-18.4-52.8,6.5-57,1c-3.6-4.7-8.3-30.8-8.3-30.8
	s10.8-8.2,22.5-16c16.8-11.3,19.8-24.3,19.8-24.3s5.5-18.8-18.3-21.3c-16.5-1.8-40.5,14.6-40.5,14.6s-11.3-61.2-78.3-68.8
	c-43.7-5-84,21-101.1,62.9C92,188.2,101,256,101,256z"/>
<path fill="none" stroke="#000000" stroke-width="3" stroke-miterlimit="10" d="M197.5,152.3c-11.9-2.7-12.1-10.9,3.5-7.5
	C214.8,147.8,211.3,155.5,197.5,152.3z"/>
<path fill="none" stroke="#000000" stroke-width="3" stroke-miterlimit="10" d="M141.5,156.5c12-9.3,16.6-0.9,4.1,5.6
	C134.4,168,132.5,163.5,141.5,156.5z"/>
<path fill="none" stroke="#000000" stroke-width="3" stroke-miterlimit="10" d="M155,174c5.3-15.4,23.5-15.4,28.5-7
	c4.9,8.3,3.5,28-12,30.5C160.5,199.3,150.6,187,155,174z"/>
</svg>
