<?xml version="1.0" encoding="utf-8"?>
<svg version="1.2" baseProfile="tiny" id="Layer_1" xmlns="http://www.w3.org/2000/svg" xmlns:xlink="http://www.w3.org/1999/xlink"
	 x="0px" y="0px" viewBox="0 0 595.3 595.3" xml:space="preserve">
<path fill="none" stroke="#000000" stroke-width="3" stroke-miterlimit="10" d="M378,421c-4-19-1.8-39.7-0.8-47.8
	c1.1-7.9,1.5-26.5,1.8-31.8c0.4-9-0.5-20.4-1.3-31.2c-0.9-12.8-6.9-28.6-6.9-28.6s-12.3-27.3-38.3-36.8c-24.7-9-57.1-8.9-86.3-2
	c-30.5,7.3-51.3,22.7-70.3,46c-16.2,20-26,58.7-26,58.7s-16.8-0.7-29.5,5c-8.2,3.7-11.9,16-12.3,23.3c-0.6,11.9,2.8,17.2,9,23.7
	c6.3,6.6,13.9,8.8,19.8,8.6c0,0-14.4,32.1-9.3,57.2c2.7,13.3,8.8,27,24.3,32.5c24.3,8.6,38,1,38,1s9,17,30.7,15.3
	c18.4-1.4,32.7-20,32.7-20s9,18.6,26.9,17c18.9-1.7,29.1-14,29.1-14s15,20,33.7,14.7c20.8-5.9,35.2-29.9,37-49.5
	C382.3,438.2,378,421,378,421z"/>
<path fill="none" stroke="#000000" stroke-width="3" stroke-miterlimit="10" d="M320.3,276.5c13.5,4.4,6.3,7.7-2.6,5.2
	C305.6,278.3,307.4,272.3,320.3,276.5z"/>
<path fill="none" stroke="#000000" stroke-width="3" stroke-miterlimit="10" d="M353.7,291c10.4,7.5,4,9.4-6.7,4.1
	C337.1,290.1,343.9,283.9,353.7,291z"/>
<path fill="none" stroke="#000000" stroke-width="3" stroke-miterlimit="10" d="M329.7,298.1c9.9,1.6,13.3,15,8.7,20.2
	c-6.6,7.3-20.3,3-22.7-3C311.5,304.7,320.2,296.6,329.7,298.1z"/>
</svg>
