<?xml version="1.0" encoding="utf-8"?>
<svg version="1.2" baseProfile="tiny" id="Layer_1" xmlns="http://www.w3.org/2000/svg" xmlns:xlink="http://www.w3.org/1999/xlink"
	 x="0px" y="0px" viewBox="0 0 595.3 595.3" xml:space="preserve">
<path fill="none" stroke="#000000" stroke-width="3" stroke-miterlimit="10" d="M438.4,454.6c0,0,24.3,20.3,31.1,17.9
	c11.5-4,15.4-11.8,18.5-21.5c4.1-13-1.8-25.8-12.5-39.5c-9.7-12.4-27.8-25-27.8-25s3.5-45.7-0.2-81c-1.5-14.1-4.5-66.1-41.5-75.2
	c-32-7.8-58.5-5-74,14.2c-14.7,18.2-19,39.3-19,39.3s-11.8-26.5-25-35.3c-12.2-8.2-30.5-17-44.5-2.5c-5.8,6-9.7,20.4,1,45.7
	c8.5,20.2,43,54.8,43,54.8s-13,93-53,134c-31.6,32.4-21,70-9,68.5c15.1-1.9,23-7.5,23-7.5s6,29.7,22,26S300,552,300,552
	s9.3,25,22,25s38.9-29.5,38.9-29.5s5.9,24.5,19,15.5c14-9.7,29.3-22.1,42.6-54.5C430.5,489,438.4,454.6,438.4,454.6z"/>
<path fill="none" stroke="#000000" stroke-width="3" stroke-miterlimit="10" d="M391.7,279.8c10.2,2.1,12.5-4.4,3.7-7.8
	C385.8,268.3,381,277.7,391.7,279.8z"/>
<path fill="none" stroke="#000000" stroke-width="3" stroke-miterlimit="10" d="M430.3,280.7c11,5.3,4.6,10.3-3.3,7.3
	C415.3,283.7,424,277.6,430.3,280.7z"/>
<path fill="none" stroke="#000000" stroke-width="3" stroke-miterlimit="10" d="M408.3,315.7c-5.9,1.7-12-3.2-10.3-9.7
	c3-11.6,15.3-4.5,17,1C416.3,311.1,413.1,314.3,408.3,315.7z"/>
</svg>
