<?xml version="1.0" encoding="utf-8"?>
<svg version="1.2" baseProfile="tiny" id="Layer_1" xmlns="http://www.w3.org/2000/svg" xmlns:xlink="http://www.w3.org/1999/xlink"
	 x="0px" y="0px" viewBox="0 0 595.3 595.3" xml:space="preserve">
<path fill="none" stroke="#000000" stroke-width="3" stroke-miterlimit="10" d="M441.7,514c10,3.5,32.2,4,38.7,1.5
	c7.4-2.8,17.9-13.3,17.7-24.8c-0.2-8.5-8.2-18.7-17.5-24.2c-10.2-6-33.3-9.5-33.3-9.5s12.6-29.6-0.9-71.5
	c-7-21.8-25.4-39.6-59.5-53.5c-41-16.7-74.5-15.5-103.8,1.9c-24.9,14.8-44,36.1-44,36.1s-14.5-2.3-35.3-1.7
	c-15.3,0.5-34,4.3-41.3,16.3c-6.5,10.6-0.3,19.7,6,27c5.1,5.9,14.3,11.4,22.7,13.3c0,0-21.7,10.3-25.7,27.3
	c-2.8,12.1,1.3,24.7,19.7,33.3c17.1,8.1,43.3,7.3,43.3,7.3s-0.9,15.2,25,24.7c17.3,6.3,42-4,42-4S300,538.8,319,546
	c14,5.3,29.8-8.9,29.8-8.9s5.9,16,20.7,23.7c19.2,9.9,20.3,2,29,6.5C437.1,587.1,441.7,514,441.7,514z"/>
<path fill="none" stroke="#000000" stroke-width="3" stroke-miterlimit="10" d="M341.8,383c17.3,7.5,16,12.2-4,5
	C317.1,380.6,323.8,375.2,341.8,383z"/>
<path fill="none" stroke="#000000" stroke-width="3" stroke-miterlimit="10" d="M402.8,407.2c13.7,4.5,16.5,12.7-4.3,5.2
	C380.5,405.8,385.9,401.6,402.8,407.2z"/>
<path fill="none" stroke="#000000" stroke-width="3" stroke-miterlimit="10" d="M370.9,410.6c9.1,4.3,12.1,11.9,7.6,14
	c-5.6,2.6-24.2-5.7-24.3-11.3C354.2,407.3,363.8,407.3,370.9,410.6z"/>
</svg>
