<?xml version="1.0" encoding="utf-8"?>
<svg version="1.2" baseProfile="tiny" id="Layer_1" xmlns="http://www.w3.org/2000/svg" xmlns:xlink="http://www.w3.org/1999/xlink"
	 x="0px" y="0px" viewBox="0 0 595.3 595.3" xml:space="preserve">
<path fill="none" stroke="#000000" stroke-width="3" stroke-miterlimit="10" d="M176,387.5c0,0-15.5,6.4-40.5,6
	c-13.5-0.2-34.5-9-37-27c-1.8-12.9,2.5-22.5,9.9-29.7c11.2-11,39.3-10.5,39.3-10.5s-4.4-19-5.3-31c-1.2-16,1.6-24.7,6.8-42.1
	c4.9-16.3,10.1-21.5,17.2-30.3c10.7-13.3,26.2-22,26.2-22s19.3-9.1,31.5-11.5c11.6-2.3,13.8-3,22.5-3.6c9.8-0.7,16,0,26.5,2.8
	c16,4.3,16.5,5.5,20.3,5.3c0,0,5.8-17.7,39.4-17.5c36,0.2,51.6,10.9,61,18.8c11.4,9.5,21.4,28.4,21.4,28.4s16.2-6.4,26.1-2.3
	c11.9,5,8.1,26,8.1,26S466,253.9,462,303c-3.8,46-47.3,88-47.3,88s-34.5,29-74.3,38.7c-38.7,9.3-85.1-0.7-110.3-9.2
	C197.4,409.5,176,387.5,176,387.5z"/>
<path fill="none" stroke="#000000" stroke-width="3" stroke-miterlimit="10" d="M270.3,356.3c-15.1,3.5-19.3-7-3.7-10
	C280.8,343.7,289,351.9,270.3,356.3z"/>
<path fill="none" stroke="#000000" stroke-width="3" stroke-miterlimit="10" d="M202.3,344.2c15.2,0.8,14.8,10.7,0.7,10.1
	C187.7,353.7,190.4,343.6,202.3,344.2z"/>
<path fill="none" stroke="#000000" stroke-width="3" stroke-miterlimit="10" d="M217,380.7c3.8-12.6,39.8-9.2,41.3,0.7
	c1.5,9.5-10.1,17.5-25.8,16.8C221.5,397.7,215.3,386.2,217,380.7z"/>
</svg>
