<?xml version="1.0" encoding="utf-8"?>
<svg version="1.2" baseProfile="tiny" id="Layer_1" xmlns="http://www.w3.org/2000/svg" xmlns:xlink="http://www.w3.org/1999/xlink"
	 x="0px" y="0px" viewBox="0 0 595.3 595.3" xml:space="preserve">
<path fill="none" stroke="#000000" stroke-width="3" stroke-miterlimit="10" d="M372.8,467c0,0-0.6-9-1.4-22.7
	c-0.8-14.5-1.8-27.3-1.8-41.8c0-9.6,0.5-22.4,0-36.5c-0.8-23.6-3-47.5-3-47.5s-3.7-46-11.1-98.5c-10.8-77-57.4-99.5-103.9-94
	c-38,4.5-59.9,33.6-66.5,95.5c-4,37,0,91,0,91s3,27,7,51c1.9,11.3,3.9,27.7,5.5,44.5c1,10.9,2.2,14.8,3,28c0.5,9.2,1,25.5,1,25.5
	s-1.6,26.5,3.5,60.2c3.3,21.9,8,48.5,26.7,45.7c15-2.3,30.7-21.7,30.7-21.7s3.4,25,19.4,21.3c16-3.7,21.8-18,21.8-18s9.4,18,22.1,18
	c12.7,0,15.3-19.3,15.3-19.3s4,19.9,19.3,16C383,557.9,383,531.2,377,496C375,484.3,372.8,467,372.8,467z"/>
<path fill="none" stroke="#000000" stroke-width="3" stroke-miterlimit="10" d="M227.3,168.6c8.4-4.6,3-9.1-3.3-6.2
	C216.2,166,221,172,227.3,168.6z"/>
<path fill="none" stroke="#000000" stroke-width="3" stroke-miterlimit="10" d="M253,147c6.7-4,11.8,0,4.3,4.5
	C253.1,154,246.8,150.8,253,147z"/>
<path fill="none" stroke="#000000" stroke-width="3" stroke-miterlimit="10" d="M249.3,173.3c-4.8,1.5-8.5-3.6-7.3-6.5
	c2.1-4.9,8.1-6.5,10.8-3.8C255.7,166,255.3,171.3,249.3,173.3z"/>
</svg>
