<?xml version="1.0" encoding="utf-8"?>
<svg version="1.2" baseProfile="tiny" id="Layer_1" xmlns="http://www.w3.org/2000/svg" xmlns:xlink="http://www.w3.org/1999/xlink"
	 x="0px" y="0px" viewBox="0 0 595.3 595.3" xml:space="preserve">
<path fill="none" stroke="#000000" stroke-width="3" stroke-miterlimit="10" d="M350.3,326.3c0,0,11.2-26.1,13.9-36.5
	c2.9-11,8.6-25.9,3.2-43.1c-5.2-16.7-25.2-18.6-34-16.1c-13.1,3.7-31.8,23.3-31.8,23.3s-16.9-8.5-43-17.3
	c-16.1-5.4-59.9-15.2-109.8,15.5c-41.7,25.7-58.2,47.2-63.3,88.7c-4.4,35.6-4.6,76.3-4,76.3c-9,9-15.7,16.5-22.7,27.7
	c-6.7,10.7-11.6,22.3-10.7,32c0.8,8.1,11.4,15.9,17.3,16.7c9.7,1.3,25.8-4.4,25.8-4.3c0,0,1.2,31.7,16,58.5
	c10.5,19,25.5,42.5,45,45.4c28.5,4.3,32.5-23.4,32.5-23.4s10.5,28,44.5,22.8C249.8,589.2,255,558,255,558s24.5,30.5,56,26
	c17.6-2.5,18-45,18-45s44.5,34.3,65.7,8.3c10.8-13.2,19.3-39.8,8.8-68.7C386.1,430.8,350.3,326.3,350.3,326.3z"/>
<path fill="none" stroke="#000000" stroke-width="3" stroke-miterlimit="10" d="M134.8,320.4c12.7-2.6,13.1-14.3-2.5-10.9
	C121.8,311.8,123.3,322.8,134.8,320.4z"/>
<path fill="none" stroke="#000000" stroke-width="3" stroke-miterlimit="10" d="M199.5,301.3c14.5-1.1,12.3-10.7-1-11.3
	C184,289.4,184.8,302.4,199.5,301.3z"/>
<path fill="none" stroke="#000000" stroke-width="3" stroke-miterlimit="10" d="M178,342.5c-11.1,5.1-28.7-3.5-27.3-8.5
	c2.8-9.5,26.3-17.8,34.5-14.5C193.4,322.7,191.5,336.3,178,342.5z"/>
</svg>
