<?xml version="1.0" encoding="utf-8"?>
<svg version="1.2" baseProfile="tiny" id="Layer_1" xmlns="http://www.w3.org/2000/svg" xmlns:xlink="http://www.w3.org/1999/xlink"
	 x="0px" y="0px" viewBox="0 0 595.3 595.3" xml:space="preserve">
<path fill="none" stroke="#000000" stroke-width="3" stroke-miterlimit="10" d="M266,171.5c0,0-11.2-0.9-27.7,10.8
	c-13.9,9.9-18.2,13.8-18.2,25c0,9.9,3.2,15.8,12.8,24.3c3,2.7,14.7,4,14.7,4s-23.5,18.1-35,30.1c-11.3,11.8-23.5,29.3-24.2,46.5
	c-0.4,10.7,9,24.9,19.5,31.2c15.5,9.2,39.7,2.5,39.7,2.5s-7,30,25.3,35.3c22.9,3.8,27-7.6,36-9.3c5.2-1-0.3,24.3,23.3,25.9
	c13.7,0.9,31.7-8.9,42.3-25.5c0,0,18,18.7,35.3,3.7c11.3-9.8,21.5-51.1,22.3-66.3c1-18.2,7.7-37,10.3-80c0,0,19.1,1.2,37-11.3
	c12.3-8.7,16-29.3,16-29.3s2.5-17.8-13.7-30.7c-18.3-14.7-39.3,8.7-39.3,8.7s1-82.7-41.7-105.3C372.4,46.5,313.3,48,291.7,88
	C279.5,110.4,266,171.5,266,171.5z"/>
<path fill="none" stroke="#000000" stroke-width="3" stroke-miterlimit="10" d="M381.9,107.3c-17.3-4.7-7.4-13.1,3.4-8.6
	C400.7,105,396.7,111.3,381.9,107.3z"/>
<path fill="none" stroke="#000000" stroke-width="3" stroke-miterlimit="10" d="M328,103.3c14.9-2.8,16,5.3,0.8,8
	C314.1,113.9,314,106,328,103.3z"/>
<path fill="none" stroke="#000000" stroke-width="3" stroke-miterlimit="10" d="M348.3,124.7c0-6.5,13.2-8.8,19.3-5.7
	c5.8,3,3,12.3-3,15C360.6,135.8,348.3,137.3,348.3,124.7z"/>
</svg>
