<?xml version="1.0" encoding="utf-8"?>
<svg version="1.2" baseProfile="tiny" id="Layer_1" xmlns="http://www.w3.org/2000/svg" xmlns:xlink="http://www.w3.org/1999/xlink"
	 x="0px" y="0px" viewBox="0 0 595.3 595.3" xml:space="preserve">
<path fill="none" stroke="#000000" stroke-width="3" stroke-miterlimit="10" d="M107.3,293.3c0,0-8.1,0.6-20.7,13.3
	c-9.3,9.5-12.2,20.4-13.1,30.7c-1,10.7-1.2,21.2,15.8,25.3c25.3,6.2,39-12.3,39-12.3s19,39.7,27.8,48.7
	c18.3,18.6,37.8,27.5,54.9,33.7c40,14.3,83.4-5.7,92-11.7c14-9.7,11.5-25,11.5-25s24.1-8,35.1-20.6c12.2-14.1,17.7-28.2,15.5-37.5
	c-2.3-9.9,4.5-22.4,7.7-26.3c4.2-5.2,7.1-10.2,8.8-19.5c0,0,4.3-16.4-8.8-29.2c-7-6.8-21.7-10.8-29.3-10.5c-7.2,0.3-19.8,3.3-30.5,8
	c0,0-2.3-6.8-3.3-13.7c-0.8-5.5-2.8-13.3-2.8-13.3s-3.2-12.5-5.2-22.1c-2.5-12.5-14.2-41.3-14.2-41.3s-19.8-49.7-80.8-58.3
	C163.1,105.6,111,150,103,197.1C96.2,237,107.3,293.3,107.3,293.3z"/>
<path fill="none" stroke="#000000" stroke-width="3" stroke-miterlimit="10" d="M175.8,189.2c-10.1-2-9.4-11.8,5.5-6.2
	C192.3,187.2,189,191.8,175.8,189.2z"/>
<path fill="none" stroke="#000000" stroke-width="3" stroke-miterlimit="10" d="M128.8,194c12-9.3,15.9,1.2,2.8,6.5
	C121.8,204.5,119.8,201,128.8,194z"/>
<path fill="none" stroke="#000000" stroke-width="3" stroke-miterlimit="10" d="M148.8,206.7c4-2,12-4.2,15.3-1.3
	c2.7,2.3-0.8,8.3-8.7,9.5C148,216,145.1,208.5,148.8,206.7z"/>
</svg>
