<?xml version="1.0" encoding="utf-8"?>
<svg version="1.2" baseProfile="tiny" id="Layer_1" xmlns="http://www.w3.org/2000/svg" xmlns:xlink="http://www.w3.org/1999/xlink"
	 x="0px" y="0px" viewBox="0 0 595.3 595.3" xml:space="preserve">
<path fill="none" stroke="#000000" stroke-width="3" stroke-miterlimit="10" d="M404,348.5c0,0,18-11.9,23-24.5
	c4.1-10.3,3.9-19,3.9-26.4c0-9.4-1.2-27.6-6.7-35.6c-6.9-10.1-25.2-5-25.2-5s-7.9-47.2-13.4-78.7c-5.5-31.3-38-93.8-99.1-90.4
	c-47.5,2.6-72.7,39.5-90,87.8C184.6,208.8,182,286,182,286s-9.9-19.5-22.8-14.2c-12.2,5-12.9,19.8-13.2,37.2
	c-0.2,11,9.3,30.5,15.5,39c6,8.1,18.8,10.3,18.8,10.3s-5.7,66.7-14.7,134c-2.9,22,0.2,86.1,10.7,90c14.3,5.3,42-25.3,42-25.3
	s10.7,26.3,26.7,22.7c16-3.7,29.3-26.7,29.3-26.7s7.3,28.7,23.3,29.3c12.7,0.5,24.4-24.7,24.4-24.7s17.6,25.9,33,22
	c22.7-5.7,34.3-35.8,37.3-75.3C399,416.3,404,348.5,404,348.5z"/>
<path fill="none" stroke="#000000" stroke-width="3" stroke-miterlimit="10" d="M272.3,154.7c12.3-0.7,20,9.4,1,9.4
	C258.8,164.1,261,155.3,272.3,154.7z"/>
<path fill="none" stroke="#000000" stroke-width="3" stroke-miterlimit="10" d="M333.3,154.6c14.7,0,16.7,9.5,0.3,9.5
	C320.7,164.1,320.7,154.6,333.3,154.6z"/>
<path fill="none" stroke="#000000" stroke-width="3" stroke-miterlimit="10" d="M309.3,196.5c-5.5,4.7-17.8,5.2-20.8-3.5
	c-2.2-6.2,2.4-2.4,10.5-1.5C308,192.5,316.8,190,309.3,196.5z"/>
</svg>
