<?xml version="1.0" encoding="utf-8"?>
<svg version="1.2" baseProfile="tiny" id="Layer_1" xmlns="http://www.w3.org/2000/svg" xmlns:xlink="http://www.w3.org/1999/xlink"
	 x="0px" y="0px" viewBox="0 0 595.3 595.3" xml:space="preserve">
<path fill="none" stroke="#000000" stroke-width="3" stroke-miterlimit="10" d="M229.5,344c10.3-15.3,44.3-5.7,55.5-11
	c-0.1-7.8-7.8-39.1,10.9-70.8s57.7-42.1,95.4-38.7c60.3,5.4,92.3,65.1,100,109.6c0,0,12.7,5.9,24.7,20.3c12,14.4,21,32.8,6,38.4
	c-7.5,2.8-22.3-2-22.3-2s2.2,46.3-19.1,61.3c-23.9,16.9-34.3-15.6-34.3-15.6s-7.7,22.7-22,26.9s-23.7-14.6-23.7-14.6
	s-3.4,16.2-18.7,21.5s-25.3-22.8-25.3-22.8s-3.9,22.9-21.3,25.6c-13.3,2-26.2-18.3-30.3-27c-6.5-13.9-15-67.3-15-67.3
	s-13.5,7.5-29.2,4C242.6,377.6,216.8,362.9,229.5,344z"/>
<path fill="none" stroke="#000000" stroke-width="3" stroke-miterlimit="10" d="M313.8,289c-0.7-3.3,16.3-4.8,17.5-1.8
	C332.9,291.4,314.6,292.8,313.8,289z"/>
<path fill="none" stroke="#000000" stroke-width="3" stroke-miterlimit="10" d="M356.3,286.8c0-3.9,13-5.8,16-2.5
	S356.2,291,356.3,286.8z"/>
<path fill="none" stroke="#000000" stroke-width="3" stroke-miterlimit="10" d="M339.5,303.8c-1.2-1.9,14.9-2.5,14.3-1.3
	C350.3,309.6,342.1,307.8,339.5,303.8z"/>
</svg>
