<?xml version="1.0" encoding="utf-8"?>
<svg version="1.2" baseProfile="tiny" id="Layer_1" xmlns="http://www.w3.org/2000/svg" xmlns:xlink="http://www.w3.org/1999/xlink"
	 x="0px" y="0px" viewBox="0 0 595.3 595.3" xml:space="preserve">
<path fill="none" stroke="#000000" stroke-width="3" stroke-miterlimit="10" d="M389,483.8c0,0-1.3-21.5-4.7-34.8
	c-3.1-12.3-4.7-22.7-9.3-36.5c-4.5-13.5-7.8-26.7-11-40.5c-5-21.5-6.5-38-6.5-38s-2-18.5-21.5-64.5c-14.9-35.2-42.7-45.9-82.7-43.5
	c-33.2,2-51,16.1-59.3,44c-8,26.9-6.4,47.5-6.4,47.5S186,341.8,188,368c0.9,11.5,2,22.2,3.6,39c1,10.9,2.1,15.8,2.9,29
	c0.5,9.2,3,26.5,3,26.5s2.4,25.5,7.5,59.2c3.3,21.9,8,48.5,26.7,45.7c15-2.3,27.7-22.4,27.7-22.4s10.1,24.6,26.1,20.9
	c16-3.7,18.2-16.9,18.2-16.9s9.1,15.7,21.7,15.7c12.7,0,15.7-17,15.7-17s9.3,19.3,22.3,10.3c14-9.7,17.4-22,23.7-46.3
	C390.3,498.8,389,483.8,389,483.8z"/>
<path fill="none" stroke="#000000" stroke-width="3" stroke-miterlimit="10" d="M220.6,301.8c9-1.4,9.5-9.3-2.2-7.9
	C209.9,294.9,209.3,303.5,220.6,301.8z"/>
<path fill="none" stroke="#000000" stroke-width="3" stroke-miterlimit="10" d="M255.1,295.3c10,1.3,9.1,10.6-1.6,8.7
	C242.6,302.1,245.9,294.1,255.1,295.3z"/>
<path fill="none" stroke="#000000" stroke-width="3" stroke-miterlimit="10" d="M237,323.6c-5.9,0-9.2-7.6-6.6-11.3
	c4-5.7,12.4-4.9,15,0.3C248.4,318.4,244.8,323.6,237,323.6z"/>
</svg>
