<?xml version="1.0" encoding="utf-8"?>
<svg version="1.2" baseProfile="tiny" id="Layer_1" xmlns="http://www.w3.org/2000/svg" xmlns:xlink="http://www.w3.org/1999/xlink"
	 x="0px" y="0px" viewBox="0 0 595.3 595.3" xml:space="preserve">
<path fill="none" stroke="#000000" stroke-width="3" stroke-miterlimit="10" d="M101,256c0,0-11.1,5.7-24.8,17.2
	c-15.9,13.3-21.9,21-23.7,31.2c-1.7,9.4,8.1,21.7,18.3,22c26,0.7,48.5-17,48.5-17s11.3,31.6,16.7,42.3
	c11.7,23.3,44.4,54.7,61.5,60.8c40,14.3,90,2.8,98.7-3.2c14-9.7,19.2-29.5,19.2-29.5s26.6-11.2,34.8-20.7
	c7.5-8.5,14.2-24.6,15.7-32.2c2-10-0.9-16.8,0.5-21.7c2-6.7,12.5-15,14.2-24.3c0,0,10.8-17.5-8-35.5c-19.2-18.4-55.9,3.1-60.5-2.2
	c-3.6-4.1-5.8-27.6-6.3-35.3c0,0,10.3-3.7,21-12.8C342,182,347.3,168,347.3,168s8.9-16.9-14.8-19.4c-16.5-1.8-40.5,16.3-40.5,16.3
	s-12.9-60.9-80-68.6c-43.7-5-84.6,20.4-101.8,62.3C95.7,194.2,101,256,101,256z"/>
<path fill="none" stroke="#000000" stroke-width="3" stroke-miterlimit="10" d="M200.9,173.5c-11.3-3.3-12.3-10.8,3.3-7.4
	C218,169.1,214.4,177.5,200.9,173.5z"/>
<path fill="none" stroke="#000000" stroke-width="3" stroke-miterlimit="10" d="M143.6,177.5c12-9.3,18.1,0,5.6,6.5
	C138,189.9,134.6,184.5,143.6,177.5z"/>
<path fill="none" stroke="#000000" stroke-width="3" stroke-miterlimit="10" d="M168.5,191.1c6.1-2.6,11.7-3.5,16.1-3.3
	c5.3,0.3,2,7-6.6,8.8C168.5,198.6,163.3,193.4,168.5,191.1z"/>
</svg>
