<?xml version="1.0" encoding="utf-8"?>
<svg version="1.2" baseProfile="tiny" id="Layer_1" xmlns="http://www.w3.org/2000/svg" xmlns:xlink="http://www.w3.org/1999/xlink"
	 x="0px" y="0px" viewBox="0 0 595.3 595.3" xml:space="preserve">
<path fill="none" stroke="#000000" stroke-width="3" stroke-miterlimit="10" d="M115,162.7c0,0-3.1,5.6-11,14.3
	c-6.4,7.1-13.2,20.4-13.2,32.1c0.1,10.5,3.7,23,19.7,28.7c10.7,3.8,23.4-9.2,23.4-9.2s17.8,52.2,24.4,69.1
	c8,20.7,16.7,33.7,29.7,48.7c14.7,17,20.4,24,28.8,27.9c24.5,11.5,33.6-12.6,33.6-12.6s9.2,7.5,16.1,10.9c7.5,3.6,17.3,6.6,26.3,4.8
	c5.2-1,14.5-5.9,16.5-14.9c1.3-5.7,1.6-9.6-3.1-16.8c0,0,19.3,8,28.1,4c5.4-2.4,10.5-7.1,10.1-16.3c-0.1-3.1-2.6-13.5-6.3-19.3
	c0,0,48.6,10.3,28.3-21.3c-27.4-42.4-40-85.7-40-85.7s21.5,1.1,22-20.7c0.9-39-46-47.3-46-47.3S278.8,50,232.3,29
	c-47.6-21.5-101.2-7.8-115.7,42C105.4,109.6,115,162.7,115,162.7z"/>
<path fill="none" stroke="#000000" stroke-width="3" stroke-miterlimit="10" d="M183,66.4c-12.3,0.1-13-7.5,0.1-6.5
	C197,61,195.6,66.2,183,66.4z"/>
<path fill="none" stroke="#000000" stroke-width="3" stroke-miterlimit="10" d="M139.5,68.9c12.6-6.9,17.1-0.3,5,5
	C134.9,78.2,129,74.6,139.5,68.9z"/>
<path fill="none" stroke="#000000" stroke-width="3" stroke-miterlimit="10" d="M159.7,89.6c-1.7-6.5,9.1-11.5,15.5-6.8
	c4.8,3.5,4.5,7.8,1,10.9C172.3,97.3,162.1,98.9,159.7,89.6z"/>
</svg>
