<?xml version="1.0" encoding="utf-8"?>
<svg version="1.2" baseProfile="tiny" id="Layer_1" xmlns="http://www.w3.org/2000/svg" xmlns:xlink="http://www.w3.org/1999/xlink"
	 x="0px" y="0px" viewBox="0 0 595.3 595.3" xml:space="preserve">
<path fill="none" stroke="#000000" stroke-width="3" stroke-miterlimit="10" d="M380.3,378.3c0,0,17.9,1.1,32.7-6.8
	c9.4-5,21-13.2,25-30.5c4.2-18.3-1.9-31-15.7-43.4C403.9,281.1,386,275,386,275s5-14.7,5.7-67c0.8-67.6-12.1-96.8-73.2-111.5
	c-50-12-90.6,8.4-110.4,65.3C191.8,208.4,181,264.3,181,264.3s-21,9.7-56,14.2c-26,3.3-33.8,22.2-32.9,42.8
	c0.9,20.3,18.8,42.1,48.9,42.7c17.5,0.3,22.1-0.8,22.1-0.8s-14.3,97.3-5.6,161.3c3,22,17.8,43.1,36.5,40.2
	c15-2.3,27.7-21.7,27.7-21.7s13.3,27.3,29.3,23.7c16-3.7,25.3-23.7,25.3-23.7s16.7,24,29.3,24c12.7,0,20-24,20-24s20,28.7,35.3,24.8
	c22.7-5.7,14.3-58.1,15.3-101.4C377.3,425,380.3,378.3,380.3,378.3z"/>
<path fill="none" stroke="#000000" stroke-width="3" stroke-miterlimit="10" d="M282.2,160.3c17.1-0.6,14.5,7.8,0.4,7.7
	C267.6,167.8,266.6,160.9,282.2,160.3z"/>
<path fill="none" stroke="#000000" stroke-width="3" stroke-miterlimit="10" d="M349.7,168.3c14.3,2.3,16.7,12-0.7,9.7
	C332.8,175.8,336,166.1,349.7,168.3z"/>
<path fill="none" stroke="#000000" stroke-width="3" stroke-miterlimit="10" d="M315.7,195.3c-6.5-1.4-8.8-10.6-6-15
	c2.6-4.1,12.2-9.7,16.3-2C329.7,185.1,326.4,197.6,315.7,195.3z"/>
</svg>
