<?xml version="1.0" encoding="utf-8"?>
<svg version="1.2" baseProfile="tiny" id="Layer_1" xmlns="http://www.w3.org/2000/svg" xmlns:xlink="http://www.w3.org/1999/xlink"
	 x="0px" y="0px" viewBox="0 0 595.3 595.3" xml:space="preserve">
<path fill="none" stroke="#000000" stroke-width="3" stroke-miterlimit="10" d="M419.5,479.6c0,0,3.1-19.1,4-30.6
	c1-14.1,2.4-24.9,3-36c0.8-13.5,1.5-27.6,2-40c0.6-13.2,0-31,0-31s-2.3-23.9-16.5-50.5c-22.8-42.6-71-63.5-125.3-63.5
	c-40,0-78.1,17.5-99.2,35c-18.7,15.4-32.2,45.7-32.2,45.7c-4.1,6.5-9.2,27.6-13.7,44.3c-2.8,10.5-3.5,19.7-4.7,35
	c-1.1,14.4-3,30.3-4,43.3c-0.8,10.6,0,42.9,0,43c0,0,2.9,39.9,7.4,59.3c7,30.7,33.7,49,52.2,48.8c16.4-0.2,34-31.5,34-31.5
	s23.7,25,47.7,25c16.4,0,27.3-25,27.3-25s27.6,32,45.4,31.2c12.7-0.6,22.6-18.7,22.6-18.7s17.9,16.1,31,7.1
	c14-9.7,14.2-24.6,15-47.1C416.4,500.2,419.5,479.6,419.5,479.6z"/>
<path fill="none" stroke="#000000" stroke-width="3" stroke-miterlimit="10" d="M326.7,362.7c10.3-3.9,10.1-9.6-3-8
	C308,356.6,318.2,365.8,326.7,362.7z"/>
<path fill="none" stroke="#000000" stroke-width="3" stroke-miterlimit="10" d="M395,356c11.4-2.8,8.9-10.3-2.2-7.7
	C380.6,351.2,384,358.7,395,356z"/>
<path fill="none" stroke="#000000" stroke-width="3" stroke-miterlimit="10" d="M368,400.4c-12.4,2.7-21.7-8-16-17.8
	c5.3-9.2,25.4-17.2,31.7-9.7C391.6,382.5,378.2,398.2,368,400.4z"/>
</svg>
