<?xml version="1.0" encoding="utf-8"?>
<svg version="1.2" baseProfile="tiny" id="Layer_1" xmlns="http://www.w3.org/2000/svg" xmlns:xlink="http://www.w3.org/1999/xlink"
	 x="0px" y="0px" viewBox="0 0 595.3 595.3" xml:space="preserve">
<path fill="none" stroke="#000000" stroke-width="3" stroke-miterlimit="10" d="M370.8,440.8c0,0,5-2.9,9.1-8.8
	c3.6-5.2,5.3-13,2.9-21.5c-2.8-10.1-9.9-17.5-17.3-29.5c-7.1-11.5-27.9-23.5-27.9-23.5s1.8-29.1-7.1-63.5c-7.5-29-20.5-66-76-66
	c-40,0-61.8,37.6-66,83.9c-2.5,27.6,0.5,92.6,0.5,92.6s-3.5,3.5-14,21c-6.3,10.5-10,20-11.5,38c-0.7,8.3,6.5,18.5,14.9,17.5
	c8.3-1,16.6-6.5,16.6-6.5s2,20,5.5,57c2.1,22.1,9.3,56.3,28,53.5c15-2.3,27.5-25.5,27.5-25.5s7.5,23.2,23.5,19.5c16-3.7,21-11,21-11
	s2.8,11,15.5,11s21-17.5,21-17.5s14.9,18.3,27.9,9.3c14-9.7,25.8-27.4,22.4-62.3C384.3,478.2,370.8,440.8,370.8,440.8z"/>
<path fill="none" stroke="#000000" stroke-width="3" stroke-miterlimit="10" d="M220,283.4c10.2-2,13.2-10.2,1-8
	C212.7,277,208.1,285.8,220,283.4z"/>
<path fill="none" stroke="#000000" stroke-width="3" stroke-miterlimit="10" d="M269.7,273.3c14.8,2.2,9.3,10.6-1.1,8.7
	C256.5,279.8,260.8,271.9,269.7,273.3z"/>
<path fill="none" stroke="#000000" stroke-width="3" stroke-miterlimit="10" d="M244.9,310.5c-6.1,0.9-12.4-1.4-9.9-7.6
	c3.7-9.4,17.2-4.1,19.7-1.4C257.6,304.7,253.8,309.3,244.9,310.5z"/>
</svg>
