<?xml version="1.0" encoding="utf-8"?>
<svg version="1.2" baseProfile="tiny" id="Layer_1" xmlns="http://www.w3.org/2000/svg" xmlns:xlink="http://www.w3.org/1999/xlink"
	 x="0px" y="0px" viewBox="0 0 595.3 595.3" xml:space="preserve">
<path fill="none" stroke="#000000" stroke-width="3" stroke-miterlimit="10" d="M391,373c0,0,26.3,31,45.3,25.4
	c15.7-4.7,24-27,22-47.4c-1.8-18.6-10.4-38.5-21.3-53.4c-14.2-19.2-29.3-25.3-29.3-25.3s9.1-23.4,16.7-70
	c8.4-52.1-4.7-103.3-51.3-114c-51.9-11.9-97.3-5.9-122.7,48.7c-20.8,44.9-36,94-36,94s-30.2,9.3-62,24.7c-27.9,13.4-44.9,28-44,48.7
	c0.9,20.3,15.7,27.2,44,37.3c18.7,6.7,30,4,30,4s-33.5,114.8-24.8,178.8c3,22,17.8,43.1,36.5,40.2c15-2.3,27.7-21.7,27.7-21.7
	s13.3,27.3,29.3,23.7c16-3.7,25.3-23.7,25.3-23.7s16.7,24,29.3,24c12.7,0,20-24,20-24s20,28.7,35.3,24.8
	c22.7-5.7,14.3-58.1,15.3-101.4C377.3,425,391,373,391,373z"/>
<path fill="none" stroke="#000000" stroke-width="3" stroke-miterlimit="10" d="M327.4,126.3c20.6,0,17.2,6.3,0,6.3
	C312.5,132.7,311.8,126.4,327.4,126.3z"/>
<path fill="none" stroke="#000000" stroke-width="3" stroke-miterlimit="10" d="M391,145.3c11,16.3,4.5,19.1-6.7,5.7
	C371,135,383.3,133.8,391,145.3z"/>
<path fill="none" stroke="#000000" stroke-width="3" stroke-miterlimit="10" d="M344.3,177.7c-8-3.3,0-18.1,7-24.7
	c3.6-3.4,14.6-3.7,14.3,6.6C365.5,167.3,354.5,181.9,344.3,177.7z"/>
</svg>
