<?xml version="1.0" encoding="utf-8"?>
<svg version="1.2" baseProfile="tiny" id="Layer_1" xmlns="http://www.w3.org/2000/svg" xmlns:xlink="http://www.w3.org/1999/xlink"
	 x="0px" y="0px" viewBox="0 0 595.3 595.3" xml:space="preserve">
<path fill="none" stroke="#000000" stroke-width="3" stroke-miterlimit="10" d="M150.7,131.1c0,0-14.1-5.1-27.4-9.1
	c-17.5-5.3-33.3-8.4-37.5,6c-2.8,9.5,7.8,30.8,23.8,42c9.3,6.5,41,17,41,17s1.9,53.8,7.3,75.8c7.3,29.6,19.3,61.6,32.3,76.6
	c14.7,17,35,34.7,43.3,38.7c24.5,11.5,41-11.7,41-11.7s10.1,7.3,17,10.7c8.9,4.4,16.3,6,25.3,4.2c5.2-1,9.2-4.9,12.3-12.5
	c2.2-5.4,1.5-11-1.3-21.3c0,0,19.8,10.4,27.7,4.1c4.6-3.7,9.3-7.7,9-16.9c-0.1-3.1-2.3-11.3-6-17c0,0,47.7,3.8,26.3-22.8
	C356.7,259.7,331.3,180,331.3,180s77.2-40.6,63.7-61.3c-19.3-29.7-76.7,12.7-76.7,12.7s0.4-56.1-34-83.3
	c-25.1-19.9-88.2-25.8-114,17.5C150,99.8,150.7,131.1,150.7,131.1z"/>
<path fill="none" stroke="#000000" stroke-width="3" stroke-miterlimit="10" d="M235.4,93c-11.3-2.2-8-9.6,2.3-6.6
	C251,90.3,247.8,95.4,235.4,93z"/>
<path fill="none" stroke="#000000" stroke-width="3" stroke-miterlimit="10" d="M191.8,85.7c14.4-0.6,15.8,5.8,0,5.7
	C180.8,91.3,178.3,86.3,191.8,85.7z"/>
<path fill="none" stroke="#000000" stroke-width="3" stroke-miterlimit="10" d="M203.9,120.3c-0.8-6.5,2.7-20.9,10.6-19.5
	c6.4,1.2,11.4,16,6.3,21.8C217,126.6,204.9,128.8,203.9,120.3z"/>
</svg>
