<?xml version="1.0" encoding="utf-8"?>
<svg version="1.2" baseProfile="tiny" id="Layer_1" xmlns="http://www.w3.org/2000/svg" xmlns:xlink="http://www.w3.org/1999/xlink"
	 x="0px" y="0px" viewBox="0 0 595.3 595.3" xml:space="preserve">
<path fill="none" stroke="#000000" stroke-width="3" stroke-miterlimit="10" d="M227.7,447c9.3,31.6,48.8,40.5,101.8,40.5
	s91.7,8.7,91-28c-1.2-60.2-1.2-80-4.5-101.2c-3.3-21.2-9.3-64.5-17-86.2s-25.9-50.8-51.7-71.7c-39-31.7-86.8-32.4-128.4-12.3
	c-25.3,12.3-37.4,41.3-39.3,61.2c-2.9,31.3,32.5,54.8,30.8,72.8c-23,5.6-47.6,11.9-58.8,24.5c-13,14.7-2.6,37,31,43.7
	c14.1,2.8,35.3,4.3,53,3.7C226.2,417,222.5,429.5,227.7,447z"/>
<line fill="none" stroke="#000000" stroke-width="3" stroke-miterlimit="10" x1="136.7" y1="522.2" x2="180.5" y2="345"/>
<path fill="none" stroke="#000000" stroke-width="3" stroke-miterlimit="10" d="M108.1,494.7c2-0.1,39.6-17.1,39.6-17.1l33.1,35.5"
	/>
<path fill="none" stroke="#000000" stroke-width="3" stroke-miterlimit="10" d="M163.3,364.4l-10.4-7.4l14.6-19.9
	c0,0-10-14.7,6.6-35.7c12-13.2,23.8-12.9,32.2-6.1c8.4,6.8,13.5,16.8,1.9,34.2c-13.7,19.6-23.4,15.8-29.7,15.2L163.3,364.4z"/>
<path fill="none" stroke="#000000" stroke-width="3" stroke-miterlimit="10" d="M180.3,301.9c10-0.9,24,11.3,26.6,16.5"/>
<path fill="none" stroke="#000000" stroke-width="3" stroke-miterlimit="10" d="M173.3,313.9c10-0.9,24,11.3,26.6,16.5"/>
<path fill="none" stroke="#000000" stroke-width="3" stroke-miterlimit="10" d="M249.9,306.3c5.9-8.2,0-18.5-9.7-21.5
	c-12.1-3.8-15.6,5.8-12.5,11.5C232.5,305,246.4,311.2,249.9,306.3z"/>
<path fill="none" stroke="#000000" stroke-width="3" stroke-miterlimit="10" d="M339.1,241.3c-1.6,12,10.5,14.8,9.5,2.2"/>
<path fill="none" stroke="#000000" stroke-width="3" stroke-miterlimit="10" d="M336.8,218.7c-3,11.2,9.8,11.8,9.8,1.2"/>
<path fill="none" stroke="#000000" stroke-width="3" stroke-miterlimit="10" d="M318.7,219.8c-5.2,11,8.5,22.7,9.5,4.7"/>
<path fill="none" stroke="#000000" stroke-width="3" stroke-miterlimit="10" d="M200,273.7c1.7-4.5,21.8,1.7,21.1,6.3
	C220.7,282.4,198.6,277.2,200,273.7z"/>
<path fill="none" stroke="#000000" stroke-width="3" stroke-miterlimit="10" d="M250.5,278c1.7,1.9,15.8-10.6,14.5-12.9
	C262,260.1,246.8,273.8,250.5,278z"/>
<path fill="none" stroke="#000000" stroke-width="3" stroke-miterlimit="10" d="M377,354c-24-3-52-50.7-77.7-33.7
	c-25.7,17-18.7,53,12.3,73.7"/>
</svg>
