<?xml version="1.0" encoding="utf-8"?>
<svg version="1.2" baseProfile="tiny" id="Layer_1" xmlns="http://www.w3.org/2000/svg" xmlns:xlink="http://www.w3.org/1999/xlink"
	 x="0px" y="0px" viewBox="0 0 595.3 595.3" xml:space="preserve">
<path fill="none" stroke="#000000" stroke-width="3" stroke-miterlimit="10" d="M415.5,485.5c0,0-1-30.5-0.5-42
	c0.5-12.2,1.9-27.2,2.5-38.3c0.8-13.5,2.5-29.4,3-41.8c0.6-13.2-3.8-27.8-3.8-27.8s-4.7-21.4-18.9-48
	c-22.8-42.6-69.4-62.9-116.8-62.9c-40,0-73.9,17.8-95,35.3c-18.7,15.4-30.7,48.7-30.7,48.7c-4.1,6.5-9.2,27.6-13.7,44.3
	c-2.8,10.5-3.5,19.7-4.7,35c-1.1,14.4-3,30.3-4,43.3c-0.8,10.6,0,42.9,0,43c0,0,2.9,39.9,7.4,59.3c7,30.7,33.7,49,52.2,48.8
	c16.4-0.2,34-31.5,34-31.5s23.7,25,47.7,25c16.4,0,27.3-25,27.3-25s27.6,32,45.4,31.2c12.7-0.6,22.6-18.7,22.6-18.7
	s17.9,16.1,31,7.1c14-9.7,15.5-24.6,15-47.1C415,500.5,415.5,485.5,415.5,485.5z"/>
<path fill="none" stroke="#000000" stroke-width="3" stroke-miterlimit="10" d="M275.5,278.3c8,2.4,17.9-4,5-6.8
	C266.9,268.6,267.3,275.7,275.5,278.3z"/>
<path fill="none" stroke="#000000" stroke-width="3" stroke-miterlimit="10" d="M314.8,309.3c10.5,5.3,14.5,1,5.3-5.8
	C309.8,296,302.8,303.3,314.8,309.3z"/>
<path fill="none" stroke="#000000" stroke-width="3" stroke-miterlimit="10" d="M281.5,325.3c-12.4,2.7-21.7-8-16-17.8
	c5.3-9.2,18-11,24.3-3.5C297.7,313.5,291.8,323,281.5,325.3z"/>
</svg>
