<?xml version="1.0" encoding="utf-8"?>
<svg version="1.2" baseProfile="tiny" id="Layer_1" xmlns="http://www.w3.org/2000/svg" xmlns:xlink="http://www.w3.org/1999/xlink"
	 x="0px" y="0px" viewBox="0 0 595.3 595.3" xml:space="preserve">
<path fill="none" stroke="#000000" stroke-width="3" stroke-miterlimit="10" d="M131.7,176.3c0,0-15.2,13.1-24.7,23.3
	c-12.3,13.3-17.6,28.4-21.8,42.8C82.5,252,91,271,113,273c11.3,1,38.7-22,38.7-22s9.3,37.2,17.7,53.3c10.4,20.2,21.5,34.6,34.5,49.6
	c14.7,17,19.8,24,28.2,27.9c24.5,11.5,35-9.4,35-9.4s8.4,6.4,15.3,9.8c8.9,4.4,15.8,5.1,24.8,3.3c5.2-1,15.6-3,18.7-10.6
	c2.2-5.4,0.8-12.2-7-21.2c0,0,18.7,5.8,27.6,1.8c5.4-2.4,11-4.9,10.7-14c-0.1-3.1-2.6-13.5-6.3-19.3c0,0,49.6,5.4,28.3-21.3
	c-27.9-34.9-50.7-100.4-50.7-100.4s41.3,24.4,54.7-7c16.3-38.3-85.4-65.7-85.4-65.7S267,49.3,228.3,28.5C182.6,4,132.1,31.3,119,80
	C108.5,119,131.7,176.3,131.7,176.3z"/>
<path fill="none" stroke="#000000" stroke-width="3" stroke-miterlimit="10" d="M198,54.8c-14,1.8-14-5-1-6.3
	C210.9,47.2,210.5,53.2,198,54.8z"/>
<path fill="none" stroke="#000000" stroke-width="3" stroke-miterlimit="10" d="M156.3,61.5c13.1-5.9,17.6-1,3.3,5.5
	C148.5,72,143,67.5,156.3,61.5z"/>
<path fill="none" stroke="#000000" stroke-width="3" stroke-miterlimit="10" d="M175,78.5c-2.1-6.2-1.4-18.4,6.5-17
	c6.4,1.2,13.4,14.4,9.8,21.3C187.4,90,178,87.5,175,78.5z"/>
</svg>
