<?xml version="1.0" encoding="utf-8"?>
<svg version="1.2" baseProfile="tiny" id="Layer_1" xmlns="http://www.w3.org/2000/svg" xmlns:xlink="http://www.w3.org/1999/xlink"
	 x="0px" y="0px" viewBox="0 0 595.3 595.3" xml:space="preserve">
<path fill="none" stroke="#000000" stroke-width="3" stroke-miterlimit="10" d="M41.3,253.7c0,0,31.9,64.9,42,79.7
	c11,16,14,24.7,31.3,43.7c25.8,28.3,61.7,49.3,81.7,47c25.8-3,16-35.7,16-35.7s20.6,8.6,26.7,1.7c11-12.7-8.6-27.8-10.5-35.2
	c-0.8-3.1,37.8,18.7,47.2,8.2c8-9-8.3-26.3-8.3-26.3s26.2,7.9,32.7-7.3c4.3-10.1,1.8-23.1-4-31.7c-7.1-10.6-18.5-16.4-24-20.6
	c-5.3-4.1-18.8-17.5-26-28.7c0,0,9.3-4.7,18.5-14.3c7.7-8,6.5-20.3-8-31.8c-5.6-4.5-21.3-12.2-52.3-13.4c0,0,17.1-4.3,23.4-9.6
	c8.7-7.4,1.7-20,1.7-20s-6-11.2-21.8-14.8c-8.7-2-29-3.3-29-3.3S135.7,25.6,58.2,75.6C33.5,91.5,12.5,121,18.3,174.5
	C22.6,214.8,41.3,253.7,41.3,253.7z"/>
<path fill="none" stroke="#000000" stroke-width="3" stroke-miterlimit="10" d="M70.6,132.2c-10.1-1.7-9.6-11.2,0.7-10
	C83,123.5,81.3,134,70.6,132.2z"/>
<path fill="none" stroke="#000000" stroke-width="3" stroke-miterlimit="10" d="M34.5,132.5c12-9.3,15.2,2.9,5.8,7.8
	C30.8,145.1,25.5,139.5,34.5,132.5z"/>
<path fill="none" stroke="#000000" stroke-width="3" stroke-miterlimit="10" d="M47.8,157.2c0.5-7,8.1-9.9,12.7-4.8
	c4.3,4.8,2,19.8-3,21.2S47.3,164.8,47.8,157.2z"/>
</svg>
