<?xml version="1.0" encoding="utf-8"?>
<svg version="1.2" baseProfile="tiny" id="Layer_1" xmlns="http://www.w3.org/2000/svg" xmlns:xlink="http://www.w3.org/1999/xlink"
	 x="0px" y="0px" viewBox="0 0 595.3 595.3" xml:space="preserve">
<path fill="none" stroke="#000000" stroke-width="3" stroke-miterlimit="10" d="M436.3,475.5c0,0,2.3-28.3,2.8-39.8
	c0.5-12.2,0.9-23-0.1-33.2c-1.2-12-1.8-21.3-3.9-33.5c-1.7-10.3-4-22.3-4-22.3s-0.6-10.7-14-42.7c-20.5-48.9-54.7-68-102-68
	c-40,0-79.9,14.1-101,31.6C195.3,283,183.7,307,183.7,307c-4.1,6.5-8.9,18.6-13.3,35.3c-2.8,10.5-5.8,23.7-6.3,39
	c-0.4,12.4-1.7,30.7-2.7,43.7c-0.8,10.6-1.1,33.3-1.1,33.3c0,0-1,27.7,3.2,64.8c3.7,32.6,10.5,59.5,29,59.3
	c16.4-0.2,62-48.5,62-48.5s10,38,34,38c16.4,0,28.5-24,28.5-24s16.2,35.3,34,34.5c12.7-0.6,33-22.5,33-22.5s6.5,18,19.5,9
	c14-9.7,19.3-24.6,24.5-46.5C432.9,502,436.3,475.5,436.3,475.5z"/>
<path fill="none" stroke="#000000" stroke-width="3" stroke-miterlimit="10" d="M272.3,281.5c10.4-0.6,7-5.3-2.3-7
	C259.8,272.7,262.3,282.1,272.3,281.5z"/>
<path fill="none" stroke="#000000" stroke-width="3" stroke-miterlimit="10" d="M338.6,288.5c9.4,2.6,10.9-2.4,3.8-7
	C336.6,277.9,333,287,338.6,288.5z"/>
<path fill="none" stroke="#000000" stroke-width="3" stroke-miterlimit="10" d="M310.3,321.3c-18.3,2.3-26-7.3-24.5-17.2
	c1.8-11.9,23-22,36-11.3C330.5,300,324.6,319.5,310.3,321.3z"/>
</svg>
