<?xml version="1.0" encoding="utf-8"?>
<svg version="1.2" baseProfile="tiny" id="Layer_1" xmlns="http://www.w3.org/2000/svg" xmlns:xlink="http://www.w3.org/1999/xlink"
	 x="0px" y="0px" viewBox="0 0 595.3 595.3" xml:space="preserve">
<path fill="none" stroke="#000000" stroke-width="3" stroke-miterlimit="10" d="M420.7,389.7c0,0,2.7-30.3,2.7-46
	c0-20.7-0.2-30-2.3-46c-3-22.6-7.7-37.3-11.3-46c-5.3-12.5-21.9-36.3-21.9-36.3s-25.4-26.1-57.4-28.7c-37-3-69,9.3-93.7,25
	c-15.4,9.8-41.9,33.6-56.7,56.7c-14.6,22.7-18.3,42.8-19,55.3c-27.3-23.5-54.2-4.9-58.3,3c-2.7,5.1-3,15.6-1.3,24.7
	c2.3,12.7,10.9,20.7,23,30c13,10,24,12.3,24,12.3c0,0-7.4,77-7,106.3c0.3,24,0,50,24.6,53.3c21.3,2.8,67.1-51.6,67.1-51.6
	s-0.1,40.3,23.7,41.3c20.5,0.9,37-24,37-24s9,40,33,36c17.6-2.9,31-26,31-26s8.1,16,17.3,11.3c15.2-7.6,22.1-15.4,30.6-44.6
	C423.9,432.6,420.7,389.7,420.7,389.7z"/>
<path fill="none" stroke="#000000" stroke-width="3" stroke-miterlimit="10" d="M284.3,235c13,0.3,17,16.7-1.7,13
	C269.5,245.4,272.7,234.7,284.3,235z"/>
<path fill="none" stroke="#000000" stroke-width="3" stroke-miterlimit="10" d="M362.7,247c15.7,3.6,8.2,11.8,0,10
	C348.7,254,351,244.3,362.7,247z"/>
<path fill="none" stroke="#000000" stroke-width="3" stroke-miterlimit="10" d="M342,269.3c6.5,10.4-10.3,22.1-18.7,20
	c-8.3-2.1-14-14.3-9.3-21.3C319,260.4,338.1,263,342,269.3z"/>
</svg>
