<?xml version="1.0" encoding="utf-8"?>
<svg version="1.2" baseProfile="tiny" id="Layer_1" xmlns="http://www.w3.org/2000/svg" xmlns:xlink="http://www.w3.org/1999/xlink"
	 x="0px" y="0px" viewBox="0 0 595.3 595.3" xml:space="preserve">
<path fill="none" stroke="#000000" stroke-width="3" stroke-miterlimit="10" d="M227,458c0,0-12,54.1-37,27.5
	c-24.5-26-38.5-87.2-30.5-162.4S210.5,194.5,288,190s121,29.8,136.5,107.6s17.4,130.3-14.2,173.1c-32.3,43.7-69.8-22.3-69.8-22.3
	s-3,30-20.5,33c-20.5,3.5-28.5-24-28.5-24s-13.2,42.7-31,40C237.5,494,227,458,227,458z"/>
<path fill="none" stroke="#000000" stroke-width="3" stroke-miterlimit="10" d="M267.3,239.8c-0.8-4.5,16.3-9,17.8-3.8
	S268,244.3,267.3,239.8z"/>
<path fill="none" stroke="#000000" stroke-width="3" stroke-miterlimit="10" d="M317.3,233.6c8.5-6.9,24,5,23,8.3
	C339.3,245.3,313.3,236.9,317.3,233.6z"/>
<path fill="none" stroke="#000000" stroke-width="3" stroke-miterlimit="10" d="M286.5,254c3-10.3,29.6-13.8,40-1.5
	c8,9.5-7,19-17.8,19.5S282.5,267.8,286.5,254z"/>
</svg>
