<?xml version="1.0" encoding="utf-8"?>
<svg version="1.2" baseProfile="tiny" id="Layer_1" xmlns="http://www.w3.org/2000/svg" xmlns:xlink="http://www.w3.org/1999/xlink"
	 x="0px" y="0px" viewBox="0 0 595.3 595.3" xml:space="preserve">
<path fill="none" stroke="#000000" stroke-width="3" stroke-miterlimit="10" d="M230.8,449.2c11.5,30.9,45.7,36.8,98.7,38.3
	c33.5,1,37.3,8.2,38.2-9.5c2-42,4.5-72.6,4.9-94c0.5-26.7,1.4-59,2.5-82.3c2.4-52.7-29.3-95.1-46.7-107
	c-35.5-24.3-61.6-26.7-95.3-14c-33.5,12.6-49.5,45.7-50.6,70.7c-2,44,29.8,58.9,36.6,74.4c-21.3,1.8-33.1,10.9-39.3,22.6
	c-8.8,16.9,0.8,31.3,15.8,40.6c12.2,7.6,27.1,12.2,39.2,12.7C223.5,425,226.7,438,230.8,449.2z"/>
<line fill="none" stroke="#000000" stroke-width="3" stroke-miterlimit="10" x1="138.5" y1="556.8" x2="192.4" y2="382.5"/>
<path fill="none" stroke="#000000" stroke-width="3" stroke-miterlimit="10" d="M111.5,527.8c2,0,40.5-14.8,40.5-14.8l31,37.4"/>
<path fill="none" stroke="#000000" stroke-width="3" stroke-miterlimit="10" d="M174.2,400.8l-10-8l15.7-19c0,0-9.2-15.3,8.6-35.2
	c12.8-12.5,24.5-11.5,32.5-4.2c8,7.3,12.5,17.5,0,34.2c-14.8,18.7-24.3,14.5-30.5,13.5L174.2,400.8z"/>
<path fill="none" stroke="#000000" stroke-width="3" stroke-miterlimit="10" d="M194.8,339.4c10-0.3,23.3,12.7,25.6,18"/>
<path fill="none" stroke="#000000" stroke-width="3" stroke-miterlimit="10" d="M187.1,351c10-0.3,23.3,12.7,25.6,18"/>
<path fill="none" stroke="#000000" stroke-width="3" stroke-miterlimit="10" d="M260.1,324.6c3.3-4.6,2.7-10.9-3.3-13.1
	c-6.9-2.5-14.2,4.3-11.7,11.8C247.4,330.1,257.5,328.3,260.1,324.6z"/>
<path fill="none" stroke="#000000" stroke-width="3" stroke-miterlimit="10" d="M332.7,258.3c0,11.3,14.1,10.8,14.1-3.9"/>
<path fill="none" stroke="#000000" stroke-width="3" stroke-miterlimit="10" d="M333.4,230.1c-4.4,10,15.5,15.2,13.8,0.9"/>
<path fill="none" stroke="#000000" stroke-width="3" stroke-miterlimit="10" d="M302.3,234.9c-3.4,10.6,14.9,16,13.5-2.8"/>
<path fill="none" stroke="#000000" stroke-width="3" stroke-miterlimit="10" d="M216.4,291.3c-0.1-3.6,21.4-7.8,21.4-0.6
	C237.8,298.3,216.5,296.5,216.4,291.3z"/>
<path fill="none" stroke="#000000" stroke-width="3" stroke-miterlimit="10" d="M255.8,288.5c-0.5,7.3,22.8,1,22-2.8
	C277.1,282.7,256.3,280.9,255.8,288.5z"/>
<path fill="none" stroke="#000000" stroke-width="3" stroke-miterlimit="10" d="M354.3,389.7c-18.3-15.3-35-23.7-53.3-3.3
	c-20.6,22.9,8,61.7,49.3,66.2"/>
<path fill="none" stroke="#000000" stroke-width="3" stroke-miterlimit="10" d="M340.4,205.3c42.3,20.2,96,104,105.6,154
	s17.6,128.7,13.7,138.4c-8.7,1.2-15.7,7.7-44.7,6.7s-48-5.8-52.1-15"/>
</svg>
