<?xml version="1.0" encoding="utf-8"?>
<svg version="1.2" baseProfile="tiny" id="Layer_1" xmlns="http://www.w3.org/2000/svg" xmlns:xlink="http://www.w3.org/1999/xlink"
	 x="0px" y="0px" viewBox="0 0 595.3 595.3" xml:space="preserve">
<path fill="none" stroke="#000000" stroke-width="3" stroke-miterlimit="10" d="M114.7,151.3c0,0-7.5,8.6-15.3,17.3
	c-6.4,7.1-11.1,20.3-11,32c0.1,10.5,1.3,23.7,17.3,29.3c10.7,3.8,25-11,25-11s21.1,61.7,27.7,78.6c8,20.7,16.7,33.7,29.7,48.7
	c14.7,17,20.4,24,28.8,27.9c24.5,11.5,33.6-12.6,33.6-12.6s9.2,7.5,16.1,10.9c7.5,3.6,17.3,6.6,26.3,4.8c5.2-1,14.5-5.9,16.5-14.9
	c1.3-5.7,1.6-9.6-3.1-16.8c0,0,19.3,8,28.1,4c5.4-2.4,10.5-7.1,10.1-16.3c-0.1-3.1-2.6-13.5-6.3-19.3c0,0,48.6,10.3,28.3-21.3
	c-27.4-42.4-40-85.7-40-85.7s19.9-6.6,20.4-28.3c0.9-39-50.3-57.5-50.3-57.5s-24-85.3-70.8-105.8C179.3-4.6,125.5,9.1,114.5,58.3
	C105.8,97.5,114.7,151.3,114.7,151.3z"/>
<path fill="none" stroke="#000000" stroke-width="3" stroke-miterlimit="10" d="M180.8,47.8c-11.8-1-12.9-8,0.3-7
	C194.9,41.8,193.3,48.8,180.8,47.8z"/>
<path fill="none" stroke="#000000" stroke-width="3" stroke-miterlimit="10" d="M138,54.3c12.6-6.9,17.2,1.1,4.5,5
	C132,62.5,127.5,60,138,54.3z"/>
<path fill="none" stroke="#000000" stroke-width="3" stroke-miterlimit="10" d="M155.8,69.5c-2-8.8,6.9-15.3,14-11.5
	c7.5,4,9,15.1,4,21C169.5,84,157.9,78.8,155.8,69.5z"/>
</svg>
