<?xml version="1.0" encoding="utf-8"?>
<svg version="1.2" baseProfile="tiny" id="Layer_1" xmlns="http://www.w3.org/2000/svg" xmlns:xlink="http://www.w3.org/1999/xlink"
	 x="0px" y="0px" viewBox="0 0 595.3 595.3" xml:space="preserve">
<path fill="none" stroke="#000000" stroke-width="3" stroke-miterlimit="10" d="M402.8,497.8c5.7,4.7,13.2,8.9,21.5,7.7
	c7.8-1.2,15.9-4.7,22-16.2c4-7.5,5.1-17.9-1.7-30.7c-5.8-11-22.2-16.7-22.2-16.7s27.9-39.5,16.8-87.1c-7.4-31.4-22.3-50.9-64.8-65.2
	c-41.5-13.9-92.1-6.5-118.8,15.3c-26.5,21.5-46,45.8-46,45.8s-16.2-8-30.8-8c-15,0-30.7,5-35.5,20.1c-4.7,14.7,1,24.1,6.9,29.2
	c6.6,5.7,17.1,9.3,26.5,10.7c0,0-24.9,43.3-31.9,52.7c-11.4,15.2-9.2,41.4,15.3,38c13.2-1.8,19.7-5,19.7-5s1.5,25.6,27.7,24.5
	c15.8-0.7,27.2-9,27.2-9s2.5,24.7,22,30.5c23.5,7,40.3-12.8,40.3-12.8s8.3,26.4,26,32.5c13.8,4.8,32,1.6,45-8.7
	C386.8,530.5,402.8,497.8,402.8,497.8z"/>
<path fill="none" stroke="#000000" stroke-width="3" stroke-miterlimit="10" d="M381.6,351.3c9.8,3,9.1,9-1.4,6
	C367.7,353.7,372.8,348.5,381.6,351.3z"/>
<path fill="none" stroke="#000000" stroke-width="3" stroke-miterlimit="10" d="M423.4,364.1c8.9,4.9,7.2,11.1-2.9,5.8
	C412.6,365.8,412.9,358.4,423.4,364.1z"/>
<path fill="none" stroke="#000000" stroke-width="3" stroke-miterlimit="10" d="M401.3,367.8c9.9,3.3,3.5,12.2-0.8,15.4
	c-5.8,4.4-16.8,4-17.1-1.8C383,374.6,393.9,365.3,401.3,367.8z"/>
</svg>
