<?xml version="1.0" encoding="utf-8"?>
<svg version="1.2" baseProfile="tiny" id="Layer_1" xmlns="http://www.w3.org/2000/svg" xmlns:xlink="http://www.w3.org/1999/xlink"
	 x="0px" y="0px" viewBox="0 0 595.3 595.3" xml:space="preserve">
<path fill="none" stroke="#000000" stroke-width="3" stroke-miterlimit="10" d="M379.7,382.7c0,0,1-24.3,1-36.3
	c0-8.3-0.8-22.3-0.3-38.7c0.3-11,0.2-16.7-0.6-31.4c-0.4-7.4-3.7-30.6-3.7-30.6s-7.4-56.4-14.5-87.7c-8.5-37.5-33-70.5-76-70.5
	c-39.3,0-74.1,14.5-90.5,61c-12,34-18,99.3-18,99.3s0,6.5-1,21.5c-0.7,11-0.4,18.6-1,37.4c-0.3,11.3-1.5,15.3-1,30.3
	c0.3,11,1,20.7,1,20.7s1.7,21.3,4,61.3c1.7,29.2,7.7,57.6,23.2,64.6c19.8,8.9,34.5-32.2,34.5-32.2s11.3,24.9,27,20
	c12.7-4,19.7-29.7,19.7-29.7s10.3,35,26.2,35.7c12.7,0.5,25.1-28.7,25.1-28.7s15.7,50,29.3,43c18.5-9.5,16.6-41.1,15.7-73.7
	C378.8,386.5,379.7,382.7,379.7,382.7z"/>
<path fill="none" stroke="#000000" stroke-width="3" stroke-miterlimit="10" d="M258.5,118.3c16.5,2.5,17.5,8.2-1.3,8.3
	C242.3,126.5,248.3,116.7,258.5,118.3z"/>
<path fill="none" stroke="#000000" stroke-width="3" stroke-miterlimit="10" d="M305,119.8c15.8,5.5,9.7,16.5-5.5,10.5
	C290,126.5,291.8,115.1,305,119.8z"/>
<path fill="none" stroke="#000000" stroke-width="3" stroke-miterlimit="10" d="M271.1,171.5c-10.6-1-9.2-20.6-5.6-29.8
	c3.3-8.3,13.3-12.8,18-4C289.7,149.2,281.9,172.5,271.1,171.5z"/>
</svg>
