<?xml version="1.0" encoding="utf-8"?>
<svg version="1.2" baseProfile="tiny" id="Layer_1" xmlns="http://www.w3.org/2000/svg" xmlns:xlink="http://www.w3.org/1999/xlink"
	 x="0px" y="0px" viewBox="0 0 595.3 595.3" xml:space="preserve">
<path fill="none" stroke="#000000" stroke-width="3" stroke-miterlimit="10" d="M414.7,480.3c0,0,1.5-12.2,2.3-23.7
	c1-14.1-0.3-19.3-0.3-30.3c0-12.8-1.2-23.5-1.7-35.8c-0.5-12.6-3.5-31.6-3.5-31.6s-1.9-26.9-14.8-54.2c-22.3-47.3-44.8-71.3-99-71.3
	c-40,0-74.9,18.4-96,35.9C183,284.7,167.3,310,167.3,310c-4.1,6.5-12.9,23.6-17.3,40.3c-2.8,10.5-4.9,19.8-6,35.1
	c-1.1,14.4-1.3,29.9-2.3,42.9c-0.8,10.6-1.7,46.1-1.7,46.2c0,0-2.2,39.4,0.3,59.2c4,31.3,12.8,53.3,31.3,53.3
	c28.8,0,61.3-51,61.3-51s-1,43,32.5,42.5c19.5-0.3,27.5-28,27.5-28s14,40.5,37.2,40.5c17.8,0,29.8-28.5,29.8-28.5s9.4,21.2,23,13
	c13.5-8.1,17.6-24.9,24-50.5C412.6,502.4,414.7,480.3,414.7,480.3z"/>
<path fill="none" stroke="#000000" stroke-width="3" stroke-miterlimit="10" d="M263.3,300.3c15.8,0.4,15.6-13.1,1.3-14.4
	C248.8,284.4,254.2,300,263.3,300.3z"/>
<path fill="none" stroke="#000000" stroke-width="3" stroke-miterlimit="10" d="M342.8,304c11.6,1.9,14.7-10,1-12
	C331.4,290.2,329,301.8,342.8,304z"/>
<path fill="none" stroke="#000000" stroke-width="3" stroke-miterlimit="10" d="M307,329.8c-11.7,0.4-21.2-5.2-13.5-10
	c7-4.4,19.2-5.1,25-0.5C325.5,324.8,317.5,329.4,307,329.8z"/>
</svg>
