<?xml version="1.0" encoding="utf-8"?>
<svg version="1.2" baseProfile="tiny" id="Layer_1" xmlns="http://www.w3.org/2000/svg" xmlns:xlink="http://www.w3.org/1999/xlink"
	 x="0px" y="0px" viewBox="0 0 595.3 595.3" xml:space="preserve">
<path fill="none" stroke="#000000" stroke-width="3" stroke-miterlimit="10" d="M51.7,307.3c0,0-17.6-6.5-34,5.2
	C3.8,322.4,2.9,332.8,3.8,344c0.7,9.8,9.4,21.5,21.7,25.2c6.9,2,25,8.3,25,8.3s-13,22.3-20.3,33.3c-9,13.7-12.8,32.9-5.3,49.5
	c3.8,8.3,23.8,15.3,36.3,14.8c18-0.8,46.8-14,46.8-14s25.5,19.9,54,15.1c22.9-3.9,41.5-29.1,50.5-30.8c5.2-1,28.4,13,50.3,0.8
	c12-6.8,38.9-35.3,33.8-53c0,0,43.5-10.8,53.8-43.8c6.8-21.8-0.8-46.3-10.8-57.8c-7.6-8.7-16.3-21.4-51-21.4c0,0,7.3-37.6-12.3-47.3
	c-15-7.5-38.3,21.9-38.3,21.9s-13.6-17.8-27.3-31.2C197.3,200.3,176,188,176,188s-24-15-65-2.7c-31,9.3-41.3,39.2-51.3,69.3
	C52.3,276.6,51.7,307.3,51.7,307.3z"/>
<path fill="none" stroke="#000000" stroke-width="3" stroke-miterlimit="10" d="M178,270c-12.8-1-11-7.8,0.7-8.5
	C190.4,260.8,193.3,271.2,178,270z"/>
<path fill="none" stroke="#000000" stroke-width="3" stroke-miterlimit="10" d="M129.3,278.8c14.3-5.2,14.9-0.1,6.3,6
	C126,291.5,118.3,282.8,129.3,278.8z"/>
<path fill="none" stroke="#000000" stroke-width="3" stroke-miterlimit="10" d="M152,292.3c-0.7-6.5,8.6-10.9,14.8-7.8
	c5.8,3,7.8,11.6,1.8,14.3C164.4,300.6,152.8,299.4,152,292.3z"/>
</svg>
