<?xml version="1.0" encoding="utf-8"?>
<svg version="1.2" baseProfile="tiny" id="Layer_1" xmlns="http://www.w3.org/2000/svg" xmlns:xlink="http://www.w3.org/1999/xlink"
	 x="0px" y="0px" viewBox="0 0 595.3 595.3" xml:space="preserve">
<path fill="none" stroke="#000000" stroke-width="3" stroke-miterlimit="10" d="M410.7,413.3c0,0,4.3-3.9,10.8-13.4
	c4.3-6.3,7.8-14.2,8-25.3c0.3-11.1-3.4-21.1-12.1-26.7c-8.4-5.3-25.7,1.3-25.7,1.3s-6.8-23.8-18.3-51.7
	C355,253.3,305.9,223,241,233.3c-67.9,10.8-110.3,70.8-120,96.4c-13.7,36.2-2.7,96.6-2.7,96.6c-8.7-2.3-36.2-4-46.5,10
	c-3.7,5-6.8,13.8,0.5,27.3c7.4,13.7,12.7,15.9,25.3,19c21.2,5.1,36.8,2.8,36.8,2.8c0,0,3.3,28.4,5.8,48.2
	c4,31.3,13.2,37.3,31.7,37.3c28.8,0,33.5-19,33.5-19s8,14,37.5,9c19.2-3.3,27-18.5,27-18.5s7.8,17,31,17c17.8,0,35.5-25,35.5-25
	s19.7,28.6,41.5,20.5c25-9.3,37.1-49.3,38.3-75.7C417.7,450.6,410.7,413.3,410.7,413.3z"/>
<path fill="none" stroke="#000000" stroke-width="3" stroke-miterlimit="10" d="M211.3,295.3c14.4-6.3,8.9-16.6-3.7-9.6
	C194.7,293,198.3,301,211.3,295.3z"/>
<path fill="none" stroke="#000000" stroke-width="3" stroke-miterlimit="10" d="M279,267.7c15.1-6.2,7.5-16.2-4.3-9
	C262.7,266,266.1,272.9,279,267.7z"/>
<path fill="none" stroke="#000000" stroke-width="3" stroke-miterlimit="10" d="M262.3,312c-9.3,4-29.3,1-26-11.7
	c2.1-8,31.2-13.2,37-8.7C280.3,297.2,272,307.9,262.3,312z"/>
</svg>
