<?xml version="1.0" encoding="utf-8"?>
<svg version="1.2" baseProfile="tiny" id="Layer_1" xmlns="http://www.w3.org/2000/svg" xmlns:xlink="http://www.w3.org/1999/xlink"
	 x="0px" y="0px" viewBox="0 0 595.3 595.3" xml:space="preserve">
<path fill="none" stroke="#000000" stroke-width="3" stroke-miterlimit="10" d="M350.3,326.3c0,0,11.2-26.1,13.9-36.5
	c2.9-11,8.6-25.9,3.2-43.1c-5.2-16.7-25.2-18.6-34-16.1c-13.1,3.7-31.8,23.3-31.8,23.3s-9.9-17.8-36-26.5
	c-16.1-5.4-65.4-20.1-115.1,10.8c-37.7,23.3-52,41.7-64.4,73.3c-10.8,27.4-14.2,42.4-13.6,42.4c-11.7,4.7-32.8,17.5-43.7,25
	c-9.7,6.7-23.6,23.2-22.7,32.8c0.8,8.1,18,16.9,28.7,14.2c9.5-2.4,26.6-7.1,26.6-7c0,0-1.9,66.8,9.3,95.3c9.3,23.7,34.3,60.2,57,60
	c32.7-0.3,40.3-17.3,40.3-17.3s4.9,24.9,38.9,19.7c20.3-3.1,27.4-28,27.4-28s9,31.9,40.5,27.4c17.6-2.5,26.5-26.1,26.5-26.1
	s31.7,24.7,50.7,2.7c11.1-12.9,9.2-52.1-1.3-81C333.6,423.5,350.3,326.3,350.3,326.3z"/>
<path fill="none" stroke="#000000" stroke-width="3" stroke-miterlimit="10" d="M94.3,293.3c6.2-11.4,7.9-13,1.8-3.3
	C92.3,296.1,90,301.3,94.3,293.3z"/>
<path fill="none" stroke="#000000" stroke-width="3" stroke-miterlimit="10" d="M126.7,293.8c14.5-1.1,12.3-10.7-1-11.3
	C111.2,282,112,294.9,126.7,293.8z"/>
<path fill="none" stroke="#000000" stroke-width="3" stroke-miterlimit="10" d="M108.7,326c-10.8,5.7-23.8-4.3-22.3-9.2
	c2.8-9.5,16.3-13.7,24.2-9.6C117,310.5,119,320.5,108.7,326z"/>
</svg>
