<?xml version="1.0" encoding="utf-8"?>
<svg version="1.2" baseProfile="tiny" id="Layer_1" xmlns="http://www.w3.org/2000/svg" xmlns:xlink="http://www.w3.org/1999/xlink"
	 x="0px" y="0px" viewBox="0 0 595.3 595.3" xml:space="preserve">
<path fill="none" stroke="#000000" stroke-width="3" stroke-miterlimit="10" d="M51.3,295.3c0,0-24.3,1-41.6,13.3
	c-16.1,11.5-7.6,29.2,3,38.7c12.9,11.5,26.2,11,37,12c21.3,2,40-7,40-7s11.2,18.6,38.5,45.5c11.7,11.5,34.2,29.2,57.8,39.2
	c14.5,6.1,32.8,6.7,43.8,0.8c10.6-5.6,11.2-30.7,11.2-30.7s17.3,1.1,27.3-8.2c8-7.4,11.7-17.5,10.2-23.8c-1-4.4,10.7,5.2,20.3-5.8
	c6.9-7.9,4-15.2-1.2-32.8c0,0,32-13.6,16-34.2c-9.2-11.8-58.5-20.8-72.2-34.2c-7.6-7.4,13-23.7,9.2-53.5c0,0-3.7-16.7-21.2-17.5
	c-10.4-0.5-28.5,20.5-28.5,20.5s-16.2-18.9-18-38.7c-3-33.7-21.7-52.1-21.7-52.1s-45.3-49.6-102-8.6C30.4,139.3,28,166,31,215
	C34.4,270.7,51.3,295.3,51.3,295.3z"/>
<path fill="none" stroke="#000000" stroke-width="3" stroke-miterlimit="10" d="M113,166.8c-13.3,3-15.3-3.1-5.3-7
	C118.6,155.6,127.9,163.5,113,166.8z"/>
<path fill="none" stroke="#000000" stroke-width="3" stroke-miterlimit="10" d="M60.7,172.8c14.3-5.2,13,4.6,2.8,7.5
	C52.3,183.5,49.7,176.8,60.7,172.8z"/>
<path fill="none" stroke="#000000" stroke-width="3" stroke-miterlimit="10" d="M82.2,192.3c2.4-6.1,10.2-11,16.3-7.8
	c5.8,3,2.7,11.3-3.3,14C91.1,200.3,79.5,199.1,82.2,192.3z"/>
</svg>
