<?xml version="1.0" encoding="utf-8"?>
<svg version="1.2" baseProfile="tiny" id="Layer_1" xmlns="http://www.w3.org/2000/svg" xmlns:xlink="http://www.w3.org/1999/xlink"
	 x="0px" y="0px" viewBox="0 0 595.3 595.3" xml:space="preserve">
<path fill="none" stroke="#000000" stroke-width="3" stroke-miterlimit="10" d="M355.7,382.2c0,0,26.7-19.6,29.8-30.8
	c3.2-11.5,4-28.3,2.3-33.5c-2.5-7.7-19.5-10.5-27.2-8.3c-8.4,2.4-25.7,15.3-25.7,15.3s-1.4-31.2-7-56.8c-4.8-21.5-15-41.3-27.3-54.5
	c-16-17.2-36.8-21.7-66-14.3c-25.5,6.4-39,49.5-39,49.5s-4.8,15.1-6.3,50.8c-0.8,18.8,0,42,3.3,69.5c2.9,23.8,5.1,49.1,6.8,60.7
	c2.2,14.5,3.2,30.7,3.2,30.7s1.3,27.5,6,48.7c6.7,30,19.4,50.1,29.3,48.7c17.4-2.6,24.3-24.3,24.3-24.3s6,25,22,21.3
	c16-3.7,17.7-12.3,17.7-12.3s10.7,15.7,24.9,9.4C338.5,546.6,340,536,340,536s17.4,20.3,30,10.7c14-10.7,28.2-56.3,21.3-88
	C384.3,426.3,355.7,382.2,355.7,382.2z"/>
<path fill="none" stroke="#000000" stroke-width="3" stroke-miterlimit="10" d="M267.5,239.6c-11-2.8-14.4,8.8-3,9.7
	C281,250.5,276.9,242,267.5,239.6z"/>
<path fill="none" stroke="#000000" stroke-width="3" stroke-miterlimit="10" d="M214.5,243.5c9.2-8.9,18-1,6.3,6.3
	C213.2,254.4,207,250.8,214.5,243.5z"/>
<path fill="none" stroke="#000000" stroke-width="3" stroke-miterlimit="10" d="M242.9,283.8c-4.7,0.5-10.2-7.1-10.9-13.8
	c-1.2-11,11-13.8,14.8-9C252.8,268.8,250.1,283,242.9,283.8z"/>
</svg>
