<?xml version="1.0" encoding="utf-8"?>
<svg version="1.2" baseProfile="tiny" id="Layer_1" xmlns="http://www.w3.org/2000/svg" xmlns:xlink="http://www.w3.org/1999/xlink"
	 x="0px" y="0px" viewBox="0 0 595.3 595.3" xml:space="preserve">
<path fill="none" stroke="#000000" stroke-width="3" stroke-miterlimit="10" d="M470,144c0,0,11.5-5.9,21.7-14.7
	c9.1-7.9,16-18,14.7-32.7C505,81.8,489.4,79.9,480,78.2c-15-2.8-36,5.8-36,5.8s-1-2-7.3-10.7c-4.9-6.6-15.1-16.8-35.6-26.5
	c-14.9-7.1-31.1-12.1-55.4-11.1c-22,1-40.7,5.3-40.7,5.3s-14.1-13.6-32.3-17c-13.2-2.4-29.7-4.3-45.3,3.3
	c-11.2,5.5-14.4,16.1-13.8,26.2c0.5,9.5,4.6,18.7,10,21c0,0-32.5,26.5-57.5,55.5c-19.8,23-37.2,74.7-24.7,83c20,13.3,44.7-2,44.7-2
	s-5.5,32.7,20.7,31.3c19.5-1,46-25.7,46-25.7s-4.5,17.9,14.7,21.3c17,3,34-13.3,34-13.3s13.9,19,26.3,25.7
	c30,16,74.4,27.4,115.9-8.9C472.7,216,470,144,470,144z"/>
<path fill="none" stroke="#000000" stroke-width="3" stroke-miterlimit="10" d="M467.3,170c-5.8,13.2-11.9,8.2-9.8-5.3
	C459,155.5,472.5,158,467.3,170z"/>
<path fill="none" stroke="#000000" stroke-width="3" stroke-miterlimit="10" d="M344.2,35.8c12-0.8,19.1,0,1.5-0.1
	C331.9,35.7,329.2,36.8,344.2,35.8z"/>
<path fill="none" stroke="#000000" stroke-width="3" stroke-miterlimit="10" d="M449.1,236c-1,1.2,1.4-2.2,0.1-0.7
	c-3.5,4.3-4.7,5.6-2.2,2.8C449.8,235.2,450.5,234.2,449.1,236z"/>
</svg>
