<?xml version="1.0" encoding="utf-8"?>
<svg version="1.2" baseProfile="tiny" id="Layer_1" xmlns="http://www.w3.org/2000/svg" xmlns:xlink="http://www.w3.org/1999/xlink"
	 x="0px" y="0px" viewBox="0 0 595.3 595.3" xml:space="preserve">
<path fill="none" stroke="#000000" stroke-width="3" stroke-miterlimit="10" d="M374.7,422.3c-4-19-2.6-43.7-1.3-48.7
	c2-7.7,4.1-26.4,4.4-31.7c0.4-9,1.4-21,0-31.7c-1.4-10.3-9.4-27-9.4-27s-16.7-25.1-37.3-32.7c-24.7-9-53-14.3-82.7-9.9
	c-27.5,4.1-56.3,15.9-75.3,39.2c-16.2,20-28.3,68.3-28.3,68.3s-15-2.3-27.7,3.3c-8.2,3.7-13.6,14.1-14,21.3
	c-0.6,11.9,0.1,17.2,6.3,23.7c6.3,6.6,12.1,12.4,22,11c0,0-12.7,34.7-4.7,59c4.3,13,6.4,21.7,25.3,31.3c23,11.7,38,1,38,1
	s9,17,30.7,15.3c18.4-1.4,32.7-20,32.7-20s9,18.6,26.9,17c18.9-1.7,29.1-14,29.1-14s15,20,33.7,14.7c20.8-5.9,32.2-29,34.1-48.7
	C379.3,439,374.7,422.3,374.7,422.3z"/>
<path fill="none" stroke="#000000" stroke-width="3" stroke-miterlimit="10" d="M288,290.9c16.6-5.1,18,1.3,5.5,5.2
	C281.5,299.9,275,294.9,288,290.9z"/>
<path fill="none" stroke="#000000" stroke-width="3" stroke-miterlimit="10" d="M336,287.7c15.1,3.4,9.3,10.1-3.5,5.8
	C322,290,324.2,285,336,287.7z"/>
<path fill="none" stroke="#000000" stroke-width="3" stroke-miterlimit="10" d="M318.5,307.1c10,0.1,14.5,6.2,10.8,9.4
	c-4.7,4-14.8,4.4-18.3,1C305.9,312.5,309.5,307.1,318.5,307.1z"/>
</svg>
