<?xml version="1.0" encoding="utf-8"?>
<svg version="1.2" baseProfile="tiny" id="Layer_1" xmlns="http://www.w3.org/2000/svg" xmlns:xlink="http://www.w3.org/1999/xlink"
	 x="0px" y="0px" viewBox="0 0 595.3 595.3" xml:space="preserve">
<path fill="none" stroke="#000000" stroke-width="3" stroke-miterlimit="10" d="M326.3,286.2c0,0,15.8-3.8,30.8-10.7
	c13.4-6.2,29.2-18.6,31.6-30.2c4-19.7-3.6-33.4-17.3-36c-17.4-3.3-34.1,5.6-34.1,5.6s14.5-36,3.4-75.8C328.6,95.8,286,87,263.3,87
	S202,101.7,176,142c-26.7,41.4-35,67.3-35,67.3s-19.3-14-39.7-14.3c-16.4-0.3-30.3,7-30.3,19c0,19,7.3,36.1,19.7,42.3
	c10.1,5.1,23.4,12.1,32,12.3c0,0-11,37.1-14,64.1c-2.4,22-6.9,83.4,12.6,92.4c20.8,9.6,35.1-19.7,35.1-19.7s18.9,43.1,45,41.8
	c19.5-1,23.7-24.4,23.7-24.4s15.2,20.2,28.7,17.7c12.5-2.3,18-18.3,18-18.3s9.8,21,23.9,19.8c8.8-0.7,20.1-4.8,20.1-46.2
	C315.7,354.3,326.3,286.2,326.3,286.2z"/>
<path fill="none" stroke="#000000" stroke-width="3" stroke-miterlimit="10" d="M236.5,126.5c12,0.3,13,7.6,0.9,7.3
	C225.1,133.6,222.5,126.2,236.5,126.5z"/>
<path fill="none" stroke="#000000" stroke-width="3" stroke-miterlimit="10" d="M283.4,136.1c10,6.3,4.2,11.4-7,6.1
	C266.9,137.8,273.6,130,283.4,136.1z"/>
<path fill="none" stroke="#000000" stroke-width="3" stroke-miterlimit="10" d="M258,146.5c8.1,1.5,8.7,16.4,2.4,22.8
	c-7.5,7.5-22.7,3.2-22.1-4.6C239.3,153.1,250,145,258,146.5z"/>
</svg>
