<?xml version="1.0" encoding="utf-8"?>
<svg version="1.2" baseProfile="tiny" id="Layer_1" xmlns="http://www.w3.org/2000/svg" xmlns:xlink="http://www.w3.org/1999/xlink"
	 x="0px" y="0px" viewBox="0 0 595.3 595.3" xml:space="preserve">
<path fill="none" stroke="#000000" stroke-width="3" stroke-miterlimit="10" d="M307,339.5c0,0,13.6,4.4,28.5-2.5
	c13.4-6.2,14.2-20.4,9-31c-4.6-9.5-10.1-14.1-21.5-19.5c-11.8-5.6-19-7.5-19-7.5s0.4-23.3-12.3-62.7c-18.3-56.6-67.3-66.3-97-64.3
	c-22.6,1.5-62,17.4-81.3,61.3c-17.5,39.8-19,71.3-19,71.3s-11.5,1.8-25.3,16.7c-9,9.7-17.1,20.8-19,32.7c-2,12.3,1.5,21.9,11.3,24.3
	c8,2,20.7,1.7,29-2c0,0,0.4,12.7-1.3,38.3c-1.5,22.1-5.9,50.5,14.5,57.3c15,5,35.5-14,35.5-14s0.9,24.3,27,23c19.5-1,36-23,36-23
	s17.5,20,31,17.5c12.5-2.3,30.1-23.9,30.1-23.9s16.3,11.5,30.4,10.4c8.8-0.7,29.3,0.7,25-40.4C314.3,361.3,307,339.5,307,339.5z"/>
<path fill="none" stroke="#000000" stroke-width="3" stroke-miterlimit="10" d="M171,214.7c12,0.3,10.7,10.7-4,9
	C154.8,222.3,157,214.3,171,214.7z"/>
<path fill="none" stroke="#000000" stroke-width="3" stroke-miterlimit="10" d="M220,214.7c14-3.7,17,4.6,3,9.2
	C212,227.5,207,218,220,214.7z"/>
<path fill="none" stroke="#000000" stroke-width="3" stroke-miterlimit="10" d="M198.5,236.3c8.7-1.3,13.8,6.4,8.9,13.1
	c-4.2,5.7-14.8,8.5-18,1.3C186.3,244,190.4,237.5,198.5,236.3z"/>
</svg>
