<?xml version="1.0" encoding="utf-8"?>
<svg version="1.2" baseProfile="tiny" id="Layer_1" xmlns="http://www.w3.org/2000/svg" xmlns:xlink="http://www.w3.org/1999/xlink"
	 x="0px" y="0px" viewBox="0 0 595.3 595.3" xml:space="preserve">
<path fill="none" stroke="#000000" stroke-width="3" stroke-miterlimit="10" d="M227.7,447c6.7,32.3,48.8,40.5,101.8,40.5
	s81.8,7.5,91-28c7.4-28.6,5-91.5,5-91.5s24.5,13,43.5-9.5s24-36.5,13.5-52s-37.2,22.5-55.5,5c0.7-43.5,30.7-89.5,29-135.8
	c-7-43.7-51.3-61-99-49.7s-68,40.7-84.5,74s-28.8,76.3-28.5,93c-9,12.1-37.3,9.7-56.5,27.5s-4.5,40.8,6,45.5s32.2,3.3,43,0.5
	C242.3,398,218.7,403.3,227.7,447z"/>
<line fill="none" stroke="#000000" stroke-width="3" stroke-miterlimit="10" x1="156.9" y1="459.9" x2="210.6" y2="285.5"/>
<path fill="none" stroke="#000000" stroke-width="3" stroke-miterlimit="10" d="M129.9,430.9c2,0,40.5-14.8,40.5-14.8l31,37.3"/>
<path fill="none" stroke="#000000" stroke-width="3" stroke-miterlimit="10" d="M192.4,303.9l-10-8l15.7-19c0,0-9.2-15.3,8.6-35.3
	c12.8-12.5,24.5-11.5,32.5-4.3s12.5,17.5,0,34.3c-14.8,18.8-24.3,14.5-30.5,13.5L192.4,303.9z"/>
<path fill="none" stroke="#000000" stroke-width="3" stroke-miterlimit="10" d="M212.9,242.4c10-0.3,23.3,12.7,25.7,18"/>
<path fill="none" stroke="#000000" stroke-width="3" stroke-miterlimit="10" d="M205.2,254.1c10-0.3,23.3,12.7,25.7,18"/>
<path fill="none" stroke="#000000" stroke-width="3" stroke-miterlimit="10" d="M340.6,192.3c7.6,4.5,20.7-12,24.7-20.6
	c4-8.7-5.3-18-16.3-7S333,187.8,340.6,192.3z"/>
<path fill="none" stroke="#000000" stroke-width="3" stroke-miterlimit="10" d="M447,230.1c0.6-2,1.6-4.6,2.6-8.9"/>
<path fill="none" stroke="#000000" stroke-width="3" stroke-miterlimit="10" d="M454.1,201c0.5-2.9,1-7,1.5-11"/>
<path fill="none" stroke="#000000" stroke-width="3" stroke-miterlimit="10" d="M439.4,253.8c1.2-3.3,1.2-3.3,2.2-6.9"/>
<path fill="none" stroke="#000000" stroke-width="3" stroke-miterlimit="10" d="M364,134.6c4.4-1.1,4.1,15.6,2.3,15.9
	S359.5,135.8,364,134.6z"/>
<path fill="none" stroke="#000000" stroke-width="3" stroke-miterlimit="10" d="M382.3,159.7c-1.1-3.8,21.5,1.3,22.3,5.6
	S383.3,163.1,382.3,159.7z"/>
</svg>
