<?xml version="1.0" encoding="utf-8"?>
<svg version="1.2" baseProfile="tiny" id="Layer_1" xmlns="http://www.w3.org/2000/svg" xmlns:xlink="http://www.w3.org/1999/xlink"
	 x="0px" y="0px" viewBox="0 0 595.3 595.3" xml:space="preserve">
<path fill="none" stroke="#000000" stroke-width="3" stroke-miterlimit="10" d="M374.3,466.7c0,0-0.4-8.9-3-22.4
	c-3.4-17.8-4.3-28-6.7-43c-1.2-7.5-2.9-27.7-2.9-41.8c0-18,2.2-49.5,2.2-49.5s3.5-34.2,5.2-86.5c1.5-44.7-12.2-73.7-63.7-81
	c-56.6-8-89.7,32-105.5,83.5c-11.3,36.8-16.4,85.7-16.4,85.7s-1.6,28.7-0.7,44.3c0.5,7.7,3.6,28.4,5,37.5
	c1.7,10.8,4.6,20.6,5.3,33.8c0.5,9.2,2.7,27,2.7,27s-0.3,26.7,9,67.3c5,21.6,8,48.5,26.7,45.7c15-2.3,30.7-21.7,30.7-21.7
	s3.4,25,19.4,21.3c16-3.7,21.8-18,21.8-18s9.4,18,22.1,18c12.7,0,15.3-19.3,15.3-19.3s4,19.9,19.3,16C383,557.9,383,531.2,377,496
	C375,484.3,374.3,466.7,374.3,466.7z"/>
<path fill="none" stroke="#000000" stroke-width="3" stroke-miterlimit="10" d="M259.7,194.1c12.2,3.5,9,8.8-2.9,8
	C242.4,201.1,243.7,189.6,259.7,194.1z"/>
<path fill="none" stroke="#000000" stroke-width="3" stroke-miterlimit="10" d="M306.5,213.7c13,6.2,8.3,13.2-4.3,7.5
	C289.1,215.3,293.4,207.5,306.5,213.7z"/>
<path fill="none" stroke="#000000" stroke-width="3" stroke-miterlimit="10" d="M268.2,236.8c-4.8-1.8-8-7.3-2.7-11.5
	c4.3-3.4,13.2-3.3,14.5,3.3C281.6,236.8,272.3,238.4,268.2,236.8z"/>
</svg>
