<?xml version="1.0" encoding="utf-8"?>
<svg version="1.2" baseProfile="tiny" id="Layer_1" xmlns="http://www.w3.org/2000/svg" xmlns:xlink="http://www.w3.org/1999/xlink"
	 x="0px" y="0px" viewBox="0 0 595.3 595.3" xml:space="preserve">
<path fill="none" stroke="#000000" stroke-width="3" stroke-miterlimit="10" d="M420.7,389.7c0,0,13.4-26.7,13.3-42.3
	c0-20.7-1.3-31.9-6.7-47.2c-5.8-16.5-17.7-30.1-32.9-31.1c-13.6-0.9-18.1,8.7-18.1,8.7S334,250,302,247c-19-1.8-36.7-2.7-59,7.7
	c-16.6,7.7-29.3,10.7-47.7,31c-19.4,21.5-21.6,27-24.8,33c-4.5,6.2-9.9,19.2-14,27c-2.7,5.1-8.6,22.1-12.8,30.3
	c-3.5,7-13.2,17.5-21.2,30.5c-4.9,8-16,20.4-16,20.5c0,0-39.6,38-39.2,67.3c0.3,24,3.7,51.3,34.3,56c21.2,3.2,42-12,42-12
	S155.2,566,179,567c20.5,0.9,48-12,48-12s8.7,30,32.7,26c17.6-2.9,46.5-21,46.5-21s7,17.2,29.5,17.7c17,0.4,45.3-11.5,68.3-76.3
	C437,408.3,420.7,389.7,420.7,389.7z"/>
<path fill="none" stroke="#000000" stroke-width="3" stroke-miterlimit="10" d="M314.3,348c12.8,2.1,19.3,16.3,0.7,12.7
	C301.8,358.1,300,345.7,314.3,348z"/>
<path fill="none" stroke="#000000" stroke-width="3" stroke-miterlimit="10" d="M377,354.5c16-2,11.5,7,3.3,8.8
	C364,367,366,355.9,377,354.5z"/>
<path fill="none" stroke="#000000" stroke-width="3" stroke-miterlimit="10" d="M364,385.7c6.5,10.4-6.7,13.3-15.1,11.2
	c-8.3-2.1-11.1-11.5-6.9-14.9C349.1,376.3,360.1,379.3,364,385.7z"/>
</svg>
