<?xml version="1.0" encoding="utf-8"?>
<svg version="1.2" baseProfile="tiny" id="Layer_1" xmlns="http://www.w3.org/2000/svg" xmlns:xlink="http://www.w3.org/1999/xlink"
	 x="0px" y="0px" viewBox="0 0 595.3 595.3" xml:space="preserve">
<path fill="none" stroke="#000000" stroke-width="3" stroke-miterlimit="10" d="M372.8,467c0,0-0.6-9-1.4-22.7
	c-0.8-14.5,2.8-29.8,5.2-44.8c1.5-9.5,4.3-27.1,7-41c4.5-23,9-45.5,9-45.5s4.2-29.5,10.2-83.5c5-45.3-12.2-97-57.7-108
	c-54.2-13.1-94.2,34-110.8,94C223.5,254.2,212.5,318,212.5,318s-3.5,30-7.5,48c-1.7,7.6-4.2,26.4-4.5,40c-0.2,11-0.8,16.8,0,30
	c0.5,9.2,1,25.5,1,25.5s-1.6,26.5,3.5,60.2c3.3,21.9,8,48.5,26.7,45.7c15-2.3,30.7-21.7,30.7-21.7s3.4,25,19.4,21.3
	c16-3.7,21.8-18,21.8-18s9.4,18,22.1,18c12.7,0,15.3-19.3,15.3-19.3s4,19.9,19.3,16C383,557.9,383,531.2,377,496
	C375,484.3,372.8,467,372.8,467z"/>
<path fill="none" stroke="#000000" stroke-width="3" stroke-miterlimit="10" d="M315,177.8c12.6-1.9,10.8-8.5-4.8-6.8
	C297.7,172.5,300,180,315,177.8z"/>
<path fill="none" stroke="#000000" stroke-width="3" stroke-miterlimit="10" d="M364.7,183.6c8,5.7,5.5,16.4-4,7.8
	C351.8,183.3,354.9,176.5,364.7,183.6z"/>
<path fill="none" stroke="#000000" stroke-width="3" stroke-miterlimit="10" d="M332,205.7c-6.3,0-10.1-6.8-7.3-12.9
	c2.7-5.7,16.1-4.8,19,1.7C347.2,202,339.7,205.7,332,205.7z"/>
</svg>
