<?xml version="1.0" encoding="utf-8"?>
<svg version="1.2" baseProfile="tiny" id="Layer_1" xmlns="http://www.w3.org/2000/svg" xmlns:xlink="http://www.w3.org/1999/xlink"
	 x="0px" y="0px" viewBox="0 0 595.3 595.3" xml:space="preserve">
<path fill="none" stroke="#000000" stroke-width="3" stroke-miterlimit="10" d="M227.7,447c9.3,31.6,48.8,40.5,101.8,40.5
	s97.7,8,91-28C412,414,417.7,340,417.7,340s29.6,23,59.3,23.4c44.5,0.6,15.7-55,2.3-69.6c-16.1-17.5-35-32.3-47.5-39.6
	c5-38.2,11.4-63.6,2.3-95.5c-13-45.3-48.2-56.7-92-42.1c-38.5,12.8-50.5,36.3-61.8,54.7c-13.3,21.5-23.2,53.3-24.8,71.3
	c-21,12.9-33.3,17.3-60,39.7c-21,17.6-42.4,63.3-17.3,68.7c14,3,44-11.7,56.7-19.3C228.3,358.3,222.5,429.5,227.7,447z"/>
<line fill="none" stroke="#000000" stroke-width="3" stroke-miterlimit="10" x1="150.8" y1="443.3" x2="194.6" y2="266.2"/>
<path fill="none" stroke="#000000" stroke-width="3" stroke-miterlimit="10" d="M122.2,415.9c2-0.1,39.6-17.1,39.6-17.1l33.1,35.5"
	/>
<path fill="none" stroke="#000000" stroke-width="3" stroke-miterlimit="10" d="M177.5,285.6l-10.4-7.4l14.6-19.9
	c0,0-10-14.7,6.6-35.7c12-13.2,23.8-12.9,32.2-6.1c8.4,6.8,13.5,16.8,1.9,34.2c-13.7,19.6-23.4,15.8-29.7,15.2L177.5,285.6z"/>
<path fill="none" stroke="#000000" stroke-width="3" stroke-miterlimit="10" d="M194.5,223c10-0.9,24,11.3,26.6,16.5"/>
<path fill="none" stroke="#000000" stroke-width="3" stroke-miterlimit="10" d="M187.5,235.1c10-0.9,24,11.3,26.6,16.5"/>
<path fill="none" stroke="#000000" stroke-width="3" stroke-miterlimit="10" d="M387,166.7c9.1-10.7,2.8-29-13-31.4
	c-15.5-2.4-33.3,8.9-28.5,25.9C350,176.8,379.7,175.3,387,166.7z"/>
<path fill="none" stroke="#000000" stroke-width="3" stroke-miterlimit="10" d="M421.7,197.2c-0.7,9.5,5.5,9.8,8.7,0.8"/>
<path fill="none" stroke="#000000" stroke-width="3" stroke-miterlimit="10" d="M430.2,174.5c-7,8.1-0.5,16.4,5.2,7.1"/>
<path fill="none" stroke="#000000" stroke-width="3" stroke-miterlimit="10" d="M412,180.8c-3.2,9.2,6.8,11.8,9.7,2.5"/>
<path fill="none" stroke="#000000" stroke-width="3" stroke-miterlimit="10" d="M348.2,124.5c2.5-3.5,18-1.8,16.8,1.7
	C363.9,129.3,345.5,128.3,348.2,124.5z"/>
<path fill="none" stroke="#000000" stroke-width="3" stroke-miterlimit="10" d="M389.8,134.7c-0.3-5.5,19.7-1.4,18.8,2.2
	C408,139.5,390,139.1,389.8,134.7z"/>
</svg>
