<?xml version="1.0" encoding="utf-8"?>
<svg version="1.2" baseProfile="tiny" id="Layer_1" xmlns="http://www.w3.org/2000/svg" xmlns:xlink="http://www.w3.org/1999/xlink"
	 x="0px" y="0px" viewBox="0 0 595.3 595.3" xml:space="preserve">
<path fill="none" stroke="#000000" stroke-width="3" stroke-miterlimit="10" d="M329,493.5c0,0,14.3-0.5,23.8-4.5
	c12.1-5.1,21.8-19.8,22.3-27c1-11.9-2.7-18.9-12.8-24.5c-8.5-4.8-22.8-3.5-22.8-3.5s1.5-19-6.5-58.9c-6.8-34-31-66.7-72.5-72.1
	c-47.3-6.1-80.6-1.6-116.8,26c-35.5,27-42.7,81.3-42.7,81.3s-15.8-6.2-29-7.3c-8.9-0.8-19,1.6-24.7,14c-5.8,12.7-2.3,28.8,6.3,39.7
	c7.7,9.7,17.7,14.7,26.3,14.8c0,0-6.2,16.5-9.5,27c-8.7,27.9-6.4,40.4,19.2,42.2c23.8,1.8,38.7-11.4,38.7-11.4s7.7,23.6,33.8,22.3
	c19.5-1,29.3-13.6,29.3-13.6s11.6,19.6,25,22.5c12.5,2.8,38.8-14.5,38.8-14.5s15.3,18,32,16.3c8.8-0.9,21.1-11.1,28-24
	C321.5,526.5,329,493.5,329,493.5z"/>
<path fill="none" stroke="#000000" stroke-width="3" stroke-miterlimit="10" d="M225,339.6c15.3-2.1,15.4,5.8,3.4,7.5
	C215.4,349,210.9,341.6,225,339.6z"/>
<path fill="none" stroke="#000000" stroke-width="3" stroke-miterlimit="10" d="M279,336.4c11.7-1.6,18.5,7,2.1,8.3
	C267,345.7,263.8,338.5,279,336.4z"/>
<path fill="none" stroke="#000000" stroke-width="3" stroke-miterlimit="10" d="M261,352.3c10.4-0.1,17,14.3,10.7,20.7
	c-7.5,7.5-22.2,7.6-27.3,0.2C237.7,363.6,249.8,352.4,261,352.3z"/>
</svg>
