<?xml version="1.0" encoding="utf-8"?>
<svg version="1.2" baseProfile="tiny" id="Layer_1" xmlns="http://www.w3.org/2000/svg" xmlns:xlink="http://www.w3.org/1999/xlink"
	 x="0px" y="0px" viewBox="0 0 595.3 595.3" xml:space="preserve">
<path fill="none" stroke="#000000" stroke-width="3" stroke-miterlimit="10" d="M376,398c0,0,23.5,1.1,32.6-2.7
	c15-6.3,25.4-14.8,25.4-31.3c0-22.8-8.6-35.9-18-45.5c-9.8-10-40.5-25-40.5-25s-2.6-37.8-3.5-101c-1-70.1-36-114-104.5-117
	c-54.5-2.4-71.7,30.1-87,88.3C168.3,210.1,168,267.5,168,267.5s-32.8,12.7-49.5,26c-13,10.4-30.1,25-28.5,43
	c1.8,20.3,15,32.2,39,41.5c18.5,7.2,48,3.7,48,3.7s-18,73.3-19.5,142.8c-0.5,22.2,17.8,43.1,36.5,40.2c15-2.3,27.7-21.7,27.7-21.7
	s13.3,27.3,29.3,23.7c16-3.7,25.3-23.7,25.3-23.7s16.7,24,29.3,24c12.7,0,20-24,20-24s20,28.7,35.3,24.8
	c22.7-5.7,13.5-58.1,15.3-101.4C378.1,424,376,398,376,398z"/>
<path fill="none" stroke="#000000" stroke-width="3" stroke-miterlimit="10" d="M222,125.3c19-5.8,22.8,1,5,4.9
	C211.7,133.6,210.2,128.9,222,125.3z"/>
<path fill="none" stroke="#000000" stroke-width="3" stroke-miterlimit="10" d="M278.8,117.3c17.2,4.6,15.1,9.4-0.8,6.7
	C260.4,120.9,262.8,113,278.8,117.3z"/>
<path fill="none" stroke="#000000" stroke-width="3" stroke-miterlimit="10" d="M258.3,160.8c-8.3,1.3-14.6-8.3-14.5-18.5
	c0.1-7.5,14.8-12.3,19.8-5C267.9,143.6,266.5,159.5,258.3,160.8z"/>
</svg>
