<?xml version="1.0" encoding="utf-8"?>
<svg version="1.2" baseProfile="tiny" id="Layer_1" xmlns="http://www.w3.org/2000/svg" xmlns:xlink="http://www.w3.org/1999/xlink"
	 x="0px" y="0px" viewBox="0 0 595.3 595.3" xml:space="preserve">
<path fill="none" stroke="#000000" stroke-width="3" stroke-miterlimit="10" d="M376,398c0,0,23,13.7,35.7,9.3
	c15.4-5.3,17.8-18.3,17.8-34.8c0-22.8-5-38.4-13.5-54c-6.7-12.2-24-36-24-36s4.2-13,2-78c-2.1-63.6-15.9-118.8-86.5-129.1
	c-58.3-8.5-91.7,20.1-113.5,94.1c-13.6,46-26.3,111.5-26.3,111.5s-12.7,16.8-27.2,32.5c-13.7,14.9-26,37.8-30.2,58.8
	c-2.9,14.6,8.1,28.3,30.6,30.8c20.1,2.2,36.1-21.4,36.1-21.4s-18,73.3-19.5,142.8c-0.5,22.2,17.8,43.1,36.5,40.2
	c15-2.3,27.7-21.7,27.7-21.7s13.3,27.3,29.3,23.7c16-3.7,25.3-23.7,25.3-23.7s16.7,24,29.3,24c12.7,0,20-24,20-24s20,28.7,35.3,24.8
	c22.7-5.7,13.5-58.1,15.3-101.4C378.1,424,376,398,376,398z"/>
<path fill="none" stroke="#000000" stroke-width="3" stroke-miterlimit="10" d="M276,134.8c15.5-0.2,16.3,4.5,0.6,6.3
	C261.8,142.7,262.8,134.9,276,134.8z"/>
<path fill="none" stroke="#000000" stroke-width="3" stroke-miterlimit="10" d="M327.4,138c14.8,6.4,6.8,11-4.7,7.8
	C313.2,143.1,311.3,131,327.4,138z"/>
<path fill="none" stroke="#000000" stroke-width="3" stroke-miterlimit="10" d="M304.3,181.5c-8.3,0-20.1-8.3-15-17.3
	c6.3-11.2,25.9-9.1,28.5,2.3C319.5,174,314.3,181.5,304.3,181.5z"/>
</svg>
