<?xml version="1.0" encoding="utf-8"?>
<svg version="1.2" baseProfile="tiny" id="Layer_1" xmlns="http://www.w3.org/2000/svg" xmlns:xlink="http://www.w3.org/1999/xlink"
	 x="0px" y="0px" viewBox="0 0 595.3 595.3" xml:space="preserve">
<path fill="none" stroke="#000000" stroke-width="3" stroke-miterlimit="10" d="M319.3,385c-7.8-15.6-12.4-29.5-14.3-34.3
	c-2.9-7.4-7-22-8.8-27c-2.8-8-7-16.9-12.5-26.1c-3.5-5.9-13.3-19.7-13.3-19.7S258,261,238,252c-12.9-5.8-41.8-13.3-67.8-10.7
	c-27.7,2.7-56.2,11.5-77.7,31.8c25.9,8-1.8,39.8-1.8,39.8s27.7-32.7,1.8-39.8c-14.7-4-43.2,10.8-60.3,27.4
	c-23.5,23-10.1,50.7-2.8,60c7.1,9,26.3,26.5,41.8,26c0,0,5.6,39.4,14.8,65c7,19.7,24.3,42.9,43,53c26.8,14.5,41.3-7.8,41.3-7.8
	s13.6,17.4,35.3,15.7c18.4-1.4,24-19.9,24-19.9s13.9,22.2,39.2,20.8c19-1,22.3-26.1,22.3-26.1s21.3,8.8,40,3.5
	c20.8-5.9,23.5-24,19-43.3C343.3,418.8,319.3,385,319.3,385z"/>
<path fill="none" stroke="#000000" stroke-width="3" stroke-miterlimit="10" d="M127.7,269.3c17.4-0.5,15.5,6.2-0.3,6.5
	C113.3,276.1,113,269.8,127.7,269.3z"/>
<path fill="none" stroke="#000000" stroke-width="3" stroke-miterlimit="10" d="M175.7,266c15.7-1.3,13.8,5.8,0.5,6.6
	C163.3,273.3,161.2,267.2,175.7,266z"/>
<path fill="none" stroke="#000000" stroke-width="3" stroke-miterlimit="10" d="M152.7,289.7c10,0.1,14.7,7.2,11,10.3
	c-4.7,4-16.3,5.5-20.7,1.2C138,296.1,143.7,289.6,152.7,289.7z"/>
</svg>
