<?xml version="1.0" encoding="utf-8"?>
<svg version="1.2" baseProfile="tiny" id="Layer_1" xmlns="http://www.w3.org/2000/svg" xmlns:xlink="http://www.w3.org/1999/xlink"
	 x="0px" y="0px" viewBox="0 0 595.3 595.3" xml:space="preserve">
<path fill="none" stroke="#000000" stroke-width="3" stroke-miterlimit="10" d="M407,462.5c0,0,10.9-4.5,11-14.2
	c0.1-13.5-2.3-18.2-5.3-26.1c-4.2-10.9-11-13.2-15.4-15.5c-10.4-5.4-30.7,4.3-30.7,4.3s-30.8-19.3-49.7-26.5
	c-20.3-7.7-45.5-13-66-14c-18.2-0.9-56,4-76,10c-25.8,7.8-50.1,17.5-50.8,30c-24.3-19.8-32.4-19.8-42-14.8
	c-10.9,5.8-18.8,18.3-18.8,27c0.1,12.9,5.9,25.5,14,32.3c6.3,5.2,16,8.9,16,9c0,0-16.4,32.7-16,62c0.3,24,2.2,30.7,14.5,37.5
	c18.7,10.4,39.4-9.8,39.4-9.8S138.2,569,162,570c20.5,0.9,34-10,34-10s4.5,8,29.5,7.5c17.8-0.4,32.7-7.4,32.7-7.4S299.5,581,323,558
	c12.2-11.9,34.7,20.7,66.5,0.5C423.3,537,407,462.5,407,462.5z"/>
<path fill="none" stroke="#000000" stroke-width="3" stroke-miterlimit="10" d="M208.7,405.3c18.4,2.4,20.3,9.8,1.6,13.1
	C189.3,422,191.3,403,208.7,405.3z"/>
<path fill="none" stroke="#000000" stroke-width="3" stroke-miterlimit="10" d="M294.2,407.2c22.2,0,18.2,6.8,0.8,10.2
	C281.5,419.9,271,407.2,294.2,407.2z"/>
<path fill="none" stroke="#000000" stroke-width="3" stroke-miterlimit="10" d="M282,430.3c13.4,9.7-9,17.7-22.3,17.7
	c-16.7,0-30-11-18.9-19.3C249.6,422,270,421.7,282,430.3z"/>
</svg>
