<?xml version="1.0" encoding="utf-8"?>
<svg version="1.2" baseProfile="tiny" id="Layer_1" xmlns="http://www.w3.org/2000/svg" xmlns:xlink="http://www.w3.org/1999/xlink"
	 x="0px" y="0px" viewBox="0 0 595.3 595.3" xml:space="preserve">
<path fill="none" stroke="#000000" stroke-width="3" stroke-miterlimit="10" d="M227.7,447c6.7,32.3,48.8,40.5,101.8,40.5
	s81.8,7.5,91-28c7.4-28.6,5-91.5,5-91.5s27.3,14.3,46.3-8.3s26.3-39.6,12.2-51.9c-13.7-11.9-38.6,21.1-56.9,3.6
	c0.7-43.5,34-91.5,32.3-137.8c-7-43.7-54.8-59.6-102.3-47.7c-45.8,11.5-64,40.8-83,75.3c-17.9,32.6-30.3,75.1-30,91.8
	c-9,12.1-37.3,9.7-56.5,27.5s-4.5,40.8,6,45.5s32.2,3.3,43,0.5C242.3,398,218.7,403.3,227.7,447z"/>
<line fill="none" stroke="#000000" stroke-width="3" stroke-miterlimit="10" x1="156.9" y1="459.9" x2="210.6" y2="285.5"/>
<path fill="none" stroke="#000000" stroke-width="3" stroke-miterlimit="10" d="M129.9,430.9c2,0,40.5-14.8,40.5-14.8l31,37.3"/>
<path fill="none" stroke="#000000" stroke-width="3" stroke-miterlimit="10" d="M192.4,303.9l-10-8l15.7-19c0,0-9.2-15.3,8.6-35.3
	c12.8-12.5,24.5-11.5,32.5-4.3s12.5,17.5,0,34.3c-14.8,18.8-24.3,14.5-30.5,13.5L192.4,303.9z"/>
<path fill="none" stroke="#000000" stroke-width="3" stroke-miterlimit="10" d="M212.9,242.4c10-0.3,23.3,12.7,25.7,18"/>
<path fill="none" stroke="#000000" stroke-width="3" stroke-miterlimit="10" d="M205.2,254.1c10-0.3,23.3,12.7,25.7,18"/>
<path fill="none" stroke="#000000" stroke-width="3" stroke-miterlimit="10" d="M348.3,196.8c7.6,4.5,20.1-8.5,24.6-16.9
	c5.3-9.9-4-20.8-15-9.8S340.7,192.3,348.3,196.8z"/>
<path fill="none" stroke="#000000" stroke-width="3" stroke-miterlimit="10" d="M448.9,229.5c0.6-2,1.9-4.8,2.9-9.2"/>
<path fill="none" stroke="#000000" stroke-width="3" stroke-miterlimit="10" d="M456.3,204c0.7-2.8,1.8-10,2.2-14"/>
<path fill="none" stroke="#000000" stroke-width="3" stroke-miterlimit="10" d="M440.5,253.8c1.2-3.3,1.8-4.2,2.8-7.9"/>
<path fill="none" stroke="#000000" stroke-width="3" stroke-miterlimit="10" d="M372.8,140c5.6-0.8,3.3,15.4,1.5,15.6
	S368.2,140.6,372.8,140z"/>
<path fill="none" stroke="#000000" stroke-width="3" stroke-miterlimit="10" d="M391.4,164.5c-1.1-3.8,20.5,0.5,21.3,4.8
	S392.4,167.9,391.4,164.5z"/>
</svg>
