<?xml version="1.0" encoding="utf-8"?>
<svg version="1.2" baseProfile="tiny" id="Layer_1" xmlns="http://www.w3.org/2000/svg" xmlns:xlink="http://www.w3.org/1999/xlink"
	 x="0px" y="0px" viewBox="0 0 595.3 595.3" xml:space="preserve">
<path fill="none" stroke="#000000" stroke-width="3" stroke-miterlimit="10" d="M464.8,495.8c5.7,4.7,16,6.5,22.5,4
	c7.4-2.8,15.3-18.5,15-30c-0.2-8.5-2.3-15.9-5.8-26.1c-2.5-7.3-9.2-18.5-9.2-18.5s26.2-41.2,15.9-89c-5.7-26.5-26.5-45.1-65.5-59
	c-41.2-14.7-80.5-5.8-107.3,16c-26.5,21.5-40,45.8-40,45.8s-18.4-8.5-38.8-4c-15.2,3.4-28.7,6.9-36,18.9c-6.5,10.6-2.9,17.5,3,22.6
	c6.6,5.7,15.9,11.8,24.3,13.8c0,0-34.8,27.7-41.8,37c-11.4,15.2-6.9,43.2,17.5,46.6c13.5,1.9,31-6.6,31-6.6s-2.6,30.7,27.2,35.4
	c15.6,2.5,38.6-10.2,38.6-10.2s0.3,22.4,19.8,28.2c23.5,7,43.2-11.4,43.2-11.4s-0.7,27.1,17,33.3c13.8,4.8,30.1-3.2,43.1-13.5
	C457.3,514,464.8,495.8,464.8,495.8z"/>
<path fill="none" stroke="#000000" stroke-width="3" stroke-miterlimit="10" d="M443.3,313.3c10.9,4.3,7.4,9.5-2.7,4.8
	C431.8,314,434,309.7,443.3,313.3z"/>
<path fill="none" stroke="#000000" stroke-width="3" stroke-miterlimit="10" d="M491.2,337.3c4.7,7.8-0.3,10.2-5.7,3.2
	C481.3,335,485.7,328.2,491.2,337.3z"/>
<path fill="none" stroke="#000000" stroke-width="3" stroke-miterlimit="10" d="M465.3,342.4c5.2,1.1,4.6,8.3,1,10
	c-3.2,1.5-8.4,0.7-9.7-3.5C455.7,345.5,459.3,341.2,465.3,342.4z"/>
</svg>
