<?xml version="1.0" encoding="utf-8"?>
<svg version="1.2" baseProfile="tiny" id="Layer_1" xmlns="http://www.w3.org/2000/svg" xmlns:xlink="http://www.w3.org/1999/xlink"
	 x="0px" y="0px" viewBox="0 0 595.3 595.3" xml:space="preserve">
<path fill="none" stroke="#000000" stroke-width="3" stroke-miterlimit="10" d="M378,421c-4-19,1.6-38,2.7-46
	c1.1-7.9,0.2-20.6,0-25.8c-0.4-9-3.3-23.1-5.7-33.6c-2.9-12.5-10-27.9-10-27.9s-12.5-21.2-36.7-34.8c-22.5-12.7-50.8-15.9-80-9
	c-30.5,7.3-48.3,25.9-67.3,49.2c-16.2,20-31,54.6-31,54.6s-16.8-0.7-29.5,5c-8.2,3.7-11.9,16-12.3,23.3c-0.6,11.9,2.8,17.2,9,23.7
	c6.3,6.6,13.9,8.8,19.8,8.6c0,0-14.4,32.1-9.3,57.2c2.7,13.3,8.8,27,24.3,32.5c24.3,8.6,38,1,38,1s9,17,30.7,15.3
	c18.4-1.4,32.7-20,32.7-20s9,18.6,26.9,17c18.9-1.7,29.1-14,29.1-14s15,20,33.7,14.7c20.8-5.9,35.2-29.9,37-49.5
	C382.3,438.2,378,421,378,421z"/>
<path fill="none" stroke="#000000" stroke-width="3" stroke-miterlimit="10" d="M312.4,303.4c14.1,1.3,9.6,7.4-0.4,5.5
	C302.5,307.1,299.2,302.2,312.4,303.4z"/>
<path fill="none" stroke="#000000" stroke-width="3" stroke-miterlimit="10" d="M347.3,314c10.7,5,7.1,11.5-2.4,6.5
	C336.4,316,337.1,309.2,347.3,314z"/>
<path fill="none" stroke="#000000" stroke-width="3" stroke-miterlimit="10" d="M325.8,321.7c10.8,2,11.3,12.2,5.8,16.5
	c-5,4-14.1,1.2-17-4.5C310.8,326.2,316.7,320,325.8,321.7z"/>
</svg>
