<?xml version="1.0" encoding="utf-8"?>
<svg version="1.2" baseProfile="tiny" id="Layer_1" xmlns="http://www.w3.org/2000/svg" xmlns:xlink="http://www.w3.org/1999/xlink"
	 x="0px" y="0px" viewBox="0 0 595.3 595.3" xml:space="preserve">
<path fill="none" stroke="#000000" stroke-width="3" stroke-miterlimit="10" d="M414.3,484.8c0,0,6.7-5.8,12-11.3
	c5.3-5.6,6.8-20.6,7-31.7c0.1-7-2-20.3-6.3-28.3c-5.3-9.8-13.5-17.7-13.5-17.7s1-34-11-73.5c-13.2-43.4-53.5-86.6-112-86.5
	c-54.5,0.1-101,31-122.5,73.3c-17,33.5-25,101.4-25,101.4c-8.5,6.2-15.7,14.5-22.7,25.7c-6.7,10.7-15,31-11.3,36.7
	c4.5,6.8,7.4,10.6,13.3,10.3c8.3-0.4,17.2-4.7,17.2-4.7c0,0-4.1,22-1.1,52.5c2.2,21.6,7.2,61.2,29.6,61.3c28.8,0.2,68-49,68-49
	s-0.4,39.7,29.5,40.8c20.5,0.7,27.7-23.8,27.7-23.8s9.5,35,32.6,35c17.8,0,34.2-26.5,34.2-26.5s7.7,24.5,28.9-1.5
	c10.8-13.2,19.9-28.7,22.8-48.2C415.2,495.5,414.3,484.8,414.3,484.8z"/>
<path fill="none" stroke="#000000" stroke-width="3" stroke-miterlimit="10" d="M260.3,301.6c13,0,17.7-12,1.7-11.9
	C250.6,289.9,248.3,301.6,260.3,301.6z"/>
<path fill="none" stroke="#000000" stroke-width="3" stroke-miterlimit="10" d="M341.7,305.4c12.3,0.7,14.6-6.5,1.7-9.7
	C327.3,291.7,329.3,304.8,341.7,305.4z"/>
<path fill="none" stroke="#000000" stroke-width="3" stroke-miterlimit="10" d="M306.3,332.1c-10.1-0.7-19.5-5.7-15.3-9.3
	c3.7-3.2,22.5-3.2,27.3,0.3C325.4,328.3,316.8,332.8,306.3,332.1z"/>
</svg>
