<?xml version="1.0" encoding="utf-8"?>
<svg version="1.2" baseProfile="tiny" id="Layer_1" xmlns="http://www.w3.org/2000/svg" xmlns:xlink="http://www.w3.org/1999/xlink"
	 x="0px" y="0px" viewBox="0 0 595.3 595.3" xml:space="preserve">
<path fill="none" stroke="#000000" stroke-width="3" stroke-miterlimit="10" d="M397,424c0,0,3.6-1.3,9-6c8-7,16.1-15,20-24.4
	c4.4-10.5,5.9-16.5,6.5-30.6c0.8-19.5-23-15-23-15s4.6-18.4,9.5-53.5c2.5-18-2.5-55.5-40-62c-43.6-7.6-69,3.9-92.5,44
	C272.3,300.7,261,340,261,340s-17.5-16-30.8-0.5c-7.5,8.7-12.2,14-13.7,32c-0.7,8.3,4,25.7,8,31c5,6.7,10.5,15,10.5,15
	s-13.7,58.5-21.4,98c-4.2,21.8-2.6,44.3,16.1,41.5c15-2.3,25.3-17.5,25.3-17.5s12.5,16.2,28.5,12.5s24.5-15.5,24.5-15.5
	s8.8,18.5,21.5,18.5s22.5-10.5,22.5-10.5s4.5,21.5,17.5,12.5c14-9.7,26.5-43.6,29.5-78.5C402,444,397,424,397,424z"/>
<path fill="none" stroke="#000000" stroke-width="3" stroke-miterlimit="10" d="M342.7,259.7c9.3,4.7,16.7,0,5.7-5.7
	C340.7,250.1,331.8,254.2,342.7,259.7z"/>
<path fill="none" stroke="#000000" stroke-width="3" stroke-miterlimit="10" d="M389.3,274c11.3,9.8,2.3,9.8-4.7,5
	C374.6,272.1,382.6,268.1,389.3,274z"/>
<path fill="none" stroke="#000000" stroke-width="3" stroke-miterlimit="10" d="M354,290.9c-5.9,1.7-15.7-0.5-14-7
	c3-11.6,19-8.1,20.7-2.6C361.9,285.4,358.7,289.6,354,290.9z"/>
</svg>
