<?xml version="1.0" encoding="utf-8"?>
<svg version="1.2" baseProfile="tiny" id="Layer_1" xmlns="http://www.w3.org/2000/svg" xmlns:xlink="http://www.w3.org/1999/xlink"
	 x="0px" y="0px" viewBox="0 0 595.3 595.3" xml:space="preserve">
<path fill="none" stroke="#000000" stroke-width="3" stroke-miterlimit="10" d="M458.8,499c5.7,4.7,16.3,5.7,22.8,3.2
	c7.4-2.8,15.4-16.2,15.2-27.7c-0.2-8.5-0.3-17.8-3.8-28c-2.5-7.3-9.2-15.5-9.2-15.5s15.6-42.7,4.6-85.3
	c-6.7-25.7-21.7-47.6-60.7-61.5c-41.2-14.7-81-11.5-107.8,10.3C293.5,316,276.3,347,276.3,347s-8.4-6.2-29.3-5.5
	c-15.3,0.5-27.2,1-34.5,13c-6.5,10.6-2.5,18.2-0.5,25.8c2,7.5,10.7,18.1,19,20.1c0,0-25.2,21-32.2,30.4
	c-11.4,15.2-5.7,42.9,18.7,46.3c13.5,1.9,32-9.8,32-9.8s-6.4,31.3,23.3,36.1c15.6,2.5,38.3-9.8,38.3-9.8s1.4,22.5,20.8,28.3
	c23.5,7,44-10.7,44-10.7s-0.5,24.4,17.2,30.5c13.8,4.8,29.6-2,42.1-12.9C450.2,515.8,458.8,499,458.8,499z"/>
<path fill="none" stroke="#000000" stroke-width="3" stroke-miterlimit="10" d="M404,331.5c11,4,8.1,8.8-2.3,5
	C391.7,332.8,392.2,327.2,404,331.5z"/>
<path fill="none" stroke="#000000" stroke-width="3" stroke-miterlimit="10" d="M454,345.5c10.2,3.8,7.4,7.1-1.2,4.8
	C445.2,348.3,442.6,341.2,454,345.5z"/>
<path fill="none" stroke="#000000" stroke-width="3" stroke-miterlimit="10" d="M426.7,356.5c5.2,1.1,6.7,5.9,3.4,8.2
	c-4,2.8-11.7,1.3-12.3-2C417.3,359.8,420.7,355.3,426.7,356.5z"/>
</svg>
