<?xml version="1.0" encoding="utf-8"?>
<svg version="1.2" baseProfile="tiny" id="Layer_1" xmlns="http://www.w3.org/2000/svg" xmlns:xlink="http://www.w3.org/1999/xlink"
	 x="0px" y="0px" viewBox="0 0 595.3 595.3" xml:space="preserve">
<path fill="none" stroke="#000000" stroke-width="3" stroke-miterlimit="10" d="M399.5,348c0,0,26.3,4.3,41,3s44-9.6,44.5-41.3
	c0.4-26.5-22.6-33.7-35.3-32.7c-24.7,2-46.7-20.5-46.7-20.5s2.8-71-15.5-125.4C369,76,328.3,67,305.7,67c-22.7,0-66.8,7.8-90.2,51.1
	s-29.8,134.2-29.8,134.2s-20,17.3-38,16c-18-1.3-54.1-16.2-65.4,13.2s14.2,52,30.1,57.5c12.7,4.4,62,2.9,62,2.9
	s-9.3,168.4-6.6,190.4c2.7,22,22,40,35.3,32.7s26-23.3,26-23.3s6,28.7,22,25c16-3.7,32-24.3,32-24.3s10,24.6,22.7,24.7
	c12.7,0,28-21.3,28-21.3s19.3,25.6,34.7,21.7c22.7-5.7,33.9-75,34.7-124.4C403.7,401.7,399.5,348,399.5,348z"/>
<path fill="none" stroke="#000000" stroke-width="3" stroke-miterlimit="10" d="M275.2,119.7c14-1.5,12,5,0,6.8
	C263.2,128.2,261.2,121.2,275.2,119.7z"/>
<path fill="none" stroke="#000000" stroke-width="3" stroke-miterlimit="10" d="M340.3,122.3c11.5,2.2,13.4,9.4-0.6,7.2
	C325.7,127.3,328.9,120.1,340.3,122.3z"/>
<path fill="none" stroke="#000000" stroke-width="3" stroke-miterlimit="10" d="M312,141.3c10.3,0,13.3,17,7,23.3
	c-6.3,6.3-14.7,3-18-3.3C297.6,155,303.3,141.3,312,141.3z"/>
</svg>
