<?xml version="1.0" encoding="utf-8"?>
<svg version="1.2" baseProfile="tiny" id="Layer_1" xmlns="http://www.w3.org/2000/svg" xmlns:xlink="http://www.w3.org/1999/xlink"
	 x="0px" y="0px" viewBox="0 0 595.3 595.3" xml:space="preserve">
<path fill="none" stroke="#000000" stroke-width="3" stroke-miterlimit="10" d="M391.3,418.3c0,0-1.1-5.7-4.7-16.8
	c-1.8-5.4-4.1-12.8-5.8-18c-2.5-7.7-3.2-12.7-5.5-18.5c-1.8-4.6-5.2-16-5.2-16s-6.2-14.7-8.7-25.6c-3.2-13.8-10.4-32-23.5-43.1
	c-10.4-8.8-27.1-17.5-53-14.3c-22.8,2.8-59.3,31-59.3,31s-23.3-12-43.3,17.7c-9.2,13.7-18.3,34.3-14.3,59c3.8,23.6,25.2,51,32.7,60
	C207,441.3,215,480,215,480s-1.7,32,0,53.7c3,38.8,20.4,44.5,30.3,43c17.4-2.6,26.7-20,26.7-20s20,17.3,36,13.7
	c16-3.7,27.7-23,27.7-23s20.3,18.7,36.7,10c11.2-5.9,15.3-28.7,15.3-28.7s27.6,6.7,40.3-2.7c8.6-6.3,26.9-42.9,18.3-65.3
	C438.3,439.7,391.3,418.3,391.3,418.3z"/>
<path fill="none" stroke="#000000" stroke-width="3" stroke-miterlimit="10" d="M265.2,339.5c-8.7,3.9-6.8,9.3,0.3,6.8
	C275.5,342.7,274,335.5,265.2,339.5z"/>
<path fill="none" stroke="#000000" stroke-width="3" stroke-miterlimit="10" d="M220.5,345c12.8,0,9.5,7-1.3,7
	C211.7,352,209.2,345,220.5,345z"/>
<path fill="none" stroke="#000000" stroke-width="3" stroke-miterlimit="10" d="M247,379.5c-5.2,1.5-15.4-0.3-16.1-7
	c-1.2-11,15.7-12.7,21.1-9.8C259.4,366.8,257.8,376.5,247,379.5z"/>
</svg>
