<?xml version="1.0" encoding="utf-8"?>
<svg version="1.2" baseProfile="tiny" id="Layer_1" xmlns="http://www.w3.org/2000/svg" xmlns:xlink="http://www.w3.org/1999/xlink"
	 x="0px" y="0px" viewBox="0 0 595.3 595.3" xml:space="preserve">
<path fill="none" stroke="#000000" stroke-width="3" stroke-miterlimit="10" d="M331,492c4.1,2.1,18-0.7,25.3-4.2
	c8.3-3.9,15.1-10.4,18.9-16.6c5.3-8.6,4.4-21.8-5.7-31c-7.2-6.6-28.8-7-28.8-7s-0.8-16.5-5.5-57c-5-42.8-38.3-70.8-85-73.5
	c-43.7-2.6-82,1.5-111,32.5c-25.7,27.5-41.3,75-41.3,75s-10.8-7.5-23.5-7.8c-12-0.2-20.4-2-27.5,9.6c-7,11.5-8,32.7,3.5,43.9
	c6.3,6.1,17,14,27.5,13.5c0,0-8,21.6-12.3,31.5c-7.5,17.4-3.8,38.3,24.3,39c23.8,0.6,36.7-13.3,36.7-13.3s9.9,24.3,36,23
	c19.5-1,29.4-15.4,29.4-15.4s5.1,23.4,25.3,25.9c12.7,1.6,38.7-14.5,38.7-14.5s7.4,12.4,26,14.3c12.3,1.3,26.5-9.6,32.3-17
	C322.6,532.6,331,492,331,492z"/>
<path fill="none" stroke="#000000" stroke-width="3" stroke-miterlimit="10" d="M225.2,345.4c12.2,0.3,11.5,5.4,1.2,7.9
	C212.7,356.7,213.8,345.1,225.2,345.4z"/>
<path fill="none" stroke="#000000" stroke-width="3" stroke-miterlimit="10" d="M276.7,342.5c13.5,0.2,13.3,11,1,9
	C266.3,349.7,262.3,342.3,276.7,342.5z"/>
<path fill="none" stroke="#000000" stroke-width="3" stroke-miterlimit="10" d="M256.8,363.8c6.5,0.5,10.5,0.6,7.6,3.9
	c-2.7,3-15.5,2.7-17.3-1.7C245.7,363,250.1,363.2,256.8,363.8z"/>
</svg>
