<?xml version="1.0" encoding="utf-8"?>
<svg version="1.2" baseProfile="tiny" id="Layer_1" xmlns="http://www.w3.org/2000/svg" xmlns:xlink="http://www.w3.org/1999/xlink"
	 x="0px" y="0px" viewBox="0 0 595.3 595.3" xml:space="preserve">
<path fill="none" stroke="#000000" stroke-width="3" stroke-miterlimit="10" d="M391.7,311c0,0,27.3,8.8,42.3,3.7
	c13.9-4.8,29-13.2,34-30.7c7.1-24.7-5-44-23-46c-24.4-2.7-45-13-45-13s5.5-57-5-97c-11.9-45.3-61.3-66.5-84-66.5s-60.7,10.8-84,54.2
	s-31.5,84.8-31.5,84.8s-31.1-5.6-49-3c-18.1,2.7-43.7,14.2-55,43.5s13,51.5,36.5,41.5c23.6-10,47-13,55.5-8.5
	c0,0-1.2,192.3-15.8,258.3c-4.8,21.6,22,40,35.3,32.7s26-23.3,26-23.3s6,28.7,22,25c16-3.7,32-24.3,32-24.3s10,24.6,22.7,24.7
	c12.7,0,28-21.3,28-21.3s19.3,25.6,34.7,21.7c22.7-5.7,23.4-92,24.2-141.4C393.2,384.7,391.7,311,391.7,311z"/>
<path fill="none" stroke="#000000" stroke-width="3" stroke-miterlimit="10" d="M292.5,93.5c12.5-3.8,13,5,1,6.8
	S279.1,97.5,292.5,93.5z"/>
<path fill="none" stroke="#000000" stroke-width="3" stroke-miterlimit="10" d="M351.5,109.2c4.3,9.6,0.4,14.5-7.8,2.8
	C336.8,102,346.8,98.5,351.5,109.2z"/>
<path fill="none" stroke="#000000" stroke-width="3" stroke-miterlimit="10" d="M322.5,112.1c5.5,2,4,16.1-2.3,22.4
	c-7.5,7.5-17.7,2-15.8-8C306.3,117.1,316.2,109.8,322.5,112.1z"/>
</svg>
