<?xml version="1.0" encoding="utf-8"?>
<svg version="1.2" baseProfile="tiny" id="Layer_1" xmlns="http://www.w3.org/2000/svg" xmlns:xlink="http://www.w3.org/1999/xlink"
	 x="0px" y="0px" viewBox="0 0 595.3 595.3" xml:space="preserve">
<path fill="none" stroke="#000000" stroke-width="3" stroke-miterlimit="10" d="M227.7,447c9.3,31.6,48.8,40.5,101.8,40.5
	s84.8,8.1,91-28c5.2-30.2-1.8-102.2-1.8-102.2s30.6,11.8,49.3-12.7c17.9-23.4,14-47-1.1-60.1c-18-15.6-32.9-14.2-45.5-11.2
	c5-38.2,15.3-83-6-122c-25.5-46.6-88.4-47.5-122.5-12.3c-29.3,30.3-42,63.6-48.8,80.3c-9.6,23.4-16,44-15.7,60.7
	c-21,12.9-42.5,24.9-69.2,47.2c-21,17.6-18.6,37,6.5,42.4c14,3,44.1-1.5,55-4.3C219,393.3,222.5,429.5,227.7,447z"/>
<line fill="none" stroke="#000000" stroke-width="3" stroke-miterlimit="10" x1="131.5" y1="469.5" x2="175.3" y2="292.3"/>
<path fill="none" stroke="#000000" stroke-width="3" stroke-miterlimit="10" d="M102.9,442c2-0.1,39.6-17.1,39.6-17.1l33.1,35.5"/>
<path fill="none" stroke="#000000" stroke-width="3" stroke-miterlimit="10" d="M158.2,311.7l-10.4-7.4l14.6-19.9
	c0,0-10-14.7,6.6-35.7c12-13.2,23.8-12.9,32.2-6.1s13.5,16.8,1.9,34.2c-13.7,19.6-23.4,15.8-29.7,15.2L158.2,311.7z"/>
<path fill="none" stroke="#000000" stroke-width="3" stroke-miterlimit="10" d="M175.2,249.2c10-0.9,24,11.3,26.6,16.5"/>
<path fill="none" stroke="#000000" stroke-width="3" stroke-miterlimit="10" d="M168.2,261.2c10-0.9,24,11.3,26.6,16.5"/>
<path fill="none" stroke="#000000" stroke-width="3" stroke-miterlimit="10" d="M332.5,191.3c4.3-4.8,13.3-19.5,5.7-25.2
	c-7.8-5.7-25.4,12.8-22.4,24.3C318.2,199.7,327.8,196.5,332.5,191.3z"/>
<path fill="none" stroke="#000000" stroke-width="3" stroke-miterlimit="10" d="M394.6,218.9c-7.8,13.4,7,13.4,13.6,2.5"/>
<path fill="none" stroke="#000000" stroke-width="3" stroke-miterlimit="10" d="M410.3,195.3c-8.4,10.4,3.1,15.4,8.5,3.2"/>
<path fill="none" stroke="#000000" stroke-width="3" stroke-miterlimit="10" d="M396.5,185.1c-7.7,11.9,2.9,18.6,6.1,4.9"/>
<path fill="none" stroke="#000000" stroke-width="3" stroke-miterlimit="10" d="M313.5,144.8c3.7-6.8,16.5,9.6,14.5,11
	C325.8,157.3,311.3,148.8,313.5,144.8z"/>
<path fill="none" stroke="#000000" stroke-width="3" stroke-miterlimit="10" d="M353.5,162.7c-4.2-5.1,26.3-6,27.8-2.1
	C382.3,163.4,356.3,166.1,353.5,162.7z"/>
</svg>
