<?xml version="1.0" encoding="utf-8"?>
<svg version="1.2" baseProfile="tiny" id="Layer_1" xmlns="http://www.w3.org/2000/svg" xmlns:xlink="http://www.w3.org/1999/xlink"
	 x="0px" y="0px" viewBox="0 0 595.3 595.3" xml:space="preserve">
<path fill="none" stroke="#000000" stroke-width="3" stroke-miterlimit="10" d="M227.7,447c9.3,31.6,48.8,40.5,101.8,40.5
	s81.8,7.5,91-28c7.4-28.6-5.8-93.3-5.8-93.3s27.3,2.1,46.1-22.4c17.9-23.4,1.3-58.2-17-62.1c-23.2-5-28.9,17.5-43.3,25.1
	c-10-39.7-30.8-91.7-71.8-125.5s-108.2-32-145,0.4c-31.8,27.9-28.4,61.8-4.3,92.9c15.5,20,35.8,39.5,36.2,56.2
	c-13.3,20.5-55.1,5.9-70.5,35c-12.3,23.1,12.9,45.7,38.4,42.7C195,407,222.2,392.8,233,390C235,416.1,222.5,429.5,227.7,447z"/>
<line fill="none" stroke="#000000" stroke-width="3" stroke-miterlimit="10" x1="159.2" y1="520.5" x2="157.2" y2="338.1"/>
<path fill="none" stroke="#000000" stroke-width="3" stroke-miterlimit="10" d="M124.6,501.2c1.9-0.6,34.1-26.5,34.1-26.5l40.9,26.1
	"/>
<path fill="none" stroke="#000000" stroke-width="3" stroke-miterlimit="10" d="M145.4,361.2l-12-4.6l9.1-22.9
	c0,0-13.4-11.7-2.6-36.2c8.3-15.8,19.8-18.4,29.7-14s17.2,12.9,10.4,32.6c-8.3,22.4-18.7,21.2-24.9,22.2L145.4,361.2z"/>
<path fill="none" stroke="#000000" stroke-width="3" stroke-miterlimit="10" d="M146.2,296.3c9.4-3.4,26.1,5,29.9,9.3"/>
<path fill="none" stroke="#000000" stroke-width="3" stroke-miterlimit="10" d="M142.5,309.8c9.4-3.4,26.1,5,29.9,9.3"/>
<path fill="none" stroke="#000000" stroke-width="3" stroke-miterlimit="10" d="M248.9,291.2c4.3-4.8,1-11.1-6.7-16.8
	c-7.8-5.7-24.3-6.5-21.3,5C223.4,288.7,244.2,296.4,248.9,291.2z"/>
<path fill="none" stroke="#000000" stroke-width="3" stroke-miterlimit="10" d="M282,222.8c0,14.3,9.8,17.7,8.8,1.9"/>
<path fill="none" stroke="#000000" stroke-width="3" stroke-miterlimit="10" d="M285.1,192.5c-1.2,11.4,7.8,21.6,7.8,3.9"/>
<path fill="none" stroke="#000000" stroke-width="3" stroke-miterlimit="10" d="M263.5,202c0.4,12.7,11.2,12.5,9.7,0.6"/>
<path fill="none" stroke="#000000" stroke-width="3" stroke-miterlimit="10" d="M194.7,271.5c0-6,17.2-4.3,18.4,1
	C213.7,275,194.7,276.1,194.7,271.5z"/>
<path fill="none" stroke="#000000" stroke-width="3" stroke-miterlimit="10" d="M241.4,267.2c-4.6-4,12.6-17,13.8-15
	C256.7,255.1,245.4,270.7,241.4,267.2z"/>
</svg>
