<?xml version="1.0" encoding="utf-8"?>
<svg version="1.2" baseProfile="tiny" id="Layer_1" xmlns="http://www.w3.org/2000/svg" xmlns:xlink="http://www.w3.org/1999/xlink"
	 x="0px" y="0px" viewBox="0 0 595.3 595.3" xml:space="preserve">
<path fill="none" stroke="#000000" stroke-width="3" stroke-miterlimit="10" d="M397.7,213.7c0,0,40.8-37.2,53.8-52.7
	c9-10.7,22.7-32.8,17-43.1c-5.5-9.9-21.2-9.9-36.7-2.8c-19.2,8.8-42.5,28.5-42.5,28.5s-3.2-27.3-16.7-56.3
	c-12.8-27.5-21.6-56.7-77.3-56.7c-39.3,0-68,15.7-87.3,61.1c-13.8,32.4-15.5,53.3-15.5,53.3s-31.3-33.8-55.5-37
	c-20.3-2.7-30,8.4-30,23.5c0,11,20.6,39.2,33.7,46.5c23.1,12.8,46.8,30.5,46.8,30.5s-3.7,156.7-12.7,224.1c-2.9,22-8,54.2,10.2,59.1
	c23.3,6.3,34-20.7,34-20.7s9.4,22.7,25.4,19.1s27.3-20.4,27.3-20.4s9.5,23.3,25.5,24c12.7,0.5,21.2-21.3,21.2-21.3
	s20.9,23.1,35.3,16.7c25.3-11.3,35.5-48.6,39.3-112C398.3,287.7,397.7,213.7,397.7,213.7z"/>
<path fill="none" stroke="#000000" stroke-width="3" stroke-miterlimit="10" d="M273.3,89.5c14-0.5,18.3,9-0.5,9.3
	C256.9,99,262.9,89.9,273.3,89.5z"/>
<path fill="none" stroke="#000000" stroke-width="3" stroke-miterlimit="10" d="M330.8,89.5c14.7,0,17.1,9.3,0.8,9.3
	C318.5,98.8,316.8,89.5,330.8,89.5z"/>
<path fill="none" stroke="#000000" stroke-width="3" stroke-miterlimit="10" d="M307.1,131.8c-4.3,6.5-12.8,5-14.8-2.5
	c-1.7-6.4,3.3-21.4,11.5-20.5C312.7,109.8,312.6,123.5,307.1,131.8z"/>
</svg>
