<?xml version="1.0" encoding="utf-8"?>
<svg version="1.2" baseProfile="tiny" id="Layer_1" xmlns="http://www.w3.org/2000/svg" xmlns:xlink="http://www.w3.org/1999/xlink"
	 x="0px" y="0px" viewBox="0 0 595.3 595.3" xml:space="preserve">
<path fill="none" stroke="#000000" stroke-width="3" stroke-miterlimit="10" d="M376,398c0,0,23,13.7,35.7,9.3
	c15.4-5.3,17.8-18.3,17.8-34.8c0-22.8-5-38.4-13.5-54c-6.7-12.2-21-31-21-31s7.4-26.8,6.5-90c-1-70.1-13-115.2-83.5-125.5
	c-58.3-8.5-91.7,19.5-113.5,93.5c-13.6,46-32.5,121-32.5,121s-17,11.3-31.5,27c-13.7,14.9-26,37.8-30.2,58.8
	c-2.9,14.6,8.1,28.3,30.6,30.8c20.1,2.2,36.1-21.4,36.1-21.4s-18,73.3-19.5,142.8c-0.5,22.2,17.8,43.1,36.5,40.2
	c15-2.3,27.7-21.7,27.7-21.7s13.3,27.3,29.3,23.7c16-3.7,25.3-23.7,25.3-23.7s16.7,24,29.3,24c12.7,0,20-24,20-24s20,28.7,35.3,24.8
	c22.7-5.7,13.5-58.1,15.3-101.4C378.1,424,376,398,376,398z"/>
<path fill="none" stroke="#000000" stroke-width="3" stroke-miterlimit="10" d="M287.7,105c15.7,0.7,16.5,8.5-1.7,6.7
	C269.7,110,275.3,104.5,287.7,105z"/>
<path fill="none" stroke="#000000" stroke-width="3" stroke-miterlimit="10" d="M342.7,117.7c13,9.6,7.3,14-6.3,5.4
	C324.7,115.7,329.3,107.9,342.7,117.7z"/>
<path fill="none" stroke="#000000" stroke-width="3" stroke-miterlimit="10" d="M303.7,164c-8.3,0-5.4-22.8-1.7-32.3
	c5.3-13.7,14-12.3,14,2C316,141.4,313.7,164,303.7,164z"/>
</svg>
