<?xml version="1.0" encoding="utf-8"?>
<svg version="1.2" baseProfile="tiny" id="Layer_1" xmlns="http://www.w3.org/2000/svg" xmlns:xlink="http://www.w3.org/1999/xlink"
	 x="0px" y="0px" viewBox="0 0 595.3 595.3" xml:space="preserve">
<path fill="none" stroke="#000000" stroke-width="3" stroke-miterlimit="10" d="M227.7,447c9.3,31.6,48.9,39,101.8,40.5
	c33.5,1,37.3,8.2,38.2-9.5c2-42-3.5-62.6-3.3-84c0.1-23.6,11.3-83,11-106.3c-0.3-23.1-5.6-63.5-20.9-78.1
	c-33.8-32.1-100.6-44.1-142.1-23.9c-25.3,12.3-34.8,39.9-36.7,59.8c-2.9,31.3,36.5,58.7,34.8,76.7c-23,5.6-47.6,11.9-58.8,24.5
	c-13,14.7-2.6,37,31,43.7c14.1,2.8,35.3,4.3,53,3.7C226.2,417,222.5,429.5,227.7,447z"/>
<line fill="none" stroke="#000000" stroke-width="3" stroke-miterlimit="10" x1="144.6" y1="524.5" x2="188.4" y2="347.4"/>
<path fill="none" stroke="#000000" stroke-width="3" stroke-miterlimit="10" d="M116,497.1c2-0.1,39.6-17.1,39.6-17.1l33.1,35.5"/>
<path fill="none" stroke="#000000" stroke-width="3" stroke-miterlimit="10" d="M171.2,366.8l-10.4-7.4l14.6-19.9
	c0,0-10-14.7,6.6-35.7c12-13.2,23.8-12.9,32.2-6.1c8.4,6.8,13.5,16.8,1.9,34.2c-13.7,19.6-23.4,15.8-29.7,15.2L171.2,366.8z"/>
<path fill="none" stroke="#000000" stroke-width="3" stroke-miterlimit="10" d="M188.2,304.2c10-0.9,24,11.3,26.6,16.5"/>
<path fill="none" stroke="#000000" stroke-width="3" stroke-miterlimit="10" d="M181.3,316.3c10-0.9,24,11.3,26.6,16.5"/>
<path fill="none" stroke="#000000" stroke-width="3" stroke-miterlimit="10" d="M247.6,294.6c6.4-9.3-1-21.6-9.4-24.6
	c-12-4.3-15.4,3.4-12.6,12.4C229,293.2,243.5,300.6,247.6,294.6z"/>
<path fill="none" stroke="#000000" stroke-width="3" stroke-miterlimit="10" d="M335.7,235c-1.6,12,10.5,14.8,9.5,2.2"/>
<path fill="none" stroke="#000000" stroke-width="3" stroke-miterlimit="10" d="M332.9,211.9c-3,11.2,9.8,11.8,9.8,1.2"/>
<path fill="none" stroke="#000000" stroke-width="3" stroke-miterlimit="10" d="M314.6,215.4c-5.2,11,8.5,22.7,9.5,4.7"/>
<path fill="none" stroke="#000000" stroke-width="3" stroke-miterlimit="10" d="M191.3,264.5c0.7-4.8,23.8-3.9,24.2,0.8
	C215.6,267.7,190.7,268.3,191.3,264.5z"/>
<path fill="none" stroke="#000000" stroke-width="3" stroke-miterlimit="10" d="M238,257.3c1.7,1.9,16.7-17.5,15.1-19.6
	C250.3,233.8,234.3,253,238,257.3z"/>
<path fill="none" stroke="#000000" stroke-width="3" stroke-miterlimit="10" d="M364.3,345.7c-25.3-8.4-45.7-41.9-71.3-24.9
	s-13.6,52.9,18.7,73.3"/>
<path fill="none" stroke="#000000" stroke-width="3" stroke-miterlimit="10" d="M359.8,216.3c35.2,28.7,73.5,90,83.2,140
	s20.6,131.7,16.7,141.4c-8.7,1.2-15.7,7.7-44.7,6.7s-48-5.8-52.1-15"/>
</svg>
