<?xml version="1.0" encoding="utf-8"?>
<svg version="1.2" baseProfile="tiny" id="Layer_1" xmlns="http://www.w3.org/2000/svg" xmlns:xlink="http://www.w3.org/1999/xlink"
	 x="0px" y="0px" viewBox="0 0 595.3 595.3" xml:space="preserve">
<path fill="none" stroke="#000000" stroke-width="3" stroke-miterlimit="10" d="M429.7,331.7c0,0,12.9-7.3,20.7-14
	c8.3-7.3,16.1-16,18.7-24.7c2.6-9,5.5-16,0-24c-6.9-10.1-24.5-1-24.5-1s13-46,13.5-78c0.5-32.7-3.5-81.9-60.5-97
	c-41.2-10.9-93.1,11-122.5,53c-21.4,30.5-37.4,59.5-37.4,59.5S217.9,189.7,205,195c-12.2,5-24,32.5-20.2,49.5
	c2.2,9.8,5.5,20.5,11.7,29c6,8.1,8.5,18.8,8.5,18.8s-23.7,122-32.7,189.3c-2.9,22,10,56.1,20.5,60c14.3,5.3,29.5-15.3,29.5-15.3
	s7.3,26.3,23.3,22.7s26.1-20.7,26.1-20.7s10,22.7,26,23.3c12.7,0.5,38-34.7,38-34.7s13.3,31.2,28.7,27.3
	c22.7-5.7,19.9-11.8,26.7-50.8C406.1,407,429.7,331.7,429.7,331.7z"/>
<path fill="none" stroke="#000000" stroke-width="3" stroke-miterlimit="10" d="M372.5,132.2c9.7,7.7,12.2,16.9-5.2,7.1
	C354.7,132.2,364.8,126.1,372.5,132.2z"/>
<path fill="none" stroke="#000000" stroke-width="3" stroke-miterlimit="10" d="M429.3,164.3c5.3,13.7-3.7,16.3-10.7,3
	C413.9,158.2,425.5,154.5,429.3,164.3z"/>
<path fill="none" stroke="#000000" stroke-width="3" stroke-miterlimit="10" d="M378.7,185.7c-7.1,4-15.3,0.2-14.7-9.6
	c0.4-6.6,11.6-14.2,19.3-11.4C390.6,167.3,387.4,180.8,378.7,185.7z"/>
</svg>
