<?xml version="1.0" encoding="utf-8"?>
<svg version="1.2" baseProfile="tiny" id="Layer_1" xmlns="http://www.w3.org/2000/svg" xmlns:xlink="http://www.w3.org/1999/xlink"
	 x="0px" y="0px" viewBox="0 0 595.3 595.3" xml:space="preserve">
<path fill="none" stroke="#000000" stroke-width="3" stroke-miterlimit="10" d="M325.8,384.3c-7.8-15.6-13.5-28.7-15.3-33.5
	c-2.9-7.4-4.5-11.2-6.3-16.2c-2.8-8-7.8-21.9-13.3-31.2c-3.5-5.9-15.5-22.8-15.5-22.8S258,259.3,238,252
	c-13.3-4.8-41.8-13.3-67.8-10.7c-27.7,2.7-53,11.2-74.5,31.5c33,8,7.6,42.6,7.6,42.6s24.7-36.9-7.6-42.6c-15-2.6-40.5,7.5-56.7,24.9
	c-20.9,22.3-9.3,53-2,62.4c7.1,9,28,29,40.7,27c0,0,3.6,37.1,12.7,62.7c7,19.7,23.1,40.1,39.3,52.3c27,20.3,44-5.3,44-5.3
	s13,17.3,34.7,15.7c18.4-1.4,26.3-20.7,26.3-20.7s13,23,38.3,21.7c19-1,22.3-27,22.3-27s18.3,11.3,37,6c20.8-5.9,23.8-17,21.9-36.7
	C351.3,425.1,325.8,384.3,325.8,384.3z"/>
<path fill="none" stroke="#000000" stroke-width="3" stroke-miterlimit="10" d="M137.7,270.3c17.1-5.3,17.3,0.5,2.8,5.8
	C127.3,281,123.7,274.7,137.7,270.3z"/>
<path fill="none" stroke="#000000" stroke-width="3" stroke-miterlimit="10" d="M192.6,269.5c12,4.4,11.6,11.2-2.8,5.3
	C173.3,267.9,180.9,265.2,192.6,269.5z"/>
<path fill="none" stroke="#000000" stroke-width="3" stroke-miterlimit="10" d="M170.3,289.7c10,0.1,12,9.5,8.3,12.7
	c-4.7,4-14,2.8-17.3-1.7C157,295,161.3,289.6,170.3,289.7z"/>
</svg>
