<?xml version="1.0" encoding="utf-8"?>
<svg version="1.2" baseProfile="tiny" id="Layer_1" xmlns="http://www.w3.org/2000/svg" xmlns:xlink="http://www.w3.org/1999/xlink"
	 x="0px" y="0px" viewBox="0 0 595.3 595.3" xml:space="preserve">
<path fill="none" stroke="#000000" stroke-width="3" stroke-miterlimit="10" d="M464.8,495.8c5.7,4.7,14,5.3,20.5,2.8
	c7.4-2.8,15.5-18.8,15.3-30.3c-0.2-8.5-1.6-17.6-5.2-27.8c-2.5-7.3-9.2-16.9-9.2-16.9s24.7-41.3,14.4-89.1
	c-5.7-26.5-28.5-46.9-67.5-60.8c-41.2-14.7-80.8-3.8-107.5,18C299,313.3,287,336.3,287,336.3s-20-7.6-40.3-3.1
	c-15.2,3.4-28.8,7.3-36.2,19.3c-6.5,10.6-0.2,19.1,5.8,24.2c6.6,5.7,16.4,9.9,24.8,11.8c0,0-33,29.4-40,38.8
	c-11.4,15.2-6.9,43.2,17.5,46.6c13.5,1.9,31-6.6,31-6.6s-4.3,28.3,25.5,33c15.6,2.5,40.3-7.8,40.3-7.8s-2.2,21.7,17.3,27.5
	c23.5,7,45.8-10.8,45.8-10.8s-0.7,27.1,17,33.3c13.8,4.8,28-4,41-14.3C455.3,513.3,464.8,495.8,464.8,495.8z"/>
<path fill="none" stroke="#000000" stroke-width="3" stroke-miterlimit="10" d="M428.5,307.2c12,5.9,8,10.3-3,4.4
	C413.9,305.5,418.7,302.4,428.5,307.2z"/>
<path fill="none" stroke="#000000" stroke-width="3" stroke-miterlimit="10" d="M479.5,334.5c8.8,6.3,3.2,9.3-4,4.2
	C469,334,468.9,326.9,479.5,334.5z"/>
<path fill="none" stroke="#000000" stroke-width="3" stroke-miterlimit="10" d="M452.8,332c9.2,5.9,7.1,17.8,2.5,20.7
	c-6.4,4-21.1-2.5-23.2-10.2C429.4,332.4,441.2,324.5,452.8,332z"/>
</svg>
