<?xml version="1.0" encoding="utf-8"?>
<svg version="1.2" baseProfile="tiny" id="Layer_1" xmlns="http://www.w3.org/2000/svg" xmlns:xlink="http://www.w3.org/1999/xlink"
	 x="0px" y="0px" viewBox="0 0 595.3 595.3" xml:space="preserve">
<path fill="none" stroke="#000000" stroke-width="3" stroke-miterlimit="10" d="M393.7,379c0,0,24,2.7,39.3-4
	c16.4-7.1,40.9-21.8,41.3-53.5c0.4-26.5-24.9-19.6-45.3-13.8c-22,6.2-37.3,3.3-37.3,3.3s0-44-6-96c-8.3-72.2-32.7-103.9-88-108.7
	c-52.6-4.6-73.3,19.4-98.6,74.1c-20.7,44.7-26.7,117.3-26.7,117.3s-22.4,8.2-60.9-5.8c-39.1-14.2-54.1,13.1-53.1,33.8
	C59.2,346,88.9,365.7,119,367c31.3,1.3,51.3-6,51.3-6s2,104-8,166c-3.5,21.9,22,40.8,40.7,38c15-2.3,26-23.3,26-23.3s6,28.7,22,25
	c16-3.7,32-24.3,32-24.3s10,24.6,22.7,24.7c12.7,0,28-21.3,28-21.3s19.3,25.6,34.7,21.7c22.7-5.7,28.6-65,28-107.1
	C395.7,419,393.7,379,393.7,379z"/>
<path fill="none" stroke="#000000" stroke-width="3" stroke-miterlimit="10" d="M270.7,193.5c16.6,1.2,13.3,7.6-1.2,7
	C255,199.9,254,192.3,270.7,193.5z"/>
<path fill="none" stroke="#000000" stroke-width="3" stroke-miterlimit="10" d="M336.3,195.5c13.3,0,17.1,7.7,0.9,8.2
	S323,195.5,336.3,195.5z"/>
<path fill="none" stroke="#000000" stroke-width="3" stroke-miterlimit="10" d="M303.1,228.1c-6.6-0.7-9.3-7.3-6.4-11.7
	c2.6-4.1,10.2-4.8,13.9-0.5C313.9,220,309.6,228.9,303.1,228.1z"/>
</svg>
