<?xml version="1.0" encoding="utf-8"?>
<svg version="1.2" baseProfile="tiny" id="Layer_1" xmlns="http://www.w3.org/2000/svg" xmlns:xlink="http://www.w3.org/1999/xlink"
	 x="0px" y="0px" viewBox="0 0 595.3 595.3" xml:space="preserve">
<path fill="none" stroke="#000000" stroke-width="3" stroke-miterlimit="10" d="M374.3,466.7c0,0-0.4-8.9-3-22.4
	c-3.4-17.8-4.3-28-6.7-43c-1.2-7.5-5.4-28.2-6.2-42.3c-1.1-20.1-1-47.5-1-47.5s-1.3-39.1-10.5-90.5c-8-44.9-25.5-96.6-77.5-97.3
	c-55.7-0.8-79.9,44.4-83.5,93.3c-2.8,38.4-2.3,94.7-2.3,94.7s-1.6,28.7-0.7,44.3c0.5,7.7,3.6,28.4,5,37.5
	c1.7,10.8,4.6,20.6,5.3,33.8c0.5,9.2,2.7,27,2.7,27s-0.3,26.7,9,67.3c5,21.6,8,48.5,26.7,45.7c15-2.3,30.7-21.7,30.7-21.7
	s3.4,25,19.4,21.3c16-3.7,21.8-18,21.8-18s9.4,18,22.1,18c12.7,0,15.3-19.3,15.3-19.3s4,19.9,19.3,16C383,557.9,383,531.2,377,496
	C375,484.3,374.3,466.7,374.3,466.7z"/>
<path fill="none" stroke="#000000" stroke-width="3" stroke-miterlimit="10" d="M257.3,159.7c11.1-1,13,6.2,1.8,7.2
	C249,167.7,247.6,160.5,257.3,159.7z"/>
<path fill="none" stroke="#000000" stroke-width="3" stroke-miterlimit="10" d="M304,169.2c8.8,5,9,10.4-4,5.6
	C288.7,170.6,296.7,165,304,169.2z"/>
<path fill="none" stroke="#000000" stroke-width="3" stroke-miterlimit="10" d="M281.6,204.3c-4.8-1-4.8-12.2-1.9-18.3
	c2.7-5.7,12-5.3,11.7,2C291,196.3,287.2,205.5,281.6,204.3z"/>
</svg>
