<?xml version="1.0" encoding="utf-8"?>
<svg version="1.2" baseProfile="tiny" id="Layer_1" xmlns="http://www.w3.org/2000/svg" xmlns:xlink="http://www.w3.org/1999/xlink"
	 x="0px" y="0px" viewBox="0 0 595.3 595.3" xml:space="preserve">
<path fill="none" stroke="#000000" stroke-width="3" stroke-miterlimit="10" d="M262,160c0,0-32,4.5-52.7,13
	c-15.8,6.5-35,16.3-37.2,29.7c-1.6,10,0.9,21.3,13.2,25c6.9,2,27,3.3,27,3.3s-45,24.3-58.7,39.1c-11.1,12-24.6,32.3-17,48.9
	c3.8,8.3,17.8,11.6,30,9.3c14.4-2.6,25.3-9,25.3-9s-8.5,36.9,7,39c17,2.3,23.7-5.9,32.7-7.7c5.2-1-13.1,28.9,12,29
	c15.7,0.1,29.8-7.1,37.3-12.7c0,0-3.1,54.5,47,8.5c73-67,105.6-182,112-195.8c2.2-4.7,23.8,13.2,53.8-18.2c0,0,11-10,12.5-31.8
	C507.2,116,494,94.3,494,94.3S479,73.7,462,65c-36.3-18.5-55.7-2.3-55.7-2.3s-24.9-13.5-65.8-1.2c-31,9.3-41.4,23.4-54.5,45
	C273.3,127.5,262,160,262,160z"/>
<path fill="none" stroke="#000000" stroke-width="3" stroke-miterlimit="10" d="M439,122.7c-10.9-6.4-37-26.7-32.7-60
	C401.8,95.8,427.8,116,439,122.7z"/>
<path fill="none" stroke="#000000" stroke-width="3" stroke-miterlimit="10" d="M386.1,108c15.9-4,21.5,4.8,2.9,6.5
	C377.4,115.6,374.8,110.9,386.1,108z"/>
<path fill="none" stroke="#000000" stroke-width="3" stroke-miterlimit="10" d="M391.7,150.5c-5.2-4.7,4-17.5,13.5-18.9
	c15.7-2.3,17.2,8.1,9.6,14.1C409.8,149.6,397,155.4,391.7,150.5z"/>
</svg>
