<?xml version="1.0" encoding="utf-8"?>
<svg version="1.2" baseProfile="tiny" id="Layer_1" xmlns="http://www.w3.org/2000/svg" xmlns:xlink="http://www.w3.org/1999/xlink"
	 x="0px" y="0px" viewBox="0 0 595.3 595.3" xml:space="preserve">
<path fill="none" stroke="#000000" stroke-width="3" stroke-miterlimit="10" d="M429.5,439.5c0,0,8.2-4.1,16.7-12.5
	c5.5-5.4,12.9-19.9,16-32c2.8-10.8,1.7-23.1-2.8-31c-4.9-8.7-13.3-7.3-13.3-7.3s1.7-17.7-6.3-46.5c-7.6-27.3-34.3-54-61-64.1
	c-63-24-104.5-8.7-128.9,3.7c-36.1,18.3-49.5,42.5-49.5,42.5c-8.7-2.3-6.8-22.8-18.2-29.3c-11.7-6.7-30.3-6.7-46.7,11.8
	c-10.3,11.6-17,30.7-9.3,52.3c7.3,20.6,22.3,57.3,22.3,57.3c0,0-22.3,73-18,101.3c4.8,31.2,17.5,64,36,64
	c28.8,0,48.7-26.7,48.7-26.7s2.5,26,32,21c19.2-3.3,40.4-22,40.4-22s3.1,28.3,26.3,28.3c17.8,0,32.8-22.8,32.8-22.8
	s17.7,36.1,39.5,28c25-9.3,30.5-34.2,35-61C425.8,466.1,429.5,439.5,429.5,439.5z"/>
<path fill="none" stroke="#000000" stroke-width="3" stroke-miterlimit="10" d="M309.5,278.8c12,5,21.8,0.3,4.5-8.3
	C300.7,263.9,296.4,273.3,309.5,278.8z"/>
<path fill="none" stroke="#000000" stroke-width="3" stroke-miterlimit="10" d="M385.3,317.8c10.8,5.8,22,1.2,7.3-9.3
	C381,300.3,371,310.1,385.3,317.8z"/>
<path fill="none" stroke="#000000" stroke-width="3" stroke-miterlimit="10" d="M350.3,329.5c-10.1-0.7-28.8-10.4-23.5-22.4
	c4.5-10.1,30.8-0.4,34.8,5.7C366.3,320.1,360.8,330.2,350.3,329.5z"/>
</svg>
