<?xml version="1.0" encoding="utf-8"?>
<svg version="1.2" baseProfile="tiny" id="Layer_1" xmlns="http://www.w3.org/2000/svg" xmlns:xlink="http://www.w3.org/1999/xlink"
	 x="0px" y="0px" viewBox="0 0 595.3 595.3" xml:space="preserve">
<path fill="none" stroke="#000000" stroke-width="3" stroke-miterlimit="10" d="M441.9,414.8c0,0-11.1-6.4-21.9-14.4
	c-6.9-5.1-13.3-12.2-16.2-16.8c-4.7-7.7-9.5-14.2-11.8-20c-1.8-4.6-5.5-13.8-5.5-13.8s-3-8.1-5.5-19c-3.2-13.8-5.7-32.8-19.5-62.3
	c-9.8-20.8-24.3-29.5-45.3-36c-23.3-7.2-42.8,4.8-42.8,4.8s-17-6.8-27,6.3c-10.1,13.1-2.4,23.5-7.3,31.8
	c-12.1,20.5-14.4,54.1-11.3,81.4c2.3,20,10.8,74,10.8,74s-2.3,48,10.9,85.3c13,36.7,43,43.7,52.9,42.2c17.4-2.6,21.1-18.2,21.1-18.2
	s17.7,11,33.7,7.3c16-3.7,15.3-21.7,15.3-21.7s18,15.7,34.3,7c11.2-5.9,9.7-34,9.7-34s18.9,2.4,31.7-7c8.6-6.3,16.5-23.7,15-47.7
	C462,423,441.9,414.8,441.9,414.8z"/>
<path fill="none" stroke="#000000" stroke-width="3" stroke-miterlimit="10" d="M373.2,298.6c-3.3-10.5-3.9-12-2.2-7.2
	C372.8,296.2,374.7,303.1,373.2,298.6z"/>
<path fill="none" stroke="#000000" stroke-width="3" stroke-miterlimit="10" d="M238.2,297.4c10.2,3.7,1.7,10.6-2.7,8.5
	C229.5,303,232.1,295.2,238.2,297.4z"/>
<path fill="none" stroke="#000000" stroke-width="3" stroke-miterlimit="10" d="M243.8,336c-5,2.1-12.1,0.9-12.8-5.8
	c-1.2-11,11.3-12,15.4-7.5C249.6,326.2,249.1,333.8,243.8,336z"/>
</svg>
