<?xml version="1.0" encoding="utf-8"?>
<svg version="1.2" baseProfile="tiny" id="Layer_1" xmlns="http://www.w3.org/2000/svg" xmlns:xlink="http://www.w3.org/1999/xlink"
	 x="0px" y="0px" viewBox="0 0 595.3 595.3" xml:space="preserve">
<path fill="none" stroke="#000000" stroke-width="3" stroke-miterlimit="10" d="M327.3,486.7c0,0,11.2-0.2,20.7-4.2
	c12.1-5.1,16.3-16,18.3-23c3.5-12.5-0.3-23.1-9.5-31.4c-7.2-6.5-24.8-10.3-24.8-10.3s0.7-17.7-10-57c-7.8-28.5-29-54.7-70-63.1
	c-40.8-8.4-80.8-4.2-117,23.4c-35.5,27-46,85.4-46,85.4s-3.7-2.2-17-3.4c-8.9-0.8-23,0.2-32.3,10.3c-11.5,12.5-8.5,26.7,1.3,36.5
	c9.8,9.8,25,9.8,33.7,9.9c0,0-2.8,26.3-8,36c-13,24.3-7.3,43.1,18.3,45c23.8,1.8,38-12.3,38-12.3s10.9,24.7,37,23.3
	c19.5-1,29.3-16,29.3-16s7,22.3,27.2,24.8c12.7,1.6,38.8-14.5,38.8-14.5s13.4,18.7,32,16.3c8.8-1.1,21.1-11.1,28-24
	C321.5,526.5,327.3,486.7,327.3,486.7z"/>
<path fill="none" stroke="#000000" stroke-width="3" stroke-miterlimit="10" d="M199.2,326.3c14.2-2,15.7,6.3,3.7,8
	C189.8,336.2,187.8,327.9,199.2,326.3z"/>
<path fill="none" stroke="#000000" stroke-width="3" stroke-miterlimit="10" d="M251.7,321.7c11.7-1.4,17.5,6,3.7,7.7
	C242,330.9,237.7,323.3,251.7,321.7z"/>
<path fill="none" stroke="#000000" stroke-width="3" stroke-miterlimit="10" d="M233.7,342.8c16.8-1.2,25,10.3,18.5,24.7
	c-4.4,9.7-25.2,10.3-32,3C212.2,362,219.2,343.8,233.7,342.8z"/>
</svg>
