<?xml version="1.0" encoding="utf-8"?>
<svg version="1.2" baseProfile="tiny" id="Layer_1" xmlns="http://www.w3.org/2000/svg" xmlns:xlink="http://www.w3.org/1999/xlink"
	 x="0px" y="0px" viewBox="0 0 595.3 595.3" xml:space="preserve">
<path fill="none" stroke="#000000" stroke-width="3" stroke-miterlimit="10" d="M152,125.7c0,0-14.9-2.7-28.3-6.7
	c-17.5-5.3-33.8-5.4-38,9c-2.8,9.5,8.8,26.6,24.8,37.8c9.3,6.5,37.5,15.9,37.5,15.9s9.7,62.4,12.5,78.8
	c4.7,28.1,24.5,62.8,32.5,77.5c10.8,19.8,36.5,36.1,44.8,40c24.5,11.5,44-14.8,44-14.8s4.9,7.4,11.8,10.8c8.9,4.4,15.4,5.4,24.4,3.6
	c5.2-1,10.9-3.3,14-10.9c2.2-5.4,1.6-10.1,0.6-20.1c0,0,21,8.9,28.9,2.6c4.6-3.7,6.4-10.4,6.1-19.6c-0.1-3.1-1.2-12.4-4.8-18.2
	c0,0,35.6,3.7,32.3-38.7c-1.4-18.4-63-99.8-63-99.8s71.9-33.1,59.2-54.3c-15.7-26-78.1,6.8-78.1,6.8s-0.1-58.7-37.6-84.7
	C249.4,22.6,196.1,17,170.3,60.3C150,94.6,152,125.7,152,125.7z"/>
<path fill="none" stroke="#000000" stroke-width="3" stroke-miterlimit="10" d="M243.4,72.1c-14.8-4.2-6.4-8.6,3.9-5.6
	C260.6,70.4,258.1,76.3,243.4,72.1z"/>
<path fill="none" stroke="#000000" stroke-width="3" stroke-miterlimit="10" d="M194.4,66c14-3.5,21.3,1.3,5,4.7
	C186,73.5,180.9,69.3,194.4,66z"/>
<path fill="none" stroke="#000000" stroke-width="3" stroke-miterlimit="10" d="M204,93c-0.8-6.5,3.6-10.2,11.5-8.8
	c6.4,1.2,10.7,7.4,5.5,13.1C217.3,101.5,205,101.5,204,93z"/>
</svg>
