<?xml version="1.0" encoding="utf-8"?>
<svg version="1.2" baseProfile="tiny" id="Layer_1" xmlns="http://www.w3.org/2000/svg" xmlns:xlink="http://www.w3.org/1999/xlink"
	 x="0px" y="0px" viewBox="0 0 595.3 595.3" xml:space="preserve">
<path fill="none" stroke="#000000" stroke-width="3" stroke-miterlimit="10" d="M276.5,247c0,0,9.7-5.4,16.2-17.3
	c5.7-10.6,13.7-30.3,16.7-44.8c5.5-25.9,2.1-54.6-18.9-54.6c-17.7,0-39,39.3-39,39.3s-4.8-14.6-24.5-51C210.5,88,174.7,80,152,80
	s-68.8,21.4-75,69c-5,38.5,0,74.5,0,74.5s-17.7-3.7-38-4c-16.4-0.3-39,7.7-39,19.7c0,19,28.7,39.1,41,45.3c10.1,5.1,34.4,10.9,43,11
	c0,0,10.5,46,15.5,80.5c3.2,21.9-3,71.1,22.5,68c22.8-2.8,26.9-22.4,26.9-22.4s7.7,23.6,33.8,22.3c19.5-1,26.8-24.4,26.8-24.4
	s15.4,15,28.9,12.5c12.5-2.3,18.6-30.5,18.6-30.5s17.5,12.7,31.5,11.5c8.8-0.7,33.6-13.8,29.1-54.9C313,317,276.5,247,276.5,247z"/>
<path fill="none" stroke="#000000" stroke-width="3" stroke-miterlimit="10" d="M115.8,126.5c11.6-3.3,14.4,7,2.5,9.7
	C105.8,139.2,102.8,130.2,115.8,126.5z"/>
<path fill="none" stroke="#000000" stroke-width="3" stroke-miterlimit="10" d="M162.5,112.5c11.4-3.1,19,3.4,1,8
	C150.1,123.9,148,116.5,162.5,112.5z"/>
<path fill="none" stroke="#000000" stroke-width="3" stroke-miterlimit="10" d="M147.8,135c8.1,1.5,17.6,16.1,11.3,22.5
	c-7.5,7.5-18.3,3.2-21.3-4C133.3,142.8,139.8,133.5,147.8,135z"/>
</svg>
