<?xml version="1.0" encoding="utf-8"?>
<svg version="1.2" baseProfile="tiny" id="Layer_1" xmlns="http://www.w3.org/2000/svg" xmlns:xlink="http://www.w3.org/1999/xlink"
	 x="0px" y="0px" viewBox="0 0 595.3 595.3" xml:space="preserve">
<path fill="none" stroke="#000000" stroke-width="3" stroke-miterlimit="10" d="M186.5,158c0,0-25.4,5-35,15c-12,12.5-16,22.5-13,33
	c1.7,6.1,15.2,11.7,22.8,13c6.5,1.1,22.3-2,22.3-2s5.2,39.6,8,56c4.7,28.1,18.8,62.5,26.8,77.3c10.8,19.8,32.7,38.1,41,42
	c24.5,11.5,44-14.8,44-14.8s4.9,7.4,11.8,10.8c8.9,4.4,15.4,5.4,24.4,3.6c5.2-1,10.9-3.3,14-10.9c2.2-5.4,4.5-10.3,3.5-20.3
	c0,0,18.1,9,26,2.8c4.6-3.7,9.4-9.8,10.5-19c0.4-3.1,1.3-15.8-2.4-21.5c0,0,35.6,6.4,32.3-36c-1.4-18.4-37.3-75.2-37.3-75.2
	s21.3-10.8,7.7-31.5c-15-22.7-40-27.3-40-27.3s5.3-80.9-35.3-107c-26.9-17.3-89.9-13-111,29.3C189.8,111,186.5,158,186.5,158z"/>
<path fill="none" stroke="#000000" stroke-width="3" stroke-miterlimit="10" d="M271.2,77.8c-15.9-2.4-9.5-8.5,1.6-6.8
	C285.5,73,286.3,80.1,271.2,77.8z"/>
<path fill="none" stroke="#000000" stroke-width="3" stroke-miterlimit="10" d="M221.5,75.8c15.1-2,19.5,3.4,1.3,6.7
	C210.7,84.7,206.5,77.7,221.5,75.8z"/>
<path fill="none" stroke="#000000" stroke-width="3" stroke-miterlimit="10" d="M237.8,99.5c-0.8-6.5,4.9-11.4,12.8-10
	c6.4,1.2,12.7,11.4,5,16.1C249.5,109.3,238.8,108,237.8,99.5z"/>
</svg>
