<?xml version="1.0" encoding="utf-8"?>
<svg version="1.2" baseProfile="tiny" id="Layer_1" xmlns="http://www.w3.org/2000/svg" xmlns:xlink="http://www.w3.org/1999/xlink"
	 x="0px" y="0px" viewBox="0 0 595.3 595.3" xml:space="preserve">
<path fill="none" stroke="#000000" stroke-width="3" stroke-miterlimit="10" d="M331,499c0,0,12.8-0.7,22.3-4.7
	c12.1-5.1,21.7-13.7,23.7-20.7c3.5-12.5-0.8-20.4-10-28.7c-7.2-6.5-26-5.7-26-5.7s3.4-24.6-7.3-63.9c-7.8-28.5-36.6-57.4-78-63.3
	c-44.4-6.3-78.5,3-114.7,30.6c-35.5,27-42.7,75.2-42.7,75.2s-8.4-7.9-21.7-9c-8.9-0.8-18.5-3-27.7,7c-11.5,12.5-8,33.7,1.8,43.5
	c9.8,9.8,21,16.7,29.6,16.8c0,0-5.5,20-10.7,29.7c-13,24.3-6,39.8,19.7,41.7C113.1,549.4,129,533,129,533s6.2,26,32.3,24.7
	c19.5-1,30.6-16,30.6-16s5.9,23.1,26,25.6c12.7,1.6,37.3-14.3,37.3-14.3s13.8,18.8,32.3,16.3c8.8-1.1,24.1-13.4,31-26.3
	C324.9,531.3,331,499,331,499z"/>
<path fill="none" stroke="#000000" stroke-width="3" stroke-miterlimit="10" d="M243.7,349.3c14.3,0.3,12.5,10.8,0.3,8.7
	C231.1,355.7,232.2,349.1,243.7,349.3z"/>
<path fill="none" stroke="#000000" stroke-width="3" stroke-miterlimit="10" d="M295.8,356.8c11.7,1.6,13.2,12.6-0.5,9.8
	C283.2,364.2,281.2,354.8,295.8,356.8z"/>
<path fill="none" stroke="#000000" stroke-width="3" stroke-miterlimit="10" d="M265.8,370.8c19,2.2,23.7,14.7,15.7,20.2
	c-8.7,6-22.6,2.8-29.4-4.5C244.2,378,249.8,369,265.8,370.8z"/>
</svg>
