<?xml version="1.0" encoding="utf-8"?>
<svg version="1.2" baseProfile="tiny" id="Layer_1" xmlns="http://www.w3.org/2000/svg" xmlns:xlink="http://www.w3.org/1999/xlink"
	 x="0px" y="0px" viewBox="0 0 595.3 595.3" xml:space="preserve">
<path fill="none" stroke="#000000" stroke-width="3" stroke-miterlimit="10" d="M116,154.8c0,0-7.1,5.5-15,14.3
	c-6.4,7.1-12.7,21.4-12.6,33c0.1,10.5,2.4,25.3,18.4,31c10.7,3.8,24.9-11.3,24.9-11.3s20.2,59,26.7,75.9c8,20.7,16.7,33.7,29.7,48.7
	c14.7,17,20.4,24,28.8,27.9c24.5,11.5,33.6-12.6,33.6-12.6s9.2,7.5,16.1,10.9c7.5,3.6,17.3,6.6,26.3,4.8c5.2-1,14.5-5.9,16.5-14.9
	c1.3-5.7,1.6-9.6-3.1-16.8c0,0,19.3,8,28.1,4c5.4-2.4,10.5-7.1,10.1-16.3c-0.1-3.1-2.6-13.5-6.3-19.3c0,0,48.6,10.3,28.3-21.3
	c-27.4-42.4-40-85.7-40-85.7s19.8-5.1,20.3-26.8c0.9-39-49-56.5-49-56.5s-22.4-82.7-68.9-103.8c-47.6-21.5-99-5.8-113.5,44
	C104,102.9,116,154.8,116,154.8z"/>
<path fill="none" stroke="#000000" stroke-width="3" stroke-miterlimit="10" d="M188,51c-12.5-1.7-13.4-8.8-0.3-7.8
	C201.6,44.2,200.5,52.7,188,51z"/>
<path fill="none" stroke="#000000" stroke-width="3" stroke-miterlimit="10" d="M144,56.9c12.6-6.9,17.3,0.8,4.7,4.8
	C138.2,64.9,133.5,62.7,144,56.9z"/>
<path fill="none" stroke="#000000" stroke-width="3" stroke-miterlimit="10" d="M161.2,71.7c-2-8.8,7.8-14.1,14.8-10.4
	c7.5,4,9.2,14.9,4.2,20.8C175.9,87.2,163.3,81,161.2,71.7z"/>
</svg>
