<?xml version="1.0" encoding="utf-8"?>
<svg version="1.2" baseProfile="tiny" id="Layer_1" xmlns="http://www.w3.org/2000/svg" xmlns:xlink="http://www.w3.org/1999/xlink"
	 x="0px" y="0px" viewBox="0 0 595.3 595.3" xml:space="preserve">
<path fill="none" stroke="#000000" stroke-width="3" stroke-miterlimit="10" d="M448.3,428.7c0,0,18.7,14.3,30.7,12.3
	c12-2,21.1-18.5,21.7-28.7c0.7-12.3-16-34.8-24.7-43.3c-11.3-11-31.1-24.1-31.1-24.1s-0.2-9.8-3.9-45.1
	c-1.5-14.1-12.3-48.1-37.3-68.8c-25.4-21-68.5-13.2-84,6c-14.7,18.2-17.8,25.2-17.8,25.2s-7.6-12.7-18.6-23.8
	c-10.3-10.4-31.6-5.4-39.8,7.6c-4.4,7.1-9.7,20.4,1,45.7c8.5,20.2,43,54.8,43,54.8S282,437,242,478c-31.6,32.4-17.8,55.4-6,58
	c16,3.5,30,1.5,30,1.5s5,23.7,21,20s41-15.5,41-15.5s4,22,21.8,21.2c12.7-0.6,26.7-19.7,26.7-19.7s11.3,18.5,24.3,9.5
	c14-9.7,17.9-18.1,31.2-50.5C440,483,448.3,428.7,448.3,428.7z"/>
<path fill="none" stroke="#000000" stroke-width="3" stroke-miterlimit="10" d="M416.6,271.2c9.7-3.8,4.6-10.9-4.1-7.2
	C403,268,407.8,274.7,416.6,271.2z"/>
<path fill="none" stroke="#000000" stroke-width="3" stroke-miterlimit="10" d="M434.2,274.8c4.8,11.2,6,17.3,3.3,9.3
	C434.8,276.2,431.7,268.9,434.2,274.8z"/>
<path fill="none" stroke="#000000" stroke-width="3" stroke-miterlimit="10" d="M429.7,303.6c-5.9,1.7-11.9-1.9-10.3-8.4
	c3-11.6,17.5-7.6,19.3-2.1C440,297.2,434.5,302.3,429.7,303.6z"/>
</svg>
