<?xml version="1.0" encoding="utf-8"?>
<svg version="1.2" baseProfile="tiny" id="Layer_1" xmlns="http://www.w3.org/2000/svg" xmlns:xlink="http://www.w3.org/1999/xlink"
	 x="0px" y="0px" viewBox="0 0 595.3 595.3" xml:space="preserve">
<path fill="none" stroke="#000000" stroke-width="3" stroke-miterlimit="10" d="M227.7,447c9.3,31.6,48.8,40.5,101.8,40.5
	s101.1,7.3,91-28c-20.5-71.8,6.6-184.2,6.6-184.2s36.5,16.2,62.2-16.7c27.4-35.1,18.1-65.9,1.7-77.1c-19.3-13.2-44.3,2.8-56.3,18.4
	c1.7-22.6,3.5-32.9-5.7-64.8c-13-45.3-57.3-47.3-100.3-30.5c-27.7,10.8-46.7,45.7-56,63.3c-11.8,22.4-18.7,42.3-20.3,60.3
	c-21,12.9-32,19.4-58.7,41.7c-21,17.6-42.9,60.9-14,66.6c14,2.8,41-8.7,53.7-16.3C227,347,222.5,429.5,227.7,447z"/>
<line fill="none" stroke="#000000" stroke-width="3" stroke-miterlimit="10" x1="157.1" y1="428.2" x2="201" y2="251"/>
<path fill="none" stroke="#000000" stroke-width="3" stroke-miterlimit="10" d="M128.5,400.7c2-0.1,39.6-17.1,39.6-17.1l33.1,35.5"
	/>
<path fill="none" stroke="#000000" stroke-width="3" stroke-miterlimit="10" d="M183.8,270.4l-10.4-7.4l14.6-19.9
	c0,0-10-14.7,6.6-35.7c12-13.2,23.8-12.9,32.2-6.1s13.5,16.8,1.9,34.2c-13.7,19.6-23.4,15.8-29.7,15.2L183.8,270.4z"/>
<path fill="none" stroke="#000000" stroke-width="3" stroke-miterlimit="10" d="M200.8,207.8c10-0.9,24,11.3,26.6,16.5"/>
<path fill="none" stroke="#000000" stroke-width="3" stroke-miterlimit="10" d="M193.8,219.9c10-0.9,24,11.3,26.6,16.5"/>
<path fill="none" stroke="#000000" stroke-width="3" stroke-miterlimit="10" d="M386.5,118.5c9.1-10.7-4.1-19.3-21.5-20.1
	c-15.7-0.7-33.6,8.7-23.2,22.9C351,133.8,379.2,127.2,386.5,118.5z"/>
<path fill="none" stroke="#000000" stroke-width="3" stroke-miterlimit="10" d="M420.2,163.8c-7.2,10,2.2,14.5,7.5,5.7"/>
<path fill="none" stroke="#000000" stroke-width="3" stroke-miterlimit="10" d="M422.7,147.3c-4,8,2,11.9,7.7,2.5"/>
<path fill="none" stroke="#000000" stroke-width="3" stroke-miterlimit="10" d="M410.5,144.7c-0.6,8.8,8,5.3,9.7-4.3"/>
<path fill="none" stroke="#000000" stroke-width="3" stroke-miterlimit="10" d="M334.9,102.4c3.7-1.2,16.1-4.6,11.8-3.6
	C343.4,99.6,330.5,103.8,334.9,102.4z"/>
<path fill="none" stroke="#000000" stroke-width="3" stroke-miterlimit="10" d="M380.4,95.2c2.6,0.2,18.3,3.8,15.7,3.1
	C393.4,97.6,375.9,94.8,380.4,95.2z"/>
</svg>
