<?xml version="1.0" encoding="utf-8"?>
<svg version="1.2" baseProfile="tiny" id="Layer_1" xmlns="http://www.w3.org/2000/svg" xmlns:xlink="http://www.w3.org/1999/xlink"
	 x="0px" y="0px" viewBox="0 0 595.3 595.3" xml:space="preserve">
<path fill="none" stroke="#000000" stroke-width="3" stroke-miterlimit="10" d="M372.8,467c0,0-0.6-9-1.4-22.7
	c-0.8-14.5-1.8-27.3-1.8-41.8c0-9.6,0.5-22.4,0-36.5c-0.8-23.6-3-47.5-3-47.5s-3.7-46-11.1-98.5c-10.8-77-50.9-102.5-97.4-97
	c-38,4.5-62.7,36.1-69.3,98c-4,37-3.7,91.5-3.7,91.5s3,27,7,51c1.9,11.3,3.9,27.7,5.5,44.5c1,10.9,2.2,14.8,3,28
	c0.5,9.2,1,25.5,1,25.5s-1.6,26.5,3.5,60.2c3.3,21.9,8,48.5,26.7,45.7c15-2.3,30.7-21.7,30.7-21.7s3.4,25,19.4,21.3
	c16-3.7,21.8-18,21.8-18s9.4,18,22.1,18c12.7,0,15.3-19.3,15.3-19.3s4,19.9,19.3,16C383,557.9,383,531.2,377,496
	C375,484.3,372.8,467,372.8,467z"/>
<path fill="none" stroke="#000000" stroke-width="3" stroke-miterlimit="10" d="M241,149.7c9.1-2.8,2.5-9.9-3.3-6.2
	C230.3,148.3,233.6,152,241,149.7z"/>
<path fill="none" stroke="#000000" stroke-width="3" stroke-miterlimit="10" d="M273.6,135.7c7,0.4,10,5.7-0.3,5.6
	C268.5,141.3,266.3,135.2,273.6,135.7z"/>
<path fill="none" stroke="#000000" stroke-width="3" stroke-miterlimit="10" d="M268.9,162c-4.8,1.5-9.1-2.8-10.2-7.6
	c-1.4-6.3,8.6-9.4,12.3-4C273.4,153.9,275,160.1,268.9,162z"/>
</svg>
