<?xml version="1.0" encoding="utf-8"?>
<svg version="1.2" baseProfile="tiny" id="Layer_1" xmlns="http://www.w3.org/2000/svg" xmlns:xlink="http://www.w3.org/1999/xlink"
	 x="0px" y="0px" viewBox="0 0 595.3 595.3" xml:space="preserve">
<path fill="none" stroke="#000000" stroke-width="3" stroke-miterlimit="10" d="M382,260c0,0,13.7-15.3,16.5-25
	c2.5-8.6,6.8-24.5,7.5-33.5c0.8-10-4.5-28-16.5-30.5c-12-2.5-27.1,13.7-27.1,13.7s-5.9-40.6-50.7-83.6
	c-23.6-22.6-76.5-52.8-134.2-11C143,115,132,149,150,197c13.7,36.5,20.3,55.7,20.3,55.7S148,244,135,249c-9.3,3.6-13.7,12.1-15,23
	c-1.2,10,15.1,30.1,25,33.7c14,5,32.7,7.3,32.7,7.3S172,427,163,494.3c-2.9,22,8,64.8,26.7,62c15-2.3,27.8-17.8,27.8-17.8
	s15,19.7,31,16S280,534,280,534s11.3,16,24,16s26-13,26-13s12.6,22.4,28,18.5c22.7-5.7,26.2-22.9,33-62C406.1,407,382,260,382,260z"
	/>
<path fill="none" stroke="#000000" stroke-width="3" stroke-miterlimit="10" d="M188.3,136.3c11.6-9,18.3-2.5,5.8,7.8
	C187.3,149.5,180.5,142.3,188.3,136.3z"/>
<path fill="none" stroke="#000000" stroke-width="3" stroke-miterlimit="10" d="M241.5,105.5c11.5-9.1,17.4-2.8,5.9,6.8
	C239.5,119,233.3,112,241.5,105.5z"/>
<path fill="none" stroke="#000000" stroke-width="3" stroke-miterlimit="10" d="M237.6,151c-7.1,4-20,0.5-19.4-9.3
	c0.4-6.6,7.8-11.5,15.5-8.8C241,135.6,246.3,146.1,237.6,151z"/>
</svg>
