<?xml version="1.0" encoding="utf-8"?>
<svg version="1.2" baseProfile="tiny" id="Layer_1" xmlns="http://www.w3.org/2000/svg" xmlns:xlink="http://www.w3.org/1999/xlink"
	 x="0px" y="0px" viewBox="0 0 595.3 595.3" xml:space="preserve">
<path fill="none" stroke="#000000" stroke-width="3" stroke-miterlimit="10" d="M473.3,244c0,0,8.5-11.4,21.7-9.1
	c13.3,2.3,20.2,9.7,13.2,26.1c-5.1,12-16.5,27.1-25.9,36.7c-11,11.2-25.3,17.4-25.3,17.4s-22.6,48.5-44.6,66
	c-34.8,27.6-90.7,33-126.5,18.5c-23.5-9.5-37.7-41-39-63c-1.5-24.5,15-46,15-46s-6.9-9.8-11.6-17.2c-5.4-8.5-12.5-24.9-12.6-33.7
	c0-8.6,4.7-16.2,16.7-15.1c16.5,1.5,26.8,26.9,32.2,29.2c0,0,11.1-4.8-20-60.7c-13.7-24.6-10.7-44,2.7-55.7
	c18.1-15.8,35.3-3.3,35.3-3.3s2.7-21.3,23-22.3c19.5-1,28.6,17.3,28.6,17.3s8.5-24.4,27.7-21c17,3,28.3,19.3,28.3,19.3
	s7.2-20,23.7-20c18.8,0,36.3,12,43,63.7C483.4,205.2,473.3,244,473.3,244z"/>
<path fill="none" stroke="#000000" stroke-width="3" stroke-miterlimit="10" d="M480,182.3c0.5,9.1-0.1,13.4,0,6.9
	C480.2,179.9,479.7,178.1,480,182.3z"/>
<path fill="none" stroke="#000000" stroke-width="3" stroke-miterlimit="10" d="M326.2,111.8c4.3-0.4,3.7-0.3,0.7-0.1
	C322.3,112.2,322.6,112.2,326.2,111.8z"/>
<path fill="none" stroke="#000000" stroke-width="3" stroke-miterlimit="10" d="M475.9,231.8c-0.3,1.6,1.1-6,0.7-4
	c-0.7,4-1.9,10.4-1.2,6.8C476.2,230.2,476.5,229,475.9,231.8z"/>
</svg>
