<?xml version="1.0" encoding="utf-8"?>
<svg version="1.2" baseProfile="tiny" id="Layer_1" xmlns="http://www.w3.org/2000/svg" xmlns:xlink="http://www.w3.org/1999/xlink"
	 x="0px" y="0px" viewBox="0 0 595.3 595.3" xml:space="preserve">
<path fill="none" stroke="#000000" stroke-width="3" stroke-miterlimit="10" d="M378,421c-4-19,1.6-38,2.7-46
	c1.1-7.9,2.3-20.1,2.1-25.3c-0.4-9,1.5-22.8-1-35c-2.6-12.6-9-29.5-9-29.5s-12.9-28.5-37-42c-22.5-12.7-50.3-17.9-79.5-11
	c-30.5,7.3-53.4,30.4-70.5,55.2c-13.2,19.1-35.8,60.3-35.8,60.3s-16.8-0.7-29.5,5c-8.2,3.7-11.9,16-12.3,23.3
	c-0.6,11.9,2.8,17.2,9,23.7c6.3,6.6,13.9,8.8,19.8,8.6c0,0-14.4,32.1-9.3,57.2c2.7,13.3,8.8,27,24.3,32.5c24.3,8.6,38,1,38,1
	s9,17,30.7,15.3c18.4-1.4,32.7-20,32.7-20s9,18.6,26.9,17c18.9-1.7,29.1-14,29.1-14s15,20,33.7,14.7c20.8-5.9,35.2-29.9,37-49.5
	C382.3,438.2,378,421,378,421z"/>
<path fill="none" stroke="#000000" stroke-width="3" stroke-miterlimit="10" d="M309.6,256.3c10.4,2.6,7.8,8.3-0.6,6.3
	C301.5,260.7,300.4,254,309.6,256.3z"/>
<path fill="none" stroke="#000000" stroke-width="3" stroke-miterlimit="10" d="M343.2,268.7c6.2,5.9,3,9.7-3,5.3
	C332.7,268.7,336.8,262.6,343.2,268.7z"/>
<path fill="none" stroke="#000000" stroke-width="3" stroke-miterlimit="10" d="M323.2,272.2c10.5,3.2,12.5,14.6,4.7,16.2
	c-5.9,1.2-12.3-1.3-15.5-4.7C307,278,314.4,269.5,323.2,272.2z"/>
</svg>
