<?xml version="1.0" encoding="utf-8"?>
<svg version="1.2" baseProfile="tiny" id="Layer_1" xmlns="http://www.w3.org/2000/svg" xmlns:xlink="http://www.w3.org/1999/xlink"
	 x="0px" y="0px" viewBox="0 0 595.3 595.3" xml:space="preserve">
<path fill="none" stroke="#000000" stroke-width="3" stroke-miterlimit="10" d="M374.3,466.7c0,0-0.4-8.9-3-22.4
	c-3.4-17.8-4.3-28-6.7-43c-1.2-7.5-5.4-28.2-6.2-42.3c-1.1-20.1-4.5-45-4.5-45s-5.8-38.7-9.7-90.9c-3.3-45.5-29.6-98.7-81.6-99.5
	c-55.7-0.8-76.4,44.7-80,93.7c-2.8,38.4,1,94.3,1,94.3s-1.6,28.7-0.7,44.3c0.5,7.7,3.6,28.4,5,37.5c1.7,10.8,4.6,20.6,5.3,33.8
	c0.5,9.2,2.7,27,2.7,27s-0.3,26.7,9,67.3c5,21.6,8,48.5,26.7,45.7c15-2.3,30.7-21.7,30.7-21.7s3.4,25,19.4,21.3
	c16-3.7,21.8-18,21.8-18s9.4,18,22.1,18c12.7,0,15.3-19.3,15.3-19.3s4,19.9,19.3,16C383,557.9,383,531.2,377,496
	C375,484.3,374.3,466.7,374.3,466.7z"/>
<path fill="none" stroke="#000000" stroke-width="3" stroke-miterlimit="10" d="M233.7,167c11.3-5.8,15.2,2.5,2,7.3
	C223.8,178.7,218.7,174.7,233.7,167z"/>
<path fill="none" stroke="#000000" stroke-width="3" stroke-miterlimit="10" d="M283,165c9.9,2.3,11.5,11.5-2,8.3
	C265,169.6,271.2,162.3,283,165z"/>
<path fill="none" stroke="#000000" stroke-width="3" stroke-miterlimit="10" d="M259.3,205.7c-8,0-10.2-11.5-7.3-17.7
	c2.7-5.7,11-7,13.9-0.6C269.3,195,267,205.7,259.3,205.7z"/>
</svg>
