<?xml version="1.0" encoding="utf-8"?>
<svg version="1.2" baseProfile="tiny" id="Layer_1" xmlns="http://www.w3.org/2000/svg" xmlns:xlink="http://www.w3.org/1999/xlink"
	 x="0px" y="0px" viewBox="0 0 595.3 595.3" xml:space="preserve">
<path fill="none" stroke="#000000" stroke-width="3" stroke-miterlimit="10" d="M399,235c0,0,75.1-19.5,87.3-25.3
	c12.7-6,34-15,32.7-26.7c-1.1-9.3-15.7-14.7-32.7-13.3c-20.3,1.6-94.7,14-94.7,14s-4.5-30.1-16.7-59.7
	c-12.5-30.5-29.5-62.5-85.2-62.5c-39.3,0-64.8,9-84.1,54.4c-13.8,32.4-15.2,67.6-15.2,67.6s-85.1-9.7-99-10c-20.5-0.5-31,1-31,16
	c0,11,19,29,33,34.5c19.2,7.6,94,17,94,17s-3.7,124.2-12.7,191.6c-2.9,22,2.7,78.9,20.8,83.8c23.3,6.3,47.3-26.7,47.3-26.7
	s8,36.6,24,32.9c16-3.7,30.6-30.9,30.6-30.9s7.2,21.9,23.1,22.6c12.7,0.5,17.6-23.9,17.6-23.9s16.6,28,30.7,20.7
	c14.5-7.6,20.3-45.1,23.3-84.7C399,338.3,399,235,399,235z"/>
<path fill="none" stroke="#000000" stroke-width="3" stroke-miterlimit="10" d="M263.1,101.3c12.1-2.4,20.3,5.9,1.9,10.7
	C249.7,116,253,103.3,263.1,101.3z"/>
<path fill="none" stroke="#000000" stroke-width="3" stroke-miterlimit="10" d="M325.3,103c14.4,2.9,14.6,13.5-1.3,9.8
	C312.1,110,312.1,100.3,325.3,103z"/>
<path fill="none" stroke="#000000" stroke-width="3" stroke-miterlimit="10" d="M303,137.7c-5.5,4.7-12.2,5.1-15.2-3.7
	c-2.2-6.2,1.7-16.9,9.8-16C306.6,119,310.6,131.2,303,137.7z"/>
</svg>
