<?xml version="1.0" encoding="utf-8"?>
<svg version="1.2" baseProfile="tiny" id="Layer_1" xmlns="http://www.w3.org/2000/svg" xmlns:xlink="http://www.w3.org/1999/xlink"
	 x="0px" y="0px" viewBox="0 0 595.3 595.3" xml:space="preserve">
<path fill="none" stroke="#000000" stroke-width="3" stroke-miterlimit="10" d="M338,386c0,0,4.3-5.3,7-12
	c2.9-7.3,4.7-18.3,4.7-30.3c0-13.4-0.3-21.8-10.3-31.8c-7.1-7-22.8,7.6-22.8,7.6s-8.6-29.5-22.5-62.2c-13.2-30.9-59.6-55.8-99-32.8
	c-16.7,9.7-36.1,23.5-34.5,60.3c1.2,28.1,17,71.2,17,71.2s-18.4-1.1-22.1,16.6c-2.3,11.3,2.6,23.8,9.2,31.4c5.5,6.3,17,11.7,21,17
	c5,6.7,7.3,12,7.3,12s-3.3,52,3.7,86.3c4.4,21.7,16.3,50.8,35,48c15-2.3,27.7-22.4,27.7-22.4s10.1,24.6,26.1,20.9
	c16-3.7,18.2-16.9,18.2-16.9s9.1,15.7,21.7,15.7c12.7,0,15.7-17,15.7-17s9.3,19.3,22.3,10.3c14-9.7,25.2-63,12.2-95.5
	C357.9,418.5,338,386,338,386z"/>
<path fill="none" stroke="#000000" stroke-width="3" stroke-miterlimit="10" d="M192,266.9c12.3-5.3,7.3-11.9-3.7-6.9
	C180.6,263.5,180.9,271.7,192,266.9z"/>
<path fill="none" stroke="#000000" stroke-width="3" stroke-miterlimit="10" d="M225.5,238.7c8.6-5.2,20.2-0.9,6.2,7
	C221,251.7,217.8,243.4,225.5,238.7z"/>
<path fill="none" stroke="#000000" stroke-width="3" stroke-miterlimit="10" d="M225,276c-5.9,1.7-11.8-1-11.3-7.7
	c0.6-8.4,14.4-8.5,16.1-3C231,269.4,229.7,274.7,225,276z"/>
</svg>
