<?xml version="1.0" encoding="utf-8"?>
<svg version="1.2" baseProfile="tiny" id="Layer_1" xmlns="http://www.w3.org/2000/svg" xmlns:xlink="http://www.w3.org/1999/xlink"
	 x="0px" y="0px" viewBox="0 0 595.3 595.3" xml:space="preserve">
<path fill="none" stroke="#000000" stroke-width="3" stroke-miterlimit="10" d="M137.3,177c0,0-13.9,12.5-23.3,22.7
	c-12.3,13.3-18.2,25.6-22.3,40c-2.8,9.5,3.2,31,25.2,33c11.3,1,39.4-21.3,39.4-21.3s9.3,37.8,17.7,54c10.4,20.2,16.8,33.6,29.8,48.6
	c14.7,17,19.8,24,28.2,27.9c24.5,11.5,35-9.4,35-9.4s8.4,6.4,15.3,9.8c8.9,4.4,15.8,5.1,24.8,3.3c5.2-1,15.6-3,18.7-10.6
	c2.2-5.4,0.8-12.2-7-21.2c0,0,18.7,5.8,27.6,1.8c5.4-2.4,11-4.9,10.7-14c-0.1-3.1-2.6-13.5-6.3-19.3c0,0,43.3,9.4,28.3-21.3
	c-22.3-45.3-50.7-100.4-50.7-100.4s40.9,22,57.5-5.6c21.5-35.7-83.8-65.7-83.8-65.7S273.7,50.8,235,30
	c-45.7-24.5-98.6,0.7-111.7,49.3C112.8,118.3,137.3,177,137.3,177z"/>
<path fill="none" stroke="#000000" stroke-width="3" stroke-miterlimit="10" d="M205,55c-14,1.8-15.5-4.3-2.5-5.5
	C216.4,48.2,217.5,53.5,205,55z"/>
<path fill="none" stroke="#000000" stroke-width="3" stroke-miterlimit="10" d="M162.5,60.3c13.1-5.9,15.2,0.7,3.2,6.3
	C154.7,71.8,149.3,66.3,162.5,60.3z"/>
<path fill="none" stroke="#000000" stroke-width="3" stroke-miterlimit="10" d="M179.3,80.3c-2.1-6.2-1.5-20.4,6.3-18.9
	c6.4,1.2,14.1,14.6,10.5,21.4C192.3,90.1,182.3,89.3,179.3,80.3z"/>
</svg>
