<?xml version="1.0" encoding="utf-8"?>
<svg version="1.2" baseProfile="tiny" id="Layer_1" xmlns="http://www.w3.org/2000/svg" xmlns:xlink="http://www.w3.org/1999/xlink"
	 x="0px" y="0px" viewBox="0 0 595.3 595.3" xml:space="preserve">
<path fill="none" stroke="#000000" stroke-width="3" stroke-miterlimit="10" d="M378,421c-4-19,1.6-38,2.7-46
	c1.1-7.9,2.3-20.1,2.1-25.3c-0.4-9-1.6-23-4-33.5c-2.9-12.5-9.8-29-9.8-29s-9.8-26.9-33.9-40.5c-22.5-12.7-50.9-16.4-80.1-9.5
	c-30.5,7.3-52.1,25.4-69.2,50.2c-13.2,19.1-35.8,60.3-35.8,60.3s-16.8-0.7-29.5,5c-8.2,3.7-11.9,16-12.3,23.3
	c-0.6,11.9,2.8,17.2,9,23.7c6.3,6.6,13.9,8.8,19.8,8.6c0,0-14.4,32.1-9.3,57.2c2.7,13.3,8.8,27,24.3,32.5c24.3,8.6,38,1,38,1
	s9,17,30.7,15.3c18.4-1.4,32.7-20,32.7-20s9,18.6,26.9,17c18.9-1.7,29.1-14,29.1-14s15,20,33.7,14.7c20.8-5.9,35.2-29.9,37-49.5
	C382.3,438.2,378,421,378,421z"/>
<path fill="none" stroke="#000000" stroke-width="3" stroke-miterlimit="10" d="M332.7,277.5c10.2,1.7,7.4,7.2-1.1,5.3
	C324.3,281.2,324.3,276.1,332.7,277.5z"/>
<path fill="none" stroke="#000000" stroke-width="3" stroke-miterlimit="10" d="M362.2,293.3c7.1,4.8,2.8,9.7-4.2,4.3
	C351.8,292.9,354.3,288,362.2,293.3z"/>
<path fill="none" stroke="#000000" stroke-width="3" stroke-miterlimit="10" d="M341.8,295.5c10.8,2,9.2,16.3,3.7,20.7
	c-5,4-14.8,4.6-17.7-1.2C324,307.5,332.7,293.8,341.8,295.5z"/>
</svg>
