<?xml version="1.0" encoding="utf-8"?>
<svg version="1.2" baseProfile="tiny" id="Layer_1" xmlns="http://www.w3.org/2000/svg" xmlns:xlink="http://www.w3.org/1999/xlink"
	 x="0px" y="0px" viewBox="0 0 595.3 595.3" xml:space="preserve">
<path fill="none" stroke="#000000" stroke-width="3" stroke-miterlimit="10" d="M397.8,439.3c0,0,4.7-14.4,7.6-23.6
	c2.7-8.5,4.4-17.9,6.7-26c4-14.3,12-37.6,13.3-42.3c4.7-16.3,12.2-43.7,12.2-43.7s13.2-61.7-0.5-98.3c-10.6-28.5-47.1-37.6-67.3-41
	c-23.7-4-49.3,8.2-64.3,22.7c-15.7,15-38.3,56.3-47.7,76.3c-6.3,13.7-12.7,28.3-18.3,40.7c-5,11-17.4,45.3-20,53.7
	c-4.7,15.1-8.2,21.3-10,31.7c-2,11.7-16.3,61.3-16.3,61.3c0,0-2.7,10-15.3,39c-9.6,22-10.6,28.2,1.7,35c18.7,10.4,52-20.7,52-20.7
	s-1.1,36.3,22.7,37.3c20.5,0.9,43.6-23,43.6-23s-8.3,31,7.4,32c17.8,1.1,42.7-22,42.7-22s-1.6,27.3,9,26c8.3-1,20.1-41.5,28-70.7
	C393,452.8,397.8,439.3,397.8,439.3z"/>
<path fill="none" stroke="#000000" stroke-width="3" stroke-miterlimit="10" d="M366.5,195c15.3,1.9,14.6,7-0.2,7.6
	C349.7,203.3,352.4,193.3,366.5,195z"/>
<path fill="none" stroke="#000000" stroke-width="3" stroke-miterlimit="10" d="M414.5,211c5.3,11.3,1.8,13.9-7.2,3.8
	C399.6,206,410,201.3,414.5,211z"/>
<path fill="none" stroke="#000000" stroke-width="3" stroke-miterlimit="10" d="M397.5,227c0,14.1-11.4,23.2-19.8,18.5
	c-9.3-5.3-3.7-15.1,4.3-22.8C388.1,216.8,397.5,215.5,397.5,227z"/>
</svg>
