<?xml version="1.0" encoding="utf-8"?>
<svg version="1.2" baseProfile="tiny" id="Layer_1" xmlns="http://www.w3.org/2000/svg" xmlns:xlink="http://www.w3.org/1999/xlink"
	 x="0px" y="0px" viewBox="0 0 595.3 595.3" xml:space="preserve">
<path fill="none" stroke="#000000" stroke-width="3" stroke-miterlimit="10" d="M400.3,333.7c0,0,17,10.8,32.7,18.7
	c16,8,40.9,0.2,41.3-31.6c0.4-26.5-15.4-35.9-26-43c-20-13.5-38.8-17.7-38.8-17.7s9.6-45.3,5.4-103.5c-4.1-57.9-36.9-72.9-71.4-79.4
	C291,67.2,264.3,93,241,136.3s-36,109.3-36,109.3s-34.3,11.7-52,12c-19.4,0.3-40,10.7-47.2,29.3c-7.3,19-2.7,44,17.9,54.7
	c23.1,12,60-4,60-4s-28,130-21.3,189.3c2.5,22,22,40.8,40.7,38c15-2.3,26-23.3,26-23.3s6,28.7,22,25c16-3.7,32-24.3,32-24.3
	s10,24.6,22.7,24.7c12.7,0,28-21.3,28-21.3s19.3,25.6,34.7,21.7c22.7-5.7,25.9-73.7,26.7-123.1C395.7,403,400.3,333.7,400.3,333.7z"
	/>
<path fill="none" stroke="#000000" stroke-width="3" stroke-miterlimit="10" d="M328.3,126.4c13,7.1,6.2,12.8-5.3,7.1
	S315.3,119.3,328.3,126.4z"/>
<path fill="none" stroke="#000000" stroke-width="3" stroke-miterlimit="10" d="M376.3,150.9c10.2,6.6,9.4,14-3.3,6.5
	C360.4,149.8,366.1,144.3,376.3,150.9z"/>
<path fill="none" stroke="#000000" stroke-width="3" stroke-miterlimit="10" d="M337,182.5c-10.3,0.4-6.6-19.5-0.5-26.1
	s14.9-3,15.5,4.1C352.6,168.3,345.7,182.2,337,182.5z"/>
</svg>
