<?xml version="1.0" encoding="utf-8"?>
<svg version="1.2" baseProfile="tiny" id="Layer_1" xmlns="http://www.w3.org/2000/svg" xmlns:xlink="http://www.w3.org/1999/xlink"
	 x="0px" y="0px" viewBox="0 0 595.3 595.3" xml:space="preserve">
<path fill="none" stroke="#000000" stroke-width="3" stroke-miterlimit="10" d="M372.3,384.3c0,0,19.7,4.2,28.4-0.4
	c10.2-5.4,19.8-9.3,22.2-29.6c2.7-22.7-5-35.8-16-50.7c-14.2-19.2-41.3-28.7-41.3-28.7s0-40-12.3-104.7c-12.6-66-33-88.8-99-88.7
	c-38.9,0.1-72.7,19.7-88,77.9c-12.2,46.3-13.2,116.5-13.2,116.5s-14.8,8.2-35.4,30.2c-17.5,18.6-26.2,24.5-34,50
	c-5.9,19.5,6.7,40,28.7,43.3c19.6,3,42-7.3,42-7.3s4.7,62.7,3.2,132.2c-0.5,22.2,17.8,43.1,36.5,40.2c15-2.3,27.7-21.7,27.7-21.7
	s13.3,27.3,29.3,23.7c16-3.7,25.3-23.7,25.3-23.7s16.7,24,29.3,24c12.7,0,20-24,20-24s20,28.7,35.3,24.8
	c22.7-5.7,14.3-58.1,15.3-101.4C377.3,425,372.3,384.3,372.3,384.3z"/>
<path fill="none" stroke="#000000" stroke-width="3" stroke-miterlimit="10" d="M247,124.8c19-5.8,23.7,2.6,5.9,6.5
	C240.6,134,235.1,128.5,247,124.8z"/>
<path fill="none" stroke="#000000" stroke-width="3" stroke-miterlimit="10" d="M305.3,125.7c16.7,6.3,14.3,14.4-1.3,10.1
	C287.7,131.3,292.9,121,305.3,125.7z"/>
<path fill="none" stroke="#000000" stroke-width="3" stroke-miterlimit="10" d="M281,170.7c-8.7-1.7-8-13.5-5-21.3
	c2.7-7,15.1-6.3,17.7,1.7C296.2,158.3,289.2,172.2,281,170.7z"/>
</svg>
