<?xml version="1.0" encoding="utf-8"?>
<svg version="1.2" baseProfile="tiny" id="Layer_1" xmlns="http://www.w3.org/2000/svg" xmlns:xlink="http://www.w3.org/1999/xlink"
	 x="0px" y="0px" viewBox="0 0 595.3 595.3" xml:space="preserve">
<path fill="none" stroke="#000000" stroke-width="3" stroke-miterlimit="10" d="M398.5,421c0,0,0.3-16.5,1-23.5
	c0.4-4.4,1.6-17,2.3-26c0.8-10,1.2-17.2,0.5-29.5c-0.4-7.3-0.4-21.3-0.4-21.3s0.1-64.5-9.5-132.3c-8.8-62.6-33.4-129.8-104.7-130.7
	c-71.3-0.9-93.9,78.8-101.3,130c-6.2,42.8-4,110-4,110s-1.2,13.6-1.7,23.4c-0.4,10-2,27.7-3.3,38.7c-1.2,10-2.4,23.5-3.3,34
	c-0.7,7.3-2.3,20-2.3,20s-4.2,50.8-6.2,103.3c-0.8,22.1,2.1,50.4,20.7,47.6c15-2.3,31.3-26.1,31.3-26.1S227,563.7,243,560
	s28.5-23,28.5-23s13.5,27.1,26.1,27.1c12.7,0,24.4-24.6,24.4-24.6s15.1,25.9,30.5,22c22.7-5.7,31.5-29,38.5-68
	C398.5,451.8,398.5,421,398.5,421z"/>
<path fill="none" stroke="#000000" stroke-width="3" stroke-miterlimit="10" d="M271.9,122.3c14.7,0,16.7,10,0.5,10
	C259.7,132.3,259.7,122.3,271.9,122.3z"/>
<path fill="none" stroke="#000000" stroke-width="3" stroke-miterlimit="10" d="M334,122.3c14.7,0,11.4,10-3.6,10
	C319.3,132.3,320.3,122.3,334,122.3z"/>
<path fill="none" stroke="#000000" stroke-width="3" stroke-miterlimit="10" d="M303.5,172.7c-7.9,0.2-11.3-14.9-9.2-23.3
	c2.7-10.7,11-9.7,15.3-1C313.1,155.2,313.5,172.4,303.5,172.7z"/>
</svg>
