<?xml version="1.0" encoding="utf-8"?>
<svg version="1.2" baseProfile="tiny" id="Layer_1" xmlns="http://www.w3.org/2000/svg" xmlns:xlink="http://www.w3.org/1999/xlink"
	 x="0px" y="0px" viewBox="0 0 595.3 595.3" xml:space="preserve">
<path fill="none" stroke="#000000" stroke-width="3" stroke-miterlimit="10" d="M387.7,394.3c0,0,23.1,2.2,32.2-1.6
	c15-6.3,27.6-12.8,30-33c2.7-22.7-9-35.8-18.4-45.4c-9.8-10-33.8-16.6-33.8-16.6s10.9-49.4,9.3-112.6c-1.3-54.3-20-97.3-78-107.3
	c-69.8-12-99.3,31.8-114.7,90c-12.2,46.3-22,104.7-22,104.7s-43.3,14.7-60,28c-13,10.4-22.9,23.3-21.3,41.3c1.8,20.3,8,26.7,32,36
	c18.5,7.2,34,4,34,4s-18,73.3-19.5,142.8c-0.5,22.2,17.8,43.1,36.5,40.2c15-2.3,27.7-21.7,27.7-21.7s13.3,27.3,29.3,23.7
	c16-3.7,25.3-23.7,25.3-23.7s16.7,24,29.3,24c12.7,0,20-24,20-24s20,28.7,35.3,24.8c22.7-5.7,10.9-58.3,15.3-101.4
	C380.7,423.4,387.7,394.3,387.7,394.3z"/>
<path fill="none" stroke="#000000" stroke-width="3" stroke-miterlimit="10" d="M286,120.7c19-5.8,19.5,0.7,1.7,4.6
	C272.3,128.7,274.2,124.3,286,120.7z"/>
<path fill="none" stroke="#000000" stroke-width="3" stroke-miterlimit="10" d="M353.3,133.7c11.5,13.6,8.5,15.3-3.7,4.7
	C332,122.8,342.7,121,353.3,133.7z"/>
<path fill="none" stroke="#000000" stroke-width="3" stroke-miterlimit="10" d="M313.3,163.7c-8.7-1.7-8-13.5-5-21.3
	c2.7-7,15.1-6.3,17.7,1.7C328.5,151.3,321.5,165.2,313.3,163.7z"/>
</svg>
