<?xml version="1.0" encoding="utf-8"?>
<svg version="1.2" baseProfile="tiny" id="Layer_1" xmlns="http://www.w3.org/2000/svg" xmlns:xlink="http://www.w3.org/1999/xlink"
	 x="0px" y="0px" viewBox="0 0 595.3 595.3" xml:space="preserve">
<path fill="none" stroke="#000000" stroke-width="3" stroke-miterlimit="10" d="M376.8,425.3c-4-19,0.4-41.3,1.5-49.4
	c1.1-7.9,1.7-19,1.5-24.1c-0.4-9-0.8-18-2.8-31.8c-1.8-12.7-9-31.5-9-31.5s-7.4-22.4-31.5-36c-22.5-12.7-50.6-20.1-79.8-13.2
	c-30.5,7.3-52.9,31.4-70,56.1c-13.2,19.1-34.7,54.9-34.7,54.9s-16.7,4.3-29.3,10c-8.2,3.7-15.8,16.2-16.2,23.5
	c-0.6,11.9,2.8,21,9,27.5c6.3,6.6,14.8,3.5,20.7,1c0,0-15.1,30.1-9.9,55.2c2.7,13.3,9,27.3,24.5,32.8c24.3,8.6,38,2.3,38,2.3
	s10.3,13.5,31.9,11.8c18.4-1.4,30-11,30-11s11.4,12.8,29.3,11.1c18.9-1.7,28.7-10.1,28.7-10.1s17.4,15.6,36.1,10.3
	c20.8-5.9,33.9-25.2,35.8-44.8C382.8,445.4,376.8,425.3,376.8,425.3z"/>
<path fill="none" stroke="#000000" stroke-width="3" stroke-miterlimit="10" d="M310.6,279.5c10.6,1,8.2,6.2-0.5,5.5
	C302.4,284.3,301.2,278.7,310.6,279.5z"/>
<path fill="none" stroke="#000000" stroke-width="3" stroke-miterlimit="10" d="M349.1,284.5c9.7,3,5.7,8.2-2.3,5.7
	C338.7,287.7,341,282,349.1,284.5z"/>
<path fill="none" stroke="#000000" stroke-width="3" stroke-miterlimit="10" d="M329.5,303.3c3.5,0.9,5.5,3.1,2.8,6.2
	c-2.7,3-7.9,3-10-1.2C320.6,305.1,325,302.1,329.5,303.3z"/>
</svg>
