<?xml version="1.0" encoding="utf-8"?>
<svg version="1.2" baseProfile="tiny" id="Layer_1" xmlns="http://www.w3.org/2000/svg" xmlns:xlink="http://www.w3.org/1999/xlink"
	 x="0px" y="0px" viewBox="0 0 595.3 595.3" xml:space="preserve">
<path fill="none" stroke="#000000" stroke-width="3" stroke-miterlimit="10" d="M319.5,288c0,0,30.8-7.2,43.3-15.7
	c12.2-8.3,18.3-19.7,20.7-31.3c4-19.7-5.8-28.9-19.5-31.5c-17.4-3.3-33.9,10-33.9,10s11.1-42.3,0-82.2C318,94,277,89.7,254.3,89.7
	s-64.3,11-87.7,54.3s-31.3,67.7-31.3,67.7S108,196.3,90.7,198c-16.3,1.6-26.3,7.3-26.3,19.3c0,19,11.7,35.7,24,42
	c10.1,5.1,21,12,29.7,12.1c0,0-8,33.5-11,60.5c-2.4,22-6.5,83.5,13,92.5c20.8,9.6,34.5-15.5,34.5-15.5s17.4,39.8,43.5,38.5
	c19.5-1,23.5-22,23.5-22s21.5,19.5,35,17c12.5-2.3,11.5-17,11.5-17s13.5,17.5,27.5,16.3c8.8-0.7,17.2,3.6,18-45.8
	C314.2,354.7,319.5,288,319.5,288z"/>
<path fill="none" stroke="#000000" stroke-width="3" stroke-miterlimit="10" d="M218.1,126.9c11.9,1.8,8.9,9.7-3.1,7.8
	C203.5,133,204.3,124.8,218.1,126.9z"/>
<path fill="none" stroke="#000000" stroke-width="3" stroke-miterlimit="10" d="M261.5,135c11,5.5,5.2,13.2-6,8
	C246,138.6,251.2,129.9,261.5,135z"/>
<path fill="none" stroke="#000000" stroke-width="3" stroke-miterlimit="10" d="M236.3,146c7.5,3.5,1.8,19.9-4.5,26.3
	c-7.5,7.5-16.9,2.9-15.4-4.8C218.5,156.4,230.1,143.1,236.3,146z"/>
</svg>
