<?xml version="1.0" encoding="utf-8"?>
<svg version="1.2" baseProfile="tiny" id="Layer_1" xmlns="http://www.w3.org/2000/svg" xmlns:xlink="http://www.w3.org/1999/xlink"
	 x="0px" y="0px" viewBox="0 0 595.3 595.3" xml:space="preserve">
<path fill="none" stroke="#000000" stroke-width="3" stroke-miterlimit="10" d="M331,492c6.7,1.8,19.3-1.3,26.6-4.8
	c8.3-3.9,15.6-10,19.4-16.2c5.3-8.6,4.8-21.8-5.3-31c-7.2-6.6-28.4-6.6-28.4-6.6s0.2-15.4-4.5-55.9c-5-42.8-39-72-88.5-74.8
	c-43.7-2.4-78.8,3.8-107.8,34.8c-25.7,27.5-41.3,71.3-41.3,71.3s-14.1-4.8-26.8-6.3c-11-1.3-17.5-0.5-24.8,9.6
	c-7.9,10.9-8.5,31.7,3,42.9c6.3,6.1,14.8,15,25.3,14.5c0,0-4,24.2-11,33.5c-11.4,15.2-5.1,36.3,23,37c23.8,0.6,36.7-13.3,36.7-13.3
	s9.9,24.3,36,23c19.5-1,29.4-15.4,29.4-15.4s5.1,23.4,25.3,25.9c12.7,1.6,38.7-14.5,38.7-14.5s7.4,12.4,26,14.3
	c12.3,1.3,26.5-9.6,32.3-17C322.6,532.6,331,492,331,492z"/>
<path fill="none" stroke="#000000" stroke-width="3" stroke-miterlimit="10" d="M265.3,347.5c8.4,0.8,5.1,9.5-2.4,8.4
	C254.6,354.6,256,346.7,265.3,347.5z"/>
<path fill="none" stroke="#000000" stroke-width="3" stroke-miterlimit="10" d="M308.8,348.5c8,1.8,5,8.7-2.2,7.2
	C299.1,354.1,301.6,346.8,308.8,348.5z"/>
<path fill="none" stroke="#000000" stroke-width="3" stroke-miterlimit="10" d="M290.3,366c6.4,1.2,5.5,7.2,2.5,10.5
	c-2.7,3-10,2.7-11.9-1.6C279.6,371.8,283,364.6,290.3,366z"/>
</svg>
