<?xml version="1.0" encoding="utf-8"?>
<svg version="1.2" baseProfile="tiny" id="Layer_1" xmlns="http://www.w3.org/2000/svg" xmlns:xlink="http://www.w3.org/1999/xlink"
	 x="0px" y="0px" viewBox="0 0 595.3 595.3" xml:space="preserve">
<path fill="none" stroke="#000000" stroke-width="3" stroke-miterlimit="10" d="M93.8,486c3.4,15.9,22.6,30.6,40.8,32.3
	c15.5,1.4,31.8-4.5,36.3-17.8c5.8-17.1-10-93.3-10-93.3"/>
<path fill="none" stroke="#000000" stroke-width="3" stroke-miterlimit="10" d="M134.7,429.8c14.3-0.8,34.3,2.9,31.5,18.8
	C163.5,464,148,472,138,468.8c-9.7-3.1-22-23.7,2.9-38.1"/>
<line fill="none" stroke="#000000" stroke-width="3" stroke-miterlimit="10" x1="174" y1="374.3" x2="192" y2="469.5"/>
<path fill="none" stroke="#000000" stroke-width="3" stroke-miterlimit="10" d="M224.8,469.5c0.5-26.3-3.8-42.5-15.3-47.6
	c-16-7.1-23.5,15.9-23.5,15.9"/>
<path fill="none" stroke="#000000" stroke-width="3" stroke-miterlimit="10" d="M250,425.3c17-12,34.8-1.5,32.3,18.8
	c-1.4,11.1-13.3,20-26.3,16.3S233,437.3,250,425.3z"/>
<path fill="none" stroke="#000000" stroke-width="3" stroke-miterlimit="10" d="M295.5,451.8c12.5,8,35.8,6.9,32.5-2.1
	c-6.3-16.9-39-21.1-37.8-35.6c0.6-7.4,21.8-9.1,31.5,6.2"/>
<line fill="none" stroke="#000000" stroke-width="3" stroke-miterlimit="10" x1="331" y1="408.5" x2="388.7" y2="393"/>
<path fill="none" stroke="#000000" stroke-width="3" stroke-miterlimit="10" d="M350,379c-1.1,25.4,0.5,59.2,4,71.2
	c3.2,11,30.3-22.2,30.3-22.2"/>
<path fill="none" stroke="#000000" stroke-width="3" stroke-miterlimit="10" d="M297.6,513c0,0-14.4-15.9-24.6-13.7
	c-12.3,2.7-19.8,42.2-7.8,57.3c8.4,10.6,31.7-12.2,31.7-12.2"/>
<line fill="none" stroke="#000000" stroke-width="3" stroke-miterlimit="10" x1="306.8" y1="478.8" x2="320.3" y2="556.5"/>
<path fill="none" stroke="#000000" stroke-width="3" stroke-miterlimit="10" d="M349.7,552.3c0,0,0-31-12.9-37.5
	c-9.6-4.8-19.9,0.3-21.5,13.1"/>
<path fill="none" stroke="#000000" stroke-width="3" stroke-miterlimit="10" d="M367,500.7c-5.7,8.8-5.3,37.3,8.7,38
	c14,0.7,19.2-13.6,18.8-21c-0.3-7.5-3.7-25.8-26.2-12.8"/>
<line fill="none" stroke="#000000" stroke-width="3" stroke-miterlimit="10" x1="410.2" y1="494" x2="416.8" y2="532.6"/>
<line fill="none" stroke="#000000" stroke-width="3" stroke-miterlimit="10" x1="400.5" y1="473.5" x2="408.5" y2="466.5"/>
<path fill="none" stroke="#000000" stroke-width="3" stroke-miterlimit="10" d="M432.7,483c0.2,0.8,9.8,53.7,9.8,53.7"/>
<path fill="none" stroke="#000000" stroke-width="3" stroke-miterlimit="10" d="M438.3,497c2.3-7.2,8.3-14.2,13.3-12.8l30.5,8.3"/>
<path fill="none" stroke="#000000" stroke-width="3" stroke-miterlimit="10" d="M51.7,515.3L23,498c11.8,18.8,16,30.8,14.3,49.3
	c4.2,1.8,13.5,12.2,4.8,21.3c-8.7,9.2-24.3,8.5-27.8,0c-3.4-8.2,0.3-20.3,18.7-21.5"/>
<path fill="none" stroke="#000000" stroke-width="3" stroke-miterlimit="10" d="M585.5,478.7c-9.8,1.2-30.8-19.3-30.8-19.3l7,48
	c6.8,3.8,9.8,16.2-2.2,22.8c-13,6.5-29.5,0.7-29.7-10.2c-0.2-10.8,12.5-17.7,24.3-12.5"/>
</svg>
