<?xml version="1.0" encoding="utf-8"?>
<!-- Generator: Adobe Illustrator 19.1.1, SVG Export Plug-In . SVG Version: 6.00 Build 0)  -->
<svg version="1.2" baseProfile="tiny" id="Layer_1" xmlns="http://www.w3.org/2000/svg" xmlns:xlink="http://www.w3.org/1999/xlink"
	 x="0px" y="0px" viewBox="0 0 340.2 198.4" xml:space="preserve">
<polygon fill="none" stroke="#000000" stroke-miterlimit="10" points="20.3,102.9 39.8,102.9 47.1,122.4 54.6,102.9 75.5,102.9 
	82.6,122.4 89.9,102.9 110.1,102.9 89.6,163 75.6,163 65.2,132.4 53.9,163 40.5,163 "/>
<polygon fill="none" stroke="#000000" stroke-miterlimit="10" points="105.1,163 124.6,163 127.3,154.3 153,154.3 155.9,163 
	175.9,163 155,102.9 125.6,102.9 "/>
<polygon fill="none" stroke="#000000" stroke-miterlimit="10" points="133.4,138.3 140.5,118 147.6,138.3 "/>
<path fill="none" stroke="#000000" stroke-miterlimit="10" d="M18.2,76.2v19.5h60.7c11.2-0.2,19.9-15.8,14.5-23L81.7,57.2
	c-1.5-1.9-0.4-4,3.5-4h28.5v42.5h20.5V53.2h27.7V35.7H71.7C61.5,35.7,50.4,50.8,58,60l9.5,11.5c3,3.4,1.6,4.7-2.3,4.7H18.2z"/>
<polygon fill="none" stroke="#000000" stroke-miterlimit="10" points="157,95.7 176.5,95.7 179.6,87.3 204.6,87.3 207.3,95.7 
	227.1,95.7 206.5,35.7 177.3,35.7 "/>
<polygon fill="none" stroke="#000000" stroke-miterlimit="10" points="185,71.5 198.9,71.5 192.1,52 "/>
<path fill="none" stroke="#000000" stroke-miterlimit="10" d="M237.9,95.7v-60h36.6c14.4,0,24.1,8.6,24.6,17.3s-5.8,17.8-13,19.5
	c0,0,1.4,3.7,4.4,3.8l30.8,0.1v19.3h-37.4c-10,0-24.3-18-24.3-18l0.1,18H237.9z"/>
<path fill="none" stroke="#000000" stroke-miterlimit="10" d="M259,50.8v10h14.9c7,0,6.5-9.8,0-10H259z"/>
<path fill="none" stroke="#000000" stroke-miterlimit="10" d="M187,163h20.8v-18.8c0,0,17,18.8,25.3,18.8h52
	c18.7,0,23-17.3,18.3-23.7L292,124.5c-1.5-2.3,0-3.2,3-3.2h26.3v-18.5h-38.4c-16.8,0-21.2,18.5-13.9,26l8.5,9.4c2.8,2.5,2,5.1-3,5.1
	l-32.3,0.2c-6.4-0.2-6.7-4-6.7-4c24.3-16.8,4.4-35.9-8.4-35.8l-40.1,0.2V163z"/>
<path fill="none" stroke="#000000" stroke-miterlimit="10" d="M207.9,118.1v10.6h15c6.3,0,8.2-9.9,0-10.2L207.9,118.1z"/>
</svg>
