<?xml version="1.0" encoding="utf-8"?>
<!-- Generator: Adobe Illustrator 19.1.1, SVG Export Plug-In . SVG Version: 6.00 Build 0)  -->
<svg version="1.2" baseProfile="tiny" id="Layer_1" xmlns="http://www.w3.org/2000/svg" xmlns:xlink="http://www.w3.org/1999/xlink"
	 x="0px" y="0px" viewBox="0 0 595.3 595.3" xml:space="preserve">
<polyline fill="none" stroke="#000000" stroke-width="3" stroke-miterlimit="10" points="306.5,463 306.5,537.3 289.8,565 
	259.5,565 259.5,533.5 276,505 306.5,505 "/>
<polyline fill="none" stroke="#000000" stroke-width="3" stroke-miterlimit="10" points="126.5,465.1 126.5,539.4 109.8,567.1 
	79.5,567.1 79.5,535.6 96,507.1 126.5,507.1 "/>
<polyline fill="none" stroke="#000000" stroke-width="3" stroke-miterlimit="10" points="523,553.9 517.5,563.4 486.5,563.4 
	486.5,532.4 503.3,503.6 527.5,503.6 527.5,533.5 486.5,533.5 "/>
<polygon fill="none" stroke="#000000" stroke-width="3" stroke-miterlimit="10" points="320.7,533.4 337.7,504.5 363.5,504.5 
	363.5,565.7 320.7,565.7 "/>
<polyline fill="none" stroke="#000000" stroke-width="3" stroke-miterlimit="10" points="382.7,566.9 382.7,534.6 399.7,505.8 
	425.5,505.8 425.5,566.9 "/>
<polyline fill="none" stroke="#000000" stroke-width="3" stroke-miterlimit="10" points="199,566.9 199,534.6 216,505.8 
	241.8,505.8 241.8,566.9 "/>
<line fill="none" stroke="#000000" stroke-width="3" stroke-miterlimit="10" x1="442" y1="462.4" x2="442" y2="565.6"/>
<line fill="none" stroke="#000000" stroke-width="3" stroke-miterlimit="10" x1="486.5" y1="503.6" x2="442" y2="503.6"/>
<polygon fill="none" stroke="#000000" stroke-width="3" stroke-miterlimit="10" points="138.5,567.1 169.2,567.1 186.5,538.5 
	186.5,507.9 154.5,507.9 138.5,535.6 "/>
</svg>
