<?xml version="1.0" encoding="utf-8"?>
<!-- Generator: Adobe Illustrator 19.1.1, SVG Export Plug-In . SVG Version: 6.00 Build 0)  -->
<svg version="1.2" baseProfile="tiny" id="Layer_1" xmlns="http://www.w3.org/2000/svg" xmlns:xlink="http://www.w3.org/1999/xlink"
	 x="0px" y="0px" viewBox="0 0 595.3 595.3" xml:space="preserve">
<polygon fill="none" stroke="#000000" stroke-width="3" stroke-miterlimit="10" points="191.5,541.7 208.5,512.8 234.4,512.8 
	234.4,574 191.5,574 "/>
<polyline fill="none" stroke="#000000" stroke-width="3" stroke-miterlimit="10" points="294.4,574 251.5,574 251.5,541.7 
	268.5,512.8 294.4,512.8 "/>
<polyline fill="none" stroke="#000000" stroke-width="3" stroke-miterlimit="10" points="144.9,512.8 128.4,541.3 128.4,572.8 
	158.6,572.8 175.4,545.1 175.4,470.8 128.4,470.8 "/>
<polyline fill="none" stroke="#000000" stroke-width="3" stroke-miterlimit="10" points="308.8,575.7 308.8,544.2 340.6,487.9 "/>
<polyline fill="none" stroke="#000000" stroke-width="3" stroke-miterlimit="10" points="339.1,575.7 355.8,547.9 355.8,515.7 
	325.3,515.7 "/>
<polyline fill="none" stroke="#000000" stroke-width="3" stroke-miterlimit="10" points="408,566 402.5,575.5 371.5,575.5 
	371.5,544.5 388.3,515.8 412.5,515.8 412.5,545.7 371.5,545.7 "/>
<line fill="none" stroke="#000000" stroke-width="3" stroke-miterlimit="10" x1="433.1" y1="475.4" x2="433.1" y2="578.7"/>
<line fill="none" stroke="#000000" stroke-width="3" stroke-miterlimit="10" x1="477.6" y1="516.7" x2="433.1" y2="516.7"/>
<line fill="none" stroke="#000000" stroke-width="3" stroke-miterlimit="10" x1="308.8" y1="460.9" x2="308.8" y2="544.2"/>
</svg>
