<?xml version="1.0" encoding="utf-8"?>
<!-- Generator: Adobe Illustrator 19.1.1, SVG Export Plug-In . SVG Version: 6.00 Build 0)  -->
<svg version="1.2" baseProfile="tiny" id="Layer_1" xmlns="http://www.w3.org/2000/svg" xmlns:xlink="http://www.w3.org/1999/xlink"
	 x="0px" y="0px" viewBox="0 0 595.3 595.3" xml:space="preserve">
<polyline fill="none" stroke="#000000" stroke-width="2" stroke-miterlimit="10" points="343,0 318.3,25.7 324.3,39 307,55.7 
	303.7,81 323.3,97.7 329,129 311.7,157.7 311.7,179.7 329,191.7 336.3,211.7 323.3,233 314.3,267 300.3,283.7 293.7,307 263,319 
	259,339.7 243.7,349.7 255,376.3 254.3,404.3 261.7,421 251,443 264.3,471.7 281.7,486.3 281.7,505.7 297.6,530.3 328.3,551.7 
	337,573.7 335.7,595.3 "/>
<polyline fill="none" stroke="#000000" stroke-miterlimit="10" points="404.3,331 386.3,321 379,297.6 359.7,287.7 355,266.3 
	363.7,250.3 355,232.3 337.7,232.3 331,220.4 "/>
<polyline fill="none" stroke="#000000" stroke-miterlimit="10" points="159,512.3 185,505 195.7,485 213.7,471.7 235,471.7 
	256.7,455.2 "/>
</svg>
