<?xml version="1.0" encoding="utf-8"?>
<!-- Generator: Adobe Illustrator 19.1.1, SVG Export Plug-In . SVG Version: 6.00 Build 0)  -->
<svg version="1.2" baseProfile="tiny" id="Layer_1" xmlns="http://www.w3.org/2000/svg" xmlns:xlink="http://www.w3.org/1999/xlink"
	 x="0px" y="0px" viewBox="0 0 595.3 595.3" xml:space="preserve">
<polyline fill="none" stroke="#000000" stroke-width="2" stroke-miterlimit="10" points="59.7,0 103,43 139.7,59.7 159,105 
	155.7,131.7 171,140.3 188.5,136.8 212.3,155 233.7,157.7 243.1,179.3 234.3,191 230.3,203.7 239.7,214.3 238.6,244.2 227.7,259 
	225.7,271 242.3,279 247.7,297.6 231.7,311.7 235.7,329.7 223.7,357.7 231,383 226.3,402.3 241,425 232.3,447 233.7,465.7 
	253,486.3 258.3,507 247,522.3 251,541 239,561.7 244.3,582.3 254.3,595.3 "/>
<polyline fill="none" stroke="#000000" stroke-miterlimit="10" points="238,167.7 263,181 287.7,181 307.9,191.7 319,209.7 
	315.7,223.7 321.7,232.3 321.7,246.3 339.7,253.7 345,267.7 349.7,285 371.7,291.7 371.7,309.7 394.3,315 404.3,333.7 404.3,351 
	415.7,369 "/>
<polyline fill="none" stroke="#000000" stroke-miterlimit="10" points="310.6,195.9 334.3,192.3 361.7,208.3 401,214.3 421,233.7 
	454.3,239 472.3,254.3 472.3,271.7 482.3,293.7 509.7,304.3 533,320.3 557,325 578.3,343.7 "/>
</svg>
