<?xml version="1.0" encoding="utf-8"?>
<!-- Generator: Adobe Illustrator 19.1.1, SVG Export Plug-In . SVG Version: 6.00 Build 0)  -->
<svg version="1.2" baseProfile="tiny" id="Layer_1" xmlns="http://www.w3.org/2000/svg" xmlns:xlink="http://www.w3.org/1999/xlink"
	 x="0px" y="0px" viewBox="0 0 595.3 595.3" xml:space="preserve">
<image display="none" opacity="0.36" width="1280" height="720" xlink:href="1CAB66A0.jpg"  transform="matrix(1.9877 0 0 1.9877 -579.2354 -835.8524)">
</image>
<polyline fill="none" stroke="#000000" stroke-width="2" stroke-miterlimit="10" points="365,0 361,12.1 345.7,26.8 342.3,42.3 
	328.8,43.7 314.3,55.7 314.3,87.7 305.3,96.7 303,113 311.2,122.2 311.2,135.2 294.5,142.3 285,159 296.1,179.8 289.2,192.3 
	286.8,205.8 290.8,221.5 280.5,237.3 283.5,253.2 267.7,262 257.7,279.3 238.7,289.7 233.2,305 235.7,319.7 229.3,328.7 
	227.2,343.3 233.1,358.4 245,376.6 246.6,392 241.7,407.7 241,426.1 254.3,448 256.3,471 264.8,484.1 261.6,499.3 264.9,509.6 
	271.8,516.4 277,528.4 277.8,542.4 270.3,554.4 270.6,567.7 263,583.8 263,595.3 "/>
<polyline fill="none" stroke="#000000" stroke-miterlimit="10" points="311.2,129.3 337.5,133.5 345.3,149 353.7,151.7 355.4,166 
	367.5,176 369.8,192.5 358.9,208.3 360.8,225.8 352.3,244.8 361.8,257.3 361,276.8 371.7,292.3 374,313 379.8,326.9 378.4,345.3 
	386,359.3 383.3,370.7 390.8,386 384,401.3 394.4,418.5 394.3,438.3 406.7,453.3 "/>
<polyline fill="none" stroke="#000000" stroke-miterlimit="10" points="236.2,363.1 212,377.5 209.5,392.5 195.8,402.5 171,395 
	155.5,402.5 155.5,417 143.8,439.3 149.3,460.5 157.5,470.3 158.8,483.8 153,497.5 "/>
</svg>
