<?xml version="1.0" encoding="utf-8"?>
<!-- Generator: Adobe Illustrator 19.1.1, SVG Export Plug-In . SVG Version: 6.00 Build 0)  -->
<svg version="1.2" baseProfile="tiny" id="Layer_1" xmlns="http://www.w3.org/2000/svg" xmlns:xlink="http://www.w3.org/1999/xlink"
	 x="0px" y="0px" viewBox="0 0 595.3 595.3" xml:space="preserve">
<polyline fill="none" stroke="#000000" stroke-width="2" stroke-miterlimit="10" points="236.3,-3 241.7,30.3 221,51.7 214.6,79.5 
	199.7,88.3 200.3,103.7 217.7,127 212.3,159 223.7,184.3 215,219 191,253 188.3,276.3 198.3,297.6 181,323.1 187.7,349 205,359 
	199,381 203,403 186.3,418.3 187,438.3 200.3,469.7 192.3,500.3 174.1,511 181.7,538.3 174.1,575.7 176.3,595.3 "/>
<polyline fill="none" stroke="#000000" stroke-miterlimit="10" points="437.7,415 437.7,387 425.7,375.7 402.3,371 381.7,355.8 
	357,350.3 347.7,333 356.3,307.7 347.7,276.3 347.7,241.7 332.3,232.3 313,232.3 297.6,213 279,193 253.7,195.7 220.3,176.8 "/>
<polyline fill="none" stroke="#000000" stroke-miterlimit="10" points="285.7,570.3 271,553 250.3,553 238.3,527.7 248.3,499 
	266.3,481.7 265.7,451 241.7,429 235,403 215.7,387.7 215.7,370.3 203.9,362.9 "/>
</svg>
