<?xml version="1.0" encoding="utf-8"?>
<!-- Generator: Adobe Illustrator 19.1.1, SVG Export Plug-In . SVG Version: 6.00 Build 0)  -->
<svg version="1.2" baseProfile="tiny" id="Layer_1" xmlns="http://www.w3.org/2000/svg" xmlns:xlink="http://www.w3.org/1999/xlink"
	 x="0px" y="0px" viewBox="0 0 595.3 595.3" xml:space="preserve">
<polyline fill="none" stroke="#000000" stroke-width="2" stroke-miterlimit="10" points="491.7,0 481.5,17 483.2,36.9 475,47.6 
	461,55 456.3,78.3 433.7,109.7 435,132.3 444.3,145.8 445.7,163.7 424.3,174.3 424.3,193.7 410.3,217.7 402.3,248.3 375.7,263 
	367.7,281.7 341,297.6 335.7,331.7 312.3,349.7 300.3,383.7 266.3,409.7 253,428.3 248.3,447.7 255,473.7 248.3,503.7 233.7,518.3 
	233.7,536.3 239,557.7 227,581.7 227,595.3 "/>
<polyline fill="none" stroke="#000000" stroke-miterlimit="10" points="434.7,126.9 411.7,126.9 402.3,144.3 383,158.3 365.7,158.3 
	349,173.7 325,170.3 297.6,189 273,183.7 250.3,201.7 241,226.3 238.3,241.7 217,254.3 "/>
<polyline fill="none" stroke="#000000" stroke-miterlimit="10" points="346.6,294.3 367,318.3 369.7,330.3 366.3,349.7 369.7,359.7 
	391.7,366.3 397,377.7 391.7,391.7 401.7,404.3 401.7,420.3 392.3,431.7 392.3,450.3 401.7,467 420.3,481 420.3,492.3 413,511.7 
	423.7,523.7 "/>
</svg>
