<?xml version="1.0" encoding="utf-8"?>
<!-- Generator: Adobe Illustrator 19.1.1, SVG Export Plug-In . SVG Version: 6.00 Build 0)  -->
<svg version="1.2" baseProfile="tiny" id="Layer_1" xmlns="http://www.w3.org/2000/svg" xmlns:xlink="http://www.w3.org/1999/xlink"
	 x="0px" y="0px" viewBox="0 0 595.3 595.3" xml:space="preserve">
<polyline fill="none" stroke="#000000" stroke-width="2" stroke-miterlimit="10" points="246.3,0 240.3,17.7 243.3,31.7 235.7,43.7 
	232.3,71.7 242.3,81 243.7,93.7 236.3,104.3 243,121 232.3,156.3 235,165.7 253,179.7 253,203 242.7,210.3 242.7,230.3 232.3,239 
	226.3,256.3 233.7,278.3 231.7,291.7 239.7,305.7 244.3,333.8 259.8,346.4 269,362.3 290.3,380.3 306.3,391 311,410.3 311,429.7 
	324.3,470.3 339,480.3 344.6,502.9 342.3,520.3 359.7,539.7 356.3,568.3 366.3,595.3 "/>
<polyline fill="none" stroke="#000000" stroke-miterlimit="10" points="89.5,183.5 122,177 137.5,159 137.5,143 151.5,134.5 
	171,134.5 181.5,119.5 197,114.5 205,96 221,89.5 221,72 233.3,63.5 "/>
<polyline fill="none" stroke="#000000" stroke-miterlimit="10" points="337,351 327.5,339 332.3,323 342.5,305 335,282 335,256.5 
	312.5,244 304.5,228.5 304.5,213 280,202.5 269.5,187 253,183.5 "/>
<polyline fill="none" stroke="#000000" stroke-miterlimit="10" points="258,524 253,497 258,484 251,449 268,419 268,401 259.5,388 
	268,378.5 264.6,354.7 "/>
</svg>
