<?xml version="1.0" encoding="utf-8"?>
<!-- Generator: Adobe Illustrator 19.1.1, SVG Export Plug-In . SVG Version: 6.00 Build 0)  -->
<svg version="1.2" baseProfile="tiny" id="Layer_1" xmlns="http://www.w3.org/2000/svg" xmlns:xlink="http://www.w3.org/1999/xlink"
	 x="0px" y="0px" viewBox="0 0 595.3 595.3" xml:space="preserve">
<polyline fill="none" stroke="#000000" stroke-width="3" stroke-miterlimit="10" points="31.9,534.6 31.9,474 89.2,474 89.2,506 
	73.2,534.6 "/>
<line fill="none" stroke="#000000" stroke-width="3" stroke-miterlimit="10" x1="60.6" y1="509.6" x2="60.6" y2="474"/>
<polygon fill="none" stroke="#000000" stroke-width="3" stroke-miterlimit="10" points="106.2,502.5 123.2,473.7 149.1,473.7 
	149.1,534.9 106.2,534.9 "/>
<polyline fill="none" stroke="#000000" stroke-width="3" stroke-miterlimit="10" points="167.6,576 167.6,501.7 184.3,474 
	214.6,474 214.6,505.5 198.1,534 167.6,534 "/>
<polyline fill="none" stroke="#000000" stroke-width="3" stroke-miterlimit="10" points="228,576 228,501.7 244.8,474 275,474 
	275,505.5 258.5,534 228,534 "/>
<polyline fill="none" stroke="#000000" stroke-width="3" stroke-miterlimit="10" points="327.2,524.7 321.7,534.2 290.7,534.2 
	290.7,503.2 307.5,474.4 331.7,474.4 331.7,504.3 290.7,504.3 "/>
<polyline fill="none" stroke="#000000" stroke-width="3" stroke-miterlimit="10" points="393.2,432.2 393.2,506.4 376.4,534.2 
	346.2,534.2 346.2,502.7 362.7,474.2 393.2,474.2 "/>
<polyline fill="none" stroke="#000000" stroke-width="3" stroke-miterlimit="10" points="457.2,502.7 457.2,534.2 487.4,534.2 
	504.2,506.4 504.2,474.2 473.7,474.2 "/>
<line fill="none" stroke="#000000" stroke-width="3" stroke-miterlimit="10" x1="457.2" y1="502.7" x2="497.4" y2="432.2"/>
<polyline fill="none" stroke="#000000" stroke-width="3" stroke-miterlimit="10" points="522.4,476 522.4,535.3 547.6,535.3 "/>
<polyline fill="none" stroke="#000000" stroke-width="3" stroke-miterlimit="10" points="563.4,476 563.4,508 522.4,579.5 "/>
</svg>
