<?xml version="1.0" encoding="utf-8"?>
<!-- Generator: Adobe Illustrator 19.1.1, SVG Export Plug-In . SVG Version: 6.00 Build 0)  -->
<svg version="1.2" baseProfile="tiny" id="Layer_1" xmlns="http://www.w3.org/2000/svg" xmlns:xlink="http://www.w3.org/1999/xlink"
	 x="0px" y="0px" viewBox="0 0 595.3 595.3" xml:space="preserve">
<polygon fill="none" stroke="#000000" stroke-width="3" stroke-miterlimit="10" points="271.1,543.5 301.8,543.5 319.1,514.8 
	319.1,484.2 287.1,484.2 271.1,512 "/>
<polyline fill="none" stroke="#000000" stroke-width="3" stroke-miterlimit="10" points="439.5,544.4 456.8,515.1 456.8,484.4 "/>
<line fill="none" stroke="#000000" stroke-width="3" stroke-miterlimit="10" x1="461.5" y1="472.4" x2="467.5" y2="462.8"/>
<polyline fill="none" stroke="#000000" stroke-width="3" stroke-miterlimit="10" points="332.5,543.8 332.5,513.8 349.1,483.8 
	380.5,483.8 "/>
<polyline fill="none" stroke="#000000" stroke-width="3" stroke-miterlimit="10" points="94.2,484.2 94.2,543.5 119.5,543.5 "/>
<polyline fill="none" stroke="#000000" stroke-width="3" stroke-miterlimit="10" points="135.2,484.2 135.2,516.2 94.2,587.7 "/>
<polyline fill="none" stroke="#000000" stroke-width="3" stroke-miterlimit="10" points="21.6,543.8 21.6,458.1 78.1,458.1 
	78.1,516.9 63.1,543.8 "/>
<line fill="none" stroke="#000000" stroke-width="3" stroke-miterlimit="10" x1="49.9" y1="493.6" x2="49.9" y2="458.1"/>
<polyline fill="none" stroke="#000000" stroke-width="3" stroke-miterlimit="10" points="200,543.8 200,458.1 256.5,458.1 
	256.5,516.9 241.5,543.8 "/>
<line fill="none" stroke="#000000" stroke-width="3" stroke-miterlimit="10" x1="228.2" y1="493.6" x2="228.2" y2="458.1"/>
<polyline fill="none" stroke="#000000" stroke-width="3" stroke-miterlimit="10" points="382.6,544.4 382.6,512.1 399.6,483.3 
	425.5,483.3 425.5,544.4 "/>
<polyline fill="none" stroke="#000000" stroke-width="3" stroke-miterlimit="10" points="473,544.4 473,512.1 490,483.3 
	515.8,483.3 515.8,544.4 "/>
<polyline fill="none" stroke="#000000" stroke-width="3" stroke-miterlimit="10" points="559.9,542.5 534.6,542.5 534.6,510.8 
	551.3,483.3 575.6,483.3 575.6,515.3 534.6,586.8 509.4,586.8 523.3,561.1 562.1,561.1 "/>
</svg>
