<?xml version="1.0" encoding="utf-8"?>
<!-- Generator: Adobe Illustrator 24.1.2, SVG Export Plug-In . SVG Version: 6.00 Build 0)  -->
<svg version="1.1" id="Layer_1" xmlns="http://www.w3.org/2000/svg" xmlns:xlink="http://www.w3.org/1999/xlink" x="0px" y="0px"
	 viewBox="0 0 1024 1024" style="enable-background:new 0 0 1024 1024;" xml:space="preserve">
<style type="text/css">
	.st0{fill:none;stroke:#000000;stroke-width:2;stroke-miterlimit:10;}
</style>
<path class="st0" d="M458.5,478.2c63.1,43.4-53,74.5-164.5,66.2c-110.5-8.2-160.2-31.7-156.7-59.3c4-31.3,85.9-48.7,172.5-48.7"/>
<path class="st0" d="M788.5,560.7c60.9,43.5-49.6,67.6-161.2,59.3c-110.5-8.2-160.2-31.7-156.7-59.3c4-31.3,77.7-48.7,164.3-48.7"/>
<path class="st0" d="M375.5,379.5c-11-37.6-41.6-58.9-69.1-51.8c-50.7,13.1-38.5,80.7-28.3,109.6"/>
<path class="st0" d="M364,354.7c41.4-46.2,93.2-77.3,139.1-87.3l52.2-55.9l41.5,61.7c51.4,4,182.2,56.9,212.8,88.6l67-32.7
	c15.8,49.6-23.7,86.5-17.9,136.1c30.1,41.9,43,82.9,44.6,132.8"/>
<path class="st0" d="M506.3,412.4c5.7,21.1,28.5,16.9,39,8.4c0.5,24.3,24.8,22.7,35.3,17.9"/>
<path class="st0" d="M472.9,386.3c10.7,2.9,11.5,11.8,10.2,17.7c-1.8,8.4-7.6,13.2-17.8,11.1c-8.3-1.7-14.3-8.8-11.9-19
	C455.7,386.6,463.7,383.8,472.9,386.3z"/>
<path class="st0" d="M669.4,449.9c10.7,2.9,11.5,11.8,10.2,17.7c-1.8,8.4-7.6,13.2-17.8,11.1c-8.3-1.7-14.3-8.8-11.9-19
	C652.1,450.2,660.2,447.4,669.4,449.9z"/>
<line class="st0" x1="34.2" y1="385.4" x2="255.8" y2="438.8"/>
<line class="st0" x1="472.5" y1="491.1" x2="572.3" y2="515.3"/>
<line class="st0" x1="801.4" y1="572.5" x2="988.4" y2="619.2"/>
<path class="st0" d="M309.8,436.4c77.9,0,126.2,24.1,148.7,41.8"/>
<path class="st0" d="M317,382.9c10.2-3.2,21.4,22.4,6.6,26.6C308.8,413.7,306.1,386.3,317,382.9z"/>
<path class="st0" d="M291.6,382.6c2-4.8,12.1-3.4,10.8,2.8C301.1,391.6,288.7,389.4,291.6,382.6z"/>
<path class="st0" d="M305.1,357.9c2-4.8,12.1-3.4,10.8,2.8C314.6,366.9,302.2,364.7,305.1,357.9z"/>
<path class="st0" d="M333.1,367.2c2-4.8,12.1-3.4,10.8,2.8C342.6,376.2,330.2,374,333.1,367.2z"/>
<path class="st0" d="M799.2,488.8c-11-37.6-41.6-58.9-69.1-51.8c-50.7,13.1-49.4,55-47.3,79.1"/>
<path class="st0" d="M735,489.5c10.2-3.2,21.4,22.4,6.6,26.6C726.8,520.3,724.1,492.9,735,489.5z"/>
<path class="st0" d="M709.6,489.2c2-4.8,12.1-3.4,10.8,2.8C719.1,498.2,706.7,496.1,709.6,489.2z"/>
<path class="st0" d="M723.1,464.5c2-4.8,12.1-3.4,10.8,2.8C732.6,473.5,720.2,471.3,723.1,464.5z"/>
<path class="st0" d="M751.1,473.8c2-4.8,12.1-3.4,10.8,2.8C760.6,482.8,748.2,480.6,751.1,473.8z"/>
<path class="st0" d="M635,512c77.9,0,131,31,153.5,48.7"/>
</svg>
