<?xml version="1.0" encoding="utf-8"?>
<!-- Generator: Adobe Illustrator 24.1.2, SVG Export Plug-In . SVG Version: 6.00 Build 0)  -->
<svg version="1.1" id="Layer_1" xmlns="http://www.w3.org/2000/svg" xmlns:xlink="http://www.w3.org/1999/xlink" x="0px" y="0px"
	 viewBox="0 0 1024 1024" style="enable-background:new 0 0 1024 1024;" xml:space="preserve">
<style type="text/css">
	.st0{fill:none;stroke:#000000;stroke-width:2;stroke-miterlimit:10;}
</style>
<path class="st0" d="M458.5,478.2c63.1,43.4-53,74.5-164.5,66.2c-110.5-8.2-160.2-31.7-156.7-59.3c4-31.3,85.9-48.7,172.5-48.7"/>
<path class="st0" d="M788.5,560.7c60.9,43.5-49.6,67.6-161.2,59.3c-110.5-8.2-160.2-31.7-156.7-59.3c4-31.3,77.7-48.7,164.3-48.7"/>
<path class="st0" d="M638.2,506.1c-27.7,32.9-38.3,70.5-10.6,76.8c74,16.9,129.3-29.4,170.5-22.2"/>
<path class="st0" d="M313.9,431.4c-27.7,32.9-38.3,70.5-10.6,76.8c74,16.9,115.4-47,164.6-27.2"/>
<path class="st0" d="M313.9,431.4c41.9-60.9,121.5-149.3,189.3-164l52.2-55.9l41.5,61.7c51.4,4,182.2,56.9,212.8,88.6l67-32.7
	c15.8,49.6-23.7,86.5-17.9,136.1c30.1,41.9,43,82.9,44.6,132.8"/>
<path class="st0" d="M506.3,412.4c5.7,21.1,28.5,16.9,39,8.4c0.5,24.3,24.8,22.7,35.3,17.9"/>
<path class="st0" d="M472.9,386.3c10.7,2.9,11.5,11.8,10.2,17.7c-1.8,8.4-7.6,13.2-17.8,11.1c-8.3-1.7-14.3-8.8-11.9-19
	C455.7,386.6,463.7,383.8,472.9,386.3z"/>
<path class="st0" d="M669.4,449.9c10.7,2.9,11.5,11.8,10.2,17.7c-1.8,8.4-7.6,13.2-17.8,11.1c-8.3-1.7-14.3-8.8-11.9-19
	C652.1,450.2,660.2,447.4,669.4,449.9z"/>
<line class="st0" x1="34.2" y1="385.4" x2="255.8" y2="438.8"/>
<line class="st0" x1="472.5" y1="491.1" x2="572.3" y2="515.3"/>
<line class="st0" x1="801.4" y1="572.5" x2="988.4" y2="619.2"/>
</svg>
