<?xml version="1.0" encoding="utf-8"?>
<!-- Generator: Adobe Illustrator 24.1.2, SVG Export Plug-In . SVG Version: 6.00 Build 0)  -->
<svg version="1.2" baseProfile="tiny" id="Layer_1" xmlns="http://www.w3.org/2000/svg" xmlns:xlink="http://www.w3.org/1999/xlink"
	 x="0px" y="0px" viewBox="0 0 1024 1024" overflow="visible" xml:space="preserve">
<path fill="none" stroke="#000000" stroke-width="2" stroke-miterlimit="10" d="M687.2,395.5C647.2,338.1,578.6,279,519.5,267.4
	l-52.2-55.9l-41.5,61.7c-51.4,4-182.2,56.9-212.8,88.6l-67-32.7c-15.8,49.6,23.7,86.5,17.9,136.1c-30.1,41.9-43,82.9-44.6,132.8"/>
<path fill="none" stroke="#000000" stroke-width="2" stroke-miterlimit="10" d="M516.3,412.4c-5.7,21.1-28.5,16.9-39,8.4
	c-0.5,24.3-24.8,22.7-35.3,17.9"/>
<path fill="none" stroke="#000000" stroke-width="2" stroke-miterlimit="10" d="M549.7,386.3c-10.7,2.9-11.5,11.8-10.2,17.7
	c1.8,8.4,7.6,13.2,17.8,11.1c8.3-1.7,14.3-8.8,11.9-19C567,386.6,558.9,383.8,549.7,386.3z"/>
<path fill="none" stroke="#000000" stroke-width="2" stroke-miterlimit="10" d="M353.3,449.9c-10.7,2.9-11.5,11.8-10.2,17.7
	c1.8,8.4,7.6,13.2,17.8,11.1c8.3-1.7,14.3-8.8,11.9-19C370.5,450.2,362.5,447.4,353.3,449.9z"/>
<line fill="none" stroke="#000000" stroke-width="2" stroke-miterlimit="10" x1="988.4" y1="385.4" x2="743.4" y2="444.4"/>
<line fill="none" stroke="#000000" stroke-width="2" stroke-miterlimit="10" x1="539.1" y1="493.8" x2="425.9" y2="521.3"/>
<line fill="none" stroke="#000000" stroke-width="2" stroke-miterlimit="10" x1="149.1" y1="590.5" x2="34.2" y2="619.2"/>
<path fill="none" stroke="#000000" stroke-width="2" stroke-miterlimit="10" d="M210.9,545.6C256.9,613.1,334.6,657,366,633.3
	c36.4-27.4-1.2-97.9-38.1-117.4"/>
<path fill="none" stroke="#000000" stroke-width="2" stroke-miterlimit="10" d="M622.4,498.4c-2.1-36.8,20-102.9,74.9-102.9
	c47.6,0.1,49.9,60.5,44.8,70.7"/>
<line fill="none" stroke="#000000" stroke-width="2" stroke-miterlimit="10" x1="298.1" y1="629.1" x2="241.7" y2="660.7"/>
<line fill="none" stroke="#000000" stroke-width="2" stroke-miterlimit="10" x1="633.1" y1="441.7" x2="378.5" y2="584.1"/>
<line fill="none" stroke="#000000" stroke-width="2" stroke-miterlimit="10" x1="257.4" y1="697.3" x2="622.4" y2="488.6"/>
<line fill="none" stroke="#000000" stroke-width="2" stroke-miterlimit="10" x1="235.9" y1="648" x2="264.7" y2="711"/>
<line fill="none" stroke="#000000" stroke-width="2" stroke-miterlimit="10" x1="306.8" y1="632.6" x2="244.7" y2="667.3"/>
<line fill="none" stroke="#000000" stroke-width="2" stroke-miterlimit="10" x1="629.9" y1="451.6" x2="380.8" y2="591.1"/>
<line fill="none" stroke="#000000" stroke-width="2" stroke-miterlimit="10" x1="317.4" y1="635.6" x2="247.9" y2="674.4"/>
<line fill="none" stroke="#000000" stroke-width="2" stroke-miterlimit="10" x1="626.4" y1="463.1" x2="381.3" y2="600"/>
<line fill="none" stroke="#000000" stroke-width="2" stroke-miterlimit="10" x1="327.9" y1="638.8" x2="251.3" y2="681.7"/>
<line fill="none" stroke="#000000" stroke-width="2" stroke-miterlimit="10" x1="623.2" y1="473.7" x2="380.8" y2="609.3"/>
<line fill="none" stroke="#000000" stroke-width="2" stroke-miterlimit="10" x1="340" y1="639.8" x2="253.1" y2="688.8"/>
<line fill="none" stroke="#000000" stroke-width="2" stroke-miterlimit="10" x1="621" y1="481.7" x2="377.6" y2="618.7"/>
<polyline fill="none" stroke="#000000" stroke-width="2" stroke-miterlimit="10" points="740.5,430.4 774.1,427 854.5,376.3 
	865.9,345 721.9,379.7 712.3,397.9 "/>
<path fill="none" stroke="#000000" stroke-width="2" stroke-miterlimit="10" d="M215.7,551.2c-78.6,8.4-85.3,78.6-75.4,123.2
	C152.8,731.1,195.6,833,274,820.2c80.4-13.2,77.3-84.9,129.4-112.9c43.3-23.2,81.9-14.1,100.6-29.9c28.5-23.9,12.9-42.9-14.5-36.6
	c-27.4,6.3-57.5-11.6-40.1-53.3"/>
<path fill="none" stroke="#000000" stroke-width="2" stroke-miterlimit="10" d="M452.2,542.9c-67-17.3,13-54.3,15.3-78.7
	c2-20.9-31.4-33.2-79.4,11.5c-18.5,17.3-36.7,31.2-56.6,42.3"/>
</svg>
