<?xml version="1.0" encoding="utf-8"?>
<!-- Generator: Adobe Illustrator 24.1.2, SVG Export Plug-In . SVG Version: 6.00 Build 0)  -->
<svg version="1.2" baseProfile="tiny" id="Layer_3" xmlns="http://www.w3.org/2000/svg" xmlns:xlink="http://www.w3.org/1999/xlink"
	 x="0px" y="0px" viewBox="0 0 1024 1024" overflow="visible" xml:space="preserve">
<path fill="none" stroke="#000000" stroke-miterlimit="10" d="M385.8,492.5c0,0-22.6,6.8-29.6,24.5c-8.6,22,19.2,97.4,30.2,127.8
	c3.1,8.6-23.4,18.3-21.5,45.3c0.8,12.2,70.8-15.3,70.8-25.7c0-30.7-7.6-70.9-19.1-105.8c0,0,65.1-4.4,98-48.2
	c19.5-25.9,6.7-72.3-13-124.9c-19.7-52.6-47.4-76.5-47.4-76.5"/>
<path fill="none" stroke="#000000" stroke-miterlimit="10" d="M420.3,321.8c87.6-29,71.8-50.5,51.1-159.6
	c-21.5-113.8-22.2-104-120.1-64.8S237.4,128.6,286,233.2S330.2,351.7,420.3,321.8z"/>
<path fill="none" stroke="#000000" stroke-miterlimit="10" d="M476.2,384.1c-10.6,11.5-9.2,70.2-30,81.7s-98.8-12.8-109.4-23.9
	c-10.6-11-20.8-24.3-34.6-9.2s-42-0.9-35.6-17.9c6.5-17,24.9-21.1,61.4-13.8c11.8,2.4,35.3,6.1,36.4,6.2c19.6,2.4,34.1,1.9,37-4.9
	c4.6-10.6,0.3-44.4,4.9-52.2"/>
<path fill="none" stroke="#000000" stroke-miterlimit="10" d="M364.8,455.4c3.3,22.8-35.7,28.1-44,47.2
	c-8.6,19.9,10.8,60.5,26.6,96.5c9.9,22.6,21.5,41.3,20.6,49.4c-0.8,7-33.2,15.6-31.3,34.4c0.9,9.2,28.4-0.3,28.4-0.3"/>
<path fill="none" stroke="#000000" stroke-miterlimit="10" d="M366.4,225.3c41.9-13.8,63.6-0.5,68.2,23.4
	c4.9,25.7,10.6,42.7-35.6,55.5c-36.8,10.2-49.2,15.2-66.9-22C315.5,247.4,324.7,239.1,366.4,225.3z"/>
<path fill="none" stroke="#000000" stroke-miterlimit="10" d="M381.1,85.3c-2.8-19.7,1.1-26.3,4.4-33.6c-20.8-7.7-7.1-29,9.7-24.5
	c13.3,3.6,9.9,26.3-9.7,24.5"/>
<path fill="none" stroke="#000000" stroke-miterlimit="10" d="M313.9,111.9C305.2,99,298.8,94,286.7,86.6
	c-15.8,10.6-30.6-10.7-19.9-19.3c14.4-11.6,30.9,9.5,19.9,19.3"/>
<path fill="none" stroke="#000000" stroke-miterlimit="10" d="M372.3,334.8c-6.8,15.4-5.6,50.7-5.6,50.7s-40.9-2.7-70.1,1.6
	c-19.7,3.6-26.9,12.2-26.7,21.5"/>
</svg>
