<?xml version="1.0" encoding="utf-8"?>
<!-- Generator: Adobe Illustrator 24.1.2, SVG Export Plug-In . SVG Version: 6.00 Build 0)  -->
<svg version="1.2" baseProfile="tiny" id="Layer_1" xmlns="http://www.w3.org/2000/svg" xmlns:xlink="http://www.w3.org/1999/xlink"
	 x="0px" y="0px" viewBox="0 0 1024 1024" overflow="visible" xml:space="preserve">
<path fill="none" stroke="#000000" stroke-miterlimit="10" d="M439.3,414.1c0,0-34,2-41.6,21.6c-9,23.2,9.7,52.8,6.3,84.4
	c-1.6,15.5-27.4,26-23.1,48.5c3.6,18.5,60-11.2,66.3-26.4c11.9-28.5,4.2-65.7,4.2-86.8"/>
<path fill="none" stroke="#000000" stroke-miterlimit="10" d="M422.1,315.5c90.4-18.7,77.1-41.9,69.1-152.7
	C483,47.4,481.2,57,379.4,84.7s-116.7,17.9-80.5,127.4S329.1,334.9,422.1,315.5z"/>
<path fill="none" stroke="#000000" stroke-miterlimit="10" d="M460.6,304.9c22.6,6.7,42.1,46.7,53.2,68.9
	c11.2,22.4,37.7,86,37.6,118.8c-0.1,16.8,1.3,70-27.1,69.9c-26.8,0-24.6-19.2-19.5-29.7c9.9-20.4-1.2-66.1-15-97.6
	c-13.5-30.6-54.3-40.1-59.7-72.5"/>
<path fill="none" stroke="#000000" stroke-miterlimit="10" d="M376.1,322.9c-7.4,19.8-13,112.9-11,132.5s-35.7,28.1-44,47.2
	c-8.6,19.9,10.8,60.5,26.6,96.5c9.9,22.6,21.1,37.2,20.2,45.3c-0.8,7-32,25.3-22.7,38.7c9.2,13.5,68.2-15.8,66.1-32.4
	c-2.6-20.5-7.2-55-17.3-76.5"/>
<path fill="none" stroke="#000000" stroke-miterlimit="10" d="M391.1,210.2c43.2-8.9,60.3,9.3,62.1,33.6c1.9,26.1,8.3,43.7-41.8,51
	c-37.7,5.9-50.6,9.4-63.9-29.6C335,228.8,348,219.1,391.1,210.2z"/>
<path fill="none" stroke="#000000" stroke-miterlimit="10" d="M410.4,76.1c-0.5-19.9,4.1-26,8.2-32.9c-19.8-10-3.7-29.6,12.5-23.2
	c12.8,5.1,6.8,27.3-12.5,23.2"/>
<path fill="none" stroke="#000000" stroke-miterlimit="10" d="M340.6,94.8c-7.2-13.8-12.9-19.5-24.1-28.3
	C299.6,75.2,287.3,52.3,299,45c15.6-9.9,29.6,13,17.5,21.5"/>
<path fill="none" stroke="#000000" stroke-miterlimit="10" d="M357.1,409.5"/>
<path fill="none" stroke="#000000" stroke-miterlimit="10" d="M372.6,334.8"/>
<path fill="none" stroke="#000000" stroke-miterlimit="10" d="M443.5,547.7c15,20.9,55,5,58.7-8"/>
<path fill="none" stroke="#000000" stroke-miterlimit="10" d="M369.8,359.2c-11.3,29.3-17.4,93.5-15.3,114.5"/>
</svg>
