<?xml version="1.0" encoding="utf-8"?>
<!-- Generator: Adobe Illustrator 24.1.2, SVG Export Plug-In . SVG Version: 6.00 Build 0)  -->
<svg version="1.2" baseProfile="tiny" id="Layer_1" xmlns="http://www.w3.org/2000/svg" xmlns:xlink="http://www.w3.org/1999/xlink"
	 x="0px" y="0px" viewBox="0 0 1024 1024" overflow="visible" xml:space="preserve">
<path fill="none" stroke="#000000" stroke-miterlimit="10" d="M446.8,414.1c0,0-29.3,0-36.9,19.6c-9,23.2,9.2,55.8,5.8,87.4
	c-1.6,15.5-30.3,47.1-9.5,58.3c18.7,10,48.6-20.5,54.9-35.7c11.9-28.5,5.8-67.6,5.8-88.7"/>
<path fill="none" stroke="#000000" stroke-miterlimit="10" d="M422.1,315.5c90.4-18.7,77.1-41.9,69.1-152.7
	C483,47.4,481.2,57,379.4,84.7s-116.7,17.9-80.5,127.4S329.1,334.9,422.1,315.5z"/>
<path fill="none" stroke="#000000" stroke-miterlimit="10" d="M460.6,304.9c22.6,6.7,45.6,45.8,56.7,67.9
	c11.2,22.4,37.5,87.1,37.4,119.9c-0.1,16.8,0,69.7-28.4,69.6c-26.8,0-23.4-19.1-18.3-29.6c9.9-20.4-1.1-65.1-14.9-96.6
	c-13.5-30.6-57.6-41.1-63-73.5"/>
<path fill="none" stroke="#000000" stroke-miterlimit="10" d="M380.2,435.4c0,0-29.8-32.9-52.8-14.4c-21.4,17.2-10.5,36.8-3.9,65.6
	c6.5,28,18.3,56.6,17.4,64.7c-0.8,7-24.4,27.4-15.1,40.8c9.2,13.5,46.5-9.8,52.6-34.3c7.9-31.8,7.5-70.2-2.4-94.4"/>
<path fill="none" stroke="#000000" stroke-miterlimit="10" d="M376.1,322.9c-7.4,19.8-10.2,83.2-11.1,99.9"/>
<path fill="none" stroke="#000000" stroke-miterlimit="10" d="M391.1,210.2c43.2-8.9,60.3,9.3,62.1,33.6c1.9,26.1,8.3,43.7-41.8,51
	c-37.7,5.9-50.6,9.4-63.9-29.6C335,228.8,348,219.1,391.1,210.2z"/>
<path fill="none" stroke="#000000" stroke-miterlimit="10" d="M410.4,76.1c-0.5-19.9,4.1-26,8.2-32.9c-19.8-10-3.7-29.6,12.5-23.2
	c12.8,5.1,6.8,27.3-12.5,23.2"/>
<path fill="none" stroke="#000000" stroke-miterlimit="10" d="M340.6,94.8c-7.2-13.8-12.9-19.5-24.1-28.3
	C299.6,75.2,287.3,52.3,299,45c15.6-9.9,29.6,13,17.5,21.5"/>
<path fill="none" stroke="#000000" stroke-miterlimit="10" d="M357.1,409.5"/>
<path fill="none" stroke="#000000" stroke-miterlimit="10" d="M372.6,334.8"/>
<path fill="none" stroke="#000000" stroke-miterlimit="10" d="M453.6,555.6c12.7,8,46.7-2.6,54.8-23.7"/>
<path fill="none" stroke="#000000" stroke-miterlimit="10" d="M369.6,359.2c-5.9,16-11.5,50-12.6,59.4"/>
<path fill="none" stroke="#000000" stroke-miterlimit="10" d="M381.1,544.9c2.2,3.4,13.4,7.3,21.3,7.3"/>
</svg>
