<?xml version="1.0" encoding="utf-8"?>
<!-- Generator: Adobe Illustrator 24.1.2, SVG Export Plug-In . SVG Version: 6.00 Build 0)  -->
<svg version="1.2" baseProfile="tiny" id="Layer_1" xmlns="http://www.w3.org/2000/svg" xmlns:xlink="http://www.w3.org/1999/xlink"
	 x="0px" y="0px" viewBox="0 0 1024 1024" overflow="visible" xml:space="preserve">
<path fill="none" stroke="#000000" stroke-miterlimit="10" d="M460,497.7c0,0-11.9,1.6-30.3,12.1c-8.4,4.8-23.6,18-26.7,33.2
	c-3.1,15.3-6,55,16.1,55.4c22.2,0.4,22.4-43.7,34.8-50.1c9-4.6,80.8-24.3,77.9-62.2c-2.7-34.3-28.4-46.4-64.9-31.3"/>
<path fill="none" stroke="#000000" stroke-miterlimit="10" d="M422.3,316.2c91.1-15.2,78.7-38.9,74.9-149.9
	c-3.7-115.6-7.1-100.7-111.5-85.8c-103.9,14.8-114.5,16.9-82.5,127.7S328.6,332,422.3,316.2z"/>
<path fill="none" stroke="#000000" stroke-miterlimit="10" d="M468.5,304.1c23.9,13.4,48,54.6,59.9,84.6
	c13.5,33.9,32.5,94.5,25.4,129.8c-7.6,37.9-15.9,47.8-35.3,43c-22.1-5.4-11.3-27-7.2-40.6"/>
<path fill="none" stroke="#000000" stroke-miterlimit="10" d="M374.5,457.3c-8.7,20.3-0.5,32.9-11.5,48.8
	c-10.5,15.1-16.1,15.3-23.3,36.9c-7.3,21.9-9.3,48.3,8.8,51.6c16.7,3.1,32.7-24.4,35.4-41.6c3.7-23.7,75-55.6,69.7-97.3
	c-4.1-32-40.1-38.2-61.9-26.6"/>
<path fill="none" stroke="#000000" stroke-miterlimit="10" d="M376.1,321.7c-24.5,51-36,138.4-17.4,190.1"/>
<path fill="none" stroke="#000000" stroke-miterlimit="10" d="M397.9,209.6c43.5-7.2,59.9,11.6,60.8,36c0.9,26.2,6.6,44-43.7,49.3
	c-37.9,4.4-50.9,7.4-62.7-32C341.1,226.1,354.5,216.9,397.9,209.6z"/>
<path fill="none" stroke="#000000" stroke-miterlimit="10" d="M419.8,75.3c0.3-19.9,5.1-25.8,9.5-32.6C409.9,32,426.7,13,442.6,20.1
	c12.6,5.6,5.7,27.5-13.4,22.7"/>
<path fill="none" stroke="#000000" stroke-miterlimit="10" d="M345.5,86.9c-6.7-14.1-12.1-20-23-29.2c-17.2,8-28.6-15.3-16.7-22.2
	c16-9.3,29.1,14.1,16.7,22.2"/>
<path fill="none" stroke="#000000" stroke-miterlimit="10" d="M357.1,409.5"/>
<path fill="none" stroke="#000000" stroke-miterlimit="10" d="M372.6,334.8"/>
<path fill="none" stroke="#000000" stroke-miterlimit="10" d="M475.8,350.6c2.4,32.4,21.1,58.9,36.2,101.4"/>
<path fill="none" stroke="#000000" stroke-miterlimit="10" d="M374.5,334.6C358,368.2,354.7,488,364.9,503"/>
<path fill="none" stroke="#000000" stroke-miterlimit="10" d="M397.8,533.1c1.9,1.6,5.9,2.2,8,1.9"/>
</svg>
