<?xml version="1.0" encoding="utf-8"?>
<!-- Generator: Adobe Illustrator 24.1.2, SVG Export Plug-In . SVG Version: 6.00 Build 0)  -->
<svg version="1.2" baseProfile="tiny" id="Layer_1" xmlns="http://www.w3.org/2000/svg" xmlns:xlink="http://www.w3.org/1999/xlink"
	 x="0px" y="0px" viewBox="0 0 1024 1024" overflow="visible" xml:space="preserve">
<path fill="none" stroke="#000000" stroke-miterlimit="10" d="M401.3,554.4c-2.5,15.9-4,49.5,18.9,43.6c25.5-6.6,14.2-42.5,27.9-40
	c10,1.8,91.4,18.4,106,0.4s0.6-58.4-37.6-68.6"/>
<path fill="none" stroke="#000000" stroke-miterlimit="10" d="M424.9,317.7c91.6-11.5,80.2-35.6,81-146.7c1-115.7-3-101-107.9-90.3
	c-104.4,10.6-115.1,12.2-87.7,124.2C337.7,316.8,330.6,329.6,424.9,317.7z"/>
<path fill="none" stroke="#000000" stroke-miterlimit="10" d="M475.8,305.7c20.5,13.5,44.9,53.1,56.9,83
	c13.5,33.9,27.8,94.5,21.1,129.8"/>
<path fill="none" stroke="#000000" stroke-miterlimit="10" d="M405,510.1c-32.4-3.2-58.5,6.1-67.2,26.3
	c-10.1,23.4-16.3,61.9,6.3,56.6c15.9-3.7,25.9-19.9,37.2-33.2c11.3-13.3,83.2,5.9,97.2-22.7c12.5-25.5-21.1-45.9-45.4-50.6"/>
<path fill="none" stroke="#000000" stroke-miterlimit="10" d="M372.6,321.3c-39.2,40.5-33.9,169.5-18.7,197.2"/>
<path fill="none" stroke="#000000" stroke-miterlimit="10" d="M406.4,209.7c43.8-5.4,59.4,14.1,59.2,38.4
	c-0.2,26.2,4.8,44.2-45.7,47.5c-38,2.9-51.2,5.4-61.3-34.6C349,223.8,362.7,215.2,406.4,209.7z"/>
<path fill="none" stroke="#000000" stroke-miterlimit="10" d="M432.2,76.9c1.1-19.9,6.2-25.6,10.8-32.1
	c-18.9-11.5-1.3-29.8,14.3-22.1c12.4,6.1,4.6,27.8-14.3,22.1"/>
<path fill="none" stroke="#000000" stroke-miterlimit="10" d="M357.5,85.4c-6.1-14.3-11.3-20.5-21.8-30.1
	c-17.5,7.3-28-16.5-15.7-22.8c16.3-8.6,28.5,15.3,15.7,22.8"/>
<path fill="none" stroke="#000000" stroke-miterlimit="10" d="M357.1,409.5"/>
<path fill="none" stroke="#000000" stroke-miterlimit="10" d="M372.6,334.8"/>
<path fill="none" stroke="#000000" stroke-miterlimit="10" d="M491.1,350.8c14.9,37.2,40.6,77.1,40.2,145"/>
<path fill="none" stroke="#000000" stroke-miterlimit="10" d="M376.1,357.9c-8.8,31.7-22.7,123.2-5.8,154.1"/>
<path fill="none" stroke="#000000" stroke-miterlimit="10" d="M496.4,516.5c-6.7-1.6-12-1.2-17.3,0"/>
</svg>
