<?xml version="1.0" encoding="utf-8"?>
<!-- Generator: Adobe Illustrator 24.1.2, SVG Export Plug-In . SVG Version: 6.00 Build 0)  -->
<svg version="1.2" baseProfile="tiny" id="Layer_1" xmlns="http://www.w3.org/2000/svg" xmlns:xlink="http://www.w3.org/1999/xlink"
	 x="0px" y="0px" viewBox="0 0 1024 1024" overflow="visible" xml:space="preserve">
<path fill="none" stroke="#000000" stroke-miterlimit="10" d="M401.3,554.4c-2.5,15.9-4,49.5,18.9,43.6c25.5-6.6,14.2-42.5,27.9-40
	c10,1.8,91.4,18.4,106,0.4s0.6-58.4-37.6-68.6"/>
<path fill="none" stroke="#000000" stroke-miterlimit="10" d="M426.3,316.1c92-7.8,81.6-32.3,86.9-143.3
	c5.7-115.5,1.1-101-104.1-94.6c-104.7,6.3-115.5,7.5-92.7,120.5C339.2,311.6,331.6,324.2,426.3,316.1z"/>
<path fill="none" stroke="#000000" stroke-miterlimit="10" d="M477.1,306.3c27.3,12.2,51.7,61.8,63,99c10,33,71,116.8,49.3,132.3
	c-12,8.6-23.9,1.3-31.8-10"/>
<path fill="none" stroke="#000000" stroke-miterlimit="10" d="M405,510.1c-32.4-3.2-58.5,6.1-67.2,26.3
	c-10.1,23.4-16.3,61.9,6.3,56.6c15.9-3.7,25.9-19.9,37.2-33.2c11.3-13.3,83.2,5.9,97.2-22.7c12.5-25.5-21.1-45.9-45.4-50.6"/>
<path fill="none" stroke="#000000" stroke-miterlimit="10" d="M374.9,317.3c-36.5,50-34.2,151-21,201"/>
<path fill="none" stroke="#000000" stroke-miterlimit="10" d="M413.4,207.1c44-3.7,58.7,16.5,57.6,40.8c-1.3,26.2,3,44.3-47.6,45.6
	c-38.1,1.3-51.4,3.3-59.8-37.1C355.5,218.8,369.6,210.8,413.4,207.1z"/>
<path fill="none" stroke="#000000" stroke-miterlimit="10" d="M443.4,75.8c1.9-19.8,7.2-25.3,12.1-31.6
	C437,32,455.4,14.4,470.7,22.7c12.2,6.6,3.5,28-15.2,21.5"/>
<path fill="none" stroke="#000000" stroke-miterlimit="10" d="M368.4,81.2c-5.5-14.6-10.5-21-20.5-31c-17.7,6.6-27.3-17.7-14.8-23.4
	c16.7-7.9,27.8,16.4,14.8,23.4"/>
<path fill="none" stroke="#000000" stroke-miterlimit="10" d="M357.1,409.5"/>
<path fill="none" stroke="#000000" stroke-miterlimit="10" d="M372.6,334.8"/>
<path fill="none" stroke="#000000" stroke-miterlimit="10" d="M491.1,350.8c14.9,37.2,40.6,77.1,40.2,145"/>
<path fill="none" stroke="#000000" stroke-miterlimit="10" d="M388.1,359.1c-2.5,60.5-17.9,65.1-12,150.8"/>
<path fill="none" stroke="#000000" stroke-miterlimit="10" d="M496.4,516.5c-6.7-1.6-12-1.2-17.3,0"/>
</svg>
