<?xml version="1.0" encoding="utf-8"?>
<!-- Generator: Adobe Illustrator 24.1.2, SVG Export Plug-In . SVG Version: 6.00 Build 0)  -->
<svg version="1.1" id="Layer_1" xmlns="http://www.w3.org/2000/svg" xmlns:xlink="http://www.w3.org/1999/xlink" x="0px" y="0px"
	 viewBox="0 0 1024 1024" style="enable-background:new 0 0 1024 1024;" xml:space="preserve">
<style type="text/css">
	.st0{fill:none;stroke:#000000;stroke-miterlimit:10;}
</style>
<path class="st0" d="M401.3,554.4c-2.5,15.9-4,49.5,18.9,43.6c25.5-6.6,14.2-42.5,27.9-40c10,1.8,91.4,18.4,106,0.4
	s0.6-58.4-37.6-68.6"/>
<path class="st0" d="M428.8,314.8c92.2-3.9,82.9-28.8,92.9-139.5c10.6-115.2,5.4-100.9-100-98.9C316.8,78.3,306,79,324,192.9
	C342,306.7,333.8,318.9,428.8,314.8z"/>
<path class="st0" d="M478.7,307.7c30.7,10.6,47.6,73.7,71.8,104.1c18.2,22.9,76.9,80.2,62.5,98.1c-17.8,22.2-42.1-4.8-60.1-23.4
	c-12.7-13.1-24.8-32-24.8-32"/>
<path class="st0" d="M405,510.1c-32.4-3.2-58.5,6.1-67.2,26.3c-10.1,23.4-16.3,61.9,6.3,56.6c15.9-3.7,25.9-19.9,37.2-33.2
	c11.3-13.3,83.2,5.9,97.2-22.7c12.5-25.5-21.1-45.9-45.4-50.6"/>
<path class="st0" d="M375.3,313.6c-33.6,70.6-31.2,154.3-21.4,204.7"/>
<path class="st0" d="M422,205.4c44.1-1.8,58,19,55.8,43.2c-2.4,26.1,1.1,44.4-49.5,43.6c-38.1-0.3-51.5,1.1-58.2-39.6
	C363.6,214.7,378,207.3,422,205.4z"/>
<path class="st0" d="M456,75.5c2.7-19.7,8.3-25,13.4-31.1c-17.9-13,1.2-29.8,16.1-20.8c11.9,7.1,2.3,28.1-16.1,20.8"/>
<path class="st0" d="M380.9,77.7c-4.9-14.8-9.6-21.4-19.2-31.8c-18,5.8-26.5-18.8-13.8-24c17-7.2,27.1,17.6,13.8,24"/>
<path class="st0" d="M357.1,409.5"/>
<path class="st0" d="M372.6,334.8"/>
<path class="st0" d="M491.1,350.8c14.9,37.2,40.6,77.1,40.2,145"/>
<path class="st0" d="M399.9,357.6c6.6,62-23,66.6-17.1,152.3"/>
<path class="st0" d="M496.4,516.5c-6.7-1.6-12-1.2-17.3,0"/>
</svg>
