<?xml version="1.0" encoding="utf-8"?>
<!-- Generator: Adobe Illustrator 24.1.2, SVG Export Plug-In . SVG Version: 6.00 Build 0)  -->
<svg version="1.2" baseProfile="tiny" id="Layer_1" xmlns="http://www.w3.org/2000/svg" xmlns:xlink="http://www.w3.org/1999/xlink"
	 x="0px" y="0px" viewBox="0 0 1024 1024" overflow="visible" xml:space="preserve">
<path fill="none" stroke="#000000" stroke-miterlimit="10" d="M401.3,554.4c-2.5,15.9-4,49.5,18.9,43.6c25.5-6.6,14.2-42.5,27.9-40
	c10,1.8,91.4,18.4,106,0.4s0.6-58.4-37.6-68.6"/>
<path fill="none" stroke="#000000" stroke-miterlimit="10" d="M431.7,315.4c92.3-1.1,83.7-26.3,97-136.7
	c14-114.8,8.4-100.7-97-101.8C326.8,75.6,316,76,330.6,190.4C345.2,304.7,336.6,316.6,431.7,315.4z"/>
<path fill="none" stroke="#000000" stroke-miterlimit="10" d="M483,309.4c44.9,22.9,47.4,67.9,72.4,97.3c25.9,30.4,105,53.8,83.4,76
	c-17,17.5-52.2,6.2-72-7.3s-40.4-30.4-40.4-30.4"/>
<path fill="none" stroke="#000000" stroke-miterlimit="10" d="M405,510.1c-32.4-3.2-58.5,6.1-67.2,26.3
	c-10.1,23.4-16.3,61.9,6.3,56.6c15.9-3.7,25.9-19.9,37.2-33.2c11.3-13.3,83.2,5.9,97.2-22.7c12.5-25.5-21.1-45.9-45.4-50.6"/>
<path fill="none" stroke="#000000" stroke-miterlimit="10" d="M375.3,313.6c-33.6,70.6-31.2,154.3-21.4,204.7"/>
<path fill="none" stroke="#000000" stroke-miterlimit="10" d="M428.2,205.8c44.1-0.5,57.4,20.7,54.5,44.8
	c-3.2,26-0.2,44.4-50.8,42.1c-38.1-1.4-51.5-0.4-57-41.3C369.5,213.4,384.1,206.4,428.2,205.8z"/>
<path fill="none" stroke="#000000" stroke-miterlimit="10" d="M466,77c3.3-19.6,9-24.7,14.3-30.7c-17.5-13.5,2.1-29.8,16.7-20.3
	c11.7,7.5,1.5,28.2-16.7,20.3"/>
<path fill="none" stroke="#000000" stroke-miterlimit="10" d="M390.9,77c-4.5-14.9-9-21.7-18.2-32.4c-18.2,5.3-25.9-19.6-13.1-24.4
	c17.2-6.7,26.6,18.4,13.1,24.4"/>
<path fill="none" stroke="#000000" stroke-miterlimit="10" d="M357.1,409.5"/>
<path fill="none" stroke="#000000" stroke-miterlimit="10" d="M372.6,334.8"/>
<path fill="none" stroke="#000000" stroke-miterlimit="10" d="M491.1,350.8c14.9,37.2,40.6,77.1,40.2,145"/>
<path fill="none" stroke="#000000" stroke-miterlimit="10" d="M403.1,361.5c9.9,64.1-26.2,62.7-20.3,148.4"/>
<path fill="none" stroke="#000000" stroke-miterlimit="10" d="M496.4,516.5c-6.7-1.6-12-1.2-17.3,0"/>
</svg>
