<?xml version="1.0" encoding="utf-8"?>
<!-- Generator: Adobe Illustrator 24.1.2, SVG Export Plug-In . SVG Version: 6.00 Build 0)  -->
<svg version="1.1" id="Layer_1" xmlns="http://www.w3.org/2000/svg" xmlns:xlink="http://www.w3.org/1999/xlink" x="0px" y="0px"
	 viewBox="0 0 1024 1024" style="enable-background:new 0 0 1024 1024;" xml:space="preserve">
<style type="text/css">
	.st0{fill:none;stroke:#000000;stroke-miterlimit:10;}
</style>
<path class="st0" d="M530.8,517.7c-24.7,4.7-54.9,43.9-61.5,57c-6.6,13-0.6,29.3,13.8,45.8c14.3,16.5,31.6,38.3,43.9,18.2
	c13.7-22.5-19.4-40.4-7.8-48.1c8.4-5.7,73.4-31.4,75.7-54.6c2.4-23.1-38.3-63.1-69.8-45.9"/>
<path class="st0" d="M439.2,314c91.4-12.6,79.8-36.6,79.1-147.8c-0.5-115.6-4.3-101-109-88.9C305.1,89.2,294.5,91,323.3,202.6
	C352.1,314.2,345,327.1,439.2,314z"/>
<path class="st0" d="M478,306c44.9,22.9,52.4,71.3,77.4,100.7c25.9,30.4,105,53.8,83.4,76c-17,17.5-52.2,6.2-72-7.3
	S526.4,445,526.4,445"/>
<path class="st0" d="M425.1,524.9c-31.5,8.1-52.9,25.7-54.2,47.7c-1.5,25.4,5.8,63.7,25.3,51c13.7-8.9,17.5-27.6,23.6-43.9
	c6.1-16.4,80.2-22.9,83.6-54.6c3-28.2-35.5-35.9-60-32"/>
<path class="st0" d="M374.2,315.9c-33.6,70.6-30.1,152-20.3,202.4c7.7,30.3,28.3,26.1,38.3,17.7"/>
<path class="st0" d="M422,205.7c43.7-6,59.5,13.4,59.7,37.6c0.1,26.2,5.4,44.1-45.1,48.1c-38,3.4-51.1,6-61.7-33.8
	C364.7,220.6,378.4,211.8,422,205.7z"/>
<path class="st0" d="M443.4,73.2c0.8-19.9,5.8-25.6,10.3-32.2c-19.1-11.2-1.6-29.8,14-22.2c12.5,6,5,27.8-14,22.2"/>
<path class="st0" d="M368.9,82.6c-6.3-14.2-11.6-20.4-22.1-29.9c-17.4,7.5-28.1-16.2-16-22.6c16.2-8.8,28.7,14.9,16,22.6"/>
<path class="st0" d="M357.1,409.5"/>
<path class="st0" d="M372.6,334.8"/>
<path class="st0" d="M491.1,350.8c14.9,37.2,37.7,68.4,39.6,136.8"/>
<path class="st0" d="M403.1,361.5c9.9,64.1-26,68.8-20.3,148.4c1.1,15.5,7.1,27,12.3,27.4"/>
</svg>
