<?xml version="1.0" encoding="utf-8"?>
<!-- Generator: Adobe Illustrator 24.1.2, SVG Export Plug-In . SVG Version: 6.00 Build 0)  -->
<svg version="1.1" id="Layer_1" xmlns="http://www.w3.org/2000/svg" xmlns:xlink="http://www.w3.org/1999/xlink" x="0px" y="0px"
	 viewBox="0 0 1024 1024" style="enable-background:new 0 0 1024 1024;" xml:space="preserve">
<style type="text/css">
	.st0{fill:none;stroke:#000000;stroke-miterlimit:10;}
</style>
<path class="st0" d="M512.8,524.2c-14.7,24.5-6.7,90.9-4.6,105.4c2.1,14.5,16.5,24.3,37.7,29.4c21.2,5.2,47.9,13,46.3-10.5
	c-1.8-26.3-39.2-21.8-34.2-34.8c3.6-9.5,20.9-56.1,20.5-82.9c-0.4-25.7-27.2-50.2-59.6-40.4"/>
<path class="st0" d="M439.7,313.1c90.9-16.1,78.3-39.6,73.5-150.7c-4.9-115.5-8.1-100.7-112.3-84.7
	c-103.7,15.8-114.3,17.9-81.3,128.4C352.6,316.6,346,329.8,439.7,313.1z"/>
<path class="st0" d="M476.3,304.3c44.9,22.9,54.1,73,79.1,102.4c25.9,30.4,105,53.8,83.4,76c-17,17.5-52.2,6.2-72-7.3
	S526.4,445,526.4,445"/>
<path class="st0" d="M415.4,528.8c-22.8,23.3-21.5,56.1-11.2,75.5c11.9,22.5,38.1,51.5,48.1,30.5c7.1-14.7,0.7-32.7-2.6-49.8
	c-3.3-17.1,56.7-61.2,43.1-90c-12.1-25.7-43.5-19.5-62.4-3.5"/>
<path class="st0" d="M373.6,317.2c-33.6,70.6-29.5,150.7-19.7,201.1c7.7,30.3,28.3,26.1,38.3,17.7"/>
<path class="st0" d="M418.4,205.6c43.4-7.7,60,11.1,61.1,35.3c1.1,26.2,7,43.8-43.3,49.8c-37.8,4.8-50.9,8-63-31.5
	C361.7,222.6,375,213.3,418.4,205.6z"/>
<path class="st0" d="M434.7,72.3c0.1-19.9,4.9-25.8,9.1-32.6C424.4,29.2,441.1,10,457,17c12.8,5.5,6.1,27.6-13.2,22.7"/>
<path class="st0" d="M360.6,84.5c-6.9-14-12.4-19.9-23.2-29c-17.1,8.2-28.7-15.1-16.9-21.9c15.9-9.4,29.2,13.8,16.9,21.9"/>
<path class="st0" d="M357.1,409.5"/>
<path class="st0" d="M372.6,334.8"/>
<path class="st0" d="M491.1,350.8c14.9,37.2,37.7,68.4,39.6,136.8"/>
<path class="st0" d="M403.1,361.5c9.9,64.1-26,68.8-20.3,148.4c1.1,15.5,6.6,32.2,23.6,30.4"/>
<path class="st0" d="M478,540.5c12,0.5,24.1-0.8,30.6-6.2"/>
</svg>
