<?xml version="1.0" encoding="utf-8"?>
<!-- Generator: Adobe Illustrator 24.1.2, SVG Export Plug-In . SVG Version: 6.00 Build 0)  -->
<svg version="1.2" baseProfile="tiny" id="Layer_1" xmlns="http://www.w3.org/2000/svg" xmlns:xlink="http://www.w3.org/1999/xlink"
	 x="0px" y="0px" viewBox="0 0 1024 1024" overflow="visible" xml:space="preserve">
<path fill="none" stroke="#000000" stroke-miterlimit="10" d="M438.1,320.4c89.6-22.1,75.5-44.7,63.3-155.2
	c-12.5-115-14.8-100-117.6-77c-102.4,22.6-112.9,25.5-72.6,133.5C351.5,329.7,345.8,343.3,438.1,320.4z"/>
<path fill="none" stroke="#000000" stroke-miterlimit="10" d="M476.3,308.3c44.4,18.5,51.7,69.9,79.1,98.4
	c25.9,30.4,105,53.8,83.4,76c-17,17.5-52.2,6.2-72-7.3s-37.8-29-37.8-29"/>
<path fill="none" stroke="#000000" stroke-miterlimit="10" d="M371.4,328.7c-30.4,72-26.7,148.2-14.7,198.1
	c9.8,26.9,37.6,17.4,41.3,7.5"/>
<path fill="none" stroke="#000000" stroke-miterlimit="10" d="M409.8,214.5c42.8-10.5,60.6,7.1,63.3,31.2c2.8,26,9.9,43.3-39.9,52.6
	c-37.4,7.3-50.2,11.3-64.9-27.2C354.3,235.3,367,225.1,409.8,214.5z"/>
<path fill="none" stroke="#000000" stroke-miterlimit="10" d="M417.2,80.5c-1.3-19.8,3.1-26.1,6.9-33.2
	c-20.1-9.2-4.7-29.5,11.6-23.6c13.1,4.6,7.9,27.1-11.6,23.6"/>
<path fill="none" stroke="#000000" stroke-miterlimit="10" d="M344.1,97.6c-7.8-13.5-13.7-19.1-25.1-27.4
	c-16.5,9.3-29.7-13.2-18.3-20.8C315.9,39,330.8,61.3,319,70.2"/>
<path fill="none" stroke="#000000" stroke-miterlimit="10" d="M359.6,420.2"/>
<path fill="none" stroke="#000000" stroke-miterlimit="10" d="M371.8,344.9"/>
<path fill="none" stroke="#000000" stroke-miterlimit="10" d="M490.9,355.6c28.2,51.8,39.1,97.6,53,134
	c7.6,19.9,16.8,44.5,22.8,62.7c8.3,25.5,14.4,50,22.9,69.5c6.5,14.8,25.3,16.6,35.3,40.9c9,21.9-17.4,24.3-38.5,18.6
	c-21.4-5.8-36.2-17.2-42.8-30.3c-6.6-13.1-32.7-75.1-36.6-107.3"/>
<path fill="none" stroke="#000000" stroke-miterlimit="10" d="M403.5,370.2c12.7,63.6-28.7,71.6-11.4,149.5
	c3.3,14.9,14.6,31.2,33.8,28c10.8-1.8,18.3,18.3,19.4,50.1c1.1,32,9,59.5,23.7,74.9s44.6,26.6,56.3,10.8
	c9.3-12.5-7.1-34.6-15.6-49.5c-8.4-14.9,6-91.9-19.9-113.7"/>
<path fill="none" stroke="#000000" stroke-miterlimit="10" d="M502.5,544.3c3.3,0,8.9-1.3,13.7-3.9"/>
</svg>
