<?xml version="1.0" encoding="utf-8"?>
<!-- Generator: Adobe Illustrator 24.1.2, SVG Export Plug-In . SVG Version: 6.00 Build 0)  -->
<svg version="1.2" baseProfile="tiny" id="Layer_1" xmlns="http://www.w3.org/2000/svg" xmlns:xlink="http://www.w3.org/1999/xlink"
	 x="0px" y="0px" viewBox="0 0 1024 1024" overflow="visible" xml:space="preserve">
<path fill="none" stroke="#000000" stroke-miterlimit="10" d="M438.5,337.8c88.9-24.8,74.1-46.9,58.6-157.1
	c-16-114.5-17.8-99.5-119.9-73.4c-101.7,25.7-112,28.9-68.5,135.7C352.2,349.7,346.9,363.4,438.5,337.8z"/>
<path fill="none" stroke="#000000" stroke-miterlimit="10" d="M476.3,324.5c44.9,17.1,47.8,57.4,76,85.1
	c30.3,28.1,107.6,50.4,86.7,73.2c-16.5,18-48.4,7.8-68.6-5.1c-20.2-12.9-42.9-31.7-42.9-31.7"/>
<path fill="none" stroke="#000000" stroke-miterlimit="10" d="M372.1,348.1c-32.8,54.1-42.7,98.5-15.4,180.1
	c10.6,26.6,48.1,23.8,38-13.5"/>
<path fill="none" stroke="#000000" stroke-miterlimit="10" d="M407,232.7c42.5-11.8,60.8,5.2,64.2,29.3c3.6,25.9,11.2,43-38.3,53.8
	c-37.2,8.4-49.9,12.9-65.7-25.2C352.2,255.2,364.5,244.7,407,232.7z"/>
<path fill="none" stroke="#000000" stroke-miterlimit="10" d="M410.3,98.6c-1.9-19.8,2.3-26.2,5.9-33.3
	c-20.4-8.5-5.6-29.3,10.9-23.9c13.2,4.2,8.7,26.9-10.9,23.9"/>
<path fill="none" stroke="#000000" stroke-miterlimit="10" d="M337.8,117.9c-8.2-13.2-14.3-18.7-25.9-26.6
	c-16.2,9.8-30.1-12.3-18.9-20.2c14.9-10.9,30.4,10.9,18.9,20.2"/>
<path fill="none" stroke="#000000" stroke-miterlimit="10" d="M363.1,439.9"/>
<path fill="none" stroke="#000000" stroke-miterlimit="10" d="M373,364.2"/>
<path fill="none" stroke="#000000" stroke-miterlimit="10" d="M492.3,371.3c29.7,50.9,42,96.4,57,132.3c8.2,19.6,18.2,43.9,24.7,62
	c9.1,25.2,15.9,49.6,25,68.7c6.9,14.6,25.8,15.8,36.6,39.8c9.7,21.6-16.7,24.8-37.9,19.8c-21.6-5.1-36.7-16.1-43.7-29
	c-7-12.9-34.2-74.2-39-106.2"/>
<path fill="none" stroke="#000000" stroke-miterlimit="10" d="M396.6,384c5.6,60.7-22,90.9,8.4,160.5c15.1,34.7,38.6,12.9,52.1,86.9
	c5.7,31.5,10.8,59.2,25.9,74.1c15.1,14.9,45.3,25.2,56.6,9.1c8.9-12.7-8.2-34.4-17.1-49c-8.9-14.7-7.9-78.4-13.4-105.4"/>
<path fill="none" stroke="#000000" stroke-miterlimit="10" d="M502.8,560.4c6.3,0.8,15.7-2.4,20.5-5.2"/>
</svg>
