<?xml version="1.0" encoding="utf-8"?>
<!-- Generator: Adobe Illustrator 24.1.2, SVG Export Plug-In . SVG Version: 6.00 Build 0)  -->
<svg version="1.1" id="Layer_1" xmlns="http://www.w3.org/2000/svg" xmlns:xlink="http://www.w3.org/1999/xlink" x="0px" y="0px"
	 viewBox="0 0 1024 1024" style="enable-background:new 0 0 1024 1024;" xml:space="preserve">
<style type="text/css">
	.st0{fill:none;stroke:#000000;stroke-miterlimit:10;}
</style>
<path class="st0" d="M449.1,377.3c88.2-27.2,72.8-48.9,54.4-158.6c-19-114.1-20.4-99-121.8-70.2c-101,28.4-111.2,31.9-64.9,137.5
	C363.1,391.5,358.2,405.4,449.1,377.3z"/>
<path class="st0" d="M491.1,360.5c37.1,20.7,51,72.1,68.5,82.8c17.5,10.7,84.5,11.6,83,29.8c-1.5,18.2-32.1,20.8-56,19.1
	c-24.2-1.7-45.6-9.2-45.6-9.2"/>
<path class="st0" d="M376.4,387.6c-35.5,30.4-41.9,91.1-25.1,132.2c14.7,36,53.1,34.1,40.4-2.4c-9-26.1-11.7-73.3,10.1-87.5
	c-3.5,31.6-7.3,75.9,21,146.4c14.3,35.8,37.3,20.4,52.7,94.1c6.6,31.4,12.4,58.9,27.9,73.4c15.5,14.5,46,24,56.8,7.6
	c8.5-13-9.1-34.1-18.4-48.6c-9.3-14.4-10-78.1-16.2-105"/>
<path class="st0" d="M414.8,273.2c42.2-13,60.9,3.6,64.9,27.6c4.3,25.8,12.4,42.6-36.8,54.8c-36.9,9.4-49.5,14.2-66.4-23.5
	C360.6,297.1,372.6,286.2,414.8,273.2z"/>
<path class="st0" d="M414.6,138.9c-2.4-19.7,1.6-26.2,5-33.5c-20.6-8-6.4-29.2,10.3-24.2c13.3,3.9,9.4,26.6-10.3,24.2"/>
<path class="st0" d="M342.5,160.2c-8.5-13-14.8-18.3-26.6-25.9c-16,10.2-30.4-11.5-19.5-19.7c14.6-11.3,30.7,10.1,19.5,19.7"/>
<path class="st0" d="M376.4,481.4"/>
<path class="st0" d="M384.3,405.5"/>
<path class="st0" d="M503.8,409.4c31.1,50.1,44.6,95.2,60.5,130.8c8.7,19.4,19.3,43.4,26.3,61.3c9.8,25,17.2,49.1,26.8,68.1
	c7.3,14.4,26.2,15.1,37.6,38.9c10.2,21.3-16,25.2-37.4,20.8c-21.7-4.5-37.1-15.2-44.5-27.8s-36.1-73.2-41.8-105.1"/>
<path class="st0" d="M519.3,598.2c6.3,0.6,15.7-2.8,20.3-5.8"/>
</svg>
