<?xml version="1.0" encoding="utf-8"?>
<!-- Generator: Adobe Illustrator 24.1.2, SVG Export Plug-In . SVG Version: 6.00 Build 0)  -->
<svg version="1.2" baseProfile="tiny" id="Layer_1" xmlns="http://www.w3.org/2000/svg" xmlns:xlink="http://www.w3.org/1999/xlink"
	 x="0px" y="0px" viewBox="0 0 1024 1024" overflow="visible" xml:space="preserve">
<path fill="none" stroke="#000000" stroke-miterlimit="10" d="M470.1,439.6c87.3-30.1,71.2-51.3,49-160.3
	c-22.9-113.4-23.7-98.2-124.1-66.1c-100,31.8-110.1,35.6-60.2,139.6C384.6,456.7,380.2,470.7,470.1,439.6z"/>
<path fill="none" stroke="#000000" stroke-miterlimit="10" d="M511.5,421.4c63.2,32.8,61.8,86.8,69.1,81.6
	c5.8-4.1,38.2-55.4,58.4-37c16.8,15.3-19,80-65.2,90.7"/>
<path fill="none" stroke="#000000" stroke-miterlimit="10" d="M406.2,520.8c2.7,38.1,15.4,63.5,43,107.5
	c16.7,26.6,39.1,30.2,56.9,103.3c7.6,31.1,14.4,58.4,30.3,72.4c16,14,46.8,22.4,57,5.7c8.1-13.2-10.2-33.8-20-47.9
	c-9.8-14.1-12.6-77.8-19.7-104.4"/>
<path fill="none" stroke="#000000" stroke-miterlimit="10" d="M387.1,446.6c-17,16.5-15.2,32.2-22.1,42.6
	c-13.5,20.3-44,17.1-43.9,40.9c0.1,23.9,29.7,19.4,51.4,13.3c17.5-4.9,49.3-31.8,50.8-51.4"/>
<path fill="none" stroke="#000000" stroke-miterlimit="10" d="M432.2,336.7c41.7-14.4,61,1.6,65.8,25.4c5.1,25.7,13.8,42.2-35,56
	c-36.6,10.7-49,15.8-67.1-21.3C378.9,362.4,390.6,351.1,432.2,336.7z"/>
<path fill="none" stroke="#000000" stroke-miterlimit="10" d="M427.6,202.5c-3-19.6-4.6-25.7-3.5-33.6c-20.9-7.3-7.4-28.9,9.5-24.5
	c13.5,3.4,10.3,26.3-9.5,24.5"/>
<path fill="none" stroke="#000000" stroke-miterlimit="10" d="M356.3,226.2c-9-12.7-11.8-21.6-21.8-31.6
	c-15.6,10.8-30.8-10.4-20.1-19c14.2-11.8,31,9.1,20.1,19"/>
<path fill="none" stroke="#000000" stroke-miterlimit="10" d="M400.9,546"/>
<path fill="none" stroke="#000000" stroke-miterlimit="10" d="M406.2,469.9"/>
<path fill="none" stroke="#000000" stroke-miterlimit="10" d="M525.8,469.9c39.2,45.5,47.7,93.7,64.9,128.7
	c9.4,19.1,20.8,42.8,28.4,60.4c10.6,24.6,18.8,48.5,29.1,67.1c7.8,14.1,26.7,14.2,38.9,37.6c10.9,21-15.1,25.8-36.7,22
	c-21.9-3.8-37.6-13.9-45.4-26.3c-7.8-12.4-38.6-72-45.3-103.7"/>
<path fill="none" stroke="#000000" stroke-miterlimit="10" d="M547.6,658c6.4,0.4,15.6-3.4,20.1-6.5"/>
</svg>
