<?xml version="1.0" encoding="utf-8"?>
<!-- Generator: Adobe Illustrator 24.1.2, SVG Export Plug-In . SVG Version: 6.00 Build 0)  -->
<svg version="1.2" baseProfile="tiny" id="Layer_1" xmlns="http://www.w3.org/2000/svg" xmlns:xlink="http://www.w3.org/1999/xlink"
	 x="0px" y="0px" viewBox="0 0 1024 1024" overflow="visible" xml:space="preserve">
<path fill="none" stroke="#000000" stroke-miterlimit="10" d="M503.9,527c86.1-33.3,69.2-53.9,43-162
	c-27.1-112.4-27.4-97.3-126.5-61.4c-98.7,35.5-108.7,39.7-55,141.7C419.1,547.3,415.2,561.5,503.9,527z"/>
<path fill="none" stroke="#000000" stroke-miterlimit="10" d="M544.5,507.3c54.7,17.5,60.4,61.2,59,52.4
	c-7.7-50.3,14.6-110.8,35.5-93.1c17.3,14.7,32.6,165.7-32.3,147.6"/>
<path fill="none" stroke="#000000" stroke-miterlimit="10" d="M434.5,543c-13.5,41.1-65.4-54-103.4-30.4c-27.3,17,32.8,65.1,51,75.2
	c23.8,13.1,59.3,16.3,70.3,33.1c11,16.8,15.9,58.3,45.1,101.3c17.7,25.9,34,37.7,53.3,95.2c10.2,30.4,16.5,57.9,33,71.2
	c16.5,13.4,47.6,20.7,57.2,3.6c7.6-13.5-11.5-33.4-21.8-47.2c-10.3-13.7-15.5-77.2-23.5-103.6"/>
<path fill="none" stroke="#000000" stroke-miterlimit="10" d="M462.2,425.6c41.1-15.9,61-0.7,66.7,22.9
	c6.1,25.5,15.4,41.7-32.9,57.2c-36.2,12-48.4,17.7-67.9-18.7C409.9,453.3,421.1,441.6,462.2,425.6z"/>
<path fill="none" stroke="#000000" stroke-miterlimit="10" d="M452.5,291.7c-3.8-19.5-7.1-25-8-32.8c-15,1.9-19.8-36.7-2.8-32.9
	c13.6,2.9,20.2,31.5,2.8,32.9"/>
<path fill="none" stroke="#000000" stroke-miterlimit="10" d="M382.2,318c-7.2-19.7-7.3-26-10.1-38.6c-15.8,5.8-21.9-26-9.8-31.3
	c14.8-7.6,24.7,27.7,9.8,31.3"/>
<path fill="none" stroke="#000000" stroke-miterlimit="10" d="M438.7,636"/>
<path fill="none" stroke="#000000" stroke-miterlimit="10" d="M441.2,559.7"/>
<path fill="none" stroke="#000000" stroke-miterlimit="10" d="M570.3,551.3c40.9,44,41.5,95.7,60,130c10.1,18.7,22.4,42,30.6,59.3
	c11.5,24.2,20.6,47.8,31.6,66c8.3,13.8,27.2,13.2,40.3,36.1c11.7,20.5-14.2,26.3-35.8,23.4c-22-3-38.1-12.5-46.3-24.6
	c-8.2-12.1-41.2-70.5-49.2-101.9"/>
<path fill="none" stroke="#000000" stroke-miterlimit="10" d="M589.5,742.4c6.4,0.2,15.4-4,19.9-7.2"/>
</svg>
