<?xml version="1.0" encoding="utf-8"?>
<!-- Generator: Adobe Illustrator 24.1.2, SVG Export Plug-In . SVG Version: 6.00 Build 0)  -->
<svg version="1.2" baseProfile="tiny" id="Layer_1" xmlns="http://www.w3.org/2000/svg" xmlns:xlink="http://www.w3.org/1999/xlink"
	 x="0px" y="0px" viewBox="0 0 1024 1024" overflow="visible" xml:space="preserve">
<path fill="none" stroke="#000000" stroke-miterlimit="10" d="M525.7,649.1c86.1-33.3,69.2-53.9,43-162
	c-27.1-112.4-27.4-97.3-126.5-61.4c-98.7,35.5-108.7,39.7-55,141.7C441,669.4,437.1,683.6,525.7,649.1z"/>
<path fill="none" stroke="#000000" stroke-miterlimit="10" d="M430.3,645.8c-18.2-17-59.2-114-97.2-90.4
	c-27.3,17,55.7,133.6,71,147.7c24.2,22.3,49.9,22.5,60.8,39.3c11,16.8,25.3,59,54.5,101.9"/>
<path fill="none" stroke="#000000" stroke-miterlimit="10" d="M484.1,547.7c41.1-15.9,61-0.7,66.7,22.9
	c6.1,25.5,15.4,41.7-32.9,57.2c-36.2,12-48.4,17.7-67.8-18.7C431.8,575.4,443,563.7,484.1,547.7z"/>
<path fill="none" stroke="#000000" stroke-miterlimit="10" d="M474.4,413.8c-3.8-19.5-4.3-25.6-5.2-33.3c-15,1.9-19.9-48-2.9-44.2
	c13.6,2.9,20.3,42.8,2.9,44.2"/>
<path fill="none" stroke="#000000" stroke-miterlimit="10" d="M404.1,440.1c-7.2-19.7-7.4-27.3-7.7-39.9c-15.8,5.8-16.7-34.7-4.6-40
	c14.8-7.6,19.5,36.4,4.6,40"/>
<path fill="none" stroke="#000000" stroke-miterlimit="10" d="M460.6,758.1"/>
<path fill="none" stroke="#000000" stroke-miterlimit="10" d="M463.1,681.8"/>
<path fill="none" stroke="#000000" stroke-miterlimit="10" d="M589.9,587.1c6-50.6,20.2-137.9,45.1-123.6
	c26.9,15.5,27,159.9-3.8,199.6c-14.2,18.3-5.7,53.8,2.3,77.5"/>
</svg>
