<?xml version="1.0" encoding="utf-8"?>
<!-- Generator: Adobe Illustrator 24.1.2, SVG Export Plug-In . SVG Version: 6.00 Build 0)  -->
<svg version="1.2" baseProfile="tiny" id="Layer_1" xmlns="http://www.w3.org/2000/svg" xmlns:xlink="http://www.w3.org/1999/xlink"
	 x="0px" y="0px" viewBox="0 0 1024 1024" overflow="visible" xml:space="preserve">
<path fill="none" stroke="#000000" stroke-miterlimit="10" d="M553.9,783.5c86.1-33.3,69.2-53.9,43-162
	c-27.1-112.4-27.4-97.3-126.5-61.4c-98.7,35.5-108.7,39.7-55,141.7C469.2,803.7,465.3,817.9,553.9,783.5z"/>
<path fill="none" stroke="#000000" stroke-miterlimit="10" d="M411.9,694.9c-8.3-10.8-21.2-19.6-37.3-11.8
	C346,696.9,411.8,812,438.7,835.4c24.8,21.6,46.3,33.1,57.3,49.8s22.4,50.5,51.7,93.5"/>
<path fill="none" stroke="#000000" stroke-miterlimit="10" d="M512.3,682c41.1-15.9,61-0.7,66.7,22.9c6.1,25.5,15.4,41.7-32.9,57.2
	c-36.2,12-48.4,17.7-67.9-18.7C460,709.7,471.2,698,512.3,682z"/>
<path fill="none" stroke="#000000" stroke-miterlimit="10" d="M502.6,548.2c-3.8-19.5-4.3-25.6-5.2-33.3c-15,1.9-19.9-48-2.9-44.2
	c13.6,2.9,20.3,42.8,2.9,44.2"/>
<path fill="none" stroke="#000000" stroke-miterlimit="10" d="M432.3,574.4c-7.2-19.7-7.4-27.3-7.7-39.9c-15.8,5.8-16.7-34.7-4.6-40
	c14.8-7.6,19.5,36.4,4.6,40"/>
<path fill="none" stroke="#000000" stroke-miterlimit="10" d="M460.6,758.1"/>
<path fill="none" stroke="#000000" stroke-miterlimit="10" d="M491.3,816.2"/>
<path fill="none" stroke="#000000" stroke-miterlimit="10" d="M612.2,682.7c-2.7-52.2-16.6-94.8,27.7-92.2
	c42.2,2.5,26.1,155.1,14.9,204.1c-6.2,26.9-1,56.5,6.9,80.3"/>
</svg>
