<?xml version="1.0" encoding="utf-8"?>
<!-- Generator: Adobe Illustrator 24.1.2, SVG Export Plug-In . SVG Version: 6.00 Build 0)  -->
<svg version="1.2" baseProfile="tiny" id="Layer_1" xmlns="http://www.w3.org/2000/svg" xmlns:xlink="http://www.w3.org/1999/xlink"
	 x="0px" y="0px" viewBox="0 0 1024 1024" overflow="visible" xml:space="preserve">
<path fill="none" stroke="#000000" stroke-miterlimit="10" d="M365.7,491.1c-18.6,30.6,30.3,82.4,27,114
	c-1.6,15.5-27.4,26-23.1,48.5c3.6,18.5,63.8-10.2,66.3-26.4c4.2-26.8-4-77.2-10-96.6"/>
<path fill="none" stroke="#000000" stroke-miterlimit="10" d="M438,315.5c84.1-37.9,62.9-56.8,31-163.2
	c-33.2-111-32.9-101.1-126.2-52S232.8,143.2,292,242.2S351.4,354.6,438,315.5z"/>
<path fill="none" stroke="#000000" stroke-miterlimit="10" d="M463.9,335.9c10.9,19.2,11.5,41.5,9.4,61.6
	c-2.5,24.3-6.2,52.8-24.4,67.3c-20,15.8-86.5,28.9-110.2,29.4c-22.1,0.4-29.1-16.9-25.5-28.1c8-25,94.3-5.4,93-45.4
	c-0.7-20.7,0.4-52.1,5.7-68.2"/>
<path fill="none" stroke="#000000" stroke-miterlimit="10" d="M328.5,492.8c-22.8,15.4,3.4,70.3,19.2,106.3
	c9.9,22.6,21.1,39.7,20.2,47.8c-2.3,7.2-32.7,20.9-29,35.7c4,15.8,76-14.8,71.7-33.3"/>
<path fill="none" stroke="#000000" stroke-miterlimit="10" d="M371.8,335.8c-7.4,19.8-9,93.2-6.9,112.8"/>
<path fill="none" stroke="#000000" stroke-miterlimit="10" d="M378.9,221.9c40.2-18.1,60.9-4,67.9,19.3c7.5,25.1,20.8,40-26.4,58
	c-35.5,14-47.4,20.2-68.8-14.9C331.4,251.4,338.8,240,378.9,221.9z"/>
<path fill="none" stroke="#000000" stroke-miterlimit="10" d="M371.2,85.2c-4.8-19.3-1.6-26.3,0.9-33.9c-21.5-5.5-6.8-29,10.3-26.2
	c13.6,2.2,9.3,26-10.3,26.2"/>
<path fill="none" stroke="#000000" stroke-miterlimit="10" d="M307.1,118.6c-10-11.9-16.9-16.2-29.7-22.3
	c-14.6,12.2-31.5-7.5-21.8-17.1c13.1-13,31.7,6.2,21.8,17.1"/>
<path fill="none" stroke="#000000" stroke-miterlimit="10" d="M357.1,409.5"/>
<path fill="none" stroke="#000000" stroke-miterlimit="10" d="M372.6,334.8"/>
<path fill="none" stroke="#000000" stroke-miterlimit="10" d="M431.6,554.9c19,0.2,83.3-20.8,88.5-62.5c5.7-46-5.9-91.8-22.2-129
	c-13.9-31.8-25.6-50.6-37.8-58.8"/>
<path fill="none" stroke="#000000" stroke-miterlimit="10" d="M369.6,345.8c-4.8,16.1-9.8,36.3-15.1,44.2
	c-20.4,30.4-76.1,19.5-81.4,43.4c-3.8,17,20.6,23.4,34.4,20.2c14.2-3.3,43.6-10.7,56.7-25.4"/>
</svg>
