<?xml version="1.0" encoding="utf-8"?>
<!-- Generator: Adobe Illustrator 24.1.2, SVG Export Plug-In . SVG Version: 6.00 Build 0)  -->
<svg version="1.2" baseProfile="tiny" id="Layer_1" xmlns="http://www.w3.org/2000/svg" xmlns:xlink="http://www.w3.org/1999/xlink"
	 x="0px" y="0px" viewBox="0 0 1024 1024" overflow="visible" xml:space="preserve">
<path fill="none" stroke="#000000" stroke-miterlimit="10" d="M443.5,424.9c0,0-34.5-18.5-52.2,15c-11.6,22,6,97.5,2.7,129.1
	c-1.6,15.5-27.4,26-23.1,48.5c3.6,18.5,60-11.2,66.3-26.4c11.9-28.5,8.1-42.2,8.1-63.3"/>
<path fill="none" stroke="#000000" stroke-miterlimit="10" d="M431.9,314.2c86.8-31.3,67.1-51.8,43.5-160.3
	c-24.5-113.2-25-103.4-121.8-61.6s-113,34.2-61.6,137.5S342.7,346.5,431.9,314.2z"/>
<path fill="none" stroke="#000000" stroke-miterlimit="10" d="M466.7,322.7c16.5,20.1,28.5,49,30.9,67.1c3.2,24.3,8,42,1,67.2
	c-7,25.3-43.6,72.8-65.5,76.2c-23.1,3.6-34.7-9.6-32-21.1c4.5-19.8,40.6-28.8,46.3-68.4c2.8-19.3-29.6-57-26.1-90.2"/>
<path fill="none" stroke="#000000" stroke-miterlimit="10" d="M373.1,329.7c-7.4,19.8-10,106.1-8,125.7s-35.7,28.1-44,47.2
	c-8.6,19.9,10.8,60.5,26.6,96.5c9.9,22.6,21.1,39.7,20.2,47.8c-0.8,7-31.4,21.8-25.7,35.6c6.2,15.1,67.2-13.7,67.3-30.5
	c0-16.2-2.3-26.5-4.5-36"/>
<path fill="none" stroke="#000000" stroke-miterlimit="10" d="M382,215.3c41.5-14.9,61,0.7,66.3,24.5c5.6,25.6,17.7,41.5-30.8,55.8
	c-36.5,11.2-48.8,16.5-67.5-20.2C332.5,241,340.7,230.2,382,215.3z"/>
<path fill="none" stroke="#000000" stroke-miterlimit="10" d="M383.1,79.4c-3.3-19.6,0.4-26.3,3.5-33.7c-21-7.1-4.6-29.4,12.3-25.4
	c13.4,3.2,7.3,26.6-12.3,25.4"/>
<path fill="none" stroke="#000000" stroke-miterlimit="10" d="M316.6,107.8c-9-12.7-15.6-17.5-27.9-24.6
	c-15.5,11-30.9-9.9-20.4-18.8c14.1-12,31.1,8.7,20.4,18.8"/>
<path fill="none" stroke="#000000" stroke-miterlimit="10" d="M357.1,409.5"/>
<path fill="none" stroke="#000000" stroke-miterlimit="10" d="M372.6,334.8"/>
<path fill="none" stroke="#000000" stroke-miterlimit="10" d="M444.3,565.9c16.2,5.2,62.3-23.7,70.6-64.8
	c9.2-45.7,3.5-101.3-12.8-138.4c-13.9-31.8-31.6-54.4-44.5-58.9"/>
<path fill="none" stroke="#000000" stroke-miterlimit="10" d="M371.4,335.9c-5.7,12.2-14.7,44.6-17.4,56
	c-8.4,35.6-52,51.3-55.7,73.2c-2.9,17.2,18.7,20.3,31.5,15.3c11.6-4.5,24.8-19.4,34.7-37.1"/>
</svg>
